<?xml version="1.0" encoding="utf-8"?>
<!-- Generator: Adobe Illustrator 23.1.1, SVG Export Plug-In . SVG Version: 6.00 Build 0)  -->
<svg version="1.1" xmlns="http://www.w3.org/2000/svg" xmlns:xlink="http://www.w3.org/1999/xlink" x="0px" y="0px"
	 viewBox="0 0 1051 242" style="enable-background:new 0 0 1051 242;" xml:space="preserve">
<style type="text/css">
	.st0{fill:#FFFFFF;}
	.st1{fill:none;stroke:#FFFFFF;stroke-width:7.233;stroke-linecap:round;stroke-linejoin:round;stroke-miterlimit:10;}
	.st2{fill:#E32A2C;}
	.st3{fill:#ED7225;}
	.st4{fill:#F49C24;}
</style>
<g id="Layer_1">
	<g>
		<g>
			<g>
				<path class="st0" d="M603,218.9c-0.3-0.4-0.6-0.8-0.9-1.1c-0.4-0.3-0.8-0.5-1.3-0.6c-0.5-0.1-1-0.2-1.6-0.2
					c-0.6,0-1.2,0.1-1.7,0.2c-0.5,0.2-1,0.4-1.4,0.7c-0.4,0.3-0.8,0.6-1.1,1.1s-0.5,0.8-0.7,1.3s-0.3,1-0.4,1.5
					c-0.1,0.5-0.1,1.1-0.1,1.6c0,0.9,0.1,1.8,0.3,2.6c0.2,0.8,0.5,1.5,1,2.1c0.4,0.6,1,1.1,1.7,1.4s1.5,0.5,2.5,0.5
					c0.7,0,1.3-0.1,1.9-0.3c0.5-0.2,1-0.6,1.4-1s0.7-0.9,0.9-1.5c0.2-0.6,0.3-1.2,0.4-1.9h3.1c-0.1,1.2-0.4,2.2-0.8,3.1
					c-0.4,0.9-0.9,1.7-1.6,2.3s-1.4,1.1-2.4,1.4c-0.9,0.3-2,0.5-3.1,0.5c-0.9,0-1.8-0.1-2.6-0.3c-0.8-0.2-1.5-0.5-2.1-0.9
					c-0.6-0.4-1.2-0.9-1.6-1.4c-0.5-0.5-0.9-1.2-1.2-1.8c-0.3-0.7-0.5-1.4-0.7-2.2c-0.2-0.8-0.2-1.6-0.2-2.5c0-0.9,0.1-1.7,0.2-2.5
					c0.2-0.8,0.4-1.5,0.7-2.2s0.7-1.3,1.2-1.9c0.5-0.6,1-1,1.7-1.4c0.6-0.4,1.3-0.7,2.1-0.9s1.7-0.3,2.6-0.3c1,0,1.9,0.1,2.7,0.4
					c0.8,0.3,1.6,0.6,2.2,1.1c0.7,0.5,1.2,1.1,1.6,1.9c0.4,0.8,0.7,1.6,0.9,2.7h-3.2C603.4,219.9,603.2,219.3,603,218.9z"/>
				<path class="st0" d="M608.4,226c0-0.9,0.1-1.8,0.4-2.7c0.3-0.8,0.7-1.5,1.2-2.1c0.5-0.6,1.2-1.1,2-1.4c0.8-0.3,1.8-0.5,2.9-0.5
					c1.1,0,2,0.2,2.8,0.5c0.8,0.3,1.5,0.8,2,1.4c0.5,0.6,1,1.3,1.2,2.1s0.4,1.7,0.4,2.7c0,0.9-0.1,1.8-0.4,2.6s-0.7,1.5-1.2,2.1
					c-0.5,0.6-1.2,1.1-2,1.4c-0.8,0.3-1.8,0.5-2.8,0.5c-1.1,0-2-0.2-2.9-0.5c-0.8-0.3-1.5-0.8-2-1.4c-0.5-0.6-1-1.3-1.2-2.1
					C608.5,227.9,608.4,227,608.4,226z M611.4,226c0,0.7,0.1,1.3,0.3,1.8c0.2,0.5,0.4,0.9,0.7,1.3c0.3,0.3,0.7,0.6,1.1,0.8
					s0.9,0.3,1.4,0.3c0.5,0,0.9-0.1,1.3-0.3c0.4-0.2,0.8-0.4,1.1-0.8c0.3-0.3,0.6-0.8,0.8-1.3s0.3-1.1,0.3-1.8
					c0-0.7-0.1-1.2-0.3-1.8c-0.2-0.5-0.4-1-0.8-1.3c-0.3-0.4-0.7-0.6-1.1-0.8c-0.4-0.2-0.9-0.3-1.3-0.3c-0.5,0-0.9,0.1-1.4,0.3
					c-0.4,0.2-0.8,0.5-1.1,0.8c-0.3,0.4-0.6,0.8-0.7,1.3C611.5,224.8,611.4,225.4,611.4,226z"/>
				<path class="st0" d="M626.3,219.6v1.3c0.5-0.5,1-0.9,1.6-1.1c0.6-0.3,1.3-0.4,2-0.4c0.4,0,0.7,0,1.1,0.1s0.7,0.2,1,0.3
					c0.3,0.1,0.6,0.3,0.9,0.5c0.3,0.2,0.5,0.5,0.7,0.7c1-1.1,2.2-1.7,3.8-1.7c0.7,0,1.3,0.1,1.9,0.2c0.6,0.2,1.1,0.4,1.5,0.7
					c0.4,0.3,0.7,0.7,0.9,1.2s0.3,1.1,0.3,1.8v9.1h-3V224c0-0.3,0-0.6-0.1-0.9s-0.2-0.5-0.3-0.6c-0.2-0.2-0.4-0.3-0.6-0.4
					s-0.6-0.1-1-0.1c-0.4,0-0.8,0.1-1.2,0.2c-0.4,0.1-0.6,0.3-0.9,0.5c-0.2,0.2-0.4,0.5-0.6,0.8c-0.1,0.3-0.2,0.7-0.2,1.1v7.8h-3
					v-8.2c0-0.3,0-0.6-0.1-0.9c-0.1-0.3-0.1-0.5-0.3-0.7s-0.3-0.4-0.6-0.5c-0.2-0.1-0.6-0.2-0.9-0.2c-0.4,0-0.7,0-1,0.1
					c-0.3,0.1-0.5,0.2-0.8,0.4c-0.2,0.2-0.4,0.3-0.6,0.5c-0.2,0.2-0.3,0.4-0.4,0.6c-0.1,0.2-0.2,0.4-0.2,0.6c0,0.2-0.1,0.4-0.1,0.5
					v7.8h-3v-12.8H626.3z"/>
				<path class="st0" d="M647.6,219.6v1.3c0.5-0.5,1-0.9,1.6-1.1c0.6-0.3,1.3-0.4,2-0.4c0.4,0,0.7,0,1.1,0.1s0.7,0.2,1,0.3
					c0.3,0.1,0.6,0.3,0.9,0.5c0.3,0.2,0.5,0.5,0.7,0.7c1-1.1,2.2-1.7,3.8-1.7c0.7,0,1.3,0.1,1.9,0.2c0.6,0.2,1.1,0.4,1.5,0.7
					c0.4,0.3,0.7,0.7,0.9,1.2s0.3,1.1,0.3,1.8v9.1h-3V224c0-0.3,0-0.6-0.1-0.9s-0.2-0.5-0.3-0.6c-0.2-0.2-0.4-0.3-0.6-0.4
					s-0.6-0.1-1-0.1c-0.4,0-0.8,0.1-1.2,0.2c-0.4,0.1-0.6,0.3-0.9,0.5c-0.2,0.2-0.4,0.5-0.6,0.8c-0.1,0.3-0.2,0.7-0.2,1.1v7.8h-3
					v-8.2c0-0.3,0-0.6-0.1-0.9c-0.1-0.3-0.1-0.5-0.3-0.7s-0.3-0.4-0.6-0.5c-0.2-0.1-0.6-0.2-0.9-0.2c-0.4,0-0.7,0-1,0.1
					c-0.3,0.1-0.5,0.2-0.8,0.4c-0.2,0.2-0.4,0.3-0.6,0.5c-0.2,0.2-0.3,0.4-0.4,0.6c-0.1,0.2-0.2,0.4-0.2,0.6c0,0.2-0.1,0.4-0.1,0.5
					v7.8h-3v-12.8H647.6z"/>
				<path class="st0" d="M674.5,232.5l0-1.3c-0.5,0.5-1,0.8-1.6,1.1c-0.6,0.3-1.3,0.4-2,0.4c-0.9,0-1.7-0.1-2.3-0.4
					c-0.6-0.2-1.1-0.6-1.5-1c-0.4-0.4-0.6-0.9-0.8-1.5c-0.2-0.6-0.2-1.2-0.2-2v-8.3h3v8.5c0,0.6,0.2,1.1,0.5,1.4
					c0.3,0.3,0.9,0.5,1.5,0.5c0.6,0,1.1-0.1,1.5-0.2c0.4-0.2,0.7-0.4,1-0.7c0.3-0.3,0.5-0.6,0.6-1.1s0.2-0.9,0.2-1.3v-7.2h3v12.9
					H674.5z"/>
				<path class="st0" d="M683,219.6v1.3c0.4-0.5,1-0.9,1.5-1.2c0.6-0.3,1.3-0.4,2.1-0.4c0.9,0,1.7,0.1,2.3,0.4
					c0.6,0.2,1.1,0.6,1.5,1c0.4,0.4,0.6,0.9,0.8,1.5c0.1,0.6,0.2,1.2,0.2,1.9v8.3h-2.9v-8.5c0-0.6-0.2-1.1-0.5-1.5s-0.9-0.5-1.6-0.5
					c-0.5,0-1,0.1-1.4,0.3s-0.7,0.4-1,0.7s-0.5,0.7-0.6,1.1c-0.1,0.4-0.2,0.8-0.2,1.3v7.2h-3v-12.8H683z"/>
				<path class="st0" d="M694.4,218.1v-3.3h3v3.3H694.4z M697.4,219.6v12.8h-3v-12.8H697.4z"/>
				<path class="st0" d="M708.6,223.1c-0.2-0.3-0.4-0.5-0.6-0.7s-0.5-0.3-0.8-0.4c-0.3-0.1-0.6-0.1-1-0.1c-0.7,0-1.2,0.1-1.7,0.4
					c-0.4,0.2-0.8,0.6-1.1,1c-0.3,0.4-0.5,0.9-0.6,1.4c-0.1,0.5-0.2,1.1-0.2,1.6c0,0.5,0.1,1,0.2,1.5c0.1,0.5,0.3,0.9,0.6,1.3
					c0.3,0.4,0.6,0.7,1,0.9s0.9,0.3,1.5,0.3c0.9,0,1.6-0.2,2.1-0.7c0.5-0.5,0.8-1.2,0.9-2.1h3c-0.2,0.9-0.4,1.6-0.7,2.3
					c-0.3,0.7-0.7,1.2-1.2,1.7c-0.5,0.5-1.1,0.8-1.8,1s-1.5,0.3-2.3,0.3c-1.1,0-2-0.2-2.8-0.5c-0.8-0.3-1.4-0.8-2-1.4
					c-0.5-0.6-0.9-1.3-1.2-2.1c-0.3-0.8-0.4-1.7-0.4-2.6c0-1,0.1-1.9,0.4-2.7c0.3-0.8,0.6-1.6,1.2-2.2c0.5-0.6,1.2-1.1,2-1.5
					c0.8-0.4,1.7-0.5,2.8-0.5c0.8,0,1.5,0.1,2.2,0.3c0.7,0.2,1.3,0.5,1.8,0.9c0.5,0.4,0.9,0.9,1.3,1.5c0.3,0.6,0.5,1.3,0.6,2.2h-3
					C708.9,223.7,708.7,223.4,708.6,223.1z"/>
				<path class="st0" d="M725.8,232.2c-0.3,0.2-0.6,0.3-0.8,0.4c-0.3,0.1-0.6,0.1-1,0.1c-0.3,0-0.5,0-0.7-0.1s-0.4-0.1-0.6-0.2
					c-0.2-0.1-0.3-0.3-0.5-0.4c-0.1-0.2-0.2-0.4-0.3-0.6c-0.3,0.2-0.6,0.4-0.9,0.6c-0.3,0.2-0.7,0.3-1,0.4c-0.4,0.1-0.7,0.2-1.1,0.3
					c-0.4,0.1-0.7,0.1-1.1,0.1c-0.6,0-1.2-0.1-1.8-0.2c-0.6-0.1-1-0.4-1.5-0.7c-0.4-0.3-0.8-0.7-1-1.2s-0.4-1.1-0.4-1.7
					c0-0.6,0.1-1,0.2-1.4c0.1-0.4,0.3-0.7,0.6-1c0.3-0.3,0.5-0.5,0.9-0.7c0.3-0.2,0.7-0.3,1.1-0.5c0.4-0.1,0.8-0.2,1.3-0.3
					c0.5-0.1,0.9-0.2,1.4-0.3c0.3-0.1,0.7-0.2,1-0.2c0.3-0.1,0.7-0.2,0.9-0.3c0.3-0.1,0.5-0.2,0.7-0.4c0.2-0.1,0.3-0.3,0.3-0.5
					c0-0.3-0.1-0.6-0.2-0.8s-0.3-0.3-0.5-0.4c-0.2-0.1-0.5-0.2-0.8-0.2s-0.6,0-0.8,0c-0.4,0-0.7,0-1,0.1c-0.3,0.1-0.6,0.2-0.8,0.3
					s-0.4,0.4-0.5,0.7c-0.1,0.3-0.2,0.7-0.2,1.1h-3c0-0.6,0.1-1.1,0.3-1.6c0.2-0.5,0.4-0.9,0.6-1.2s0.6-0.6,0.9-0.9
					c0.3-0.2,0.7-0.4,1.1-0.6s0.9-0.3,1.3-0.3c0.5-0.1,1-0.1,1.5-0.1c0.4,0,0.8,0,1.2,0.1c0.4,0,0.8,0.1,1.2,0.2
					c0.4,0.1,0.7,0.2,1.1,0.4c0.3,0.2,0.6,0.4,0.9,0.7s0.4,0.6,0.6,1c0.1,0.4,0.2,0.8,0.2,1.4v6.3c0,0.3,0,0.5,0,0.6
					c0,0.1,0.1,0.2,0.2,0.2c0,0,0.1,0,0.1,0c0,0,0.1,0,0.2,0c0.1,0,0.2,0,0.3-0.1c0.1,0,0.3-0.1,0.4-0.2V232.2z M718.3,230.2
					c0.6,0,1.1-0.1,1.5-0.2c0.4-0.2,0.8-0.3,1-0.6c0.3-0.2,0.5-0.5,0.6-0.8c0.1-0.3,0.2-0.5,0.2-0.8v-1.6c-0.3,0.1-0.7,0.3-1.1,0.4
					c-0.4,0.1-0.8,0.2-1.1,0.3c-0.4,0.1-0.8,0.2-1.1,0.3s-0.7,0.2-1,0.4c-0.3,0.1-0.5,0.3-0.7,0.5c-0.2,0.2-0.3,0.5-0.3,0.8
					c0,0.2,0.1,0.5,0.2,0.6c0.1,0.2,0.3,0.3,0.4,0.4c0.2,0.1,0.4,0.2,0.6,0.2S718,230.2,718.3,230.2z"/>
				<path class="st0" d="M733.5,219.6v2.7h-2.4v6.8c0,0.2,0,0.3,0.1,0.4c0,0.1,0.1,0.2,0.2,0.2c0.1,0,0.2,0.1,0.3,0.1
					c0.1,0,0.3,0,0.5,0h1.4v2.6h-2c-0.6,0-1.1,0-1.6-0.1c-0.4-0.1-0.8-0.2-1.1-0.5c-0.3-0.2-0.5-0.6-0.6-1c-0.1-0.4-0.2-0.9-0.2-1.6
					v-6.9h-2v-2.7h2v-3.8h2.9v3.8H733.5z"/>
				<path class="st0" d="M735.8,218.1v-3.3h3v3.3H735.8z M738.7,219.6v12.8h-3v-12.8H738.7z"/>
				<path class="st0" d="M741.1,226c0-0.9,0.1-1.8,0.4-2.7c0.3-0.8,0.7-1.5,1.2-2.1c0.5-0.6,1.2-1.1,2-1.4c0.8-0.3,1.8-0.5,2.9-0.5
					c1.1,0,2,0.2,2.8,0.5c0.8,0.3,1.5,0.8,2,1.4c0.5,0.6,1,1.3,1.2,2.1s0.4,1.7,0.4,2.7c0,0.9-0.1,1.8-0.4,2.6s-0.7,1.5-1.2,2.1
					c-0.5,0.6-1.2,1.1-2,1.4c-0.8,0.3-1.8,0.5-2.8,0.5c-1.1,0-2-0.2-2.9-0.5c-0.8-0.3-1.5-0.8-2-1.4c-0.5-0.6-1-1.3-1.2-2.1
					C741.2,227.9,741.1,227,741.1,226z M744.1,226c0,0.7,0.1,1.3,0.3,1.8c0.2,0.5,0.4,0.9,0.7,1.3c0.3,0.3,0.7,0.6,1.1,0.8
					s0.9,0.3,1.4,0.3c0.5,0,0.9-0.1,1.3-0.3c0.4-0.2,0.8-0.4,1.1-0.8c0.3-0.3,0.6-0.8,0.8-1.3s0.3-1.1,0.3-1.8
					c0-0.7-0.1-1.2-0.3-1.8c-0.2-0.5-0.4-1-0.8-1.3c-0.3-0.4-0.7-0.6-1.1-0.8c-0.4-0.2-0.9-0.3-1.3-0.3c-0.5,0-0.9,0.1-1.4,0.3
					c-0.4,0.2-0.8,0.5-1.1,0.8c-0.3,0.4-0.6,0.8-0.7,1.3C744.2,224.8,744.1,225.4,744.1,226z"/>
				<path class="st0" d="M759,219.6v1.3c0.4-0.5,1-0.9,1.5-1.2c0.6-0.3,1.3-0.4,2.1-0.4c0.9,0,1.7,0.1,2.3,0.4
					c0.6,0.2,1.1,0.6,1.5,1c0.4,0.4,0.6,0.9,0.8,1.5c0.1,0.6,0.2,1.2,0.2,1.9v8.3h-2.9v-8.5c0-0.6-0.2-1.1-0.5-1.5s-0.9-0.5-1.6-0.5
					c-0.5,0-1,0.1-1.4,0.3s-0.7,0.4-1,0.7s-0.5,0.7-0.6,1.1c-0.1,0.4-0.2,0.8-0.2,1.3v7.2h-3v-12.8H759z"/>
			</g>
		</g>
		<g>
			<path id="XMLID_16132_" class="st1" d="M719.4,66.3h-82c-10.1,0-18.3,8.2-18.3,18.3v50.5c0,10.1,8.2,18.3,18.3,18.3v23.8l29-23.8
				h53c10.1,0,18.3-8.2,18.3-18.3V84.7C737.7,74.6,729.5,66.3,719.4,66.3z M644.3,121.9c-6.3,0-11.4-5.1-11.4-11.4
				s5.1-11.4,11.4-11.4c6.3,0,11.4,5.1,11.4,11.4S650.6,121.9,644.3,121.9z M678.4,121.9c-6.3,0-11.4-5.1-11.4-11.4
				s5.1-11.4,11.4-11.4c6.3,0,11.4,5.1,11.4,11.4S684.7,121.9,678.4,121.9z M712.3,121.9c-6.3,0-11.4-5.1-11.4-11.4
				s5.1-11.4,11.4-11.4c6.3,0,11.4,5.1,11.4,11.4S718.6,121.9,712.3,121.9z"/>
		</g>
		<g>
			<g>
				<path class="st0" d="M80.6,218.9c-0.3-0.4-0.6-0.8-0.9-1.1c-0.4-0.3-0.8-0.5-1.3-0.6c-0.5-0.1-1-0.2-1.6-0.2
					c-0.6,0-1.2,0.1-1.7,0.2c-0.5,0.2-1,0.4-1.4,0.7c-0.4,0.3-0.8,0.6-1.1,1.1s-0.5,0.8-0.7,1.3s-0.3,1-0.4,1.5
					c-0.1,0.5-0.1,1.1-0.1,1.6c0,0.9,0.1,1.8,0.3,2.6c0.2,0.8,0.5,1.5,1,2.1s1,1.1,1.7,1.4c0.7,0.4,1.5,0.5,2.5,0.5
					c0.7,0,1.3-0.1,1.9-0.3s1-0.6,1.4-1c0.4-0.4,0.7-0.9,0.9-1.5c0.2-0.6,0.3-1.2,0.4-1.9h3.1c-0.1,1.2-0.4,2.2-0.8,3.1
					c-0.4,0.9-0.9,1.7-1.6,2.3s-1.4,1.1-2.4,1.4c-0.9,0.3-2,0.5-3.1,0.5c-0.9,0-1.8-0.1-2.6-0.3c-0.8-0.2-1.5-0.5-2.1-0.9
					c-0.6-0.4-1.2-0.9-1.6-1.4c-0.5-0.5-0.9-1.2-1.2-1.8c-0.3-0.7-0.5-1.4-0.7-2.2c-0.2-0.8-0.2-1.6-0.2-2.5c0-0.9,0.1-1.7,0.2-2.5
					c0.2-0.8,0.4-1.5,0.7-2.2s0.7-1.3,1.2-1.9c0.5-0.6,1-1,1.7-1.4c0.6-0.4,1.3-0.7,2.1-0.9s1.7-0.3,2.6-0.3c1,0,1.9,0.1,2.7,0.4
					c0.8,0.3,1.6,0.6,2.2,1.1c0.7,0.5,1.2,1.1,1.6,1.9c0.4,0.8,0.7,1.6,0.9,2.7h-3.2C81,219.9,80.8,219.3,80.6,218.9z"/>
				<path class="st0" d="M89.5,219.6v1.6c0.3-0.3,0.5-0.6,0.8-0.8c0.3-0.2,0.6-0.4,0.9-0.6c0.3-0.2,0.7-0.3,1.1-0.3
					c0.4-0.1,0.9-0.1,1.5-0.1v2.9c-0.8,0-1.5,0.1-2.1,0.3s-1,0.5-1.3,0.9s-0.5,0.9-0.6,1.4s-0.2,1.2-0.2,1.9v5.7h-3v-12.8H89.5z"/>
				<path class="st0" d="M107,228c-0.2,0.8-0.4,1.5-0.8,2.1s-0.8,1.1-1.3,1.5c-0.5,0.4-1.1,0.7-1.7,0.9c-0.6,0.2-1.4,0.3-2.1,0.3
					c-1.1,0-2-0.2-2.8-0.5c-0.8-0.3-1.5-0.8-2-1.4c-0.5-0.6-0.9-1.3-1.2-2.1s-0.4-1.7-0.4-2.7c0-1,0.2-1.9,0.5-2.7
					c0.3-0.8,0.7-1.5,1.3-2.1c0.6-0.6,1.2-1,2-1.3c0.8-0.3,1.6-0.5,2.6-0.5c0.7,0,1.4,0.1,2,0.3c0.6,0.2,1.1,0.5,1.6,0.8
					c0.5,0.4,0.9,0.8,1.2,1.3c0.3,0.5,0.6,1,0.8,1.6c0.2,0.6,0.4,1.2,0.4,1.8s0.1,1.3,0.1,1.9h-9.4c0,0.4,0.1,0.8,0.3,1.2
					s0.4,0.7,0.6,1c0.3,0.3,0.6,0.5,1,0.7c0.4,0.2,0.9,0.2,1.5,0.2c0.4,0,0.7,0,1-0.1c0.3-0.1,0.6-0.2,0.8-0.4
					c0.2-0.2,0.5-0.4,0.7-0.7c0.2-0.3,0.3-0.6,0.4-1H107z M100.9,221.9c-0.4,0-0.8,0.1-1.2,0.2c-0.4,0.1-0.7,0.3-0.9,0.6
					c-0.3,0.2-0.5,0.5-0.7,0.8c-0.2,0.3-0.3,0.6-0.4,1h6.3c-0.1-0.3-0.2-0.7-0.4-1c-0.2-0.3-0.4-0.6-0.7-0.8
					c-0.3-0.2-0.6-0.4-0.9-0.6C101.7,222,101.3,221.9,100.9,221.9z"/>
				<path class="st0" d="M120.8,232.2c-0.3,0.2-0.6,0.3-0.8,0.4c-0.3,0.1-0.6,0.1-1,0.1c-0.3,0-0.5,0-0.7-0.1s-0.4-0.1-0.6-0.2
					c-0.2-0.1-0.3-0.3-0.5-0.4c-0.1-0.2-0.2-0.4-0.3-0.6c-0.3,0.2-0.6,0.4-0.9,0.6c-0.3,0.2-0.7,0.3-1,0.4c-0.4,0.1-0.7,0.2-1.1,0.3
					c-0.4,0.1-0.7,0.1-1.1,0.1c-0.6,0-1.2-0.1-1.8-0.2c-0.6-0.1-1-0.4-1.5-0.7c-0.4-0.3-0.7-0.7-1-1.2c-0.2-0.5-0.4-1.1-0.4-1.7
					c0-0.6,0.1-1,0.2-1.4c0.1-0.4,0.3-0.7,0.6-1c0.2-0.3,0.5-0.5,0.9-0.7s0.7-0.3,1.1-0.5c0.4-0.1,0.8-0.2,1.3-0.3
					c0.5-0.1,0.9-0.2,1.4-0.3c0.3-0.1,0.7-0.2,1-0.2s0.7-0.2,0.9-0.3c0.3-0.1,0.5-0.2,0.7-0.4c0.2-0.1,0.3-0.3,0.3-0.5
					c0-0.3-0.1-0.6-0.2-0.8s-0.3-0.3-0.5-0.4c-0.2-0.1-0.5-0.2-0.8-0.2s-0.6,0-0.8,0c-0.4,0-0.7,0-1,0.1c-0.3,0.1-0.6,0.2-0.8,0.3
					s-0.4,0.4-0.5,0.7s-0.2,0.7-0.2,1.1h-3c0-0.6,0.1-1.1,0.3-1.6c0.2-0.5,0.4-0.9,0.6-1.2c0.3-0.4,0.6-0.6,0.9-0.9
					c0.3-0.2,0.7-0.4,1.1-0.6s0.9-0.3,1.3-0.3c0.5-0.1,1-0.1,1.5-0.1c0.4,0,0.8,0,1.2,0.1c0.4,0,0.8,0.1,1.2,0.2
					c0.4,0.1,0.7,0.2,1.1,0.4c0.3,0.2,0.6,0.4,0.9,0.7c0.2,0.3,0.4,0.6,0.6,1c0.1,0.4,0.2,0.8,0.2,1.4v6.3c0,0.3,0,0.5,0,0.6
					c0,0.1,0.1,0.2,0.2,0.2c0,0,0.1,0,0.1,0c0,0,0.1,0,0.2,0c0.1,0,0.2,0,0.3-0.1c0.1,0,0.3-0.1,0.4-0.2V232.2z M113.3,230.2
					c0.6,0,1.1-0.1,1.5-0.2c0.4-0.2,0.8-0.3,1-0.6c0.3-0.2,0.5-0.5,0.6-0.8c0.1-0.3,0.2-0.5,0.2-0.8v-1.6c-0.3,0.1-0.7,0.3-1.1,0.4
					c-0.4,0.1-0.8,0.2-1.1,0.3c-0.4,0.1-0.8,0.2-1.1,0.3c-0.4,0.1-0.7,0.2-1,0.4c-0.3,0.1-0.5,0.3-0.7,0.5c-0.2,0.2-0.3,0.5-0.3,0.8
					c0,0.2,0.1,0.5,0.2,0.6s0.3,0.3,0.4,0.4c0.2,0.1,0.4,0.2,0.6,0.2C112.8,230.1,113,230.2,113.3,230.2z"/>
				<path class="st0" d="M128.5,219.6v2.7h-2.4v6.8c0,0.2,0,0.3,0.1,0.4c0,0.1,0.1,0.2,0.2,0.2c0.1,0,0.2,0.1,0.3,0.1
					c0.1,0,0.3,0,0.5,0h1.4v2.6h-2c-0.6,0-1.1,0-1.6-0.1c-0.4-0.1-0.8-0.2-1.1-0.5c-0.3-0.2-0.5-0.6-0.6-1c-0.1-0.4-0.2-0.9-0.2-1.6
					v-6.9h-2v-2.7h2v-3.8h2.9v3.8H128.5z"/>
				<path class="st0" d="M130.8,218.1v-3.3h3v3.3H130.8z M133.8,219.6v12.8h-3v-12.8H133.8z"/>
				<path class="st0" d="M140.4,232.4l-4.7-12.8h3.3l3.1,9.1l3-9.1h3.2l-4.7,12.8H140.4z"/>
				<path class="st0" d="M150.2,218.1v-3.3h3v3.3H150.2z M153.1,219.6v12.8h-3v-12.8H153.1z"/>
				<path class="st0" d="M162.2,219.6v2.7h-2.4v6.8c0,0.2,0,0.3,0.1,0.4c0,0.1,0.1,0.2,0.2,0.2c0.1,0,0.2,0.1,0.3,0.1
					c0.1,0,0.3,0,0.5,0h1.4v2.6h-2c-0.6,0-1.1,0-1.6-0.1c-0.4-0.1-0.8-0.2-1.1-0.5c-0.3-0.2-0.5-0.6-0.6-1c-0.1-0.4-0.2-0.9-0.2-1.6
					v-6.9h-2v-2.7h2v-3.8h2.9v3.8H162.2z"/>
				<path class="st0" d="M170.3,234.3c-0.3,0.6-0.5,1.2-0.8,1.6c-0.3,0.5-0.6,0.8-0.9,1.1s-0.7,0.5-1.1,0.6
					c-0.4,0.1-0.8,0.2-1.3,0.2c-0.3,0-0.5,0-0.8,0s-0.6-0.1-0.9-0.2v-2.8c0.3,0.1,0.6,0.2,0.9,0.3c0.2,0,0.5,0.1,0.6,0.1
					c0.3,0,0.6-0.1,0.8-0.2c0.2-0.1,0.4-0.3,0.5-0.6l0.8-2l-5-12.7h3.2l3.3,9.1c0.5-1.6,1-3.1,1.6-4.6s1-3,1.5-4.6h3.1L170.3,234.3z
					"/>
			</g>
		</g>
		<g>
			<g id="XMLID_16115_">
				<g id="XMLID_16116_">
					<g id="XMLID_16119_">
						<g id="XMLID_16128_">
							<path id="XMLID_16129_" class="st0" d="M138.9,161.1c-0.8,0-1.7-0.3-2.3-1l-55.1-55.1c-1.3-1.3-1.3-3.3,0-4.6l15.7-15.7
								c1.3-1.3,3.3-1.3,4.6,0l55.1,55.1c1.3,1.3,1.3,3.3,0,4.6l-15.7,15.7C140.6,160.8,139.7,161.1,138.9,161.1z M88.4,102.8
								l50.5,50.5l11.1-11.1L99.5,91.7L88.4,102.8z"/>
						</g>
						<g id="XMLID_16124_">
							<path id="XMLID_16125_" class="st0" d="M162.9,170.5c-0.4,0-0.8-0.1-1.2-0.2l-24-9.5c-1-0.4-1.8-1.3-2-2.4
								c-0.2-1.1,0.1-2.2,0.9-3l15.7-15.7c0.8-0.8,1.9-1.1,3-0.9c1.1,0.2,2,1,2.4,2l9.5,24c0.5,1.2,0.2,2.6-0.7,3.5l-1.1,1.1
								C164.6,170.2,163.7,170.5,162.9,170.5z M144.7,156.6l14.3,5.7l-5.7-14.3L144.7,156.6z"/>
						</g>
						<g id="XMLID_16120_">
							<path id="XMLID_16121_" class="st0" d="M83.8,106L83.8,106c-0.9,0-1.7-0.3-2.3-1L68.3,91.9c-1.3-1.3-1.3-3.3,0-4.6L84,71.6
								c0.6-0.6,1.4-1,2.3-1l0,0c0.9,0,1.7,0.3,2.3,1l13.2,13.2c1.3,1.3,1.3,3.3,0,4.6l-15.7,15.7C85.5,105.7,84.7,106,83.8,106z
								 M75.2,89.6l8.6,8.6l11.1-11.1l-8.6-8.6L75.2,89.6z"/>
						</g>
					</g>
					<g id="XMLID_16117_">
						<path id="XMLID_16118_" class="st0" d="M145.4,173H93c-1.8,0-3.2-1.5-3.2-3.2c0-1.8,1.5-3.2,3.2-3.2h52.3
							c1.8,0,3.2,1.5,3.2,3.2C148.6,171.5,147.2,173,145.4,173z"/>
					</g>
				</g>
			</g>
		</g>
		<g>
			<g>
				<path class="st0" d="M311.2,218.9c-0.3-0.4-0.6-0.8-0.9-1.1c-0.4-0.3-0.8-0.5-1.3-0.6c-0.5-0.1-1-0.2-1.6-0.2
					c-0.6,0-1.2,0.1-1.7,0.2c-0.5,0.2-1,0.4-1.4,0.7c-0.4,0.3-0.8,0.6-1.1,1.1s-0.5,0.8-0.7,1.3s-0.3,1-0.4,1.5
					c-0.1,0.5-0.1,1.1-0.1,1.6c0,0.9,0.1,1.8,0.3,2.6c0.2,0.8,0.5,1.5,1,2.1s1,1.1,1.7,1.4c0.7,0.4,1.5,0.5,2.5,0.5
					c0.7,0,1.3-0.1,1.9-0.3s1-0.6,1.4-1c0.4-0.4,0.7-0.9,0.9-1.5c0.2-0.6,0.3-1.2,0.4-1.9h3.1c-0.1,1.2-0.4,2.2-0.8,3.1
					c-0.4,0.9-0.9,1.7-1.6,2.3s-1.4,1.1-2.4,1.4c-0.9,0.3-2,0.5-3.1,0.5c-0.9,0-1.8-0.1-2.6-0.3c-0.8-0.2-1.5-0.5-2.1-0.9
					c-0.6-0.4-1.2-0.9-1.6-1.4c-0.5-0.5-0.9-1.2-1.2-1.8c-0.3-0.7-0.5-1.4-0.7-2.2c-0.2-0.8-0.2-1.6-0.2-2.5c0-0.9,0.1-1.7,0.2-2.5
					c0.2-0.8,0.4-1.5,0.7-2.2s0.7-1.3,1.2-1.9c0.5-0.6,1-1,1.7-1.4c0.6-0.4,1.3-0.7,2.1-0.9s1.7-0.3,2.6-0.3c1,0,1.9,0.1,2.7,0.4
					c0.8,0.3,1.6,0.6,2.2,1.1c0.7,0.5,1.2,1.1,1.6,1.9c0.4,0.8,0.7,1.6,0.9,2.7h-3.2C311.6,219.9,311.5,219.3,311.2,218.9z"/>
				<path class="st0" d="M320.1,219.6v1.6c0.3-0.3,0.5-0.6,0.8-0.8c0.3-0.2,0.6-0.4,0.9-0.6c0.3-0.2,0.7-0.3,1.1-0.3
					c0.4-0.1,0.9-0.1,1.5-0.1v2.9c-0.8,0-1.5,0.1-2.1,0.3s-1,0.5-1.3,0.9s-0.5,0.9-0.6,1.4s-0.2,1.2-0.2,1.9v5.7h-3v-12.8H320.1z"/>
				<path class="st0" d="M326.3,218.1v-3.3h3v3.3H326.3z M329.2,219.6v12.8h-3v-12.8H329.2z"/>
				<path class="st0" d="M338.3,219.6v2.7h-2.4v6.8c0,0.2,0,0.3,0.1,0.4c0,0.1,0.1,0.2,0.2,0.2c0.1,0,0.2,0.1,0.3,0.1
					c0.1,0,0.3,0,0.5,0h1.4v2.6h-2c-0.6,0-1.1,0-1.6-0.1c-0.4-0.1-0.8-0.2-1.1-0.5c-0.3-0.2-0.5-0.6-0.6-1c-0.1-0.4-0.2-0.9-0.2-1.6
					v-6.9h-2v-2.7h2v-3.8h2.9v3.8H338.3z"/>
				<path class="st0" d="M340.6,218.1v-3.3h3v3.3H340.6z M343.6,219.6v12.8h-3v-12.8H343.6z"/>
				<path class="st0" d="M354.8,223.1c-0.2-0.3-0.4-0.5-0.6-0.7c-0.2-0.2-0.5-0.3-0.8-0.4c-0.3-0.1-0.6-0.1-1-0.1
					c-0.7,0-1.2,0.1-1.7,0.4s-0.8,0.6-1.1,1c-0.3,0.4-0.5,0.9-0.6,1.4c-0.1,0.5-0.2,1.1-0.2,1.6c0,0.5,0.1,1,0.2,1.5
					s0.3,0.9,0.6,1.3c0.3,0.4,0.6,0.7,1,0.9s0.9,0.3,1.5,0.3c0.9,0,1.6-0.2,2.1-0.7c0.5-0.5,0.8-1.2,0.9-2.1h3
					c-0.2,0.9-0.4,1.6-0.7,2.3s-0.7,1.2-1.2,1.7c-0.5,0.5-1.1,0.8-1.8,1c-0.7,0.2-1.5,0.3-2.3,0.3c-1.1,0-2-0.2-2.8-0.5
					c-0.8-0.3-1.4-0.8-2-1.4c-0.5-0.6-0.9-1.3-1.2-2.1s-0.4-1.7-0.4-2.6c0-1,0.1-1.9,0.4-2.7s0.6-1.6,1.2-2.2s1.2-1.1,2-1.5
					c0.8-0.4,1.7-0.5,2.8-0.5c0.8,0,1.5,0.1,2.2,0.3s1.3,0.5,1.8,0.9c0.5,0.4,0.9,0.9,1.3,1.5s0.5,1.3,0.6,2.2h-3
					C355,223.7,354.9,223.4,354.8,223.1z"/>
				<path class="st0" d="M372,232.2c-0.3,0.2-0.6,0.3-0.8,0.4c-0.3,0.1-0.6,0.1-1,0.1c-0.3,0-0.5,0-0.7-0.1s-0.4-0.1-0.6-0.2
					c-0.2-0.1-0.3-0.3-0.5-0.4c-0.1-0.2-0.2-0.4-0.3-0.6c-0.3,0.2-0.6,0.4-0.9,0.6c-0.3,0.2-0.7,0.3-1,0.4c-0.4,0.1-0.7,0.2-1.1,0.3
					c-0.4,0.1-0.7,0.1-1.1,0.1c-0.6,0-1.2-0.1-1.8-0.2c-0.6-0.1-1-0.4-1.5-0.7c-0.4-0.3-0.7-0.7-1-1.2c-0.2-0.5-0.4-1.1-0.4-1.7
					c0-0.6,0.1-1,0.2-1.4c0.1-0.4,0.3-0.7,0.6-1c0.2-0.3,0.5-0.5,0.9-0.7s0.7-0.3,1.1-0.5c0.4-0.1,0.8-0.2,1.3-0.3
					c0.5-0.1,0.9-0.2,1.4-0.3c0.3-0.1,0.7-0.2,1-0.2s0.7-0.2,0.9-0.3c0.3-0.1,0.5-0.2,0.7-0.4c0.2-0.1,0.3-0.3,0.3-0.5
					c0-0.3-0.1-0.6-0.2-0.8s-0.3-0.3-0.5-0.4c-0.2-0.1-0.5-0.2-0.8-0.2s-0.6,0-0.8,0c-0.4,0-0.7,0-1,0.1c-0.3,0.1-0.6,0.2-0.8,0.3
					s-0.4,0.4-0.5,0.7s-0.2,0.7-0.2,1.1h-3c0-0.6,0.1-1.1,0.3-1.6c0.2-0.5,0.4-0.9,0.6-1.2c0.3-0.4,0.6-0.6,0.9-0.9
					c0.3-0.2,0.7-0.4,1.1-0.6s0.9-0.3,1.3-0.3c0.5-0.1,1-0.1,1.5-0.1c0.4,0,0.8,0,1.2,0.1c0.4,0,0.8,0.1,1.2,0.2
					c0.4,0.1,0.7,0.2,1.1,0.4c0.3,0.2,0.6,0.4,0.9,0.7c0.2,0.3,0.4,0.6,0.6,1c0.1,0.4,0.2,0.8,0.2,1.4v6.3c0,0.3,0,0.5,0,0.6
					c0,0.1,0.1,0.2,0.2,0.2c0,0,0.1,0,0.1,0c0,0,0.1,0,0.2,0c0.1,0,0.2,0,0.3-0.1c0.1,0,0.3-0.1,0.4-0.2V232.2z M364.5,230.2
					c0.6,0,1.1-0.1,1.5-0.2c0.4-0.2,0.8-0.3,1-0.6c0.3-0.2,0.5-0.5,0.6-0.8c0.1-0.3,0.2-0.5,0.2-0.8v-1.6c-0.3,0.1-0.7,0.3-1.1,0.4
					c-0.4,0.1-0.8,0.2-1.1,0.3c-0.4,0.1-0.8,0.2-1.1,0.3c-0.4,0.1-0.7,0.2-1,0.4c-0.3,0.1-0.5,0.3-0.7,0.5c-0.2,0.2-0.3,0.5-0.3,0.8
					c0,0.2,0.1,0.5,0.2,0.6s0.3,0.3,0.4,0.4c0.2,0.1,0.4,0.2,0.6,0.2C363.9,230.1,364.2,230.2,364.5,230.2z"/>
				<path class="st0" d="M376.8,214.8v17.7h-3v-17.7H376.8z"/>
				<path class="st0" d="M384.8,217.5v-2.7h13.9v2.7h-5.5v15h-3.1v-15H384.8z"/>
				<path class="st0" d="M403.3,214.8v5.9c0.2-0.2,0.5-0.4,0.8-0.6s0.6-0.3,0.9-0.4c0.3-0.1,0.6-0.2,0.9-0.3s0.6-0.1,0.9-0.1
					c0.9,0,1.7,0.1,2.3,0.4c0.6,0.2,1.1,0.6,1.5,1s0.6,0.9,0.8,1.5c0.1,0.6,0.2,1.2,0.2,1.9v8.4h-3v-8.5c0-0.6-0.2-1.1-0.5-1.5
					c-0.4-0.4-0.9-0.5-1.6-0.5c-0.5,0-1,0.1-1.4,0.3s-0.7,0.4-1,0.7c-0.3,0.3-0.5,0.7-0.6,1.1c-0.1,0.4-0.2,0.8-0.2,1.3v7.2h-3
					v-17.7H403.3z"/>
				<path class="st0" d="M414.6,218.1v-3.3h3v3.3H414.6z M417.6,219.6v12.8h-3v-12.8H417.6z"/>
				<path class="st0" d="M423.5,219.6v1.3c0.4-0.5,1-0.9,1.5-1.2c0.6-0.3,1.3-0.4,2.1-0.4c0.9,0,1.7,0.1,2.3,0.4
					c0.6,0.2,1.1,0.6,1.5,1s0.6,0.9,0.8,1.5c0.1,0.6,0.2,1.2,0.2,1.9v8.3H429v-8.5c0-0.6-0.2-1.1-0.5-1.5c-0.4-0.4-0.9-0.5-1.6-0.5
					c-0.5,0-1,0.1-1.4,0.3s-0.7,0.4-1,0.7c-0.3,0.3-0.5,0.7-0.6,1.1c-0.1,0.4-0.2,0.8-0.2,1.3v7.2h-3v-12.8H423.5z"/>
				<path class="st0" d="M437.6,214.8v9.4l4.9-4.6h3.9l-5.2,4.8l5.4,8.1H443l-4-6l-1.4,1.3v4.7h-2.9v-17.7H437.6z"/>
				<path class="st0" d="M448.4,218.1v-3.3h3v3.3H448.4z M451.4,219.6v12.8h-3v-12.8H451.4z"/>
				<path class="st0" d="M457.2,219.6v1.3c0.4-0.5,1-0.9,1.5-1.2c0.6-0.3,1.3-0.4,2.1-0.4c0.9,0,1.7,0.1,2.3,0.4
					c0.6,0.2,1.1,0.6,1.5,1s0.6,0.9,0.8,1.5c0.1,0.6,0.2,1.2,0.2,1.9v8.3h-2.9v-8.5c0-0.6-0.2-1.1-0.5-1.5c-0.4-0.4-0.9-0.5-1.6-0.5
					c-0.5,0-1,0.1-1.4,0.3s-0.7,0.4-1,0.7c-0.3,0.3-0.5,0.7-0.6,1.1c-0.1,0.4-0.2,0.8-0.2,1.3v7.2h-3v-12.8H457.2z"/>
				<path class="st0" d="M480.1,231.6c0,1.1-0.1,2-0.4,2.8c-0.3,0.8-0.6,1.4-1.1,2c-0.5,0.5-1.2,0.9-2,1.2c-0.8,0.3-1.7,0.4-2.8,0.4
					c-0.4,0-0.8,0-1.3-0.1s-0.8-0.2-1.3-0.3c-0.4-0.2-0.8-0.3-1.2-0.6c-0.4-0.2-0.7-0.5-1-0.8c-0.3-0.3-0.5-0.7-0.7-1.1
					c-0.2-0.4-0.3-0.9-0.3-1.4h2.9c0,0.3,0.1,0.6,0.3,0.9s0.4,0.5,0.7,0.6c0.3,0.2,0.6,0.3,0.9,0.3s0.6,0.1,0.9,0.1
					c0.6,0,1.1-0.1,1.5-0.3s0.8-0.4,1-0.8s0.5-0.8,0.6-1.2s0.2-1,0.2-1.6v-0.3c-0.2,0.2-0.5,0.4-0.8,0.6c-0.3,0.2-0.6,0.3-0.9,0.4
					c-0.3,0.1-0.6,0.2-0.9,0.3s-0.6,0.1-1,0.1c-1,0-1.9-0.2-2.7-0.5c-0.8-0.4-1.4-0.8-1.9-1.4c-0.5-0.6-0.9-1.3-1.1-2.1
					c-0.3-0.8-0.4-1.6-0.4-2.5c0-0.5,0-1,0.1-1.5c0.1-0.5,0.2-1,0.4-1.5c0.2-0.5,0.5-1,0.8-1.4s0.7-0.8,1.2-1.2
					c0.5-0.3,1-0.6,1.6-0.8c0.6-0.2,1.3-0.3,2.1-0.3c0.7,0,1.3,0.1,1.9,0.3s1.1,0.5,1.5,1v-1h2.8V231.6z M473.9,230.1
					c0.6,0,1.1-0.1,1.6-0.4c0.4-0.3,0.8-0.6,1-1s0.4-0.9,0.6-1.4c0.1-0.5,0.2-1,0.2-1.5c0-0.5-0.1-1-0.2-1.4
					c-0.1-0.5-0.3-0.9-0.5-1.3c-0.2-0.4-0.6-0.7-1-0.9s-0.9-0.3-1.5-0.3c-0.6,0-1.1,0.1-1.5,0.3s-0.8,0.5-1,0.9
					c-0.3,0.4-0.5,0.8-0.6,1.3c-0.1,0.5-0.2,1-0.2,1.5c0,0.5,0.1,1,0.2,1.5c0.1,0.5,0.3,0.9,0.5,1.3s0.6,0.7,1,1
					C472.8,229.9,473.3,230.1,473.9,230.1z"/>
			</g>
		</g>
		<g>
			<g>
				<path class="st0" d="M383.2,75.9c-22.3,0-40.4,17.5-40.4,39c0,14,5.7,22.3,9.8,28.4c2.6,3.8,4,6,4,8.3c0,5.1,2.7,9.8,7.5,13.4
					c0.1,3,0.6,10.3,0.6,10.3v0c0.1,2.1,1.2,6.3,8.4,8.7c0.8,1.2,1.9,2.3,3.3,3.3c0.8,0.6,1.8,0.9,2.9,0.9h7.8c1,0,2-0.3,2.9-0.9
					c1.4-0.9,2.5-2,3.3-3.3c7.2-2.4,8.3-6.7,8.3-8.7c0,0,0.4-7.3,0.6-10.3c4.8-3.6,7.5-8.4,7.5-13.4c0-2.2,1.5-4.5,4.1-8.3
					c4.1-6.1,9.8-14.4,9.8-28.4C423.6,93.4,405.5,75.9,383.2,75.9L383.2,75.9z M405.3,137.6c-3,4.4-5.8,8.5-5.8,14
					c0,2.4-2.2,4.4-3.8,5.5h-25c-1.6-1.1-3.8-3.1-3.8-5.5c0-5.5-2.8-9.6-5.8-14.1c-3.8-5.5-8-11.8-8-22.6
					c0-15.9,13.5-28.8,30.2-28.8c16.6,0,30.2,12.9,30.2,28.8C413.4,125.7,409.1,132,405.3,137.6L405.3,137.6z M405.3,137.6"/>
				<path class="st0" d="M383.2,68.2c1.4,0,2.6-1.1,2.6-2.5V58c0-1.4-1.1-2.6-2.6-2.6c-1.4,0-2.6,1.1-2.6,2.6v7.7
					C380.7,67.1,381.8,68.2,383.2,68.2L383.2,68.2z M383.2,68.2"/>
				<path class="st0" d="M356.1,73.6c0.5,0.8,1.3,1.3,2.2,1.3c0.4,0,0.9-0.1,1.3-0.3c1.2-0.7,1.6-2.3,0.9-3.5l-3.8-6.6
					c-0.7-1.2-2.3-1.6-3.5-0.9c-1.2,0.7-1.6,2.3-0.9,3.5L356.1,73.6z M356.1,73.6"/>
				<path class="st0" d="M341.3,88.3l-6.6-3.8c-1.2-0.7-2.8-0.3-3.5,0.9c-0.7,1.2-0.3,2.8,0.9,3.5l6.6,3.8c0.4,0.2,0.8,0.3,1.3,0.3
					c0.9,0,1.7-0.5,2.2-1.3C343,90.6,342.6,89.1,341.3,88.3L341.3,88.3z M341.3,88.3"/>
				<path class="st0" d="M335.9,115.5c0-1.4-1.1-2.6-2.5-2.6h-7.7c-1.4,0-2.6,1.1-2.6,2.6c0,1.4,1.1,2.6,2.6,2.6h7.7
					C334.8,118,335.9,116.9,335.9,115.5L335.9,115.5z M335.9,115.5"/>
				<path class="st0" d="M338.8,138.2l-6.6,3.8c-1.2,0.7-1.6,2.3-0.9,3.5c0.5,0.8,1.3,1.3,2.2,1.3c0.4,0,0.9-0.1,1.3-0.3l6.6-3.8
					c1.2-0.7,1.6-2.3,0.9-3.5C341.6,137.9,340,137.5,338.8,138.2L338.8,138.2z M338.8,138.2"/>
				<path class="st0" d="M434.3,142l-6.6-3.8c-1.2-0.7-2.8-0.3-3.5,0.9c-0.7,1.2-0.3,2.8,0.9,3.5l6.6,3.8c0.4,0.2,0.8,0.3,1.3,0.3
					c0.9,0,1.7-0.5,2.2-1.3C435.9,144.3,435.5,142.7,434.3,142L434.3,142z M434.3,142"/>
				<path class="st0" d="M440.7,112.9H433c-1.4,0-2.5,1.1-2.5,2.6c0,1.4,1.1,2.6,2.5,2.6h7.7c1.4,0,2.6-1.1,2.6-2.6
					C443.2,114.1,442.1,112.9,440.7,112.9L440.7,112.9z M440.7,112.9"/>
				<path class="st0" d="M426.4,93.1c0.4,0,0.9-0.1,1.3-0.3l6.6-3.8c1.2-0.7,1.6-2.3,0.9-3.5c-0.7-1.2-2.3-1.6-3.5-0.9l-6.6,3.8
					c-1.2,0.7-1.6,2.3-0.9,3.5C424.6,92.6,425.5,93.1,426.4,93.1L426.4,93.1z M426.4,93.1"/>
				<path class="st0" d="M406.9,74.5c0.4,0.2,0.8,0.3,1.3,0.3c0.9,0,1.7-0.5,2.2-1.3l3.8-6.6c0.7-1.2,0.3-2.8-0.9-3.5
					c-1.2-0.7-2.8-0.3-3.5,0.9l-3.8,6.6C405.2,72.3,405.6,73.8,406.9,74.5L406.9,74.5z M406.9,74.5"/>
				<path class="st0" d="M379.8,130.9c0.3,2.3,1.4,2.9,3.4,2.9c2,0,3.1-0.6,3.4-2.9l2.4-18.2c0.2-1.2,0.3-2.5,0.3-3.7v-9
					c0-4-2.3-6-6.1-6c-3.9,0-6.1,2-6.1,6v9c0,1.2,0.2,2.4,0.3,3.7L379.8,130.9z M379.8,130.9"/>
				<path class="st0" d="M383.2,138.8c-3.5,0-6.4,2.9-6.4,6.4s2.9,6.4,6.4,6.4c3.5,0,6.4-2.9,6.4-6.4S386.7,138.8,383.2,138.8
					L383.2,138.8z M383.2,138.8"/>
			</g>
		</g>
		<g>
			<g>
				<path class="st0" d="M902.2,218.9c-0.3-0.4-0.6-0.8-0.9-1.1c-0.4-0.3-0.8-0.5-1.3-0.6c-0.5-0.1-1-0.2-1.6-0.2
					c-0.6,0-1.2,0.1-1.7,0.2c-0.5,0.2-1,0.4-1.4,0.7c-0.4,0.3-0.8,0.6-1.1,1.1s-0.5,0.8-0.7,1.3s-0.3,1-0.4,1.5
					c-0.1,0.5-0.1,1.1-0.1,1.6c0,0.9,0.1,1.8,0.3,2.6c0.2,0.8,0.5,1.5,1,2.1c0.4,0.6,1,1.1,1.7,1.4s1.5,0.5,2.5,0.5
					c0.7,0,1.3-0.1,1.9-0.3c0.5-0.2,1-0.6,1.4-1s0.7-0.9,0.9-1.5c0.2-0.6,0.3-1.2,0.4-1.9h3.1c-0.1,1.2-0.4,2.2-0.8,3.1
					c-0.4,0.9-0.9,1.7-1.6,2.3s-1.4,1.1-2.4,1.4c-0.9,0.3-2,0.5-3.1,0.5c-0.9,0-1.8-0.1-2.6-0.3c-0.8-0.2-1.5-0.5-2.1-0.9
					c-0.6-0.4-1.2-0.9-1.6-1.4c-0.5-0.5-0.9-1.2-1.2-1.8c-0.3-0.7-0.5-1.4-0.7-2.2c-0.2-0.8-0.2-1.6-0.2-2.5c0-0.9,0.1-1.7,0.2-2.5
					c0.2-0.8,0.4-1.5,0.7-2.2s0.7-1.3,1.2-1.9c0.5-0.6,1-1,1.7-1.4c0.6-0.4,1.3-0.7,2.1-0.9s1.7-0.3,2.6-0.3c1,0,1.9,0.1,2.7,0.4
					c0.8,0.3,1.6,0.6,2.2,1.1c0.7,0.5,1.2,1.1,1.6,1.9c0.4,0.8,0.7,1.6,0.9,2.7h-3.2C902.7,219.9,902.5,219.3,902.2,218.9z"/>
				<path class="st0" d="M907.6,226c0-0.9,0.1-1.8,0.4-2.7c0.3-0.8,0.7-1.5,1.2-2.1c0.5-0.6,1.2-1.1,2-1.4c0.8-0.3,1.8-0.5,2.9-0.5
					c1.1,0,2,0.2,2.8,0.5c0.8,0.3,1.5,0.8,2,1.4c0.5,0.6,1,1.3,1.2,2.1s0.4,1.7,0.4,2.7c0,0.9-0.1,1.8-0.4,2.6s-0.7,1.5-1.2,2.1
					c-0.5,0.6-1.2,1.1-2,1.4c-0.8,0.3-1.8,0.5-2.8,0.5c-1.1,0-2-0.2-2.9-0.5c-0.8-0.3-1.5-0.8-2-1.4c-0.5-0.6-1-1.3-1.2-2.1
					C907.8,227.9,907.6,227,907.6,226z M910.7,226c0,0.7,0.1,1.3,0.3,1.8c0.2,0.5,0.4,0.9,0.7,1.3c0.3,0.3,0.7,0.6,1.1,0.8
					s0.9,0.3,1.4,0.3c0.5,0,0.9-0.1,1.3-0.3c0.4-0.2,0.8-0.4,1.1-0.8c0.3-0.3,0.6-0.8,0.8-1.3s0.3-1.1,0.3-1.8
					c0-0.7-0.1-1.2-0.3-1.8c-0.2-0.5-0.4-1-0.8-1.3c-0.3-0.4-0.7-0.6-1.1-0.8c-0.4-0.2-0.9-0.3-1.3-0.3c-0.5,0-0.9,0.1-1.4,0.3
					c-0.4,0.2-0.8,0.5-1.1,0.8c-0.3,0.4-0.6,0.8-0.7,1.3C910.8,224.8,910.7,225.4,910.7,226z"/>
				<path class="st0" d="M926,214.8v17.7h-3v-17.7H926z"/>
				<path class="st0" d="M932.2,214.8v17.7h-3v-17.7H932.2z"/>
				<path class="st0" d="M947.1,232.2c-0.3,0.2-0.6,0.3-0.8,0.4c-0.3,0.1-0.6,0.1-1,0.1c-0.3,0-0.5,0-0.7-0.1s-0.4-0.1-0.6-0.2
					c-0.2-0.1-0.3-0.3-0.5-0.4c-0.1-0.2-0.2-0.4-0.3-0.6c-0.3,0.2-0.6,0.4-0.9,0.6c-0.3,0.2-0.7,0.3-1,0.4c-0.4,0.1-0.7,0.2-1.1,0.3
					c-0.4,0.1-0.7,0.1-1.1,0.1c-0.6,0-1.2-0.1-1.8-0.2c-0.6-0.1-1-0.4-1.5-0.7c-0.4-0.3-0.8-0.7-1-1.2s-0.4-1.1-0.4-1.7
					c0-0.6,0.1-1,0.2-1.4c0.1-0.4,0.3-0.7,0.6-1c0.3-0.3,0.5-0.5,0.9-0.7c0.3-0.2,0.7-0.3,1.1-0.5c0.4-0.1,0.8-0.2,1.3-0.3
					c0.5-0.1,0.9-0.2,1.4-0.3c0.3-0.1,0.7-0.2,1-0.2c0.3-0.1,0.7-0.2,0.9-0.3c0.3-0.1,0.5-0.2,0.7-0.4c0.2-0.1,0.3-0.3,0.3-0.5
					c0-0.3-0.1-0.6-0.2-0.8s-0.3-0.3-0.5-0.4c-0.2-0.1-0.5-0.2-0.8-0.2s-0.6,0-0.8,0c-0.4,0-0.7,0-1,0.1c-0.3,0.1-0.6,0.2-0.8,0.3
					s-0.4,0.4-0.5,0.7c-0.1,0.3-0.2,0.7-0.2,1.1h-3c0-0.6,0.1-1.1,0.3-1.6c0.2-0.5,0.4-0.9,0.6-1.2s0.6-0.6,0.9-0.9
					c0.3-0.2,0.7-0.4,1.1-0.6s0.9-0.3,1.3-0.3c0.5-0.1,1-0.1,1.5-0.1c0.4,0,0.8,0,1.2,0.1c0.4,0,0.8,0.1,1.2,0.2
					c0.4,0.1,0.7,0.2,1.1,0.4c0.3,0.2,0.6,0.4,0.9,0.7s0.4,0.6,0.6,1c0.1,0.4,0.2,0.8,0.2,1.4v6.3c0,0.3,0,0.5,0,0.6
					c0,0.1,0.1,0.2,0.2,0.2c0,0,0.1,0,0.1,0c0,0,0.1,0,0.2,0c0.1,0,0.2,0,0.3-0.1c0.1,0,0.3-0.1,0.4-0.2V232.2z M939.6,230.2
					c0.6,0,1.1-0.1,1.5-0.2c0.4-0.2,0.8-0.3,1-0.6c0.3-0.2,0.5-0.5,0.6-0.8c0.1-0.3,0.2-0.5,0.2-0.8v-1.6c-0.3,0.1-0.7,0.3-1.1,0.4
					c-0.4,0.1-0.8,0.2-1.1,0.3c-0.4,0.1-0.8,0.2-1.1,0.3s-0.7,0.2-1,0.4c-0.3,0.1-0.5,0.3-0.7,0.5c-0.2,0.2-0.3,0.5-0.3,0.8
					c0,0.2,0.1,0.5,0.2,0.6c0.1,0.2,0.3,0.3,0.4,0.4c0.2,0.1,0.4,0.2,0.6,0.2S939.3,230.2,939.6,230.2z"/>
				<path class="st0" d="M951.7,214.8v5.9c0.2-0.3,0.5-0.5,0.8-0.7s0.6-0.4,0.9-0.5c0.3-0.1,0.6-0.2,1-0.3c0.3-0.1,0.7-0.1,1-0.1
					c0.7,0,1.3,0.1,1.9,0.3c0.6,0.2,1.1,0.4,1.5,0.7c0.5,0.3,0.9,0.7,1.2,1.1c0.3,0.4,0.6,0.9,0.8,1.4c0.2,0.5,0.4,1,0.5,1.6
					c0.1,0.6,0.2,1.1,0.2,1.7c0,0.9-0.1,1.8-0.4,2.6c-0.2,0.8-0.6,1.5-1.1,2.2c-0.5,0.6-1.1,1.1-1.9,1.5c-0.8,0.4-1.7,0.5-2.7,0.5
					c-0.3,0-0.7,0-1-0.1c-0.3-0.1-0.7-0.1-1-0.3c-0.3-0.1-0.6-0.3-0.9-0.5c-0.3-0.2-0.6-0.5-0.9-0.8v1.3h-3v-17.7H951.7z
					 M958.4,225.8c0-0.5-0.1-1-0.2-1.5c-0.1-0.5-0.3-0.9-0.6-1.3s-0.6-0.7-1.1-0.9s-1-0.4-1.6-0.4c-0.6,0-1.2,0.1-1.6,0.4
					s-0.8,0.6-1.1,1c-0.3,0.4-0.5,0.8-0.6,1.3c-0.1,0.5-0.2,1-0.2,1.5c0,0.5,0.1,1.1,0.2,1.6c0.1,0.5,0.3,0.9,0.6,1.3
					s0.6,0.7,1.1,0.9s1,0.4,1.7,0.4c0.6,0,1.1-0.1,1.6-0.4s0.8-0.6,1-1c0.3-0.4,0.4-0.9,0.5-1.4
					C958.4,226.9,958.4,226.4,958.4,225.8z"/>
				<path class="st0" d="M962.9,226c0-0.9,0.1-1.8,0.4-2.7c0.3-0.8,0.7-1.5,1.2-2.1c0.5-0.6,1.2-1.1,2-1.4c0.8-0.3,1.8-0.5,2.9-0.5
					c1.1,0,2,0.2,2.8,0.5c0.8,0.3,1.5,0.8,2,1.4c0.5,0.6,1,1.3,1.2,2.1s0.4,1.7,0.4,2.7c0,0.9-0.1,1.8-0.4,2.6s-0.7,1.5-1.2,2.1
					c-0.5,0.6-1.2,1.1-2,1.4c-0.8,0.3-1.8,0.5-2.8,0.5c-1.1,0-2-0.2-2.9-0.5c-0.8-0.3-1.5-0.8-2-1.4c-0.5-0.6-1-1.3-1.2-2.1
					C963.1,227.9,962.9,227,962.9,226z M966,226c0,0.7,0.1,1.3,0.3,1.8c0.2,0.5,0.4,0.9,0.7,1.3c0.3,0.3,0.7,0.6,1.1,0.8
					s0.9,0.3,1.4,0.3c0.5,0,0.9-0.1,1.3-0.3c0.4-0.2,0.8-0.4,1.1-0.8c0.3-0.3,0.6-0.8,0.8-1.3s0.3-1.1,0.3-1.8
					c0-0.7-0.1-1.2-0.3-1.8c-0.2-0.5-0.4-1-0.8-1.3c-0.3-0.4-0.7-0.6-1.1-0.8c-0.4-0.2-0.9-0.3-1.3-0.3c-0.5,0-0.9,0.1-1.4,0.3
					c-0.4,0.2-0.8,0.5-1.1,0.8c-0.3,0.4-0.6,0.8-0.7,1.3C966.1,224.8,966,225.4,966,226z"/>
				<path class="st0" d="M980.9,219.6v1.6c0.3-0.3,0.5-0.6,0.8-0.8s0.6-0.4,0.9-0.6c0.3-0.2,0.7-0.3,1.1-0.3
					c0.4-0.1,0.9-0.1,1.5-0.1v2.9c-0.8,0-1.5,0.1-2.1,0.3c-0.5,0.2-1,0.5-1.3,0.9c-0.3,0.4-0.5,0.9-0.6,1.4s-0.2,1.2-0.2,1.9v5.7h-3
					v-12.8H980.9z"/>
				<path class="st0" d="M998.7,232.2c-0.3,0.2-0.6,0.3-0.8,0.4c-0.3,0.1-0.6,0.1-1,0.1c-0.3,0-0.5,0-0.7-0.1s-0.4-0.1-0.6-0.2
					c-0.2-0.1-0.3-0.3-0.5-0.4c-0.1-0.2-0.2-0.4-0.3-0.6c-0.3,0.2-0.6,0.4-0.9,0.6c-0.3,0.2-0.7,0.3-1,0.4c-0.4,0.1-0.7,0.2-1.1,0.3
					c-0.4,0.1-0.7,0.1-1.1,0.1c-0.6,0-1.2-0.1-1.8-0.2c-0.6-0.1-1-0.4-1.5-0.7c-0.4-0.3-0.8-0.7-1-1.2s-0.4-1.1-0.4-1.7
					c0-0.6,0.1-1,0.2-1.4c0.1-0.4,0.3-0.7,0.6-1c0.3-0.3,0.5-0.5,0.9-0.7c0.3-0.2,0.7-0.3,1.1-0.5c0.4-0.1,0.8-0.2,1.3-0.3
					c0.5-0.1,0.9-0.2,1.4-0.3c0.3-0.1,0.7-0.2,1-0.2c0.3-0.1,0.7-0.2,0.9-0.3c0.3-0.1,0.5-0.2,0.7-0.4c0.2-0.1,0.3-0.3,0.3-0.5
					c0-0.3-0.1-0.6-0.2-0.8s-0.3-0.3-0.5-0.4c-0.2-0.1-0.5-0.2-0.8-0.2s-0.6,0-0.8,0c-0.4,0-0.7,0-1,0.1c-0.3,0.1-0.6,0.2-0.8,0.3
					s-0.4,0.4-0.5,0.7c-0.1,0.3-0.2,0.7-0.2,1.1h-3c0-0.6,0.1-1.1,0.3-1.6c0.2-0.5,0.4-0.9,0.6-1.2s0.6-0.6,0.9-0.9
					c0.3-0.2,0.7-0.4,1.1-0.6s0.9-0.3,1.3-0.3c0.5-0.1,1-0.1,1.5-0.1c0.4,0,0.8,0,1.2,0.1c0.4,0,0.8,0.1,1.2,0.2
					c0.4,0.1,0.7,0.2,1.1,0.4c0.3,0.2,0.6,0.4,0.9,0.7s0.4,0.6,0.6,1c0.1,0.4,0.2,0.8,0.2,1.4v6.3c0,0.3,0,0.5,0,0.6
					c0,0.1,0.1,0.2,0.2,0.2c0,0,0.1,0,0.1,0c0,0,0.1,0,0.2,0c0.1,0,0.2,0,0.3-0.1c0.1,0,0.3-0.1,0.4-0.2V232.2z M991.1,230.2
					c0.6,0,1.1-0.1,1.5-0.2c0.4-0.2,0.8-0.3,1-0.6c0.3-0.2,0.5-0.5,0.6-0.8c0.1-0.3,0.2-0.5,0.2-0.8v-1.6c-0.3,0.1-0.7,0.3-1.1,0.4
					c-0.4,0.1-0.8,0.2-1.1,0.3c-0.4,0.1-0.8,0.2-1.1,0.3s-0.7,0.2-1,0.4c-0.3,0.1-0.5,0.3-0.7,0.5c-0.2,0.2-0.3,0.5-0.3,0.8
					c0,0.2,0.1,0.5,0.2,0.6c0.1,0.2,0.3,0.3,0.4,0.4c0.2,0.1,0.4,0.2,0.6,0.2S990.9,230.2,991.1,230.2z"/>
				<path class="st0" d="M1006.3,219.6v2.7h-2.4v6.8c0,0.2,0,0.3,0.1,0.4c0,0.1,0.1,0.2,0.2,0.2c0.1,0,0.2,0.1,0.3,0.1
					c0.1,0,0.3,0,0.5,0h1.4v2.6h-2c-0.6,0-1.1,0-1.6-0.1c-0.4-0.1-0.8-0.2-1.1-0.5c-0.3-0.2-0.5-0.6-0.6-1c-0.1-0.4-0.2-0.9-0.2-1.6
					v-6.9h-2v-2.7h2v-3.8h2.9v3.8H1006.3z"/>
				<path class="st0" d="M1008.7,218.1v-3.3h3v3.3H1008.7z M1011.6,219.6v12.8h-3v-12.8H1011.6z"/>
				<path class="st0" d="M1013.9,226c0-0.9,0.1-1.8,0.4-2.7c0.3-0.8,0.7-1.5,1.2-2.1c0.5-0.6,1.2-1.1,2-1.4c0.8-0.3,1.8-0.5,2.9-0.5
					c1.1,0,2,0.2,2.8,0.5c0.8,0.3,1.5,0.8,2,1.4c0.5,0.6,1,1.3,1.2,2.1s0.4,1.7,0.4,2.7c0,0.9-0.1,1.8-0.4,2.6s-0.7,1.5-1.2,2.1
					c-0.5,0.6-1.2,1.1-2,1.4c-0.8,0.3-1.8,0.5-2.8,0.5c-1.1,0-2-0.2-2.9-0.5c-0.8-0.3-1.5-0.8-2-1.4c-0.5-0.6-1-1.3-1.2-2.1
					C1014.1,227.9,1013.9,227,1013.9,226z M1017,226c0,0.7,0.1,1.3,0.3,1.8c0.2,0.5,0.4,0.9,0.7,1.3c0.3,0.3,0.7,0.6,1.1,0.8
					s0.9,0.3,1.4,0.3c0.5,0,0.9-0.1,1.3-0.3c0.4-0.2,0.8-0.4,1.1-0.8c0.3-0.3,0.6-0.8,0.8-1.3s0.3-1.1,0.3-1.8
					c0-0.7-0.1-1.2-0.3-1.8c-0.2-0.5-0.4-1-0.8-1.3c-0.3-0.4-0.7-0.6-1.1-0.8c-0.4-0.2-0.9-0.3-1.3-0.3c-0.5,0-0.9,0.1-1.4,0.3
					c-0.4,0.2-0.8,0.5-1.1,0.8c-0.3,0.4-0.6,0.8-0.7,1.3C1017.1,224.8,1017,225.4,1017,226z"/>
				<path class="st0" d="M1031.9,219.6v1.3c0.4-0.5,1-0.9,1.5-1.2c0.6-0.3,1.3-0.4,2.1-0.4c0.9,0,1.7,0.1,2.3,0.4
					c0.6,0.2,1.1,0.6,1.5,1c0.4,0.4,0.6,0.9,0.8,1.5c0.1,0.6,0.2,1.2,0.2,1.9v8.3h-2.9v-8.5c0-0.6-0.2-1.1-0.5-1.5s-0.9-0.5-1.6-0.5
					c-0.5,0-1,0.1-1.4,0.3s-0.7,0.4-1,0.7s-0.5,0.7-0.6,1.1c-0.1,0.4-0.2,0.8-0.2,1.3v7.2h-3v-12.8H1031.9z"/>
			</g>
		</g>
		<g>
			<g>
				<path class="st0" d="M1033.5,105.7L995.8,68c-0.9-0.9-2.2-1.4-3.4-1.4c-1.2,0-2.5,0.5-3.4,1.4l-17.1,17.1c-1.9,1.9-1.9,5,0,6.9
					l4.9,4.9l-7.1,7.1c-6.3-4.7-14.7-5.1-21.4-1.1l-7.3-7.3l3.5-3.5c1.9-1.9,1.9-5,0-6.9L927.2,68c-0.9-0.9-2.2-1.4-3.4-1.4
					c-1.2,0-2.5,0.5-3.4,1.4l-37.7,37.7c-1.9,1.9-1.9,5,0,6.9l17.1,17.1c0.9,0.9,2.2,1.4,3.4,1.4c1.2,0,2.5-0.5,3.4-1.4l3.5-3.5
					l7.8,7.8c-2.1,7.9,5.5,19.2,14.5,28.2c5.3,5.3,10.9,9.6,15.9,12.1c3.8,2,7,2.7,9.5,2.7c3.4,0,5.7-1.3,7.2-2.8l6.9-6.9l0,0l13-13
					c0.3,0,0.5,0.1,0.8,0.1c3.7,0,7.4-1.4,10.2-4.2c2.7-2.7,4.2-6.4,4.2-10.2c0-3.1-1-6-2.8-8.4l7-7l5.2,5.2
					c0.9,0.9,2.2,1.4,3.4,1.4c1.2,0,2.5-0.5,3.4-1.4l17.1-17.1C1035.4,110.7,1035.4,107.6,1033.5,105.7z M993.4,143.7
					c-2,2-5.1,2-7.1,0.1l-0.1-0.1l0,0c0,0,0,0,0,0l-10.9-10.9c-2-2-5.2-2-7.2,0c-2,2-2,5.2,0,7.2l10.9,10.9c0,0,0,0,0,0l-7.3,7.3
					l-10.9-10.9c-2-2-5.2-2-7.2,0s-2,5.2,0,7.2l10.9,10.9l0,0l0,0l-3.6,3.6c-1.5,0.7-9.5-2-20.1-12.7
					c-10.6-10.6-13.4-18.6-12.7-20.1c1-1,1.5-2.2,1.5-3.6c0-1.4-0.5-2.6-1.5-3.6l-10.9-10.9l18.3-18.3l10.9,10.9c0,0,0,0,0.1,0
					l-1.2,1.2c-3,3-3,7.8,0,10.8c1.5,1.5,3.4,2.2,5.4,2.2c2,0,3.9-0.7,5.4-2.2l10.3-10.3c0.6-0.6,1.1-1.4,1.4-2.2
					c0.1,0.1,0.3,0.2,0.5,0.4l25.5,25.5c1,1,1.5,2.3,1.5,3.7C994.9,141.5,994.4,142.8,993.4,143.7z M1027.1,113l-10.1,10.1
					c-1.9,1.9-4.9,1.8-6.8-0.1l-30.7-30.7c-1.9-1.9-2-5-0.1-6.8l10.1-10.1c1.8-1.8,4.8-1.8,6.4-0.7c0,0,0.1,0.1,0.1,0.1l30.7,30.7
					c0,0,0,0,0.1,0.1C1028.9,108.1,1028.9,111.2,1027.1,113z M899.4,122.5l-10.1-10.1c-1.9-1.9-1.8-4.9,0.1-6.8l30.7-30.7
					c1.9-1.9,5-2,6.8-0.1l10.1,10.1c1.8,1.8,1.8,4.8,0.7,6.4c0,0-0.1,0.1-0.1,0.1L907,121.9c0,0,0,0-0.1,0.1
					C904.2,124.3,901.2,124.3,899.4,122.5z"/>
				<circle class="st0" cx="905.3" cy="109.8" r="4.8"/>
				<circle class="st0" cx="1010.9" cy="109.8" r="4.8"/>
			</g>
		</g>
	</g>
	<g>
		<path class="st0" d="M38,25.2h-1.5V18c0-0.4,0-0.9,0.1-1.3c0.1-0.4,0.2-0.8,0.3-1.2c0.1-0.4,0.3-0.7,0.6-1.1s0.6-0.6,0.9-0.8
			s0.8-0.4,1.3-0.6s1.1-0.2,1.8-0.2c0.7,0,1.3,0.1,1.8,0.2s1,0.3,1.3,0.6c0.4,0.2,0.7,0.5,0.9,0.8s0.4,0.7,0.6,1.1
			c0.1,0.4,0.3,0.8,0.3,1.2c0.1,0.4,0.1,0.9,0.1,1.3v7.2h-1.5v-7.5c0-0.3,0-0.6-0.1-0.9c0-0.3-0.1-0.6-0.2-0.9
			c-0.1-0.3-0.3-0.5-0.4-0.8c-0.2-0.2-0.4-0.5-0.7-0.6c-0.3-0.2-0.6-0.3-0.9-0.4C42.4,14,42,14,41.6,14c-0.5,0-0.9,0.1-1.2,0.2
			c-0.4,0.1-0.7,0.2-0.9,0.4c-0.3,0.2-0.5,0.4-0.7,0.6c-0.2,0.2-0.3,0.5-0.4,0.8c-0.1,0.3-0.2,0.6-0.2,0.9c0,0.3-0.1,0.6-0.1,0.9
			v2.9v0c0.2-0.5,0.5-0.9,0.8-1.2s0.6-0.6,1-0.7c0.4-0.2,0.7-0.3,1.1-0.4c0.4-0.1,0.8-0.1,1.2-0.1v1.2c-0.7,0-1.3,0.1-1.9,0.3
			s-1,0.6-1.3,1s-0.6,0.9-0.8,1.5c-0.2,0.6-0.2,1.3-0.2,2V25.2z"/>
		<path class="st0" d="M56.2,19c0-0.9-0.1-1.7-0.2-2.3c-0.1-0.6-0.4-1.2-0.6-1.6c-0.3-0.4-0.6-0.7-1-0.9c-0.4-0.2-0.8-0.3-1.3-0.3
			c-0.4,0-0.7,0.1-1,0.2c-0.3,0.1-0.6,0.3-0.9,0.5c-0.3,0.2-0.5,0.5-0.6,0.9c-0.2,0.4-0.3,0.8-0.4,1.3h-1.5c0.1-0.6,0.2-1.1,0.4-1.6
			s0.5-0.9,0.9-1.3s0.8-0.6,1.4-0.8s1.1-0.3,1.7-0.3c0.8,0,1.5,0.1,2.1,0.4c0.6,0.3,1.1,0.7,1.5,1.2c0.4,0.5,0.7,1.2,0.9,2
			c0.2,0.8,0.3,1.6,0.3,2.6c0,1-0.1,1.8-0.3,2.6c-0.2,0.8-0.5,1.5-0.9,2c-0.4,0.6-0.9,1-1.5,1.3c-0.6,0.3-1.3,0.5-2.1,0.5
			c-0.6,0-1.2-0.1-1.7-0.3s-1-0.5-1.4-0.8S49.2,23.5,49,23s-0.4-1.1-0.4-1.7h1.5c0.1,0.5,0.2,0.9,0.4,1.3s0.4,0.7,0.7,0.9
			c0.3,0.2,0.5,0.4,0.9,0.6c0.3,0.1,0.7,0.2,1,0.2c0.5,0,0.9-0.1,1.3-0.3c0.4-0.2,0.7-0.5,1-1s0.5-1,0.6-1.6
			C56.1,20.7,56.2,20,56.2,19z"/>
		<path class="st0" d="M58.9,16.2c0-0.6,0.2-1.1,0.4-1.5c0.2-0.4,0.6-0.8,1-1c0.4-0.3,0.8-0.5,1.3-0.6c0.5-0.1,1-0.2,1.5-0.2
			c0.6,0,1.1,0.1,1.6,0.2c0.5,0.2,0.9,0.4,1.3,0.7c0.4,0.3,0.7,0.7,0.9,1.2c0.2,0.5,0.3,1.1,0.3,1.8v8.4h-1.5v-8
			c0-0.6-0.1-1-0.2-1.5c-0.1-0.4-0.3-0.7-0.5-1c-0.2-0.3-0.5-0.5-0.8-0.6C63.9,14,63.6,14,63.1,14c-0.4,0-0.7,0-1,0.1
			c-0.3,0.1-0.6,0.2-0.8,0.4c-0.2,0.2-0.4,0.4-0.5,0.7c-0.1,0.3-0.2,0.6-0.3,1H58.9z"/>
		<path class="st0" d="M69.9,25.2V13h1.5v6.9c0,0.6,0.1,1.1,0.2,1.7c0.2,0.5,0.4,1,0.7,1.3c0.3,0.4,0.8,0.7,1.3,0.9s1.1,0.3,1.8,0.3
			c1,0,1.7-0.3,2.2-0.8c0.5-0.5,0.7-1.3,0.7-2.3v-8h1.5v8c0,0.7-0.1,1.3-0.2,1.8c-0.1,0.5-0.4,1-0.7,1.4c-0.3,0.4-0.8,0.7-1.3,0.9
			s-1.1,0.3-1.9,0.3c-0.4,0-0.8,0-1.2-0.1c-0.4-0.1-0.8-0.2-1.1-0.3c-0.4-0.2-0.7-0.4-1-0.7c-0.3-0.3-0.6-0.7-0.9-1.1v2H69.9z"/>
		<path class="st0" d="M83.9,25.2h-1.5V18c0-0.4,0-0.9,0.1-1.3c0.1-0.4,0.2-0.8,0.3-1.2c0.1-0.4,0.3-0.7,0.6-1.1s0.6-0.6,0.9-0.8
			s0.8-0.4,1.3-0.6s1.1-0.2,1.8-0.2c0.7,0,1.3,0.1,1.8,0.2s1,0.3,1.3,0.6c0.4,0.2,0.7,0.5,0.9,0.8s0.4,0.7,0.6,1.1
			c0.1,0.4,0.3,0.8,0.3,1.2c0.1,0.4,0.1,0.9,0.1,1.3v7.2h-1.5v-7.5c0-0.3,0-0.6-0.1-0.9c0-0.3-0.1-0.6-0.2-0.9
			c-0.1-0.3-0.3-0.5-0.4-0.8c-0.2-0.2-0.4-0.5-0.7-0.6c-0.3-0.2-0.6-0.3-0.9-0.4C88.4,14,88,14,87.5,14c-0.5,0-0.9,0.1-1.2,0.2
			c-0.4,0.1-0.7,0.2-0.9,0.4c-0.3,0.2-0.5,0.4-0.7,0.6c-0.2,0.2-0.3,0.5-0.4,0.8c-0.1,0.3-0.2,0.6-0.2,0.9c0,0.3-0.1,0.6-0.1,0.9
			v2.9v0c0.2-0.5,0.5-0.9,0.8-1.2s0.6-0.6,1-0.7c0.4-0.2,0.7-0.3,1.1-0.4c0.4-0.1,0.8-0.1,1.2-0.1v1.2c-0.7,0-1.3,0.1-1.9,0.3
			s-1,0.6-1.3,1s-0.6,0.9-0.8,1.5c-0.2,0.6-0.2,1.3-0.2,2V25.2z"/>
		<path class="st0" d="M82.7,10.8l0.5-1.1h9.3v1.1H82.7z"/>
		<path class="st0" d="M96.7,23.4l3.4-4.1h-1.4v-1h3v1l-4.9,5.9h-1.6V18c0-0.5,0-0.9,0.1-1.3s0.2-0.8,0.3-1.2
			c0.2-0.4,0.4-0.7,0.6-1.1s0.6-0.6,0.9-0.8c0.4-0.2,0.8-0.4,1.3-0.5c0.5-0.1,1.1-0.2,1.8-0.2c0.7,0,1.3,0.1,1.8,0.2
			c0.5,0.1,1,0.3,1.3,0.5c0.4,0.2,0.7,0.5,0.9,0.8c0.3,0.3,0.5,0.7,0.6,1.1c0.2,0.4,0.3,0.8,0.3,1.2s0.1,0.9,0.1,1.3v7.2h-1.5v-7.4
			c0-0.3,0-0.6-0.1-0.9c0-0.3-0.1-0.6-0.2-0.9c-0.1-0.3-0.3-0.5-0.4-0.8c-0.2-0.2-0.4-0.4-0.7-0.6c-0.3-0.2-0.6-0.3-0.9-0.4
			c-0.4-0.1-0.8-0.1-1.3-0.1c-0.5,0-0.9,0-1.3,0.1c-0.4,0.1-0.7,0.2-0.9,0.4c-0.3,0.2-0.5,0.4-0.7,0.6c-0.2,0.2-0.3,0.5-0.4,0.8
			c-0.1,0.3-0.2,0.6-0.2,0.9c0,0.3-0.1,0.6-0.1,0.9V23.4z"/>
		<path class="st0" d="M116.1,13.6c0.2,0.1,0.4,0.3,0.5,0.4c0.2,0.2,0.3,0.4,0.4,0.6c0.1,0.2,0.2,0.5,0.3,0.7
			c0.1,0.3,0.1,0.6,0.1,0.9v9h-1.5v-6.6c-0.1,0.1-0.3,0.3-0.5,0.4c-0.2,0.1-0.5,0.2-0.8,0.3c-0.3,0.1-0.6,0.1-0.9,0.2
			c-0.3,0.1-0.6,0.1-0.8,0.1c-0.3,0-0.6,0.1-0.9,0.1c-0.3,0-0.6,0.1-0.9,0.2c-0.3,0.1-0.6,0.2-0.8,0.3s-0.5,0.2-0.7,0.4
			s-0.4,0.4-0.5,0.6c-0.1,0.2-0.2,0.5-0.2,0.9c0,0.5,0.1,0.8,0.2,1.1c0.2,0.3,0.4,0.5,0.7,0.7c0.3,0.2,0.6,0.3,0.9,0.4
			c0.3,0.1,0.7,0.1,1.1,0.1c0.1,0,0.3,0,0.5,0c0.2,0,0.3,0,0.5,0v1c-0.3,0.1-0.5,0.1-0.7,0.1c-0.2,0-0.5,0-0.7,0
			c-0.5,0-1-0.1-1.5-0.2s-0.9-0.3-1.3-0.6c-0.4-0.3-0.6-0.6-0.9-1s-0.3-0.9-0.3-1.5c0-0.4,0.1-0.8,0.2-1.1c0.1-0.3,0.3-0.6,0.5-0.9
			c0.2-0.2,0.4-0.5,0.7-0.6c0.3-0.2,0.5-0.3,0.8-0.4s0.6-0.2,0.9-0.3c0.3-0.1,0.7-0.1,1-0.2c0.8-0.1,1.4-0.2,2-0.3
			c0.6-0.1,1-0.2,1.4-0.4c0.4-0.1,0.6-0.3,0.8-0.6s0.3-0.6,0.3-1c0-0.4,0-0.7-0.1-1c-0.1-0.3-0.2-0.5-0.3-0.7
			c-0.1-0.2-0.3-0.3-0.5-0.4c-0.2-0.1-0.4-0.2-0.6-0.3c-0.2-0.1-0.5-0.1-0.7-0.1c-0.2,0-0.5,0-0.8,0c-0.5,0-0.9,0-1.3,0.1
			c-0.4,0.1-0.7,0.2-1,0.4s-0.5,0.4-0.7,0.8s-0.3,0.7-0.3,1.2h-1.5c0.1-0.7,0.2-1.2,0.5-1.7c0.3-0.5,0.7-0.8,1.1-1.1s1-0.5,1.6-0.6
			c0.6-0.1,1.2-0.2,1.9-0.2c0.3,0,0.6,0,0.9,0c0.3,0,0.6,0.1,0.9,0.2c0.2,0,0.5,0,0.7-0.1c0.2-0.1,0.4-0.2,0.5-0.3
			c0.2-0.1,0.3-0.3,0.4-0.4c0.1-0.2,0.2-0.3,0.2-0.5h1.6c0,0.2-0.1,0.4-0.2,0.5c-0.1,0.2-0.2,0.4-0.4,0.5c-0.2,0.2-0.4,0.3-0.6,0.5
			C116.8,13.4,116.5,13.5,116.1,13.6z"/>
		<path class="st0" d="M120.9,21.7c0.1,0.8,0.4,1.4,0.9,1.8c0.5,0.4,1.2,0.6,2.2,0.6c0.3,0,0.6,0,0.9-0.1c0.3-0.1,0.6-0.2,0.9-0.4
			c0.3-0.2,0.5-0.4,0.7-0.7c0.2-0.3,0.3-0.7,0.3-1.1c0-0.3-0.1-0.5-0.2-0.8c-0.1-0.2-0.3-0.4-0.5-0.6s-0.6-0.4-0.9-0.5
			c-0.4-0.2-0.8-0.4-1.3-0.6c-0.4-0.2-0.7-0.3-1.1-0.4c-0.3-0.1-0.7-0.3-1-0.4c-0.3-0.1-0.6-0.3-0.8-0.5c-0.2-0.2-0.5-0.4-0.6-0.6
			s-0.3-0.5-0.4-0.7c-0.1-0.3-0.2-0.6-0.2-0.9c0-0.4,0-0.7,0.2-1s0.3-0.6,0.4-0.8c0.2-0.2,0.4-0.4,0.7-0.6s0.5-0.3,0.8-0.4
			s0.6-0.2,0.9-0.2s0.6-0.1,0.9-0.1c0.6,0,1.2,0.1,1.7,0.2c0.5,0.1,0.9,0.3,1.3,0.6c0.4,0.3,0.7,0.6,0.9,1c0.2,0.4,0.4,0.9,0.5,1.5
			h-1.5c-0.1-0.8-0.4-1.3-0.9-1.7s-1.1-0.5-1.8-0.5c-0.3,0-0.6,0-0.9,0.1c-0.3,0.1-0.6,0.2-0.8,0.3s-0.4,0.4-0.6,0.6
			c-0.2,0.3-0.2,0.6-0.2,0.9c0,0.3,0.1,0.6,0.2,0.8c0.1,0.2,0.4,0.4,0.6,0.6s0.6,0.3,1,0.5s0.8,0.3,1.3,0.5c0.8,0.3,1.4,0.5,1.9,0.8
			c0.5,0.3,0.9,0.5,1.2,0.8c0.3,0.3,0.5,0.6,0.6,0.9c0.1,0.3,0.2,0.7,0.2,1.1c0,0.6-0.1,1.2-0.3,1.6c-0.2,0.4-0.5,0.8-0.9,1.1
			c-0.4,0.3-0.9,0.5-1.4,0.6c-0.5,0.1-1.1,0.2-1.7,0.2c-0.6,0-1.2-0.1-1.7-0.2c-0.5-0.1-1-0.4-1.4-0.7s-0.7-0.7-1-1.1
			c-0.2-0.5-0.4-1-0.4-1.6H120.9z"/>
		<path class="st0" d="M123.5,10.8V9h-1V8h2.2v1.8c0.6,0,1-0.1,1.4-0.2s0.7-0.2,0.9-0.4s0.4-0.4,0.6-0.6c0.1-0.2,0.2-0.4,0.3-0.6
			h1.4c0,0.2-0.1,0.4-0.2,0.6c-0.1,0.2-0.2,0.4-0.4,0.6c-0.2,0.2-0.4,0.4-0.6,0.6s-0.5,0.4-0.8,0.5c-0.3,0.2-0.7,0.3-1.1,0.4
			c-0.4,0.1-0.8,0.1-1.3,0.1H123.5z"/>
		<path class="st0" d="M129.4,16.2c0-0.6,0.2-1.1,0.4-1.5c0.2-0.4,0.6-0.8,1-1c0.4-0.3,0.8-0.5,1.3-0.6c0.5-0.1,1-0.2,1.5-0.2
			c0.6,0,1.1,0.1,1.6,0.2c0.5,0.2,0.9,0.4,1.3,0.7c0.4,0.3,0.7,0.7,0.9,1.2c0.2,0.5,0.3,1.1,0.3,1.8v8.4h-1.5v-8
			c0-0.6-0.1-1-0.2-1.5c-0.1-0.4-0.3-0.7-0.5-1c-0.2-0.3-0.5-0.5-0.8-0.6c-0.3-0.1-0.7-0.2-1.1-0.2c-0.4,0-0.7,0-1,0.1
			c-0.3,0.1-0.6,0.2-0.8,0.4c-0.2,0.2-0.4,0.4-0.5,0.7c-0.1,0.3-0.2,0.6-0.3,1H129.4z"/>
		<path class="st0" d="M142.7,23.4c0.1,0.3,0.3,0.5,0.5,0.7c0.2,0.2,0.5,0.2,0.7,0.2c0.2,0,0.4,0,0.5-0.1c0.2-0.1,0.3-0.2,0.4-0.3
			s0.2-0.2,0.2-0.4s0.1-0.3,0.1-0.5v-9h-1.8v-1h3.3v9.6c0,0.5-0.1,1-0.2,1.3s-0.3,0.7-0.6,0.9s-0.5,0.4-0.9,0.5
			c-0.3,0.1-0.7,0.2-1.1,0.2c-0.4,0-0.7-0.1-1-0.2c-0.3-0.1-0.5-0.2-0.8-0.4c-0.2-0.2-0.4-0.4-0.6-0.7c-0.2-0.3-0.3-0.6-0.4-0.9
			l-1.7-5.1h1.5L142.7,23.4z"/>
		<path class="st0" d="M157.4,13.6c0.2,0.1,0.4,0.3,0.5,0.4c0.2,0.2,0.3,0.4,0.4,0.6c0.1,0.2,0.2,0.5,0.3,0.7
			c0.1,0.3,0.1,0.6,0.1,0.9v9h-1.5v-6.6c-0.1,0.1-0.3,0.3-0.5,0.4c-0.2,0.1-0.5,0.2-0.8,0.3c-0.3,0.1-0.6,0.1-0.9,0.2
			c-0.3,0.1-0.6,0.1-0.8,0.1c-0.3,0-0.6,0.1-0.9,0.1c-0.3,0-0.6,0.1-0.9,0.2c-0.3,0.1-0.6,0.2-0.8,0.3s-0.5,0.2-0.7,0.4
			s-0.4,0.4-0.5,0.6c-0.1,0.2-0.2,0.5-0.2,0.9c0,0.5,0.1,0.8,0.2,1.1c0.2,0.3,0.4,0.5,0.7,0.7c0.3,0.2,0.6,0.3,0.9,0.4
			c0.3,0.1,0.7,0.1,1.1,0.1c0.1,0,0.3,0,0.5,0c0.2,0,0.3,0,0.5,0v1c-0.3,0.1-0.5,0.1-0.7,0.1c-0.2,0-0.5,0-0.7,0
			c-0.5,0-1-0.1-1.5-0.2s-0.9-0.3-1.3-0.6c-0.4-0.3-0.6-0.6-0.9-1s-0.3-0.9-0.3-1.5c0-0.4,0.1-0.8,0.2-1.1c0.1-0.3,0.3-0.6,0.5-0.9
			c0.2-0.2,0.4-0.5,0.7-0.6c0.3-0.2,0.5-0.3,0.8-0.4s0.6-0.2,0.9-0.3c0.3-0.1,0.7-0.1,1-0.2c0.8-0.1,1.4-0.2,2-0.3
			c0.6-0.1,1-0.2,1.4-0.4c0.4-0.1,0.6-0.3,0.8-0.6s0.3-0.6,0.3-1c0-0.4,0-0.7-0.1-1c-0.1-0.3-0.2-0.5-0.3-0.7
			c-0.1-0.2-0.3-0.3-0.5-0.4c-0.2-0.1-0.4-0.2-0.6-0.3c-0.2-0.1-0.5-0.1-0.7-0.1c-0.2,0-0.5,0-0.8,0c-0.5,0-0.9,0-1.3,0.1
			c-0.4,0.1-0.7,0.2-1,0.4s-0.5,0.4-0.7,0.8s-0.3,0.7-0.3,1.2h-1.5c0.1-0.7,0.2-1.2,0.5-1.7c0.3-0.5,0.7-0.8,1.1-1.1s1-0.5,1.6-0.6
			c0.6-0.1,1.2-0.2,1.9-0.2c0.3,0,0.6,0,0.9,0c0.3,0,0.6,0.1,0.9,0.2c0.2,0,0.5,0,0.7-0.1c0.2-0.1,0.4-0.2,0.5-0.3
			c0.2-0.1,0.3-0.3,0.4-0.4c0.1-0.2,0.2-0.3,0.2-0.5h1.6c0,0.2-0.1,0.4-0.2,0.5c-0.1,0.2-0.2,0.4-0.4,0.5c-0.2,0.2-0.4,0.3-0.6,0.5
			C158,13.4,157.7,13.5,157.4,13.6z"/>
		<path class="st0" d="M162.1,21.7c0.1,0.8,0.4,1.4,0.9,1.8c0.5,0.4,1.2,0.6,2.2,0.6c0.3,0,0.6,0,0.9-0.1c0.3-0.1,0.6-0.2,0.9-0.4
			c0.3-0.2,0.5-0.4,0.7-0.7c0.2-0.3,0.3-0.7,0.3-1.1c0-0.3-0.1-0.5-0.2-0.8c-0.1-0.2-0.3-0.4-0.5-0.6s-0.6-0.4-0.9-0.5
			c-0.4-0.2-0.8-0.4-1.3-0.6c-0.4-0.2-0.7-0.3-1.1-0.4c-0.3-0.1-0.7-0.3-1-0.4c-0.3-0.1-0.6-0.3-0.8-0.5c-0.2-0.2-0.5-0.4-0.6-0.6
			s-0.3-0.5-0.4-0.7c-0.1-0.3-0.2-0.6-0.2-0.9c0-0.4,0-0.7,0.2-1s0.3-0.6,0.4-0.8c0.2-0.2,0.4-0.4,0.7-0.6s0.5-0.3,0.8-0.4
			s0.6-0.2,0.9-0.2s0.6-0.1,0.9-0.1c0.6,0,1.2,0.1,1.7,0.2c0.5,0.1,0.9,0.3,1.3,0.6c0.4,0.3,0.7,0.6,0.9,1c0.2,0.4,0.4,0.9,0.5,1.5
			h-1.5c-0.1-0.8-0.4-1.3-0.9-1.7s-1.1-0.5-1.8-0.5c-0.3,0-0.6,0-0.9,0.1c-0.3,0.1-0.6,0.2-0.8,0.3s-0.4,0.4-0.6,0.6
			c-0.2,0.3-0.2,0.6-0.2,0.9c0,0.3,0.1,0.6,0.2,0.8c0.1,0.2,0.4,0.4,0.6,0.6s0.6,0.3,1,0.5s0.8,0.3,1.3,0.5c0.8,0.3,1.4,0.5,1.9,0.8
			c0.5,0.3,0.9,0.5,1.2,0.8c0.3,0.3,0.5,0.6,0.6,0.9c0.1,0.3,0.2,0.7,0.2,1.1c0,0.6-0.1,1.2-0.3,1.6c-0.2,0.4-0.5,0.8-0.9,1.1
			c-0.4,0.3-0.9,0.5-1.4,0.6c-0.5,0.1-1.1,0.2-1.7,0.2c-0.6,0-1.2-0.1-1.7-0.2c-0.5-0.1-1-0.4-1.4-0.7s-0.7-0.7-1-1.1
			c-0.2-0.5-0.4-1-0.4-1.6H162.1z"/>
		<path class="st0" d="M172.3,21.7c0.1,0.8,0.4,1.4,0.9,1.8c0.5,0.4,1.2,0.6,2.2,0.6c0.3,0,0.6,0,0.9-0.1c0.3-0.1,0.6-0.2,0.9-0.4
			c0.3-0.2,0.5-0.4,0.7-0.7c0.2-0.3,0.3-0.7,0.3-1.1c0-0.3-0.1-0.5-0.2-0.8c-0.1-0.2-0.3-0.4-0.5-0.6s-0.6-0.4-0.9-0.5
			c-0.4-0.2-0.8-0.4-1.3-0.6c-0.4-0.2-0.7-0.3-1.1-0.4c-0.3-0.1-0.7-0.3-1-0.4c-0.3-0.1-0.6-0.3-0.8-0.5c-0.2-0.2-0.5-0.4-0.6-0.6
			s-0.3-0.5-0.4-0.7c-0.1-0.3-0.2-0.6-0.2-0.9c0-0.4,0-0.7,0.2-1s0.3-0.6,0.4-0.8c0.2-0.2,0.4-0.4,0.7-0.6s0.5-0.3,0.8-0.4
			s0.6-0.2,0.9-0.2s0.6-0.1,0.9-0.1c0.6,0,1.2,0.1,1.7,0.2c0.5,0.1,0.9,0.3,1.3,0.6c0.4,0.3,0.7,0.6,0.9,1c0.2,0.4,0.4,0.9,0.5,1.5
			h-1.5c-0.1-0.8-0.4-1.3-0.9-1.7s-1.1-0.5-1.8-0.5c-0.3,0-0.6,0-0.9,0.1c-0.3,0.1-0.6,0.2-0.8,0.3s-0.4,0.4-0.6,0.6
			c-0.2,0.3-0.2,0.6-0.2,0.9c0,0.3,0.1,0.6,0.2,0.8c0.1,0.2,0.4,0.4,0.6,0.6s0.6,0.3,1,0.5s0.8,0.3,1.3,0.5c0.8,0.3,1.4,0.5,1.9,0.8
			c0.5,0.3,0.9,0.5,1.2,0.8c0.3,0.3,0.5,0.6,0.6,0.9c0.1,0.3,0.2,0.7,0.2,1.1c0,0.6-0.1,1.2-0.3,1.6c-0.2,0.4-0.5,0.8-0.9,1.1
			c-0.4,0.3-0.9,0.5-1.4,0.6c-0.5,0.1-1.1,0.2-1.7,0.2c-0.6,0-1.2-0.1-1.7-0.2c-0.5-0.1-1-0.4-1.4-0.7s-0.7-0.7-1-1.1
			c-0.2-0.5-0.4-1-0.4-1.6H172.3z"/>
		<path class="st0" d="M183.2,25.2h-1.5V18c0-0.4,0-0.9,0.1-1.3c0.1-0.4,0.2-0.8,0.3-1.2c0.1-0.4,0.3-0.7,0.6-1.1s0.6-0.6,0.9-0.8
			s0.8-0.4,1.3-0.6s1.1-0.2,1.8-0.2c0.7,0,1.3,0.1,1.8,0.2s1,0.3,1.3,0.6c0.4,0.2,0.7,0.5,0.9,0.8s0.4,0.7,0.6,1.1
			c0.1,0.4,0.3,0.8,0.3,1.2c0.1,0.4,0.1,0.9,0.1,1.3v7.2h-1.5v-7.5c0-0.3,0-0.6-0.1-0.9c0-0.3-0.1-0.6-0.2-0.9
			c-0.1-0.3-0.3-0.5-0.4-0.8c-0.2-0.2-0.4-0.5-0.7-0.6c-0.3-0.2-0.6-0.3-0.9-0.4c-0.4-0.1-0.8-0.2-1.2-0.2c-0.5,0-0.9,0.1-1.2,0.2
			c-0.4,0.1-0.7,0.2-0.9,0.4c-0.3,0.2-0.5,0.4-0.7,0.6c-0.2,0.2-0.3,0.5-0.4,0.8c-0.1,0.3-0.2,0.6-0.2,0.9c0,0.3-0.1,0.6-0.1,0.9
			v2.9v0c0.2-0.5,0.5-0.9,0.8-1.2s0.6-0.6,1-0.7c0.4-0.2,0.7-0.3,1.1-0.4c0.4-0.1,0.8-0.1,1.2-0.1v1.2c-0.7,0-1.3,0.1-1.9,0.3
			s-1,0.6-1.3,1s-0.6,0.9-0.8,1.5c-0.2,0.6-0.2,1.3-0.2,2V25.2z"/>
		<path class="st0" d="M192.8,9c-0.7,0-1.2,0.2-1.7,0.5c-0.4,0.3-0.7,0.8-0.7,1.3H189c0.1-0.5,0.2-0.9,0.4-1.2
			c0.2-0.3,0.5-0.6,0.8-0.9c0.3-0.2,0.7-0.4,1.1-0.5s0.9-0.2,1.5-0.2V9z"/>
	</g>
	<g>
		<g>
			<circle class="st2" cx="8.8" cy="19" r="5.9"/>
		</g>
	</g>
	<g>
		<g>
			<circle class="st2" cx="279.1" cy="19" r="5.9"/>
		</g>
	</g>
	<g>
		<g>
			<circle class="st3" cx="551.2" cy="19" r="5.9"/>
		</g>
	</g>
	<g>
		<g>
			<circle class="st4" cx="867" cy="19" r="5.9"/>
		</g>
	</g>
	<g>
		<g>
			<path class="st0" d="M306.2,19c0-0.9-0.1-1.7-0.2-2.3c-0.1-0.6-0.4-1.2-0.6-1.6c-0.3-0.4-0.6-0.7-1-0.9c-0.4-0.2-0.8-0.3-1.3-0.3
				c-0.4,0-0.7,0.1-1,0.2c-0.3,0.1-0.6,0.3-0.9,0.5c-0.3,0.2-0.5,0.5-0.6,0.9c-0.2,0.4-0.3,0.8-0.4,1.3h-1.5
				c0.1-0.6,0.2-1.1,0.4-1.6s0.5-0.9,0.9-1.3s0.8-0.6,1.4-0.8s1.1-0.3,1.7-0.3c0.8,0,1.5,0.1,2.1,0.4c0.6,0.3,1.1,0.7,1.5,1.2
				c0.4,0.5,0.7,1.2,0.9,2c0.2,0.8,0.3,1.6,0.3,2.6c0,1-0.1,1.8-0.3,2.6c-0.2,0.8-0.5,1.5-0.9,2c-0.4,0.6-0.9,1-1.5,1.3
				c-0.6,0.3-1.3,0.5-2.1,0.5c-0.6,0-1.2-0.1-1.7-0.3s-1-0.5-1.4-0.8s-0.7-0.8-0.9-1.3s-0.4-1.1-0.4-1.7h1.5
				c0.1,0.5,0.2,0.9,0.4,1.3s0.4,0.7,0.7,0.9c0.3,0.2,0.5,0.4,0.9,0.6c0.3,0.1,0.7,0.2,1,0.2c0.5,0,0.9-0.1,1.3-0.3
				c0.4-0.2,0.7-0.5,1-1s0.5-1,0.6-1.6C306.2,20.7,306.2,20,306.2,19z"/>
			<path class="st0" d="M299.2,10.8l0.5-1.1h7.5v1.1H299.2z"/>
			<path class="st0" d="M310.3,25.2V13h1.4v12.1H310.3z"/>
			<path class="st0" d="M316.3,25.2h-1.5V18c0-0.4,0-0.9,0.1-1.3c0.1-0.4,0.2-0.8,0.3-1.2c0.1-0.4,0.3-0.7,0.6-1.1s0.6-0.6,0.9-0.8
				s0.8-0.4,1.3-0.6s1.1-0.2,1.8-0.2c0.7,0,1.3,0.1,1.8,0.2s1,0.3,1.3,0.6c0.4,0.2,0.7,0.5,0.9,0.8s0.4,0.7,0.6,1.1
				c0.1,0.4,0.3,0.8,0.3,1.2c0.1,0.4,0.1,0.9,0.1,1.3v7.2h-1.5v-7.5c0-0.3,0-0.6-0.1-0.9c0-0.3-0.1-0.6-0.2-0.9
				c-0.1-0.3-0.3-0.5-0.4-0.8c-0.2-0.2-0.4-0.5-0.7-0.6c-0.3-0.2-0.6-0.3-0.9-0.4c-0.4-0.1-0.8-0.2-1.2-0.2c-0.5,0-0.9,0.1-1.2,0.2
				c-0.4,0.1-0.7,0.2-0.9,0.4c-0.3,0.2-0.5,0.4-0.7,0.6c-0.2,0.2-0.3,0.5-0.4,0.8c-0.1,0.3-0.2,0.6-0.2,0.9c0,0.3-0.1,0.6-0.1,0.9
				v2.9v0c0.2-0.5,0.5-0.9,0.8-1.2s0.6-0.6,1-0.7c0.4-0.2,0.7-0.3,1.1-0.4c0.4-0.1,0.8-0.1,1.2-0.1v1.2c-0.7,0-1.3,0.1-1.9,0.3
				s-1,0.6-1.3,1s-0.6,0.9-0.8,1.5c-0.2,0.6-0.2,1.3-0.2,2V25.2z"/>
			<path class="st0" d="M328.4,21.7c0.1,0.8,0.4,1.4,0.9,1.8c0.5,0.4,1.2,0.6,2.2,0.6c0.3,0,0.6,0,0.9-0.1c0.3-0.1,0.6-0.2,0.9-0.4
				c0.3-0.2,0.5-0.4,0.7-0.7c0.2-0.3,0.3-0.7,0.3-1.1c0-0.3-0.1-0.5-0.2-0.8c-0.1-0.2-0.3-0.4-0.5-0.6s-0.6-0.4-0.9-0.5
				c-0.4-0.2-0.8-0.4-1.3-0.6c-0.4-0.2-0.7-0.3-1.1-0.4c-0.3-0.1-0.7-0.3-1-0.4c-0.3-0.1-0.6-0.3-0.8-0.5c-0.2-0.2-0.5-0.4-0.6-0.6
				s-0.3-0.5-0.4-0.7c-0.1-0.3-0.2-0.6-0.2-0.9c0-0.4,0-0.7,0.2-1s0.3-0.6,0.4-0.8c0.2-0.2,0.4-0.4,0.7-0.6s0.5-0.3,0.8-0.4
				s0.6-0.2,0.9-0.2s0.6-0.1,0.9-0.1c0.6,0,1.2,0.1,1.7,0.2c0.5,0.1,0.9,0.3,1.3,0.6c0.4,0.3,0.7,0.6,0.9,1c0.2,0.4,0.4,0.9,0.5,1.5
				h-1.5c-0.1-0.8-0.4-1.3-0.9-1.7s-1.1-0.5-1.8-0.5c-0.3,0-0.6,0-0.9,0.1c-0.3,0.1-0.6,0.2-0.8,0.3s-0.4,0.4-0.6,0.6
				c-0.2,0.3-0.2,0.6-0.2,0.9c0,0.3,0.1,0.6,0.2,0.8c0.1,0.2,0.4,0.4,0.6,0.6s0.6,0.3,1,0.5s0.8,0.3,1.3,0.5
				c0.8,0.3,1.4,0.5,1.9,0.8c0.5,0.3,0.9,0.5,1.2,0.8c0.3,0.3,0.5,0.6,0.6,0.9c0.1,0.3,0.2,0.7,0.2,1.1c0,0.6-0.1,1.2-0.3,1.6
				c-0.2,0.4-0.5,0.8-0.9,1.1c-0.4,0.3-0.9,0.5-1.4,0.6c-0.5,0.1-1.1,0.2-1.7,0.2c-0.6,0-1.2-0.1-1.7-0.2c-0.5-0.1-1-0.4-1.4-0.7
				s-0.7-0.7-1-1.1c-0.2-0.5-0.4-1-0.4-1.6H328.4z"/>
			<path class="st0" d="M336.9,16.2c0-0.6,0.2-1.1,0.4-1.5c0.2-0.4,0.6-0.8,1-1c0.4-0.3,0.8-0.5,1.3-0.6c0.5-0.1,1-0.2,1.5-0.2
				c0.6,0,1.1,0.1,1.6,0.2c0.5,0.2,0.9,0.4,1.3,0.7c0.4,0.3,0.7,0.7,0.9,1.2c0.2,0.5,0.3,1.1,0.3,1.8v8.4h-1.5v-8
				c0-0.6-0.1-1-0.2-1.5c-0.1-0.4-0.3-0.7-0.5-1c-0.2-0.3-0.5-0.5-0.8-0.6c-0.3-0.1-0.7-0.2-1.1-0.2c-0.4,0-0.7,0-1,0.1
				c-0.3,0.1-0.6,0.2-0.8,0.4c-0.2,0.2-0.4,0.4-0.5,0.7c-0.1,0.3-0.2,0.6-0.3,1H336.9z"/>
			<path class="st0" d="M347.6,16.7v-1.9h1.4v0.9h3.1v1.1H347.6z M347.6,23v-1.9h1.4V22h3.1v1H347.6z"/>
			<path class="st0" d="M355.9,13v5.4l6.2-5.4h2l-2.8,2.3c0.6,0.2,1,0.4,1.4,0.7s0.6,0.6,0.8,1c0.2,0.4,0.3,0.8,0.4,1.2
				c0.1,0.5,0.1,0.9,0.1,1.5v5.4h-1.5v-5.7c0-0.4,0-0.8-0.1-1.1c-0.1-0.4-0.2-0.7-0.3-1c-0.2-0.3-0.4-0.5-0.7-0.7s-0.6-0.3-1-0.4
				l-4.4,3.9v5h-1.5V13H355.9z"/>
			<path class="st0" d="M365,9c-0.7,0-1.2,0.2-1.7,0.5c-0.4,0.3-0.7,0.8-0.7,1.3h-1.4c0.1-0.5,0.2-0.9,0.4-1.2
				c0.2-0.3,0.5-0.6,0.8-0.9c0.3-0.2,0.7-0.4,1.1-0.5S364.4,8,365,8V9z"/>
			<path class="st0" d="M371.6,25.2V13h1.5v12.1H371.6z M375.3,25.2V13h1.5v12.1H375.3z"/>
			<path class="st0" d="M384,14c-0.4,0-0.8,0-1.2,0.1c-0.4,0.1-0.7,0.2-0.9,0.3c-0.3,0.1-0.5,0.3-0.7,0.5c-0.2,0.2-0.4,0.4-0.5,0.5
				s-0.3,0.4-0.3,0.6c-0.1,0.2-0.1,0.4-0.2,0.5c0.3,0.2,0.6,0.5,0.7,0.9c0.2,0.4,0.2,0.8,0.2,1.4v6.4h-1.5v-6.5c0-0.2,0-0.4,0-0.6
				c0-0.2-0.1-0.4-0.1-0.6s-0.2-0.4-0.3-0.5s-0.3-0.3-0.5-0.4c0.1-0.5,0.3-0.9,0.6-1.4c0.3-0.4,0.6-0.8,1-1.2c0.4-0.3,1-0.6,1.6-0.8
				s1.4-0.3,2.2-0.3c0.7,0,1.3,0.1,1.8,0.2c0.5,0.1,1,0.3,1.4,0.5c0.4,0.2,0.7,0.5,1,0.8c0.3,0.3,0.5,0.7,0.6,1
				c0.2,0.4,0.3,0.8,0.3,1.2c0.1,0.4,0.1,0.9,0.1,1.3v7.3h-1.5v-7.6c0-0.3,0-0.6-0.1-0.9c0-0.3-0.1-0.6-0.2-0.8
				c-0.1-0.3-0.3-0.5-0.4-0.8c-0.2-0.2-0.4-0.4-0.7-0.6s-0.6-0.3-1-0.4C384.9,14,384.5,14,384,14z"/>
			<path class="st0" d="M385.1,10.8V9h-1V8h2.2v1.8c0.6,0,1-0.1,1.4-0.2s0.7-0.2,0.9-0.4s0.4-0.4,0.6-0.6c0.1-0.2,0.2-0.4,0.3-0.6
				h1.4c0,0.2-0.1,0.4-0.2,0.6c-0.1,0.2-0.2,0.4-0.4,0.6c-0.2,0.2-0.4,0.4-0.6,0.6s-0.5,0.4-0.8,0.5c-0.3,0.2-0.7,0.3-1.1,0.4
				c-0.4,0.1-0.8,0.1-1.3,0.1H385.1z"/>
			<path class="st0" d="M396.9,24.3c0.5,0,0.9-0.1,1.2-0.2s0.7-0.2,0.9-0.4c0.3-0.2,0.5-0.4,0.7-0.6c0.2-0.2,0.3-0.5,0.4-0.8
				c0.1-0.3,0.2-0.6,0.2-0.9s0.1-0.6,0.1-0.9V7.7h1.5v12.5c0,0.4,0,0.9-0.1,1.3c-0.1,0.4-0.2,0.8-0.3,1.2c-0.1,0.4-0.3,0.7-0.6,1.1
				c-0.2,0.3-0.5,0.6-0.9,0.8c-0.4,0.2-0.8,0.4-1.3,0.6s-1.1,0.2-1.8,0.2c-0.7,0-1.3-0.1-1.8-0.2s-1-0.3-1.3-0.6
				c-0.4-0.2-0.7-0.5-0.9-0.8c-0.2-0.3-0.4-0.7-0.6-1.1c-0.1-0.4-0.2-0.8-0.3-1.2c-0.1-0.4-0.1-0.9-0.1-1.3V13h1.5v7.5
				c0,0.3,0,0.6,0.1,0.9c0,0.3,0.1,0.6,0.2,0.9c0.1,0.3,0.2,0.5,0.4,0.8s0.4,0.5,0.7,0.6c0.3,0.2,0.6,0.3,0.9,0.4
				S396.4,24.3,396.9,24.3z"/>
			<path class="st0" d="M394.5,10.8V8.7h1.4v1.1h8.4v1.1H394.5z"/>
			<path class="st0" d="M421,13v9.1c0,0.6,0,1.1-0.1,1.5c-0.1,0.4-0.1,0.8-0.2,1.2c-0.1,0.3-0.2,0.6-0.3,0.9s-0.2,0.5-0.4,0.6
				c-0.2,0.3-0.5,0.6-0.8,0.9c-0.3,0.2-0.6,0.4-0.9,0.5c-0.3,0.1-0.7,0.2-1,0.3c-0.4,0.1-0.7,0.1-1.1,0.1c-0.5,0-1-0.1-1.4-0.2
				c-0.5-0.1-0.9-0.3-1.3-0.6c-0.4-0.2-0.7-0.6-1-0.9c-0.3-0.4-0.4-0.8-0.5-1.3h1.6c0.2,0.7,0.5,1.1,0.9,1.4s1,0.5,1.7,0.5
				c0.4,0,0.8-0.1,1.1-0.2c0.3-0.1,0.6-0.2,0.9-0.4c0.3-0.2,0.5-0.4,0.6-0.6c0.2-0.2,0.3-0.5,0.4-0.8c0.1-0.3,0.2-0.6,0.2-0.9
				c0.1-0.3,0.1-0.6,0.1-0.9v-1.1c-0.2,0.4-0.5,0.8-0.8,1c-0.3,0.3-0.6,0.5-0.9,0.7c-0.3,0.2-0.6,0.3-1,0.4s-0.7,0.1-1.1,0.1
				c-0.7,0-1.2-0.1-1.7-0.4c-0.4-0.2-0.8-0.6-1.1-1c-0.3-0.4-0.5-0.9-0.6-1.4s-0.2-1.1-0.2-1.7v-2.4c0-0.3,0-0.6-0.1-0.9
				c0-0.3-0.1-0.6-0.2-0.8c-0.1-0.3-0.2-0.5-0.4-0.8s-0.4-0.4-0.7-0.6s-0.6-0.3-0.9-0.4c-0.4-0.1-0.8-0.2-1.2-0.2
				c-0.6,0-1.1,0.1-1.6,0.2s-0.8,0.4-1.1,0.6c-0.3,0.3-0.5,0.5-0.7,0.8c-0.2,0.3-0.3,0.6-0.3,0.9c0.2,0.1,0.4,0.2,0.5,0.4
				c0.1,0.2,0.2,0.3,0.3,0.5s0.1,0.4,0.1,0.6c0,0.2,0,0.5,0,0.7v5.3h1.4v1.1h-2.8v-6.4c0-0.2,0-0.4,0-0.6s0-0.4-0.1-0.6
				c-0.1-0.2-0.2-0.4-0.3-0.5c-0.1-0.2-0.3-0.3-0.6-0.5c0.1-0.3,0.2-0.6,0.3-0.9c0.1-0.3,0.3-0.6,0.5-0.9c0.2-0.3,0.5-0.5,0.7-0.8
				c0.3-0.2,0.6-0.4,1-0.6c0.4-0.2,0.8-0.3,1.2-0.4c0.4-0.1,0.9-0.2,1.5-0.2c0.6,0,1.2,0.1,1.7,0.2c0.5,0.1,0.9,0.3,1.3,0.5
				c0.4,0.2,0.7,0.5,0.9,0.8c0.3,0.3,0.5,0.7,0.6,1s0.3,0.8,0.3,1.2c0.1,0.4,0.1,0.9,0.1,1.3v2.4c0,0.4,0,0.8,0.1,1.2
				c0.1,0.4,0.2,0.7,0.4,0.9c0.2,0.3,0.4,0.5,0.7,0.6c0.3,0.1,0.6,0.2,1,0.2c0.5,0,1-0.1,1.4-0.3c0.4-0.2,0.8-0.5,1-0.8
				c0.3-0.4,0.5-0.8,0.6-1.3c0.1-0.5,0.2-1,0.2-1.6V13H421z"/>
			<path class="st0" d="M425.2,13v5.4l6.2-5.4h2l-2.8,2.3c0.6,0.2,1,0.4,1.4,0.7s0.6,0.6,0.8,1c0.2,0.4,0.3,0.8,0.4,1.2
				c0.1,0.5,0.1,0.9,0.1,1.5v5.4h-1.5v-5.7c0-0.4,0-0.8-0.1-1.1c-0.1-0.4-0.2-0.7-0.3-1c-0.2-0.3-0.4-0.5-0.7-0.7s-0.6-0.3-1-0.4
				l-4.4,3.9v5h-1.5V13H425.2z"/>
			<path class="st0" d="M435,16.2c0-0.6,0.2-1.1,0.4-1.5c0.2-0.4,0.6-0.8,1-1c0.4-0.3,0.8-0.5,1.3-0.6c0.5-0.1,1-0.2,1.5-0.2
				c0.6,0,1.1,0.1,1.6,0.2c0.5,0.2,0.9,0.4,1.3,0.7c0.4,0.3,0.7,0.7,0.9,1.2c0.2,0.5,0.3,1.1,0.3,1.8v8.4h-1.5v-8
				c0-0.6-0.1-1-0.2-1.5c-0.1-0.4-0.3-0.7-0.5-1c-0.2-0.3-0.5-0.5-0.8-0.6c-0.3-0.1-0.7-0.2-1.1-0.2c-0.4,0-0.7,0-1,0.1
				c-0.3,0.1-0.6,0.2-0.8,0.4c-0.2,0.2-0.4,0.4-0.5,0.7c-0.1,0.3-0.2,0.6-0.3,1H435z"/>
			<path class="st0" d="M446.7,11.1c0-0.4,0.1-0.8,0.4-1.2c0.3-0.4,0.6-0.7,1.1-1h-4.5l0.6-1h5.4l0.3,1.1c-0.3,0-0.5,0.1-0.7,0.2
				c-0.2,0.1-0.4,0.3-0.6,0.4c-0.2,0.2-0.3,0.4-0.4,0.7c-0.1,0.3-0.1,0.6-0.1,0.9v13h1.3v1h-2.8V11.1z"/>
			<path class="st0" d="M453,23.4l3.4-4.1H455v-1h3v1l-4.9,5.9h-1.6V18c0-0.5,0-0.9,0.1-1.3s0.2-0.8,0.3-1.2
				c0.2-0.4,0.4-0.7,0.6-1.1s0.6-0.6,0.9-0.8c0.4-0.2,0.8-0.4,1.3-0.5c0.5-0.1,1.1-0.2,1.8-0.2c0.7,0,1.3,0.1,1.8,0.2
				c0.5,0.1,1,0.3,1.3,0.5c0.4,0.2,0.7,0.5,0.9,0.8c0.3,0.3,0.5,0.7,0.6,1.1c0.2,0.4,0.3,0.8,0.3,1.2s0.1,0.9,0.1,1.3v7.2h-1.5v-7.4
				c0-0.3,0-0.6-0.1-0.9c0-0.3-0.1-0.6-0.2-0.9c-0.1-0.3-0.3-0.5-0.4-0.8c-0.2-0.2-0.4-0.4-0.7-0.6c-0.3-0.2-0.6-0.3-0.9-0.4
				c-0.4-0.1-0.8-0.1-1.3-0.1c-0.5,0-0.9,0-1.3,0.1c-0.4,0.1-0.7,0.2-0.9,0.4c-0.3,0.2-0.5,0.4-0.7,0.6c-0.2,0.2-0.3,0.5-0.4,0.8
				c-0.1,0.3-0.2,0.6-0.2,0.9c0,0.3-0.1,0.6-0.1,0.9V23.4z"/>
			<path class="st0" d="M457.6,10.8V9h-1V8h2.2v1.8c0.6,0,1-0.1,1.4-0.2s0.7-0.2,0.9-0.4s0.4-0.4,0.6-0.6c0.1-0.2,0.2-0.4,0.3-0.6
				h1.4c0,0.2-0.1,0.4-0.2,0.6c-0.1,0.2-0.2,0.4-0.4,0.6c-0.2,0.2-0.4,0.4-0.6,0.6s-0.5,0.4-0.8,0.5c-0.3,0.2-0.7,0.3-1.1,0.4
				c-0.4,0.1-0.8,0.1-1.3,0.1H457.6z"/>
		</g>
	</g>
	<g>
		<g>
			<path class="st0" d="M577.9,13.6c0.2,0.1,0.4,0.3,0.5,0.4s0.3,0.4,0.4,0.6c0.1,0.2,0.2,0.5,0.3,0.7c0.1,0.3,0.1,0.6,0.1,0.9v9
				h-1.5v-6.6c-0.1,0.1-0.3,0.3-0.5,0.4c-0.2,0.1-0.5,0.2-0.8,0.3c-0.3,0.1-0.6,0.1-0.9,0.2c-0.3,0.1-0.6,0.1-0.8,0.1
				c-0.3,0-0.6,0.1-0.9,0.1c-0.3,0-0.6,0.1-0.9,0.2s-0.6,0.2-0.8,0.3c-0.3,0.1-0.5,0.2-0.7,0.4c-0.2,0.2-0.4,0.4-0.5,0.6
				c-0.1,0.2-0.2,0.5-0.2,0.9c0,0.5,0.1,0.8,0.2,1.1c0.2,0.3,0.4,0.5,0.7,0.7c0.3,0.2,0.6,0.3,0.9,0.4c0.3,0.1,0.7,0.1,1.1,0.1
				c0.1,0,0.3,0,0.5,0c0.2,0,0.3,0,0.5,0v1c-0.3,0.1-0.5,0.1-0.7,0.1c-0.2,0-0.5,0-0.7,0c-0.5,0-1-0.1-1.5-0.2s-0.9-0.3-1.3-0.6
				c-0.4-0.3-0.6-0.6-0.9-1c-0.2-0.4-0.3-0.9-0.3-1.5c0-0.4,0.1-0.8,0.2-1.1s0.3-0.6,0.5-0.9c0.2-0.2,0.4-0.5,0.7-0.6
				s0.5-0.3,0.8-0.4c0.3-0.1,0.6-0.2,1-0.3c0.3-0.1,0.7-0.1,1-0.2c0.8-0.1,1.4-0.2,2-0.3c0.6-0.1,1-0.2,1.4-0.4
				c0.4-0.1,0.6-0.3,0.8-0.6s0.3-0.6,0.3-1c0-0.4,0-0.7-0.1-1c-0.1-0.3-0.2-0.5-0.3-0.7s-0.3-0.3-0.5-0.4c-0.2-0.1-0.4-0.2-0.6-0.3
				c-0.2-0.1-0.5-0.1-0.7-0.1s-0.5,0-0.8,0c-0.5,0-0.9,0-1.3,0.1c-0.4,0.1-0.7,0.2-1,0.4c-0.3,0.2-0.5,0.4-0.7,0.8
				c-0.2,0.3-0.3,0.7-0.3,1.2h-1.5c0.1-0.7,0.2-1.2,0.5-1.7c0.3-0.5,0.7-0.8,1.1-1.1c0.5-0.3,1-0.5,1.6-0.6c0.6-0.1,1.2-0.2,1.9-0.2
				c0.3,0,0.6,0,0.9,0s0.6,0.1,0.9,0.2c0.2,0,0.5,0,0.7-0.1c0.2-0.1,0.4-0.2,0.5-0.3c0.2-0.1,0.3-0.3,0.4-0.4
				c0.1-0.2,0.2-0.3,0.2-0.5h1.6c0,0.2-0.1,0.4-0.2,0.5c-0.1,0.2-0.2,0.4-0.4,0.5c-0.2,0.2-0.4,0.3-0.7,0.5
				C578.6,13.4,578.3,13.5,577.9,13.6z"/>
			<path class="st0" d="M569.9,9.8h4.8V7.9h1.3v1.9h1.8V7.9h1.3v3h-9.8L569.9,9.8z"/>
			<path class="st0" d="M577.8,3.2h1.4v3.1h-1.4V3.2z"/>
			<path class="st0" d="M581.5,16.4c0.2-0.5,0.4-1,0.7-1.5c0.3-0.4,0.6-0.8,1-1.2c0.4-0.3,0.9-0.6,1.5-0.8c0.6-0.2,1.2-0.3,1.9-0.3
				c1,0,1.8,0.2,2.4,0.5c0.7,0.3,1.2,0.8,1.6,1.3s0.7,1.2,0.9,2c0.2,0.8,0.3,1.6,0.3,2.5c0,0.6,0,1.1-0.1,1.7
				c-0.1,0.5-0.2,1-0.4,1.5c-0.2,0.5-0.4,0.9-0.7,1.3s-0.6,0.7-1,1s-0.8,0.5-1.3,0.7s-1.1,0.2-1.7,0.2c-0.6,0-1.2-0.1-1.7-0.2
				c-0.5-0.2-0.9-0.4-1.3-0.7s-0.7-0.6-1-1c-0.3-0.4-0.5-0.8-0.7-1.3c-0.2-0.5-0.3-1-0.4-1.5c-0.1-0.5-0.1-1.1-0.1-1.7v-0.4h4.9v1
				h-3.4c0,0.7,0.1,1.3,0.3,1.9c0.2,0.6,0.4,1.1,0.8,1.5s0.7,0.7,1.2,0.9c0.4,0.2,0.9,0.3,1.5,0.3c0.6,0,1.1-0.1,1.5-0.4
				c0.5-0.2,0.8-0.6,1.2-1c0.3-0.4,0.6-1,0.7-1.6c0.2-0.7,0.3-1.4,0.3-2.2c0-3.4-1.2-5.1-3.7-5.1c-0.4,0-0.8,0.1-1.2,0.2
				s-0.7,0.3-1,0.5c-0.3,0.2-0.6,0.5-0.8,0.8c-0.2,0.3-0.4,0.6-0.5,1H581.5z"/>
			<path class="st0" d="M602,13.6c0.2,0.1,0.4,0.3,0.5,0.4c0.2,0.2,0.3,0.4,0.4,0.6c0.1,0.2,0.2,0.5,0.3,0.7
				c0.1,0.3,0.1,0.6,0.1,0.9v9h-1.5v-6.6c-0.1,0.1-0.3,0.3-0.5,0.4s-0.5,0.2-0.8,0.3c-0.3,0.1-0.6,0.1-0.9,0.2
				c-0.3,0.1-0.6,0.1-0.8,0.1c-0.3,0-0.6,0.1-0.9,0.1c-0.3,0-0.6,0.1-0.9,0.2c-0.3,0.1-0.6,0.2-0.8,0.3c-0.3,0.1-0.5,0.2-0.7,0.4
				c-0.2,0.2-0.4,0.4-0.5,0.6c-0.1,0.2-0.2,0.5-0.2,0.9c0,0.5,0.1,0.8,0.2,1.1c0.2,0.3,0.4,0.5,0.7,0.7c0.3,0.2,0.6,0.3,0.9,0.4
				c0.3,0.1,0.7,0.1,1.1,0.1c0.1,0,0.3,0,0.5,0c0.2,0,0.3,0,0.5,0v1c-0.3,0.1-0.5,0.1-0.7,0.1c-0.2,0-0.5,0-0.7,0
				c-0.5,0-1-0.1-1.5-0.2s-0.9-0.3-1.3-0.6c-0.4-0.3-0.6-0.6-0.9-1c-0.2-0.4-0.3-0.9-0.3-1.5c0-0.4,0.1-0.8,0.2-1.1
				c0.1-0.3,0.3-0.6,0.5-0.9c0.2-0.2,0.4-0.5,0.7-0.6c0.3-0.2,0.5-0.3,0.8-0.4c0.3-0.1,0.6-0.2,0.9-0.3c0.3-0.1,0.7-0.1,1-0.2
				c0.8-0.1,1.4-0.2,2-0.3c0.6-0.1,1-0.2,1.4-0.4c0.4-0.1,0.6-0.3,0.8-0.6s0.3-0.6,0.3-1c0-0.4,0-0.7-0.1-1
				c-0.1-0.3-0.2-0.5-0.3-0.7c-0.1-0.2-0.3-0.3-0.5-0.4s-0.4-0.2-0.6-0.3c-0.2-0.1-0.5-0.1-0.7-0.1c-0.2,0-0.5,0-0.8,0
				c-0.5,0-0.9,0-1.3,0.1c-0.4,0.1-0.7,0.2-1,0.4c-0.3,0.2-0.5,0.4-0.7,0.8c-0.2,0.3-0.3,0.7-0.3,1.2h-1.5c0.1-0.7,0.2-1.2,0.5-1.7
				c0.3-0.5,0.7-0.8,1.1-1.1c0.5-0.3,1-0.5,1.6-0.6c0.6-0.1,1.2-0.2,1.9-0.2c0.3,0,0.6,0,0.9,0c0.3,0,0.6,0.1,0.9,0.2
				c0.2,0,0.5,0,0.7-0.1c0.2-0.1,0.4-0.2,0.5-0.3c0.2-0.1,0.3-0.3,0.4-0.4c0.1-0.2,0.2-0.3,0.2-0.5h1.6c0,0.2-0.1,0.4-0.2,0.5
				c-0.1,0.2-0.2,0.4-0.4,0.5c-0.2,0.2-0.4,0.3-0.6,0.5C602.6,13.4,602.3,13.5,602,13.6z"/>
			<path class="st0" d="M605,16.2c0-0.6,0.2-1.1,0.4-1.5c0.2-0.4,0.6-0.8,1-1c0.4-0.3,0.8-0.5,1.3-0.6c0.5-0.1,1-0.2,1.5-0.2
				c0.6,0,1.1,0.1,1.6,0.2c0.5,0.2,0.9,0.4,1.3,0.7s0.7,0.7,0.9,1.2c0.2,0.5,0.3,1.1,0.3,1.8v8.4h-1.5v-8c0-0.6-0.1-1-0.2-1.5
				c-0.1-0.4-0.3-0.7-0.5-1c-0.2-0.3-0.5-0.5-0.8-0.6c-0.3-0.1-0.7-0.2-1.1-0.2c-0.4,0-0.7,0-1,0.1c-0.3,0.1-0.6,0.2-0.8,0.4
				c-0.2,0.2-0.4,0.4-0.5,0.7c-0.1,0.3-0.2,0.6-0.3,1H605z"/>
			<path class="st0" d="M616.8,21.7c0.1,0.8,0.4,1.4,0.9,1.8c0.5,0.4,1.2,0.6,2.2,0.6c0.3,0,0.6,0,0.9-0.1c0.3-0.1,0.6-0.2,0.9-0.4
				c0.3-0.2,0.5-0.4,0.7-0.7c0.2-0.3,0.3-0.7,0.3-1.1c0-0.3-0.1-0.5-0.2-0.8c-0.1-0.2-0.3-0.4-0.5-0.6s-0.6-0.4-0.9-0.5
				c-0.4-0.2-0.8-0.4-1.3-0.6c-0.4-0.2-0.7-0.3-1.1-0.4c-0.3-0.1-0.7-0.3-1-0.4s-0.6-0.3-0.8-0.5s-0.5-0.4-0.6-0.6
				c-0.2-0.2-0.3-0.5-0.4-0.7c-0.1-0.3-0.2-0.6-0.2-0.9c0-0.4,0-0.7,0.2-1c0.1-0.3,0.2-0.6,0.4-0.8c0.2-0.2,0.4-0.4,0.7-0.6
				s0.5-0.3,0.8-0.4s0.6-0.2,0.9-0.2s0.6-0.1,0.9-0.1c0.6,0,1.2,0.1,1.7,0.2c0.5,0.1,0.9,0.3,1.3,0.6c0.4,0.3,0.7,0.6,0.9,1
				c0.2,0.4,0.4,0.9,0.5,1.5h-1.5c-0.1-0.8-0.4-1.3-0.9-1.7s-1.1-0.5-1.8-0.5c-0.3,0-0.6,0-0.9,0.1c-0.3,0.1-0.6,0.2-0.8,0.3
				c-0.2,0.2-0.4,0.4-0.6,0.6c-0.2,0.3-0.2,0.6-0.2,0.9c0,0.3,0.1,0.6,0.2,0.8c0.1,0.2,0.3,0.4,0.6,0.6c0.3,0.2,0.6,0.3,1,0.5
				s0.8,0.3,1.3,0.5c0.8,0.3,1.4,0.5,1.9,0.8c0.5,0.3,0.9,0.5,1.2,0.8c0.3,0.3,0.5,0.6,0.6,0.9s0.2,0.7,0.2,1.1
				c0,0.6-0.1,1.2-0.3,1.6c-0.2,0.4-0.5,0.8-0.9,1.1c-0.4,0.3-0.9,0.5-1.4,0.6c-0.5,0.1-1.1,0.2-1.7,0.2c-0.6,0-1.2-0.1-1.7-0.2
				c-0.5-0.1-1-0.4-1.4-0.7s-0.7-0.7-1-1.1c-0.2-0.5-0.4-1-0.4-1.6H616.8z"/>
			<path class="st0" d="M625.8,16.4c0.2-0.5,0.4-1,0.7-1.5c0.3-0.4,0.6-0.8,1-1.2c0.4-0.3,0.9-0.6,1.5-0.8c0.6-0.2,1.2-0.3,1.9-0.3
				c1,0,1.8,0.2,2.4,0.5c0.7,0.3,1.2,0.8,1.6,1.3c0.4,0.6,0.7,1.2,0.9,2s0.3,1.6,0.3,2.5c0,0.6,0,1.1-0.1,1.7s-0.2,1-0.4,1.5
				c-0.2,0.5-0.4,0.9-0.7,1.3s-0.6,0.7-1,1s-0.8,0.5-1.3,0.7c-0.5,0.2-1.1,0.2-1.7,0.2c-0.6,0-1.2-0.1-1.7-0.2s-0.9-0.4-1.3-0.7
				s-0.7-0.6-1-1c-0.3-0.4-0.5-0.8-0.7-1.3c-0.2-0.5-0.3-1-0.4-1.5s-0.1-1.1-0.1-1.7v-0.4h4.9v1h-3.4c0,0.7,0.1,1.3,0.3,1.9
				c0.2,0.6,0.4,1.1,0.8,1.5c0.3,0.4,0.7,0.7,1.2,0.9c0.4,0.2,0.9,0.3,1.5,0.3c0.6,0,1.1-0.1,1.5-0.4c0.5-0.2,0.8-0.6,1.2-1
				c0.3-0.4,0.6-1,0.7-1.6c0.2-0.7,0.3-1.4,0.3-2.2c0-3.4-1.2-5.1-3.7-5.1c-0.4,0-0.8,0.1-1.2,0.2s-0.7,0.3-1,0.5
				c-0.3,0.2-0.6,0.5-0.8,0.8c-0.2,0.3-0.4,0.6-0.5,1H625.8z"/>
			<path class="st0" d="M637.9,15.7c0-0.4,0-0.7,0.1-1c0.1-0.3,0.2-0.5,0.4-0.7c0.2-0.2,0.3-0.4,0.5-0.5c0.2-0.1,0.4-0.2,0.7-0.3
				c0.2-0.1,0.5-0.1,0.7-0.2c0.2,0,0.5,0,0.7,0h1.4v1.1h-0.8c-0.1,0-0.2,0-0.4,0s-0.3,0-0.5,0.1s-0.3,0.1-0.5,0.1s-0.3,0.2-0.4,0.3
				c-0.1,0.1-0.2,0.3-0.3,0.5c-0.1,0.2-0.1,0.4-0.1,0.7c0,0.4,0.1,0.7,0.2,0.9c0.1,0.3,0.3,0.5,0.5,0.6c0.2,0.2,0.4,0.3,0.7,0.4
				s0.6,0.1,0.9,0.2h0.7v1.2h-0.7c-0.3,0-0.6,0.1-0.9,0.2c-0.3,0.1-0.5,0.3-0.7,0.4c-0.2,0.2-0.3,0.4-0.5,0.7
				c-0.1,0.3-0.2,0.6-0.2,1c0,0.5,0.1,0.9,0.3,1.3s0.4,0.7,0.7,0.9c0.3,0.2,0.7,0.4,1.1,0.5c0.4,0.1,0.8,0.2,1.3,0.2
				c0.5,0,1-0.1,1.4-0.2s0.8-0.3,1.1-0.6c0.3-0.3,0.5-0.7,0.7-1.1c0.2-0.5,0.2-1,0.2-1.7V13h1.5v8c0,0.7-0.1,1.4-0.4,1.9
				s-0.6,1-1,1.4s-1,0.7-1.5,0.8c-0.6,0.2-1.2,0.3-1.9,0.3c-0.4,0-0.8,0-1.2-0.1c-0.4-0.1-0.8-0.2-1.2-0.3c-0.4-0.1-0.7-0.3-1-0.5
				c-0.3-0.2-0.6-0.5-0.8-0.8c-0.2-0.3-0.4-0.6-0.5-1c-0.1-0.4-0.2-0.8-0.2-1.2c0-0.3,0-0.6,0.1-0.9s0.2-0.6,0.3-0.8
				c0.1-0.3,0.4-0.5,0.6-0.7s0.6-0.4,1-0.5c-0.5-0.2-0.8-0.3-1.1-0.6c-0.3-0.2-0.5-0.5-0.6-0.7c-0.1-0.3-0.2-0.5-0.2-0.8
				C637.9,16.2,637.9,16,637.9,15.7z"/>
			<path class="st0" d="M646.3,7.4h1.4v3.4h-1.4V7.4z"/>
			<path class="st0" d="M649.4,16.2c0-0.6,0.2-1.1,0.4-1.5c0.2-0.4,0.6-0.8,1-1c0.4-0.3,0.8-0.5,1.3-0.6c0.5-0.1,1-0.2,1.5-0.2
				c0.6,0,1.1,0.1,1.6,0.2c0.5,0.2,0.9,0.4,1.3,0.7s0.7,0.7,0.9,1.2c0.2,0.5,0.3,1.1,0.3,1.8v8.4h-1.5v-8c0-0.6-0.1-1-0.2-1.5
				c-0.1-0.4-0.3-0.7-0.5-1c-0.2-0.3-0.5-0.5-0.8-0.6c-0.3-0.1-0.7-0.2-1.1-0.2c-0.4,0-0.7,0-1,0.1c-0.3,0.1-0.6,0.2-0.8,0.4
				c-0.2,0.2-0.4,0.4-0.5,0.7c-0.1,0.3-0.2,0.6-0.3,1H649.4z"/>
			<path class="st0" d="M662.7,23.4c0.1,0.3,0.3,0.5,0.5,0.7c0.2,0.2,0.5,0.2,0.7,0.2c0.2,0,0.4,0,0.5-0.1c0.2-0.1,0.3-0.2,0.4-0.3
				s0.2-0.2,0.2-0.4c0.1-0.2,0.1-0.3,0.1-0.5v-9h-1.8v-1h3.3v9.6c0,0.5-0.1,1-0.2,1.3s-0.3,0.7-0.6,0.9c-0.2,0.2-0.5,0.4-0.9,0.5
				c-0.3,0.1-0.7,0.2-1.1,0.2c-0.4,0-0.7-0.1-1-0.2c-0.3-0.1-0.5-0.2-0.8-0.4s-0.4-0.4-0.6-0.7c-0.2-0.3-0.3-0.6-0.4-0.9l-1.7-5.1
				h1.5L662.7,23.4z"/>
			<path class="st0" d="M669.3,25.2V13h1.5v6.9c0,0.6,0.1,1.1,0.2,1.7c0.2,0.5,0.4,1,0.7,1.3c0.3,0.4,0.8,0.7,1.3,0.9
				s1.1,0.3,1.8,0.3c1,0,1.7-0.3,2.2-0.8s0.7-1.3,0.7-2.3v-8h1.5v8c0,0.7-0.1,1.3-0.2,1.8c-0.1,0.5-0.4,1-0.7,1.4s-0.8,0.7-1.3,0.9
				s-1.1,0.3-1.9,0.3c-0.4,0-0.8,0-1.2-0.1s-0.8-0.2-1.1-0.3s-0.7-0.4-1-0.7c-0.3-0.3-0.6-0.7-0.9-1.1v2H669.3z"/>
			<path class="st0" d="M669.9,9.8h7.9V7.9h1.4v3h-9.8L669.9,9.8z"/>
			<path class="st0" d="M686.9,24.3c0.5,0,0.9-0.1,1.2-0.2c0.3-0.1,0.7-0.2,0.9-0.4c0.3-0.2,0.5-0.4,0.7-0.6s0.3-0.5,0.4-0.8
				c0.1-0.3,0.2-0.6,0.2-0.9s0.1-0.6,0.1-0.9V7.7h1.5v12.5c0,0.4,0,0.9-0.1,1.3c-0.1,0.4-0.2,0.8-0.3,1.2c-0.1,0.4-0.3,0.7-0.6,1.1
				c-0.2,0.3-0.5,0.6-0.9,0.8c-0.4,0.2-0.8,0.4-1.3,0.6c-0.5,0.1-1.1,0.2-1.8,0.2c-0.7,0-1.3-0.1-1.8-0.2c-0.5-0.1-1-0.3-1.3-0.6
				c-0.4-0.2-0.7-0.5-0.9-0.8c-0.2-0.3-0.4-0.7-0.6-1.1c-0.1-0.4-0.2-0.8-0.3-1.2c-0.1-0.4-0.1-0.9-0.1-1.3V13h1.5v7.5
				c0,0.3,0,0.6,0.1,0.9c0,0.3,0.1,0.6,0.2,0.9c0.1,0.3,0.2,0.5,0.4,0.8s0.4,0.5,0.7,0.6c0.3,0.2,0.6,0.3,0.9,0.4
				C686,24.2,686.4,24.3,686.9,24.3z"/>
			<path class="st0" d="M695.3,21.7c0.1,0.8,0.4,1.4,0.9,1.8c0.5,0.4,1.2,0.6,2.2,0.6c0.3,0,0.6,0,0.9-0.1c0.3-0.1,0.6-0.2,0.9-0.4
				c0.3-0.2,0.5-0.4,0.7-0.7c0.2-0.3,0.3-0.7,0.3-1.1c0-0.3-0.1-0.5-0.2-0.8c-0.1-0.2-0.3-0.4-0.5-0.6s-0.6-0.4-0.9-0.5
				c-0.4-0.2-0.8-0.4-1.3-0.6c-0.4-0.2-0.7-0.3-1.1-0.4c-0.3-0.1-0.7-0.3-1-0.4s-0.6-0.3-0.8-0.5s-0.5-0.4-0.6-0.6
				c-0.2-0.2-0.3-0.5-0.4-0.7c-0.1-0.3-0.2-0.6-0.2-0.9c0-0.4,0-0.7,0.2-1c0.1-0.3,0.2-0.6,0.4-0.8c0.2-0.2,0.4-0.4,0.7-0.6
				s0.5-0.3,0.8-0.4s0.6-0.2,0.9-0.2s0.6-0.1,0.9-0.1c0.6,0,1.2,0.1,1.7,0.2c0.5,0.1,0.9,0.3,1.3,0.6c0.4,0.3,0.7,0.6,0.9,1
				c0.2,0.4,0.4,0.9,0.5,1.5h-1.5c-0.1-0.8-0.4-1.3-0.9-1.7s-1.1-0.5-1.8-0.5c-0.3,0-0.6,0-0.9,0.1c-0.3,0.1-0.6,0.2-0.8,0.3
				c-0.2,0.2-0.4,0.4-0.6,0.6c-0.2,0.3-0.2,0.6-0.2,0.9c0,0.3,0.1,0.6,0.2,0.8c0.1,0.2,0.3,0.4,0.6,0.6c0.3,0.2,0.6,0.3,1,0.5
				s0.8,0.3,1.3,0.5c0.8,0.3,1.4,0.5,1.9,0.8c0.5,0.3,0.9,0.5,1.2,0.8c0.3,0.3,0.5,0.6,0.6,0.9s0.2,0.7,0.2,1.1
				c0,0.6-0.1,1.2-0.3,1.6c-0.2,0.4-0.5,0.8-0.9,1.1c-0.4,0.3-0.9,0.5-1.4,0.6c-0.5,0.1-1.1,0.2-1.7,0.2c-0.6,0-1.2-0.1-1.7-0.2
				c-0.5-0.1-1-0.4-1.4-0.7s-0.7-0.7-1-1.1c-0.2-0.5-0.4-1-0.4-1.6H695.3z"/>
			<path class="st0" d="M704.5,16.7v-1.9h1.4v0.9h3.1v1.1H704.5z M704.5,23v-1.9h1.4V22h3.1v1H704.5z"/>
			<path class="st0" d="M719.3,13.6c0.2,0.1,0.4,0.3,0.5,0.4s0.3,0.4,0.4,0.6c0.1,0.2,0.2,0.5,0.3,0.7c0.1,0.3,0.1,0.6,0.1,0.9v9
				h-1.5v-6.6c-0.1,0.1-0.3,0.3-0.5,0.4c-0.2,0.1-0.5,0.2-0.8,0.3c-0.3,0.1-0.6,0.1-0.9,0.2c-0.3,0.1-0.6,0.1-0.8,0.1
				c-0.3,0-0.6,0.1-0.9,0.1c-0.3,0-0.6,0.1-0.9,0.2s-0.6,0.2-0.8,0.3c-0.3,0.1-0.5,0.2-0.7,0.4c-0.2,0.2-0.4,0.4-0.5,0.6
				c-0.1,0.2-0.2,0.5-0.2,0.9c0,0.5,0.1,0.8,0.2,1.1c0.2,0.3,0.4,0.5,0.7,0.7c0.3,0.2,0.6,0.3,0.9,0.4c0.3,0.1,0.7,0.1,1.1,0.1
				c0.1,0,0.3,0,0.5,0c0.2,0,0.3,0,0.5,0v1c-0.3,0.1-0.5,0.1-0.7,0.1c-0.2,0-0.5,0-0.7,0c-0.5,0-1-0.1-1.5-0.2s-0.9-0.3-1.3-0.6
				c-0.4-0.3-0.6-0.6-0.9-1c-0.2-0.4-0.3-0.9-0.3-1.5c0-0.4,0.1-0.8,0.2-1.1s0.3-0.6,0.5-0.9c0.2-0.2,0.4-0.5,0.7-0.6
				s0.5-0.3,0.8-0.4c0.3-0.1,0.6-0.2,1-0.3c0.3-0.1,0.7-0.1,1-0.2c0.8-0.1,1.4-0.2,2-0.3c0.6-0.1,1-0.2,1.4-0.4
				c0.4-0.1,0.6-0.3,0.8-0.6s0.3-0.6,0.3-1c0-0.4,0-0.7-0.1-1c-0.1-0.3-0.2-0.5-0.3-0.7s-0.3-0.3-0.5-0.4c-0.2-0.1-0.4-0.2-0.6-0.3
				c-0.2-0.1-0.5-0.1-0.7-0.1s-0.5,0-0.8,0c-0.5,0-0.9,0-1.3,0.1c-0.4,0.1-0.7,0.2-1,0.4c-0.3,0.2-0.5,0.4-0.7,0.8
				c-0.2,0.3-0.3,0.7-0.3,1.2h-1.5c0.1-0.7,0.2-1.2,0.5-1.7c0.3-0.5,0.7-0.8,1.1-1.1c0.5-0.3,1-0.5,1.6-0.6c0.6-0.1,1.2-0.2,1.9-0.2
				c0.3,0,0.6,0,0.9,0s0.6,0.1,0.9,0.2c0.2,0,0.5,0,0.7-0.1c0.2-0.1,0.4-0.2,0.5-0.3c0.2-0.1,0.3-0.3,0.4-0.4
				c0.1-0.2,0.2-0.3,0.2-0.5h1.6c0,0.2-0.1,0.4-0.2,0.5c-0.1,0.2-0.2,0.4-0.4,0.5c-0.2,0.2-0.4,0.3-0.7,0.5
				C720,13.4,719.7,13.5,719.3,13.6z"/>
			<path class="st0" d="M710.8,10.8l0.5-1.1h9.3v1.1H710.8z"/>
			<path class="st0" d="M724.8,13v2c0.3-0.5,0.6-0.8,0.9-1.1c0.3-0.3,0.7-0.5,1-0.7c0.4-0.2,0.7-0.3,1.1-0.3
				c0.4-0.1,0.8-0.1,1.2-0.1c0.7,0,1.4,0.1,1.9,0.3s0.9,0.5,1.3,0.9s0.6,0.9,0.7,1.4s0.2,1.1,0.2,1.8v8h-1.5v-8c0-1-0.2-1.8-0.7-2.3
				c-0.5-0.5-1.2-0.8-2.2-0.8c-0.7,0-1.3,0.1-1.8,0.3c-0.5,0.2-0.9,0.5-1.3,0.9c-0.3,0.4-0.6,0.8-0.7,1.3c-0.2,0.5-0.2,1.1-0.2,1.7
				v6.9h-1.5V13H724.8z"/>
			<path class="st0" d="M737.2,19.5v2.2c0,0.5,0.1,0.9,0.3,1.2c0.2,0.3,0.4,0.6,0.7,0.8c0.3,0.2,0.6,0.3,1,0.4
				c0.4,0.1,0.8,0.1,1.1,0.1c0.2,0,0.5,0,0.7,0c0.2,0,0.5-0.1,0.7-0.1c0.2-0.1,0.5-0.2,0.7-0.3c0.2-0.1,0.4-0.3,0.5-0.5
				c0.2-0.2,0.3-0.4,0.4-0.7c0.1-0.3,0.1-0.6,0.1-0.9c0-0.3,0-0.5,0-0.7c0-0.2-0.1-0.4-0.2-0.5c-0.1-0.2-0.2-0.3-0.4-0.4
				c-0.2-0.1-0.4-0.3-0.6-0.4s-0.6-0.3-1-0.4c-0.4-0.1-0.9-0.3-1.5-0.5c-0.6-0.2-1.1-0.4-1.6-0.6c-0.5-0.2-0.9-0.4-1.3-0.7
				c-0.4-0.3-0.7-0.5-0.9-0.9c-0.2-0.3-0.3-0.7-0.3-1.2c0-0.3,0.1-0.6,0.2-0.9s0.3-0.5,0.5-0.7c0.2-0.2,0.4-0.4,0.7-0.5
				c0.3-0.1,0.6-0.3,0.9-0.4c0.3-0.1,0.6-0.2,1-0.2c0.3,0,0.6-0.1,1-0.1c0.7,0,1.3,0.1,1.8,0.2c0.6,0.1,1.1,0.3,1.5,0.6
				c0.4,0.3,0.8,0.6,1,1c0.3,0.4,0.4,0.9,0.4,1.5H743c0-0.4-0.1-0.7-0.3-1c-0.2-0.3-0.4-0.5-0.6-0.7c-0.3-0.2-0.6-0.3-0.9-0.4
				c-0.3-0.1-0.7-0.1-1.1-0.1c-0.4,0-0.8,0-1.1,0.1c-0.3,0.1-0.6,0.2-0.9,0.3c-0.3,0.1-0.5,0.3-0.6,0.5c-0.1,0.2-0.2,0.4-0.2,0.7
				c0,0.2,0.1,0.4,0.2,0.6c0.1,0.2,0.3,0.4,0.5,0.5c0.2,0.2,0.4,0.3,0.7,0.4c0.3,0.1,0.5,0.2,0.8,0.3c0.3,0.1,0.5,0.2,0.7,0.2
				c0.2,0.1,0.4,0.1,0.6,0.2c0.5,0.2,1,0.3,1.4,0.4c0.4,0.1,0.8,0.3,1.1,0.4c0.3,0.1,0.6,0.3,0.8,0.5c0.2,0.2,0.4,0.4,0.6,0.6
				c0.1,0.2,0.2,0.5,0.3,0.8c0.1,0.3,0.1,0.7,0.1,1.1c0,0.6-0.1,1.2-0.4,1.7c-0.3,0.5-0.6,0.8-1,1.1c-0.4,0.3-0.9,0.5-1.5,0.6
				c-0.6,0.1-1.2,0.2-1.8,0.2c-0.6,0-1.2-0.1-1.8-0.2s-1-0.3-1.5-0.6s-0.8-0.7-1-1.1c-0.2-0.5-0.4-1-0.4-1.7v-2.2H737.2z"/>
			<path class="st0" d="M734.8,10.8l0.5-1.1h9.3v1.1H734.8z"/>
			<path class="st0" d="M755.9,17.6c0-0.3,0-0.6-0.1-0.9c0-0.3-0.1-0.6-0.2-0.8c-0.1-0.3-0.3-0.5-0.4-0.8c-0.2-0.2-0.4-0.4-0.7-0.6
				c-0.3-0.2-0.6-0.3-1-0.4c-0.4-0.1-0.8-0.2-1.3-0.2c-0.6,0-1.2,0.1-1.7,0.3c-0.5,0.2-0.9,0.4-1.2,0.6c-0.3,0.3-0.5,0.5-0.7,0.8
				s-0.3,0.6-0.3,0.8c0.3,0.2,0.6,0.5,0.7,0.9c0.2,0.4,0.2,0.8,0.2,1.4v6.4h-2.8v-1.1h1.3v-5.4c0-0.2,0-0.4,0-0.6
				c0-0.2-0.1-0.4-0.1-0.6c-0.1-0.2-0.2-0.4-0.3-0.5c-0.1-0.2-0.3-0.3-0.5-0.4c0.1-0.5,0.3-0.9,0.6-1.4c0.3-0.4,0.6-0.8,1-1.2
				c0.4-0.3,1-0.6,1.6-0.8s1.3-0.3,2.2-0.3c0.7,0,1.3,0.1,1.8,0.2c0.5,0.1,1,0.3,1.4,0.5c0.4,0.2,0.7,0.5,1,0.8s0.5,0.7,0.6,1
				s0.3,0.8,0.3,1.2c0.1,0.4,0.1,0.9,0.1,1.3v7.3h-1.5V17.6z"/>
			<path class="st0" d="M759.1,16.2c0-0.6,0.2-1.1,0.4-1.5c0.2-0.4,0.6-0.8,1-1c0.4-0.3,0.8-0.5,1.3-0.6c0.5-0.1,1-0.2,1.5-0.2
				c0.6,0,1.1,0.1,1.6,0.2c0.5,0.2,0.9,0.4,1.3,0.7s0.7,0.7,0.9,1.2c0.2,0.5,0.3,1.1,0.3,1.8v8.4h-1.5v-8c0-0.6-0.1-1-0.2-1.5
				c-0.1-0.4-0.3-0.7-0.5-1c-0.2-0.3-0.5-0.5-0.8-0.6c-0.3-0.1-0.7-0.2-1.1-0.2c-0.4,0-0.7,0-1,0.1c-0.3,0.1-0.6,0.2-0.8,0.4
				c-0.2,0.2-0.4,0.4-0.5,0.7c-0.1,0.3-0.2,0.6-0.3,1H759.1z"/>
			<path class="st0" d="M777.2,13l2.4,10.4l2.2-10.4h1.6l-2.8,12.1h-1.8l-2.4-10.4l-2.5,10.4H772L769.3,13h1.6l2,10.4l2.4-10.4
				H777.2z"/>
		</g>
	</g>
	<g>
		<g>
			<path class="st0" d="M885.6,21.7c0.1,0.8,0.4,1.4,0.9,1.8s1.2,0.6,2.2,0.6c0.3,0,0.6,0,0.9-0.1c0.3-0.1,0.6-0.2,0.9-0.4
				c0.3-0.2,0.5-0.4,0.7-0.7s0.3-0.7,0.3-1.1c0-0.3-0.1-0.5-0.2-0.8c-0.1-0.2-0.3-0.4-0.5-0.6s-0.6-0.4-0.9-0.5
				c-0.4-0.2-0.8-0.4-1.3-0.6c-0.4-0.2-0.7-0.3-1.1-0.4c-0.3-0.1-0.7-0.3-1-0.4c-0.3-0.1-0.6-0.3-0.8-0.5c-0.2-0.2-0.5-0.4-0.6-0.6
				c-0.2-0.2-0.3-0.5-0.4-0.7s-0.2-0.6-0.2-0.9c0-0.4,0-0.7,0.2-1c0.1-0.3,0.3-0.6,0.4-0.8s0.4-0.4,0.7-0.6s0.5-0.3,0.8-0.4
				s0.6-0.2,0.9-0.2s0.6-0.1,0.9-0.1c0.6,0,1.2,0.1,1.7,0.2s0.9,0.3,1.3,0.6c0.4,0.3,0.7,0.6,0.9,1c0.2,0.4,0.4,0.9,0.5,1.5h-1.5
				c-0.1-0.8-0.4-1.3-0.9-1.7s-1.1-0.5-1.8-0.5c-0.3,0-0.6,0-0.9,0.1c-0.3,0.1-0.6,0.2-0.8,0.3c-0.2,0.2-0.4,0.4-0.6,0.6
				c-0.2,0.3-0.2,0.6-0.2,0.9c0,0.3,0.1,0.6,0.2,0.8s0.4,0.4,0.6,0.6c0.3,0.2,0.6,0.3,1,0.5s0.8,0.3,1.3,0.5
				c0.8,0.3,1.4,0.5,1.9,0.8c0.5,0.3,0.9,0.5,1.2,0.8c0.3,0.3,0.5,0.6,0.6,0.9c0.1,0.3,0.2,0.7,0.2,1.1c0,0.6-0.1,1.2-0.3,1.6
				c-0.2,0.4-0.5,0.8-0.9,1.1s-0.9,0.5-1.4,0.6c-0.5,0.1-1.1,0.2-1.7,0.2c-0.6,0-1.2-0.1-1.7-0.2c-0.5-0.1-1-0.4-1.4-0.7
				s-0.7-0.7-1-1.1s-0.4-1-0.4-1.6H885.6z"/>
			<path class="st0" d="M891,7.4h1.4v3.4H891V7.4z"/>
			<path class="st0" d="M901.9,19c0-0.9-0.1-1.7-0.2-2.3c-0.1-0.6-0.4-1.2-0.6-1.6c-0.3-0.4-0.6-0.7-1-0.9s-0.8-0.3-1.3-0.3
				c-0.4,0-0.7,0.1-1,0.2c-0.3,0.1-0.6,0.3-0.9,0.5c-0.3,0.2-0.5,0.5-0.6,0.9c-0.2,0.4-0.3,0.8-0.4,1.3h-1.5
				c0.1-0.6,0.2-1.1,0.4-1.6c0.2-0.5,0.5-0.9,0.9-1.3c0.4-0.4,0.8-0.6,1.4-0.8c0.5-0.2,1.1-0.3,1.7-0.3c0.8,0,1.5,0.1,2.1,0.4
				c0.6,0.3,1.1,0.7,1.5,1.2c0.4,0.5,0.7,1.2,0.9,2c0.2,0.8,0.3,1.6,0.3,2.6c0,1-0.1,1.8-0.3,2.6c-0.2,0.8-0.5,1.5-0.9,2
				c-0.4,0.6-0.9,1-1.5,1.3s-1.3,0.5-2.1,0.5c-0.6,0-1.2-0.1-1.7-0.3c-0.5-0.2-1-0.5-1.4-0.8c-0.4-0.4-0.7-0.8-0.9-1.3
				c-0.2-0.5-0.4-1.1-0.4-1.7h1.5c0.1,0.5,0.2,0.9,0.4,1.3s0.4,0.7,0.7,0.9c0.3,0.2,0.5,0.4,0.9,0.6c0.3,0.1,0.7,0.2,1,0.2
				c0.5,0,0.9-0.1,1.3-0.3s0.7-0.5,1-1c0.3-0.4,0.5-1,0.6-1.6C901.8,20.7,901.9,20,901.9,19z"/>
			<path class="st0" d="M905.6,25.2V13h1.5v6.9c0,0.6,0.1,1.1,0.2,1.7c0.2,0.5,0.4,1,0.7,1.3c0.3,0.4,0.8,0.7,1.3,0.9
				s1.1,0.3,1.8,0.3c1,0,1.7-0.3,2.2-0.8c0.5-0.5,0.7-1.3,0.7-2.3v-8h1.5v8c0,0.7-0.1,1.3-0.2,1.8c-0.1,0.5-0.4,1-0.7,1.4
				c-0.3,0.4-0.8,0.7-1.3,0.9s-1.1,0.3-1.9,0.3c-0.4,0-0.8,0-1.2-0.1c-0.4-0.1-0.8-0.2-1.1-0.3c-0.4-0.2-0.7-0.4-1-0.7
				s-0.6-0.7-0.9-1.1v2H905.6z"/>
			<path class="st0" d="M920.5,23.4c0.1,0.3,0.3,0.5,0.5,0.7c0.2,0.2,0.5,0.2,0.7,0.2c0.2,0,0.4,0,0.5-0.1c0.2-0.1,0.3-0.2,0.4-0.3
				s0.2-0.2,0.2-0.4c0.1-0.2,0.1-0.3,0.1-0.5v-9h-1.8v-1h3.3v9.6c0,0.5-0.1,1-0.2,1.3s-0.3,0.7-0.6,0.9c-0.2,0.2-0.5,0.4-0.9,0.5
				c-0.3,0.1-0.7,0.2-1.1,0.2c-0.4,0-0.7-0.1-1-0.2c-0.3-0.1-0.5-0.2-0.8-0.4c-0.2-0.2-0.4-0.4-0.6-0.7c-0.2-0.3-0.3-0.6-0.4-0.9
				l-1.7-5.1h1.5L920.5,23.4z"/>
			<path class="st0" d="M926.2,16.2c0-0.6,0.2-1.1,0.4-1.5c0.2-0.4,0.6-0.8,1-1c0.4-0.3,0.8-0.5,1.3-0.6c0.5-0.1,1-0.2,1.5-0.2
				c0.6,0,1.1,0.1,1.6,0.2c0.5,0.2,0.9,0.4,1.3,0.7s0.7,0.7,0.9,1.2c0.2,0.5,0.3,1.1,0.3,1.8v8.4H933v-8c0-0.6-0.1-1-0.2-1.5
				c-0.1-0.4-0.3-0.7-0.5-1c-0.2-0.3-0.5-0.5-0.8-0.6c-0.3-0.1-0.7-0.2-1.1-0.2c-0.4,0-0.7,0-1,0.1c-0.3,0.1-0.6,0.2-0.8,0.4
				c-0.2,0.2-0.4,0.4-0.5,0.7c-0.1,0.3-0.2,0.6-0.3,1H926.2z"/>
			<path class="st0" d="M945.6,25.2v-2c-0.3,0.5-0.6,0.8-0.9,1.1s-0.7,0.5-1,0.7c-0.4,0.2-0.7,0.3-1.1,0.3c-0.4,0.1-0.8,0.1-1.2,0.1
				c-0.7,0-1.4-0.1-1.9-0.3s-0.9-0.5-1.3-0.9s-0.6-0.9-0.7-1.4c-0.2-0.5-0.2-1.1-0.2-1.8v-8h1.5v8c0,1,0.2,1.8,0.7,2.3
				s1.2,0.8,2.2,0.8c0.7,0,1.3-0.1,1.8-0.3c0.5-0.2,0.9-0.5,1.3-0.9c0.3-0.4,0.6-0.8,0.7-1.3c0.2-0.5,0.2-1.1,0.2-1.7V13h1.5v12.1
				H945.6z"/>
			<path class="st0" d="M954.2,14c-0.4,0-0.8,0-1.2,0.1c-0.4,0.1-0.7,0.2-0.9,0.3c-0.3,0.1-0.5,0.3-0.7,0.5
				c-0.2,0.2-0.4,0.4-0.5,0.5c-0.1,0.2-0.3,0.4-0.3,0.6s-0.1,0.4-0.2,0.5c0.3,0.2,0.6,0.5,0.7,0.9c0.2,0.4,0.2,0.8,0.2,1.4v6.4h-1.5
				v-6.5c0-0.2,0-0.4,0-0.6c0-0.2-0.1-0.4-0.1-0.6c-0.1-0.2-0.2-0.4-0.3-0.5s-0.3-0.3-0.5-0.4c0.1-0.5,0.3-0.9,0.6-1.4
				c0.3-0.4,0.6-0.8,1-1.2c0.4-0.3,1-0.6,1.6-0.8s1.4-0.3,2.2-0.3c0.7,0,1.3,0.1,1.8,0.2s1,0.3,1.4,0.5c0.4,0.2,0.7,0.5,1,0.8
				c0.3,0.3,0.5,0.7,0.6,1s0.3,0.8,0.3,1.2c0.1,0.4,0.1,0.9,0.1,1.3v7.3H958v-7.6c0-0.3,0-0.6-0.1-0.9c0-0.3-0.1-0.6-0.2-0.8
				c-0.1-0.3-0.3-0.5-0.4-0.8c-0.2-0.2-0.4-0.4-0.7-0.6c-0.3-0.2-0.6-0.3-1-0.4C955.2,14,954.8,14,954.2,14z"/>
			<path class="st0" d="M953.5,10.8V8.7h1.4v1.1h6.2v1.1H953.5z"/>
			<path class="st0" d="M967.1,24.3c0.5,0,0.9-0.1,1.2-0.2c0.3-0.1,0.7-0.2,0.9-0.4c0.3-0.2,0.5-0.4,0.6-0.6
				c0.2-0.2,0.3-0.5,0.4-0.8c0.1-0.3,0.2-0.6,0.2-0.9c0-0.3,0.1-0.6,0.1-0.9V13h1.5v7.2c0,0.4,0,0.9-0.1,1.3
				c-0.1,0.4-0.2,0.8-0.3,1.2c-0.1,0.4-0.3,0.7-0.6,1.1c-0.2,0.3-0.5,0.6-0.9,0.8c-0.4,0.2-0.8,0.4-1.3,0.6
				c-0.5,0.1-1.1,0.2-1.8,0.2c-0.7,0-1.3-0.1-1.8-0.2c-0.5-0.1-1-0.3-1.3-0.6c-0.4-0.2-0.7-0.5-0.9-0.8c-0.2-0.3-0.4-0.7-0.6-1.1
				c-0.1-0.4-0.2-0.8-0.3-1.2c-0.1-0.4-0.1-0.9-0.1-1.3V13h1.5v7.5c0,0.3,0,0.6,0.1,0.9c0,0.3,0.1,0.6,0.2,0.9
				c0.1,0.3,0.2,0.5,0.4,0.8c0.2,0.2,0.4,0.5,0.6,0.6c0.3,0.2,0.6,0.3,0.9,0.4C966.2,24.2,966.6,24.3,967.1,24.3z"/>
			<path class="st0" d="M976.2,25.2h-1.5V18c0-0.4,0-0.9,0.1-1.3c0.1-0.4,0.2-0.8,0.3-1.2c0.1-0.4,0.3-0.7,0.6-1.1s0.6-0.6,0.9-0.8
				c0.4-0.2,0.8-0.4,1.3-0.6c0.5-0.1,1.1-0.2,1.8-0.2c0.7,0,1.3,0.1,1.8,0.2c0.5,0.1,1,0.3,1.3,0.6c0.4,0.2,0.7,0.5,0.9,0.8
				s0.4,0.7,0.6,1.1s0.3,0.8,0.3,1.2c0.1,0.4,0.1,0.9,0.1,1.3v7.2h-1.5v-7.5c0-0.3,0-0.6-0.1-0.9c0-0.3-0.1-0.6-0.2-0.9
				c-0.1-0.3-0.3-0.5-0.4-0.8c-0.2-0.2-0.4-0.5-0.7-0.6c-0.3-0.2-0.6-0.3-0.9-0.4c-0.4-0.1-0.8-0.2-1.2-0.2c-0.5,0-0.9,0.1-1.2,0.2
				c-0.4,0.1-0.7,0.2-0.9,0.4c-0.3,0.2-0.5,0.4-0.7,0.6c-0.2,0.2-0.3,0.5-0.4,0.8c-0.1,0.3-0.2,0.6-0.2,0.9c0,0.3-0.1,0.6-0.1,0.9
				v2.9v0c0.2-0.5,0.5-0.9,0.8-1.2s0.6-0.6,1-0.7s0.7-0.3,1.1-0.4c0.4-0.1,0.8-0.1,1.2-0.1v1.2c-0.7,0-1.3,0.1-1.9,0.3
				c-0.5,0.2-1,0.6-1.3,1s-0.6,0.9-0.8,1.5c-0.2,0.6-0.2,1.3-0.2,2V25.2z"/>
			<path class="st0" d="M995.9,25.2v-2c-0.3,0.5-0.6,0.8-0.9,1.1c-0.3,0.3-0.7,0.5-1,0.7s-0.7,0.3-1.1,0.3s-0.8,0.1-1.2,0.1
				c-0.7,0-1.4-0.1-1.9-0.3c-0.5-0.2-0.9-0.5-1.3-0.9c-0.3-0.4-0.6-0.9-0.7-1.4c-0.2-0.5-0.2-1.1-0.2-1.8v-8h1.5v8
				c0,1,0.2,1.8,0.7,2.3s1.2,0.8,2.2,0.8c0.7,0,1.3-0.1,1.8-0.3c0.5-0.2,0.9-0.5,1.3-0.9c0.3-0.4,0.6-0.8,0.7-1.3
				c0.2-0.5,0.2-1.1,0.2-1.7V13h1.5v12.1H995.9z"/>
			<path class="st0" d="M999.6,16.4c0.2-0.5,0.4-1,0.7-1.5c0.3-0.4,0.6-0.8,1-1.2c0.4-0.3,0.9-0.6,1.5-0.8c0.6-0.2,1.2-0.3,1.9-0.3
				c1,0,1.8,0.2,2.4,0.5c0.7,0.3,1.2,0.8,1.6,1.3c0.4,0.6,0.7,1.2,0.9,2s0.3,1.6,0.3,2.5c0,0.6,0,1.1-0.1,1.7s-0.2,1-0.4,1.5
				c-0.2,0.5-0.4,0.9-0.7,1.3s-0.6,0.7-1,1s-0.8,0.5-1.3,0.7c-0.5,0.2-1.1,0.2-1.7,0.2c-0.6,0-1.2-0.1-1.7-0.2s-0.9-0.4-1.3-0.7
				s-0.7-0.6-1-1c-0.3-0.4-0.5-0.8-0.7-1.3c-0.2-0.5-0.3-1-0.4-1.5s-0.1-1.1-0.1-1.7v-0.4h4.9v1h-3.4c0,0.7,0.1,1.3,0.3,1.9
				c0.2,0.6,0.4,1.1,0.8,1.5c0.3,0.4,0.7,0.7,1.2,0.9c0.4,0.2,0.9,0.3,1.5,0.3c0.6,0,1.1-0.1,1.5-0.4c0.5-0.2,0.8-0.6,1.2-1
				c0.3-0.4,0.6-1,0.7-1.6c0.2-0.7,0.3-1.4,0.3-2.2c0-3.4-1.2-5.1-3.7-5.1c-0.4,0-0.8,0.1-1.2,0.2s-0.7,0.3-1,0.5
				c-0.3,0.2-0.6,0.5-0.8,0.8c-0.2,0.3-0.4,0.6-0.5,1H999.6z"/>
			<path class="st0" d="M1000.1,9.8h4.8V7.9h1.3v1.9h1.8V7.9h1.3v3h-9.8L1000.1,9.8z"/>
			<path class="st0" d="M1008,3.2h1.4v3.1h-1.4V3.2z"/>
			<path class="st0" d="M1020.5,25.2v-2c-0.3,0.5-0.6,0.8-0.9,1.1c-0.3,0.3-0.7,0.5-1,0.7s-0.7,0.3-1.1,0.3s-0.8,0.1-1.2,0.1
				c-0.7,0-1.4-0.1-1.9-0.3c-0.5-0.2-0.9-0.5-1.3-0.9c-0.3-0.4-0.6-0.9-0.7-1.4c-0.2-0.5-0.2-1.1-0.2-1.8v-8h1.5v8
				c0,1,0.2,1.8,0.7,2.3s1.2,0.8,2.2,0.8c0.7,0,1.3-0.1,1.8-0.3c0.5-0.2,0.9-0.5,1.3-0.9c0.3-0.4,0.6-0.8,0.7-1.3
				c0.2-0.5,0.2-1.1,0.2-1.7V13h1.5v12.1H1020.5z"/>
			<path class="st0" d="M1025.4,11.1c0-0.4,0.1-0.8,0.4-1.2s0.6-0.7,1.1-1h-4.5l0.6-1h5.4l0.3,1.1c-0.2,0-0.5,0.1-0.7,0.2
				s-0.4,0.3-0.6,0.4c-0.2,0.2-0.3,0.4-0.4,0.7c-0.1,0.3-0.1,0.6-0.1,0.9v13h1.3v1h-2.8V11.1z"/>
			<path class="st0" d="M1031.7,23.4l3.4-4.1h-1.4v-1h3v1l-4.9,5.9h-1.6V18c0-0.5,0-0.9,0.1-1.3s0.2-0.8,0.3-1.2
				c0.2-0.4,0.4-0.7,0.6-1.1c0.3-0.3,0.6-0.6,1-0.8c0.4-0.2,0.8-0.4,1.3-0.5c0.5-0.1,1.1-0.2,1.8-0.2c0.7,0,1.3,0.1,1.8,0.2
				c0.5,0.1,1,0.3,1.3,0.5c0.4,0.2,0.7,0.5,0.9,0.8s0.5,0.7,0.6,1.1c0.2,0.4,0.3,0.8,0.3,1.2c0.1,0.4,0.1,0.9,0.1,1.3v7.2h-1.5v-7.4
				c0-0.3,0-0.6-0.1-0.9c0-0.3-0.1-0.6-0.2-0.9c-0.1-0.3-0.3-0.5-0.4-0.8c-0.2-0.2-0.4-0.4-0.7-0.6c-0.3-0.2-0.6-0.3-1-0.4
				s-0.8-0.1-1.3-0.1c-0.5,0-0.9,0-1.3,0.1c-0.4,0.1-0.7,0.2-1,0.4c-0.3,0.2-0.5,0.4-0.7,0.6s-0.3,0.5-0.4,0.8
				c-0.1,0.3-0.2,0.6-0.2,0.9c0,0.3-0.1,0.6-0.1,0.9V23.4z"/>
			<path class="st0" d="M1036.3,10.8V9h-1V8h2.2v1.8c0.6,0,1-0.1,1.4-0.2s0.7-0.2,0.9-0.4c0.2-0.2,0.4-0.4,0.6-0.6
				c0.1-0.2,0.2-0.4,0.3-0.6h1.4c0,0.2-0.1,0.4-0.2,0.6c-0.1,0.2-0.2,0.4-0.4,0.6s-0.4,0.4-0.6,0.6c-0.2,0.2-0.5,0.4-0.8,0.5
				c-0.3,0.2-0.7,0.3-1.1,0.4c-0.4,0.1-0.8,0.1-1.3,0.1H1036.3z"/>
		</g>
	</g>
</g>
<g id="Layer_2">
</g>
</svg>
