<?xml version="1.0" encoding="utf-8"?>
<!-- Generator: Adobe Illustrator 23.1.1, SVG Export Plug-In . SVG Version: 6.00 Build 0)  -->
<svg version="1.1" xmlns="http://www.w3.org/2000/svg" xmlns:xlink="http://www.w3.org/1999/xlink" x="0px" y="0px"
	 viewBox="0 0 446 213" style="enable-background:new 0 0 446 213;" xml:space="preserve">
<style type="text/css">
	.st0{opacity:0.3;}
	.st1{fill:#FFFFFF;}
	.st2{fill:#B3B3B3;}
</style>
<g id="Layer_2">
</g>
<g id="Layer_1">
	<g class="st0">
		<path class="st1" d="M266.3,118.3c-0.5-3.3-1.6-6.3-3.3-9.1c-1.7-2.8-3.9-5.2-6.4-7.3c-2.6-2.1-5.5-3.7-8.7-4.8
			c-3.3-1.2-6.6-1.7-10.2-1.7c-6.4,0-11.8,1.3-16.4,3.8c-4.5,2.5-8.2,5.9-11,10c-2.8,4.2-4.9,8.9-6.2,14.3c-1.3,5.4-2,10.9-2,16.7
			c0,3.6,0.3,7.2,0.8,10.7c0.6,3.5,1.5,6.9,2.7,10.1c1.2,3.2,2.8,6.1,4.6,8.8c1.9,2.7,4.1,5,6.8,7c2.6,2,5.7,3.5,9.1,4.7
			c3.4,1.1,7.2,1.7,11.5,1.7c4.4,0,8.4-0.7,11.8-2.2c3.4-1.4,6.4-3.4,8.9-6c2.5-2.6,4.5-5.6,6-9.2c1.5-3.6,2.5-7.5,3-11.7h27.8
			c-0.7,8.1-2.6,15.5-5.7,22.1s-7.1,12.2-12.1,16.8c-5,4.6-10.8,8.2-17.6,10.7c-6.7,2.5-14.1,3.8-22.1,3.8c-6.7,0-12.9-0.8-18.7-2.4
			c-5.8-1.6-11-3.8-15.8-6.7c-4.8-2.9-9-6.4-12.6-10.4c-3.7-4.1-6.8-8.6-9.3-13.6c-2.5-5-4.4-10.4-5.7-16.1s-2-11.8-2-18
			c0-6.5,0.7-12.7,2-18.6c1.3-5.9,3.2-11.4,5.7-16.5c2.5-5.1,5.6-9.7,9.3-13.9c3.7-4.2,7.9-7.7,12.6-10.7c4.8-3,10-5.2,15.8-6.8
			c5.8-1.6,12-2.4,18.7-2.4c7.2,0,14,1,20.4,3.1s12.2,5.1,17.2,9.1c5,4,9.2,8.9,12.5,14.7c3.3,5.8,5.4,12.5,6.3,20.1H266.3z"/>
		<path class="st1" d="M329.5,174.1c0.1,2.8,0.7,5.2,1.8,7.1c1.1,1.9,2.6,3.5,4.4,4.7c1.8,1.2,3.9,2.1,6.3,2.6s4.8,0.8,7.4,0.8
			c1.9,0,3.8-0.2,5.8-0.5c2-0.3,3.8-0.9,5.4-1.8c1.6-0.8,3-2,4-3.5c1.1-1.5,1.6-3.4,1.6-5.7c0-1.9-0.7-3.5-2-4.8
			c-1.3-1.3-3.2-2.5-5.7-3.5c-2.5-1-5.5-2-9.2-2.8c-3.6-0.8-7.7-1.8-12.3-2.8c-3.7-0.8-7.4-1.8-11-3c-3.6-1.2-6.8-2.8-9.6-4.8
			s-5.1-4.4-6.8-7.3c-1.7-2.9-2.6-6.4-2.6-10.5c0-4,0.5-7.5,1.6-10.6c1.1-3.1,2.6-5.7,4.5-7.9c1.9-2.2,4.2-4.1,6.8-5.6
			c2.6-1.5,5.4-2.7,8.5-3.6c3-0.9,6.2-1.6,9.5-1.9c3.3-0.4,6.6-0.6,10-0.6c5.1,0,10.1,0.5,14.9,1.4c4.8,1,9.1,2.6,12.8,4.9
			c3.8,2.3,6.9,5.4,9.3,9.2c2.4,3.8,3.9,8.6,4.4,14.3H365c-0.2-2.5-0.8-4.5-1.8-6.1c-1-1.6-2.3-2.8-3.9-3.6
			c-1.6-0.9-3.4-1.5-5.4-1.8c-2-0.3-4.2-0.5-6.5-0.5c-1.5,0-3.1,0.1-4.7,0.2c-1.7,0.1-3.2,0.5-4.7,1c-1.4,0.5-2.6,1.3-3.6,2.4
			c-1,1.1-1.4,2.5-1.4,4.4c0,2.3,0.8,4.2,2.5,5.6c1.7,1.4,3.8,2.5,6.5,3.4c2.7,0.9,5.8,1.7,9.3,2.3c3.5,0.7,7.1,1.4,10.7,2.3
			c3.8,0.9,7.5,1.9,11.1,3.2c3.6,1.3,6.8,2.9,9.5,5c2.8,2,5,4.5,6.7,7.5c1.7,3,2.5,6.7,2.5,11c0,4.1-0.6,7.8-1.7,11
			c-1.1,3.2-2.7,6.1-4.7,8.5c-2,2.4-4.3,4.5-7,6.2c-2.7,1.7-5.7,3.1-8.9,4.1c-3.2,1-6.5,1.8-10.1,2.3c-3.5,0.5-7.1,0.7-10.7,0.7
			s-7.2-0.2-10.7-0.7c-3.5-0.5-6.9-1.3-10.1-2.3c-3.2-1.1-6.2-2.5-8.9-4.2c-2.8-1.7-5.2-3.8-7.2-6.2c-2.1-2.4-3.7-5.3-5-8.5
			s-1.9-6.9-2.1-11.1H329.5z"/>
	</g>
	<g>
		<path class="st2" d="M155.3,134.1v31.6h-27.8v42.7H93.8v-42.7h-90v-29.8l93.4-131h30.2v129.3H155.3z M93.8,62.4
			c-4.5,6-8.9,11.9-13.2,17.8c-4.3,5.9-8.5,11.8-12.8,17.7c-4.3,5.9-8.6,11.9-13,17.9c-4.4,6-8.9,12.1-13.5,18.4h52.5V62.4z"/>
	</g>
	<g>
		<path class="st1" d="M220.2,33.6v2.3c0.3-0.5,0.7-1,1.1-1.3s0.8-0.6,1.2-0.8c0.4-0.2,0.9-0.3,1.3-0.4c0.5-0.1,0.9-0.1,1.4-0.1
			c0.8,0,1.6,0.1,2.2,0.4c0.6,0.2,1.1,0.6,1.5,1c0.4,0.4,0.7,1,0.8,1.6c0.2,0.6,0.3,1.3,0.3,2.1v9.2h-1.7v-9.2
			c0-1.2-0.3-2.1-0.8-2.7c-0.5-0.6-1.4-0.9-2.5-0.9c-0.8,0-1.5,0.1-2.1,0.4s-1.1,0.6-1.5,1c-0.4,0.4-0.7,1-0.9,1.5
			c-0.2,0.6-0.3,1.2-0.3,1.9v7.9h-1.7v-14H220.2z"/>
		<path class="st1" d="M223,31v-2.4h1.6v1.2h7.1V31H223z"/>
		<path class="st1" d="M238.2,34.6c-0.5,0-1,0-1.4,0.1s-0.8,0.2-1.1,0.4c-0.3,0.2-0.6,0.3-0.8,0.5c-0.2,0.2-0.4,0.4-0.6,0.6
			c-0.2,0.2-0.3,0.4-0.4,0.6c-0.1,0.2-0.2,0.4-0.2,0.6c0.4,0.2,0.7,0.6,0.8,1s0.3,1,0.3,1.6v7.4h-1.7v-7.5c0-0.2,0-0.5,0-0.7
			s-0.1-0.5-0.1-0.7c-0.1-0.2-0.2-0.4-0.3-0.6c-0.2-0.2-0.4-0.3-0.6-0.5c0.1-0.5,0.4-1.1,0.7-1.6c0.3-0.5,0.7-1,1.2-1.4
			c0.5-0.4,1.1-0.7,1.8-1c0.7-0.2,1.6-0.4,2.5-0.4c0.8,0,1.5,0.1,2.1,0.2c0.6,0.2,1.1,0.4,1.6,0.6c0.4,0.3,0.8,0.6,1.1,0.9
			s0.5,0.8,0.7,1.2c0.2,0.4,0.3,0.9,0.4,1.4c0.1,0.5,0.1,1,0.1,1.5v8.4h-1.7v-8.7c0-0.3,0-0.7-0.1-1s-0.1-0.7-0.3-1
			c-0.1-0.3-0.3-0.6-0.5-0.9c-0.2-0.3-0.5-0.5-0.8-0.7s-0.7-0.4-1.1-0.5C239.3,34.7,238.8,34.6,238.2,34.6z"/>
		<path class="st1" d="M252.9,40.4v-2.3h1.7v1.1h2.6v-5.6h1.7v5.6h1.3v1.2h-1.3v1.5c0,0.5,0,1-0.1,1.5c-0.1,0.5-0.2,1-0.3,1.4
			s-0.4,0.8-0.7,1.2s-0.6,0.7-1.1,1c-0.4,0.3-0.9,0.5-1.5,0.6c-0.6,0.2-1.3,0.2-2.1,0.2c-0.8,0-1.5-0.1-2.1-0.2s-1.1-0.4-1.5-0.6
			c-0.4-0.3-0.8-0.6-1.1-1s-0.5-0.8-0.7-1.2s-0.3-0.9-0.3-1.4c-0.1-0.5-0.1-1-0.1-1.5v-8.3h1.7v8.6c0,0.3,0,0.7,0.1,1
			c0,0.3,0.1,0.7,0.2,1c0.1,0.3,0.3,0.6,0.5,0.9c0.2,0.3,0.5,0.5,0.8,0.7c0.3,0.2,0.7,0.4,1.1,0.5c0.4,0.1,0.9,0.2,1.5,0.2
			c0.6,0,1.1-0.1,1.5-0.2c0.4-0.1,0.8-0.3,1.1-0.5c0.3-0.2,0.5-0.4,0.7-0.7c0.2-0.3,0.3-0.6,0.5-0.9c0.1-0.3,0.2-0.7,0.2-1
			c0-0.3,0.1-0.7,0.1-1v-1.8H252.9z"/>
		<path class="st1" d="M261.7,37.8v-2.2h1.6v1h3.5v1.2H261.7z M261.7,45.1v-2.2h1.6v1h3.5v1.2H261.7z"/>
		<path class="st1" d="M271.2,33.6v2.3c0.3-0.5,0.7-1,1.1-1.3s0.8-0.6,1.2-0.8c0.4-0.2,0.9-0.3,1.3-0.4c0.5-0.1,0.9-0.1,1.4-0.1
			c0.8,0,1.6,0.1,2.2,0.4c0.6,0.2,1.1,0.6,1.5,1c0.4,0.4,0.7,1,0.8,1.6s0.3,1.3,0.3,2.1v9.2h-1.7v-9.2c0-1.2-0.3-2.1-0.8-2.7
			s-1.4-0.9-2.5-0.9c-0.8,0-1.5,0.1-2.1,0.4c-0.6,0.3-1.1,0.6-1.5,1s-0.7,1-0.9,1.5c-0.2,0.6-0.3,1.2-0.3,1.9v7.9h-1.7v-14H271.2z"
			/>
		<path class="st1" d="M270.2,29.8h9.1v-2.2h1.6V31h-11.3L270.2,29.8z"/>
		<path class="st1" d="M279.4,22.3h1.6v3.5h-1.6V22.3z"/>
		<path class="st1" d="M285.9,47.6H284V39c0-0.4,0-0.8,0.1-1.3s0.1-0.8,0.2-1.2c0.1-0.4,0.3-0.7,0.5-1.1c0.2-0.3,0.4-0.6,0.7-0.9
			c0.3-0.3,0.6-0.5,1-0.7c0.4-0.2,0.9-0.3,1.4-0.4l2,2l1.9-2c0.8,0.1,1.5,0.4,2,0.8c0.5,0.4,0.9,0.8,1.2,1.3
			c0.3,0.5,0.5,1.1,0.6,1.7c0.1,0.6,0.2,1.2,0.2,1.9v8.6h-1.7v-8.9c0-0.4,0-0.8-0.1-1.2s-0.2-0.7-0.3-1.1c-0.2-0.3-0.4-0.6-0.6-0.8
			c-0.3-0.2-0.6-0.4-0.9-0.6l-2.3,2.1c0,0-0.1,0-0.1,0l-2.4-2.1c-0.4,0.2-0.6,0.4-0.9,0.6c-0.2,0.2-0.4,0.5-0.6,0.8
			c-0.1,0.3-0.3,0.7-0.3,1c-0.1,0.4-0.1,0.8-0.1,1.2v6.8l4-4.8h-1.6v-1.1h3.4v1.1L285.9,47.6z"/>
		<path class="st1" d="M291.3,31v-2.1h-1.2v-1.1h2.6v2.1c0.6,0,1.2-0.1,1.6-0.2c0.4-0.1,0.8-0.3,1.1-0.5c0.3-0.2,0.5-0.4,0.7-0.7
			c0.2-0.2,0.3-0.5,0.3-0.7h1.7c0,0.2-0.1,0.4-0.2,0.7c-0.1,0.2-0.2,0.5-0.4,0.7c-0.2,0.2-0.4,0.5-0.7,0.7c-0.3,0.2-0.6,0.4-1,0.6
			s-0.8,0.3-1.2,0.4s-1,0.2-1.5,0.2H291.3z"/>
		<path class="st1" d="M298.6,37.5c0.2-0.6,0.4-1.2,0.8-1.7c0.3-0.5,0.7-1,1.2-1.3c0.5-0.4,1-0.7,1.7-0.9s1.4-0.3,2.2-0.3
			c1.1,0,2,0.2,2.8,0.5c0.8,0.4,1.4,0.9,1.9,1.5c0.5,0.7,0.8,1.4,1,2.3c0.2,0.9,0.3,1.9,0.3,2.9c0,0.7,0,1.3-0.1,1.9
			c-0.1,0.6-0.2,1.2-0.4,1.7c-0.2,0.5-0.5,1-0.8,1.5s-0.7,0.8-1.1,1.2c-0.4,0.3-1,0.6-1.5,0.8c-0.6,0.2-1.2,0.3-1.9,0.3
			c-0.7,0-1.4-0.1-2-0.3c-0.6-0.2-1.1-0.4-1.5-0.8c-0.4-0.3-0.8-0.7-1.1-1.2s-0.6-1-0.8-1.5s-0.3-1.1-0.4-1.7
			c-0.1-0.6-0.1-1.3-0.1-1.9v-0.5h5.6v1.2h-3.9c0,0.8,0.1,1.5,0.3,2.2s0.5,1.2,0.9,1.7c0.4,0.5,0.8,0.8,1.3,1.1
			c0.5,0.3,1.1,0.4,1.7,0.4c0.7,0,1.2-0.1,1.8-0.4c0.5-0.3,1-0.7,1.3-1.2c0.4-0.5,0.7-1.1,0.8-1.9c0.2-0.7,0.3-1.6,0.3-2.6
			c0-3.9-1.4-5.9-4.3-5.9c-0.5,0-1,0.1-1.4,0.2c-0.4,0.1-0.8,0.3-1.2,0.6s-0.7,0.5-0.9,0.9c-0.2,0.3-0.4,0.7-0.5,1.2H298.6z"/>
		<path class="st1" d="M315.6,45.5c0.1,0.3,0.3,0.6,0.6,0.8c0.3,0.2,0.5,0.3,0.8,0.3c0.2,0,0.4,0,0.6-0.1c0.2-0.1,0.3-0.2,0.4-0.3
			c0.1-0.1,0.2-0.3,0.3-0.5c0.1-0.2,0.1-0.4,0.1-0.6V34.8h-2.1v-1.2h3.8v11.1c0,0.6-0.1,1.1-0.2,1.5c-0.2,0.4-0.4,0.8-0.6,1
			c-0.3,0.3-0.6,0.4-1,0.6c-0.4,0.1-0.8,0.2-1.3,0.2c-0.4,0-0.8-0.1-1.2-0.2c-0.3-0.1-0.6-0.3-0.9-0.5s-0.5-0.5-0.6-0.8
			c-0.2-0.3-0.3-0.7-0.5-1l-2-5.9h1.8L315.6,45.5z"/>
		<path class="st1" d="M323.2,47.6v-14h1.7v7.9c0,0.7,0.1,1.3,0.3,1.9c0.2,0.6,0.5,1.1,0.9,1.5c0.4,0.4,0.9,0.8,1.5,1
			c0.6,0.3,1.3,0.4,2.1,0.4c1.1,0,2-0.3,2.5-0.9c0.5-0.6,0.8-1.5,0.8-2.7v-9.2h1.7v9.2c0,0.8-0.1,1.5-0.3,2.1
			c-0.2,0.6-0.4,1.2-0.8,1.6c-0.4,0.4-0.9,0.8-1.5,1s-1.3,0.4-2.2,0.4c-0.5,0-1,0-1.4-0.1c-0.5-0.1-0.9-0.2-1.3-0.4
			c-0.4-0.2-0.8-0.4-1.2-0.8s-0.7-0.8-1.1-1.3v2.3H323.2z"/>
		<path class="st1" d="M323.9,29.8h9.1v-2.2h1.6V31h-11.3L323.9,29.8z"/>
	</g>
	<g>
		<path class="st1" d="M339.9,69.8v-14h1.7v14H339.9z"/>
		<path class="st1" d="M353.3,55.9l2.7,12l2.5-12h1.8l-3.2,14h-2.1l-2.7-12l-2.8,12h-2.1l-3.1-14h1.8l2.3,12l2.8-12H353.3z"/>
		<path class="st1" d="M345.7,52.1h8.7v-2.2h1.5v2.2h2v-2.2h1.5v3.4h-14.4L345.7,52.1z"/>
		<path class="st1" d="M358,44.5h1.6v3.5H358V44.5z"/>
		<path class="st1" d="M362.1,59.7c0.2-0.6,0.4-1.2,0.8-1.7c0.3-0.5,0.7-1,1.2-1.3c0.5-0.4,1-0.7,1.7-0.9s1.4-0.3,2.2-0.3
			c1.1,0,2,0.2,2.8,0.5c0.8,0.4,1.4,0.9,1.9,1.5c0.5,0.7,0.8,1.4,1,2.3c0.2,0.9,0.3,1.9,0.3,2.9c0,0.7,0,1.3-0.1,1.9
			c-0.1,0.6-0.2,1.2-0.4,1.7c-0.2,0.5-0.5,1-0.8,1.5s-0.7,0.8-1.1,1.2c-0.4,0.3-1,0.6-1.5,0.8c-0.6,0.2-1.2,0.3-1.9,0.3
			c-0.7,0-1.4-0.1-2-0.3c-0.6-0.2-1.1-0.4-1.5-0.8c-0.4-0.3-0.8-0.7-1.1-1.2s-0.6-1-0.8-1.5s-0.3-1.1-0.4-1.7
			c-0.1-0.6-0.1-1.3-0.1-1.9v-0.5h5.6v1.2h-3.9c0,0.8,0.1,1.5,0.3,2.2s0.5,1.2,0.9,1.7c0.4,0.5,0.8,0.8,1.3,1.1
			c0.5,0.3,1.1,0.4,1.7,0.4c0.7,0,1.2-0.1,1.8-0.4c0.5-0.3,1-0.7,1.3-1.2c0.4-0.5,0.7-1.1,0.8-1.9c0.2-0.7,0.3-1.6,0.3-2.6
			c0-3.9-1.4-5.9-4.3-5.9c-0.5,0-1,0.1-1.4,0.2c-0.4,0.1-0.8,0.3-1.2,0.6s-0.7,0.5-0.9,0.9c-0.2,0.3-0.4,0.7-0.5,1.2H362.1z"/>
		<path class="st1" d="M376,59.7c0.2-0.6,0.4-1.2,0.8-1.7c0.3-0.5,0.7-1,1.2-1.3c0.5-0.4,1-0.7,1.7-0.9s1.4-0.3,2.2-0.3
			c1.1,0,2,0.2,2.8,0.5c0.8,0.4,1.4,0.9,1.9,1.5c0.5,0.7,0.8,1.4,1,2.3c0.2,0.9,0.3,1.9,0.3,2.9c0,0.7,0,1.3-0.1,1.9
			c-0.1,0.6-0.2,1.2-0.4,1.7c-0.2,0.5-0.5,1-0.8,1.5s-0.7,0.8-1.1,1.2c-0.4,0.3-1,0.6-1.5,0.8c-0.6,0.2-1.2,0.3-1.9,0.3
			c-0.7,0-1.4-0.1-2-0.3c-0.6-0.2-1.1-0.4-1.5-0.8c-0.4-0.3-0.8-0.7-1.1-1.2s-0.6-1-0.8-1.5s-0.3-1.1-0.4-1.7
			c-0.1-0.6-0.1-1.3-0.1-1.9v-0.5h5.6v1.2h-3.9c0,0.8,0.1,1.5,0.3,2.2s0.5,1.2,0.9,1.7c0.4,0.5,0.8,0.8,1.3,1.1
			c0.5,0.3,1.1,0.4,1.7,0.4c0.7,0,1.2-0.1,1.8-0.4c0.5-0.3,1-0.7,1.3-1.2c0.4-0.5,0.7-1.1,0.8-1.9c0.2-0.7,0.3-1.6,0.3-2.6
			c0-3.9-1.4-5.9-4.3-5.9c-0.5,0-1,0.1-1.4,0.2c-0.4,0.1-0.8,0.3-1.2,0.6s-0.7,0.5-0.9,0.9c-0.2,0.3-0.4,0.7-0.5,1.2H376z"/>
		<path class="st1" d="M400,69.8v-2.3c-0.3,0.5-0.7,1-1.1,1.3s-0.8,0.6-1.2,0.8c-0.4,0.2-0.9,0.3-1.3,0.4c-0.5,0.1-0.9,0.1-1.4,0.1
			c-0.8,0-1.6-0.1-2.2-0.4s-1.1-0.6-1.5-1c-0.4-0.4-0.7-1-0.8-1.6c-0.2-0.6-0.3-1.3-0.3-2.1v-9.2h1.7V65c0,1.2,0.3,2.1,0.8,2.7
			c0.5,0.6,1.4,0.9,2.5,0.9c0.8,0,1.5-0.1,2.1-0.4c0.6-0.3,1.1-0.6,1.5-1c0.4-0.4,0.7-1,0.9-1.5c0.2-0.6,0.3-1.2,0.3-1.9v-7.9h1.7
			v14H400z"/>
		<path class="st1" d="M403.8,59.5c0-0.6,0.2-1.2,0.5-1.7c0.3-0.5,0.6-0.9,1.1-1.2c0.4-0.3,1-0.6,1.5-0.7c0.6-0.2,1.2-0.2,1.8-0.2
			c0.7,0,1.3,0.1,1.9,0.3c0.6,0.2,1.1,0.5,1.5,0.8s0.8,0.8,1,1.4s0.4,1.2,0.4,2v9.7h-1.7v-9.2c0-0.6-0.1-1.2-0.2-1.7
			c-0.1-0.5-0.3-0.9-0.6-1.2c-0.3-0.3-0.6-0.5-0.9-0.7c-0.4-0.1-0.8-0.2-1.3-0.2c-0.4,0-0.8,0.1-1.1,0.2s-0.6,0.3-0.9,0.5
			c-0.3,0.2-0.5,0.5-0.6,0.8s-0.3,0.7-0.3,1.1H403.8z"/>
		<path class="st1" d="M418.1,69.8h-1.7v-8.3c0-0.5,0-1,0.1-1.5c0.1-0.5,0.2-1,0.4-1.4s0.4-0.9,0.7-1.2c0.3-0.4,0.6-0.7,1.1-1
			c0.4-0.3,0.9-0.5,1.5-0.6c0.6-0.2,1.3-0.2,2.1-0.2c0.8,0,1.5,0.1,2,0.2c0.6,0.2,1.1,0.4,1.5,0.6c0.4,0.3,0.8,0.6,1.1,1
			s0.5,0.8,0.7,1.2c0.2,0.4,0.3,0.9,0.4,1.4c0.1,0.5,0.1,1,0.1,1.5v8.3h-1.7v-8.7c0-0.3,0-0.7-0.1-1c-0.1-0.3-0.1-0.7-0.3-1
			s-0.3-0.6-0.5-0.9s-0.5-0.5-0.8-0.7c-0.3-0.2-0.7-0.4-1.1-0.5s-0.9-0.2-1.4-0.2c-0.5,0-1,0.1-1.4,0.2c-0.4,0.1-0.8,0.3-1.1,0.5
			s-0.6,0.4-0.8,0.7c-0.2,0.3-0.4,0.6-0.5,0.9s-0.2,0.6-0.3,1c-0.1,0.3-0.1,0.7-0.1,1v3.3v0c0.3-0.6,0.6-1,0.9-1.4s0.7-0.6,1.2-0.8
			c0.4-0.2,0.9-0.3,1.3-0.4s0.9-0.1,1.4-0.1v1.4c-0.8,0-1.5,0.1-2.1,0.4c-0.6,0.3-1.1,0.6-1.5,1.1c-0.4,0.5-0.7,1.1-0.9,1.8
			s-0.3,1.5-0.3,2.3V69.8z"/>
		<path class="st1" d="M433,69.8h-1.9v-8.6c0-0.4,0-0.8,0.1-1.3s0.1-0.8,0.2-1.2c0.1-0.4,0.3-0.7,0.5-1.1c0.2-0.3,0.4-0.6,0.7-0.9
			c0.3-0.3,0.6-0.5,1-0.7c0.4-0.2,0.9-0.3,1.4-0.4l2,2l1.9-2c0.8,0.1,1.5,0.4,2,0.8c0.5,0.4,0.9,0.8,1.2,1.3
			c0.3,0.5,0.5,1.1,0.6,1.7c0.1,0.6,0.2,1.2,0.2,1.9v8.6h-1.7V61c0-0.4,0-0.8-0.1-1.2s-0.2-0.7-0.3-1.1c-0.2-0.3-0.4-0.6-0.6-0.8
			c-0.3-0.2-0.6-0.4-0.9-0.6l-2.3,2.1c0,0-0.1,0-0.1,0l-2.4-2.1c-0.4,0.2-0.6,0.4-0.9,0.6c-0.2,0.2-0.4,0.5-0.6,0.8
			c-0.1,0.3-0.3,0.7-0.3,1c-0.1,0.4-0.1,0.8-0.1,1.2v6.8l4-4.8h-1.6v-1.1h3.4V63L433,69.8z"/>
	</g>
</g>
</svg>
