<?xml version="1.0" encoding="utf-8"?>
<!-- Generator: Adobe Illustrator 23.1.1, SVG Export Plug-In . SVG Version: 6.00 Build 0)  -->
<svg version="1.1" id="Layer_1" xmlns="http://www.w3.org/2000/svg" xmlns:xlink="http://www.w3.org/1999/xlink" x="0px" y="0px"
	 viewBox="0 0 867 413" style="enable-background:new 0 0 867 413;" xml:space="preserve">
<style type="text/css">
	.st0{enable-background:new    ;}
	.st1{fill:#FFFFFF;}
</style>
<path d="M6.2,316.8v-3.7c0-0.7,0.1-1.3,0.2-1.9s0.4-1.1,0.8-1.6c0.3-0.4,0.8-0.8,1.3-1.1c0.5-0.3,1.1-0.4,1.9-0.4v2.1
	c-0.3,0-0.6,0.1-0.8,0.2c-0.2,0.1-0.4,0.3-0.6,0.5s-0.3,0.5-0.3,0.8s-0.1,0.6-0.1,0.9h1.8v4.1H6.2z M11.9,316.8v-3.7
	c0-0.7,0.1-1.3,0.2-1.9s0.4-1.1,0.8-1.6c0.3-0.4,0.8-0.8,1.3-1.1s1.1-0.4,1.9-0.4v2.1c-0.3,0-0.6,0.1-0.8,0.2s-0.4,0.3-0.6,0.5
	c-0.1,0.2-0.3,0.5-0.3,0.8s-0.1,0.6-0.1,0.9H16v4.1H11.9z"/>
<path d="M33.4,329.3c0.6,0,1-0.1,1.5-0.2c0.4-0.1,0.8-0.3,1.1-0.5c0.3-0.2,0.6-0.5,0.8-0.8s0.4-0.6,0.5-1c0.1-0.3,0.2-0.7,0.3-1.1
	s0.1-0.7,0.1-1.1v-9.1h1.8v8.8c0,0.5,0,1.1-0.1,1.6s-0.2,1-0.4,1.5s-0.4,0.9-0.7,1.3c-0.3,0.4-0.7,0.7-1.1,1s-1,0.5-1.6,0.7
	s-1.3,0.2-2.1,0.2c-0.8,0-1.6-0.1-2.2-0.2c-0.6-0.2-1.2-0.4-1.6-0.7c-0.4-0.3-0.8-0.6-1.1-1c-0.3-0.4-0.5-0.8-0.7-1.3
	s-0.3-1-0.4-1.5s-0.1-1-0.1-1.6v-8.8h1.8v9.1c0,0.4,0,0.7,0.1,1.1s0.1,0.7,0.3,1c0.1,0.3,0.3,0.7,0.5,1c0.2,0.3,0.5,0.6,0.8,0.8
	c0.3,0.2,0.7,0.4,1.1,0.5C32.3,329.3,32.8,329.3,33.4,329.3z"/>
<path d="M44.5,315.6v2.4c0.4-0.6,0.7-1,1.1-1.4c0.4-0.4,0.8-0.6,1.3-0.8c0.4-0.2,0.9-0.3,1.4-0.4c0.5-0.1,1-0.1,1.5-0.1
	c0.9,0,1.7,0.1,2.3,0.4c0.6,0.3,1.1,0.6,1.5,1.1c0.4,0.5,0.7,1,0.9,1.7s0.3,1.4,0.3,2.2v9.7h-1.8v-9.7c0-1.2-0.3-2.2-0.9-2.8
	c-0.6-0.7-1.5-1-2.6-1c-0.9,0-1.6,0.1-2.2,0.4c-0.6,0.3-1.1,0.6-1.5,1.1c-0.4,0.5-0.7,1-0.9,1.6s-0.3,1.3-0.3,2v8.4h-1.8v-14.8H44.5
	z"/>
<path d="M64,329.3c0.6,0,1-0.1,1.5-0.2c0.4-0.1,0.8-0.3,1.1-0.5c0.3-0.2,0.6-0.5,0.8-0.8s0.4-0.6,0.5-1c0.1-0.3,0.2-0.7,0.3-1.1
	s0.1-0.7,0.1-1.1v-9.1H70v8.8c0,0.5,0,1.1-0.1,1.6s-0.2,1-0.4,1.5s-0.4,0.9-0.7,1.3c-0.3,0.4-0.7,0.7-1.1,1s-1,0.5-1.6,0.7
	s-1.3,0.2-2.1,0.2c-0.8,0-1.6-0.1-2.2-0.2c-0.6-0.2-1.2-0.4-1.6-0.7c-0.4-0.3-0.8-0.6-1.1-1c-0.3-0.4-0.5-0.8-0.7-1.3
	s-0.3-1-0.4-1.5s-0.1-1-0.1-1.6v-8.8h1.8v9.1c0,0.4,0,0.7,0.1,1.1s0.1,0.7,0.3,1c0.1,0.3,0.3,0.7,0.5,1c0.2,0.3,0.5,0.6,0.8,0.8
	c0.3,0.2,0.7,0.4,1.1,0.5C62.9,329.3,63.4,329.3,64,329.3z"/>
<path d="M72.2,319.5c0-0.7,0.2-1.3,0.5-1.8c0.3-0.5,0.7-0.9,1.2-1.3c0.5-0.3,1-0.6,1.6-0.8c0.6-0.2,1.2-0.3,1.9-0.3
	c0.7,0,1.4,0.1,2,0.3c0.6,0.2,1.1,0.5,1.6,0.9c0.4,0.4,0.8,0.9,1,1.5s0.4,1.3,0.4,2.1v10.2h-1.8v-9.7c0-0.7-0.1-1.3-0.2-1.8
	c-0.1-0.5-0.3-0.9-0.6-1.2s-0.6-0.6-1-0.7s-0.8-0.2-1.4-0.2c-0.4,0-0.8,0.1-1.2,0.2c-0.4,0.1-0.7,0.3-1,0.5s-0.5,0.5-0.7,0.8
	c-0.2,0.3-0.3,0.7-0.3,1.2H72.2z"/>
<path d="M87.3,315.6v2.4c0.4-0.6,0.7-1,1.1-1.4c0.4-0.4,0.8-0.6,1.3-0.8c0.4-0.2,0.9-0.3,1.4-0.4c0.5-0.1,1-0.1,1.5-0.1
	c0.9,0,1.7,0.1,2.3,0.4c0.6,0.3,1.1,0.6,1.5,1.1c0.4,0.5,0.7,1,0.9,1.7s0.3,1.4,0.3,2.2v9.7h-1.8v-9.7c0-1.2-0.3-2.2-0.9-2.8
	c-0.6-0.7-1.5-1-2.6-1c-0.9,0-1.6,0.1-2.2,0.4c-0.6,0.3-1.1,0.6-1.5,1.1c-0.4,0.5-0.7,1-0.9,1.6s-0.3,1.3-0.3,2v8.4h-1.8v-14.8H87.3
	z"/>
<path d="M105.4,330.4L102,315h-2.4v-3h5.6l3,14.3l3-14.3h3.8l-4.1,18.4H105.4z"/>
<path d="M117.4,318c0.2-1,0.5-1.9,0.9-2.7c0.4-0.8,1-1.5,1.6-2c0.7-0.6,1.5-1,2.4-1.3c0.9-0.3,2-0.5,3.2-0.5c1,0,1.9,0.1,2.8,0.3
	c0.8,0.2,1.5,0.5,2.1,1c0.6,0.4,1.2,0.9,1.6,1.5c0.4,0.6,0.8,1.2,1.1,1.9c0.3,0.7,0.5,1.5,0.6,2.3c0.1,0.8,0.2,1.7,0.2,2.6
	c0,0.9-0.1,1.7-0.2,2.5c-0.1,0.8-0.3,1.6-0.6,2.3c-0.3,0.7-0.6,1.4-1.1,1.9s-1,1.1-1.6,1.5s-1.3,0.8-2.1,1c-0.8,0.2-1.7,0.3-2.7,0.3
	c-1,0-1.9-0.1-2.7-0.3c-0.8-0.2-1.5-0.6-2.1-1c-0.6-0.4-1.1-0.9-1.6-1.5c-0.4-0.6-0.8-1.2-1.1-1.9s-0.5-1.5-0.6-2.3
	c-0.1-0.8-0.2-1.6-0.2-2.5v-1.3h8.3v2.9h-4.5c0,0.7,0.1,1.4,0.4,2c0.2,0.6,0.5,1.1,0.9,1.5c0.4,0.4,0.9,0.8,1.4,1
	c0.5,0.2,1.1,0.4,1.8,0.4c0.7,0,1.3-0.1,1.9-0.4c0.6-0.3,1-0.7,1.4-1.3c0.4-0.6,0.7-1.2,0.9-2c0.2-0.8,0.3-1.7,0.3-2.7
	c0-2.1-0.4-3.7-1.1-4.8c-0.8-1.1-1.9-1.7-3.5-1.7c-0.6,0-1.1,0.1-1.6,0.2c-0.5,0.1-0.9,0.4-1.3,0.6c-0.4,0.3-0.7,0.6-0.9,1
	c-0.2,0.4-0.4,0.9-0.5,1.4H117.4z"/>
<path d="M142,327c0.1,0.2,0.2,0.4,0.4,0.5c0.2,0.1,0.3,0.2,0.6,0.2c0.3,0,0.6-0.1,0.8-0.3c0.2-0.2,0.3-0.4,0.3-0.6v-11.9h-2.5V312
	h6.2v14.2c0,0.8-0.1,1.5-0.4,2.1c-0.2,0.6-0.6,1.1-1,1.4c-0.4,0.4-0.9,0.6-1.5,0.8c-0.6,0.2-1.2,0.3-1.9,0.3c-0.7,0-1.2-0.1-1.7-0.3
	c-0.5-0.2-0.9-0.4-1.3-0.7c-0.4-0.3-0.7-0.7-1-1.1c-0.3-0.4-0.5-0.9-0.7-1.4l-2.9-8h3.9L142,327z"/>
<path d="M154.7,330.4h-3.7v-10.6c0-0.7,0.1-1.4,0.2-2c0.1-0.7,0.3-1.3,0.5-1.9s0.6-1.2,1-1.7c0.4-0.5,0.9-1,1.5-1.3
	c0.6-0.4,1.3-0.7,2.1-0.9c0.8-0.2,1.8-0.3,2.8-0.3c1.1,0,2,0.1,2.8,0.3c0.8,0.2,1.5,0.5,2.1,0.9c0.6,0.4,1.1,0.8,1.5,1.3
	c0.4,0.5,0.7,1.1,1,1.7s0.4,1.2,0.5,1.9s0.2,1.3,0.2,2v10.6h-3.7v-11c0-0.3,0-0.7-0.1-1s-0.2-0.7-0.3-1c-0.1-0.3-0.3-0.6-0.5-0.9
	c-0.2-0.3-0.5-0.5-0.8-0.8c-0.3-0.2-0.7-0.4-1.1-0.5s-0.9-0.2-1.5-0.2c-0.8,0-1.5,0.1-2.1,0.4c-0.6,0.3-1,0.6-1.4,1.1
	c-0.3,0.4-0.6,0.9-0.7,1.4s-0.2,1.1-0.2,1.6v2.5c0.3-0.5,0.7-0.9,1.1-1.2c0.4-0.3,0.8-0.6,1.2-0.8c0.4-0.2,0.9-0.4,1.5-0.5
	c0.6-0.1,1.2-0.1,1.9-0.1v3.2c-1.1,0-2,0.1-2.7,0.4c-0.7,0.3-1.3,0.7-1.7,1.2s-0.7,1.2-0.9,1.9c-0.2,0.8-0.3,1.6-0.3,2.6V330.4z"/>
<path d="M173.6,324.3c0,0.6,0.2,1.1,0.3,1.5s0.4,0.8,0.7,1c0.3,0.3,0.7,0.5,1.1,0.6s0.9,0.2,1.5,0.2c0.3,0,0.7,0,1.1-0.1
	c0.4-0.1,0.7-0.2,1-0.4s0.6-0.4,0.8-0.7c0.2-0.3,0.3-0.7,0.3-1.2c0-0.4-0.1-0.7-0.2-0.9c-0.2-0.3-0.4-0.5-0.7-0.7
	c-0.3-0.2-0.7-0.4-1.2-0.6c-0.5-0.2-1.1-0.4-1.7-0.7c-0.6-0.2-1.2-0.5-1.7-0.7s-1-0.4-1.5-0.7c-0.5-0.2-0.9-0.5-1.3-0.8
	c-0.4-0.3-0.7-0.6-1-0.9c-0.3-0.3-0.5-0.7-0.6-1.1c-0.1-0.4-0.2-0.9-0.2-1.4c0-0.6,0.1-1.1,0.2-1.6s0.4-0.9,0.7-1.3s0.7-0.7,1.1-1
	c0.4-0.3,0.8-0.5,1.3-0.7s1-0.3,1.5-0.4c0.5-0.1,1-0.1,1.5-0.1c1,0,1.9,0.1,2.7,0.3c0.8,0.2,1.5,0.5,2.1,1c0.6,0.5,1.1,1.1,1.4,1.8
	c0.4,0.8,0.6,1.7,0.6,2.9H180c-0.1-0.6-0.2-1-0.3-1.4c-0.2-0.4-0.4-0.7-0.6-0.9c-0.3-0.2-0.6-0.4-0.9-0.5c-0.3-0.1-0.7-0.2-1.2-0.2
	c-0.3,0-0.6,0-1,0.1c-0.3,0.1-0.6,0.2-0.9,0.3c-0.3,0.2-0.5,0.4-0.7,0.6s-0.3,0.6-0.3,0.9c0,0.3,0.1,0.5,0.2,0.8
	c0.2,0.2,0.4,0.4,0.7,0.6c0.3,0.2,0.7,0.4,1.2,0.6c0.5,0.2,1.1,0.4,1.7,0.7c0.8,0.3,1.5,0.6,2.1,0.8c0.6,0.3,1.2,0.5,1.6,0.8
	s0.8,0.6,1.1,0.9s0.6,0.6,0.7,1c0.2,0.3,0.3,0.7,0.4,1.1s0.1,0.8,0.1,1.3c0,1-0.2,1.9-0.5,2.6s-0.9,1.3-1.5,1.7
	c-0.6,0.4-1.4,0.7-2.3,0.9s-1.8,0.3-2.8,0.3c-1,0-1.9-0.1-2.8-0.3s-1.6-0.6-2.2-1.1c-0.6-0.5-1.2-1.2-1.5-2s-0.6-1.8-0.7-3H173.6z"
	/>
<path d="M171.9,332.5h5.1v2.5c0,0.6,0.1,1,0.4,1.3s0.6,0.5,1.2,0.5c0.5,0,0.9-0.2,1.1-0.5s0.4-0.8,0.4-1.3v-2.5h3.4v2.5
	c0,0.6-0.1,1.2-0.3,1.8c-0.2,0.6-0.5,1.1-0.8,1.5s-0.9,0.8-1.5,1s-1.4,0.4-2.3,0.4c-0.9,0-1.6-0.1-2.2-0.3c-0.6-0.2-1.1-0.5-1.5-0.9
	s-0.7-0.8-0.9-1.4s-0.3-1.1-0.4-1.8h-1.6V332.5z"/>
<path d="M194.5,312h6.1v3h-2.4v9.6c0,1.1,0.1,1.9,0.4,2.3c0.3,0.5,0.7,0.7,1.2,0.7c0.4,0,0.7-0.1,0.9-0.3c0.2-0.2,0.4-0.5,0.5-0.8
	s0.2-0.8,0.2-1.3c0-0.5,0-1,0-1.5v-2.9h3.7v2.9c0,0.5,0,1.1,0,1.5c0,0.5,0.1,0.9,0.2,1.3s0.3,0.6,0.5,0.8c0.2,0.2,0.5,0.3,1,0.3
	c0.2,0,0.5-0.1,0.6-0.2c0.2-0.1,0.3-0.3,0.4-0.5c0.1-0.2,0.2-0.6,0.3-0.9c0.1-0.4,0.1-0.9,0.1-1.4V312h3.7v13.2c0,1-0.1,1.8-0.3,2.5
	c-0.2,0.7-0.5,1.3-0.9,1.7c-0.4,0.5-0.9,0.8-1.5,1c-0.6,0.2-1.2,0.3-1.9,0.3c-0.9,0-1.7-0.2-2.4-0.5c-0.7-0.4-1.2-0.9-1.7-1.6
	c-0.3,0.7-0.8,1.3-1.5,1.6c-0.6,0.3-1.4,0.5-2.4,0.5c-0.7,0-1.4-0.1-2-0.3s-1.1-0.6-1.5-1c-0.4-0.5-0.7-1-1-1.7s-0.3-1.5-0.3-2.5
	V312z"/>
<path d="M200.3,332.5h5.1v2.5c0,0.6,0.1,1,0.4,1.3s0.6,0.5,1.2,0.5c0.5,0,0.9-0.2,1.1-0.5s0.4-0.8,0.4-1.3v-2.5h3.4v2.5
	c0,0.6-0.1,1.2-0.3,1.8c-0.2,0.6-0.5,1.1-0.8,1.5s-0.9,0.8-1.5,1s-1.4,0.4-2.3,0.4c-0.9,0-1.6-0.1-2.2-0.3c-0.6-0.2-1.1-0.5-1.5-0.9
	s-0.7-0.8-0.9-1.4s-0.3-1.1-0.4-1.8h-1.6V332.5z"/>
<path d="M202.9,309.2v-2.7h-1.6v-2.7h4.6v2.7c0.6,0,1.1-0.1,1.6-0.2s0.8-0.3,1.2-0.6s0.5-0.5,0.7-0.9c0.2-0.3,0.2-0.7,0.2-1h3.3
	c0,0.7-0.1,1.4-0.4,2c-0.3,0.7-0.8,1.2-1.4,1.7c-0.6,0.5-1.4,0.9-2.3,1.2c-0.9,0.3-2,0.5-3.2,0.5H202.9z"/>
<path d="M215.6,330.4V312h3.7v18.4H215.6z"/>
<path d="M226.1,324.3c0,0.6,0.2,1.1,0.3,1.5s0.4,0.8,0.7,1c0.3,0.3,0.7,0.5,1.1,0.6s0.9,0.2,1.5,0.2c0.3,0,0.7,0,1.1-0.1
	c0.4-0.1,0.7-0.2,1-0.4s0.6-0.4,0.8-0.7c0.2-0.3,0.3-0.7,0.3-1.2c0-0.4-0.1-0.7-0.2-0.9c-0.2-0.3-0.4-0.5-0.7-0.7
	c-0.3-0.2-0.7-0.4-1.2-0.6c-0.5-0.2-1.1-0.4-1.7-0.7c-0.6-0.2-1.2-0.5-1.7-0.7s-1-0.4-1.5-0.7c-0.5-0.2-0.9-0.5-1.3-0.8
	c-0.4-0.3-0.7-0.6-1-0.9c-0.3-0.3-0.5-0.7-0.6-1.1c-0.1-0.4-0.2-0.9-0.2-1.4c0-0.6,0.1-1.1,0.2-1.6s0.4-0.9,0.7-1.3s0.7-0.7,1.1-1
	c0.4-0.3,0.8-0.5,1.3-0.7s1-0.3,1.5-0.4c0.5-0.1,1-0.1,1.5-0.1c1,0,1.9,0.1,2.7,0.3c0.8,0.2,1.5,0.5,2.1,1c0.6,0.5,1.1,1.1,1.4,1.8
	c0.4,0.8,0.6,1.7,0.6,2.9h-3.7c-0.1-0.6-0.2-1-0.3-1.4c-0.2-0.4-0.4-0.7-0.6-0.9c-0.3-0.2-0.6-0.4-0.9-0.5c-0.3-0.1-0.7-0.2-1.2-0.2
	c-0.3,0-0.6,0-1,0.1c-0.3,0.1-0.6,0.2-0.9,0.3c-0.3,0.2-0.5,0.4-0.7,0.6s-0.3,0.6-0.3,0.9c0,0.3,0.1,0.5,0.2,0.8
	c0.2,0.2,0.4,0.4,0.7,0.6c0.3,0.2,0.7,0.4,1.2,0.6c0.5,0.2,1.1,0.4,1.7,0.7c0.8,0.3,1.5,0.6,2.1,0.8c0.6,0.3,1.2,0.5,1.6,0.8
	s0.8,0.6,1.1,0.9s0.6,0.6,0.7,1c0.2,0.3,0.3,0.7,0.4,1.1s0.1,0.8,0.1,1.3c0,1-0.2,1.9-0.5,2.6s-0.9,1.3-1.5,1.7
	c-0.6,0.4-1.4,0.7-2.3,0.9s-1.8,0.3-2.8,0.3c-1,0-1.9-0.1-2.8-0.3s-1.6-0.6-2.2-1.1c-0.6-0.5-1.2-1.2-1.5-2s-0.6-1.8-0.7-3H226.1z"
	/>
<path d="M224.1,306.3h8.4v-2.6h3.5v5.5h-13.4L224.1,306.3z"/>
<path d="M239.2,316.6c0-0.6,0.1-1.1,0.2-1.6c0.2-0.5,0.4-0.8,0.6-1.2s0.6-0.6,0.9-0.8c0.4-0.2,0.7-0.4,1.1-0.5
	c0.4-0.1,0.8-0.2,1.2-0.3c0.4-0.1,0.8-0.1,1.1-0.1h2.8v3.1h-2c-0.2,0-0.4,0-0.6,0s-0.5,0.1-0.7,0.2s-0.4,0.3-0.6,0.5
	s-0.2,0.5-0.2,0.9c0,0.4,0.1,0.8,0.2,1s0.3,0.5,0.5,0.6s0.5,0.3,0.8,0.3c0.3,0.1,0.6,0.1,0.9,0.1h1.8v3.1h-1.8c-0.4,0-0.7,0.1-1,0.1
	s-0.6,0.2-0.8,0.4c-0.2,0.2-0.4,0.4-0.5,0.8s-0.2,0.7-0.2,1.3c0,0.5,0.1,1,0.3,1.4c0.2,0.4,0.5,0.7,0.9,1c0.4,0.3,0.8,0.5,1.3,0.6
	c0.5,0.1,1,0.2,1.6,0.2c0.6,0,1.1-0.1,1.6-0.2c0.5-0.2,0.9-0.4,1.3-0.7c0.4-0.3,0.7-0.8,0.9-1.4c0.2-0.6,0.3-1.2,0.3-2.1V312h3.7
	v11.9c0,1.1-0.2,2.1-0.6,3c-0.4,0.9-1,1.6-1.7,2.2c-0.7,0.6-1.5,1-2.5,1.3s-1.9,0.4-3,0.4c-0.7,0-1.3-0.1-2-0.2
	c-0.7-0.1-1.3-0.3-1.9-0.5c-0.6-0.2-1.1-0.5-1.6-0.8c-0.5-0.3-0.9-0.7-1.3-1.2c-0.4-0.5-0.7-1-0.9-1.6c-0.2-0.6-0.3-1.2-0.3-1.9
	c0-0.5,0-0.9,0.1-1.3c0.1-0.4,0.2-0.8,0.3-1.2c0.2-0.4,0.4-0.7,0.6-1c0.3-0.3,0.6-0.5,1-0.7c-0.4-0.2-0.8-0.5-1-0.8
	c-0.3-0.3-0.5-0.6-0.6-1c-0.1-0.3-0.2-0.7-0.3-1.1C239.2,317.2,239.2,316.9,239.2,316.6z"/>
<path d="M270.7,330.4l0-2.2c-0.7,0.9-1.4,1.6-2.4,2c-0.9,0.5-2,0.7-3.3,0.7c-1.3,0-2.4-0.2-3.2-0.5c-0.9-0.3-1.5-0.8-2.1-1.5
	c-0.5-0.6-0.9-1.4-1.1-2.3s-0.3-1.8-0.3-2.9V312h3.7v12c0,0.5,0.1,1,0.2,1.4c0.2,0.4,0.4,0.8,0.7,1.1c0.3,0.3,0.7,0.5,1.1,0.7
	s0.9,0.2,1.4,0.2c0.9,0,1.6-0.1,2.3-0.4s1.2-0.7,1.6-1.1c0.4-0.5,0.7-1.1,0.9-1.7c0.2-0.7,0.3-1.4,0.3-2.2v-10h3.7v18.4H270.7z"/>
<g class="st0">
	<path d="M621.5,359.3c0.2,0.2,0.4,0.3,0.6,0.5c0.2,0.2,0.4,0.4,0.5,0.7s0.2,0.6,0.3,0.9s0.1,0.7,0.1,1.1v10.9h-1.8v-8.1
		c-0.2,0.2-0.4,0.3-0.7,0.5s-0.6,0.2-0.9,0.3s-0.7,0.2-1.1,0.2s-0.7,0.1-1,0.2c-0.3,0-0.7,0.1-1.1,0.1s-0.7,0.1-1.1,0.2
		s-0.7,0.2-1,0.3s-0.6,0.3-0.9,0.5s-0.4,0.5-0.6,0.8c-0.1,0.3-0.2,0.7-0.2,1.1c0,0.6,0.1,1,0.3,1.4s0.5,0.7,0.8,0.9s0.7,0.4,1.1,0.5
		s0.8,0.1,1.3,0.1c0.2,0,0.4,0,0.6,0s0.4,0,0.6,0v1.2c-0.3,0.1-0.6,0.1-0.9,0.2s-0.6,0.1-0.9,0.1c-0.7,0-1.3-0.1-1.8-0.2
		c-0.6-0.1-1.1-0.4-1.5-0.7s-0.8-0.7-1-1.2c-0.3-0.5-0.4-1.1-0.4-1.8c0-0.5,0.1-1,0.2-1.4c0.1-0.4,0.3-0.8,0.6-1.1s0.5-0.6,0.8-0.8
		c0.3-0.2,0.7-0.4,1-0.5s0.8-0.3,1.2-0.4s0.8-0.2,1.2-0.2c0.9-0.1,1.7-0.2,2.4-0.4c0.7-0.1,1.2-0.3,1.7-0.4s0.8-0.4,1-0.7
		s0.3-0.7,0.3-1.2c0-0.5,0-0.8-0.1-1.2c-0.1-0.3-0.2-0.6-0.4-0.8c-0.2-0.2-0.4-0.4-0.6-0.5s-0.5-0.2-0.8-0.3
		c-0.3-0.1-0.6-0.1-0.9-0.1s-0.6,0-0.9,0c-0.6,0-1.1,0-1.6,0.1c-0.5,0.1-0.9,0.3-1.3,0.5c-0.4,0.2-0.7,0.5-0.9,0.9s-0.4,0.9-0.4,1.5
		h-1.8c0.1-0.8,0.3-1.5,0.6-2.1s0.8-1,1.4-1.4s1.2-0.6,1.9-0.7s1.5-0.2,2.3-0.2c0.4,0,0.8,0,1.1,0.1s0.7,0.1,1.1,0.2
		c0.3,0,0.6,0,0.8-0.1c0.2-0.1,0.5-0.2,0.7-0.4s0.3-0.3,0.5-0.5s0.2-0.4,0.3-0.6h2c0,0.2-0.1,0.4-0.2,0.7s-0.3,0.4-0.5,0.6
		c-0.2,0.2-0.5,0.4-0.8,0.6S621.9,359.2,621.5,359.3z"/>
	<path d="M611.8,354.6h5.9v-2.3h1.6v2.3h2.2v-2.3h1.6v3.6h-12L611.8,354.6z"/>
	<path d="M621.4,346.7h1.7v3.7h-1.7V346.7z"/>
	<path d="M625.8,362.8c0.2-0.7,0.5-1.2,0.8-1.8s0.8-1,1.3-1.4c0.5-0.4,1.1-0.7,1.8-0.9s1.4-0.3,2.3-0.3c1.2,0,2.2,0.2,3,0.6
		s1.5,0.9,2,1.6c0.5,0.7,0.9,1.5,1.1,2.4c0.2,0.9,0.3,2,0.3,3.1c0,0.7,0,1.4-0.1,2c-0.1,0.7-0.3,1.3-0.5,1.8
		c-0.2,0.6-0.5,1.1-0.8,1.6c-0.3,0.5-0.7,0.9-1.2,1.2c-0.5,0.3-1,0.6-1.6,0.8c-0.6,0.2-1.3,0.3-2.1,0.3c-0.8,0-1.5-0.1-2.1-0.3
		c-0.6-0.2-1.1-0.5-1.6-0.8s-0.9-0.8-1.2-1.2s-0.6-1-0.8-1.6c-0.2-0.6-0.4-1.2-0.5-1.8s-0.1-1.3-0.1-2v-0.5h5.9v1.3h-4.1
		c0,0.8,0.1,1.6,0.3,2.3s0.5,1.3,0.9,1.8c0.4,0.5,0.9,0.9,1.4,1.1c0.5,0.3,1.1,0.4,1.8,0.4c0.7,0,1.3-0.1,1.9-0.4
		c0.6-0.3,1-0.7,1.4-1.2c0.4-0.5,0.7-1.2,0.9-2c0.2-0.8,0.3-1.7,0.3-2.7c0-4.1-1.5-6.2-4.5-6.2c-0.5,0-1,0.1-1.5,0.2
		c-0.5,0.1-0.9,0.3-1.3,0.6c-0.4,0.3-0.7,0.6-1,0.9s-0.5,0.8-0.6,1.2H625.8z"/>
	<path d="M650.8,359.3c0.2,0.2,0.4,0.3,0.6,0.5c0.2,0.2,0.4,0.4,0.5,0.7s0.2,0.6,0.3,0.9s0.1,0.7,0.1,1.1v10.9h-1.8v-8.1
		c-0.2,0.2-0.4,0.3-0.7,0.5s-0.6,0.2-0.9,0.3s-0.7,0.2-1.1,0.2s-0.7,0.1-1,0.2c-0.3,0-0.7,0.1-1.1,0.1s-0.7,0.1-1.1,0.2
		s-0.7,0.2-1,0.3s-0.6,0.3-0.9,0.5s-0.4,0.5-0.6,0.8c-0.1,0.3-0.2,0.7-0.2,1.1c0,0.6,0.1,1,0.3,1.4s0.5,0.7,0.8,0.9s0.7,0.4,1.1,0.5
		s0.8,0.1,1.3,0.1c0.2,0,0.4,0,0.6,0s0.4,0,0.6,0v1.2c-0.3,0.1-0.6,0.1-0.9,0.2s-0.6,0.1-0.9,0.1c-0.7,0-1.3-0.1-1.8-0.2
		c-0.6-0.1-1.1-0.4-1.5-0.7s-0.8-0.7-1-1.2c-0.3-0.5-0.4-1.1-0.4-1.8c0-0.5,0.1-1,0.2-1.4c0.1-0.4,0.3-0.8,0.6-1.1s0.5-0.6,0.8-0.8
		c0.3-0.2,0.7-0.4,1-0.5s0.8-0.3,1.2-0.4s0.8-0.2,1.2-0.2c0.9-0.1,1.7-0.2,2.4-0.4c0.7-0.1,1.2-0.3,1.7-0.4s0.8-0.4,1-0.7
		s0.3-0.7,0.3-1.2c0-0.5,0-0.8-0.1-1.2c-0.1-0.3-0.2-0.6-0.4-0.8c-0.2-0.2-0.4-0.4-0.6-0.5s-0.5-0.2-0.8-0.3
		c-0.3-0.1-0.6-0.1-0.9-0.1s-0.6,0-0.9,0c-0.6,0-1.1,0-1.6,0.1c-0.5,0.1-0.9,0.3-1.3,0.5c-0.4,0.2-0.7,0.5-0.9,0.9s-0.4,0.9-0.4,1.5
		h-1.8c0.1-0.8,0.3-1.5,0.6-2.1s0.8-1,1.4-1.4s1.2-0.6,1.9-0.7s1.5-0.2,2.3-0.2c0.4,0,0.8,0,1.1,0.1s0.7,0.1,1.1,0.2
		c0.3,0,0.6,0,0.8-0.1c0.2-0.1,0.5-0.2,0.7-0.4s0.3-0.3,0.5-0.5s0.2-0.4,0.3-0.6h2c0,0.2-0.1,0.4-0.2,0.7s-0.3,0.4-0.5,0.6
		c-0.2,0.2-0.5,0.4-0.8,0.6S651.2,359.2,650.8,359.3z"/>
	<path d="M647.8,353.7c0-0.3,0.1-0.6,0.2-0.9c0.1-0.3,0.3-0.5,0.5-0.7s0.4-0.4,0.7-0.5s0.6-0.2,0.9-0.2c0.3,0,0.6,0.1,0.9,0.2
		s0.5,0.3,0.7,0.5s0.4,0.5,0.5,0.7s0.2,0.6,0.2,0.9c0,0.3-0.1,0.6-0.2,0.9c-0.1,0.3-0.3,0.5-0.5,0.7s-0.5,0.4-0.7,0.5
		s-0.6,0.2-0.9,0.2c-0.3,0-0.6-0.1-0.9-0.2s-0.5-0.3-0.7-0.5s-0.4-0.4-0.5-0.7C647.9,354.3,647.8,354,647.8,353.7z M649.1,353.7
		c0,0.1,0,0.3,0.1,0.4s0.1,0.2,0.2,0.3s0.2,0.2,0.3,0.2c0.1,0.1,0.3,0.1,0.4,0.1c0.2,0,0.3,0,0.4-0.1s0.3-0.1,0.4-0.2
		s0.2-0.2,0.2-0.3s0.1-0.3,0.1-0.4c0-0.2,0-0.3-0.1-0.4c-0.1-0.1-0.1-0.3-0.2-0.4s-0.2-0.2-0.4-0.2s-0.3-0.1-0.4-0.1
		c-0.1,0-0.3,0-0.4,0.1c-0.1,0.1-0.2,0.1-0.3,0.2s-0.2,0.2-0.2,0.4C649.1,353.4,649.1,353.5,649.1,353.7z M654.5,362.5
		c0-0.7,0.2-1.3,0.5-1.8c0.3-0.5,0.7-0.9,1.2-1.3s1-0.6,1.6-0.8s1.2-0.3,1.9-0.3c0.7,0,1.4,0.1,2,0.3s1.1,0.5,1.6,0.9s0.8,0.9,1,1.5
		s0.4,1.3,0.4,2.1v10.2h-1.8v-9.7c0-0.7-0.1-1.3-0.2-1.8c-0.1-0.5-0.3-0.9-0.6-1.2s-0.6-0.6-1-0.7s-0.8-0.2-1.4-0.2
		c-0.4,0-0.8,0.1-1.2,0.2s-0.7,0.3-1,0.5s-0.5,0.5-0.7,0.8s-0.3,0.7-0.3,1.2H654.5z"/>
	<path d="M669.6,358.6v6.6l7.6-6.6h2.5l-3.4,2.8c0.7,0.2,1.2,0.5,1.6,0.8s0.7,0.7,0.9,1.2c0.2,0.5,0.4,1,0.4,1.5s0.1,1.1,0.1,1.8
		v6.6h-1.8v-7c0-0.5,0-0.9-0.1-1.4c-0.1-0.4-0.2-0.8-0.4-1.2c-0.2-0.3-0.5-0.6-0.8-0.9s-0.8-0.4-1.3-0.5l-5.4,4.8v6.1h-1.8v-14.8
		H669.6z"/>
	<path d="M683.7,369.2c0.1,1,0.4,1.7,1,2.2c0.6,0.5,1.5,0.8,2.7,0.8c0.4,0,0.7,0,1.1-0.1s0.8-0.2,1.1-0.4c0.3-0.2,0.6-0.5,0.8-0.9
		c0.2-0.4,0.3-0.8,0.3-1.4c0-0.4-0.1-0.7-0.2-0.9s-0.4-0.5-0.7-0.7s-0.7-0.4-1.1-0.7s-1-0.4-1.6-0.7c-0.5-0.2-0.9-0.4-1.3-0.5
		s-0.8-0.3-1.2-0.5s-0.7-0.4-1-0.6s-0.5-0.4-0.8-0.7s-0.4-0.5-0.5-0.9s-0.2-0.7-0.2-1.1c0-0.4,0.1-0.8,0.2-1.2s0.3-0.7,0.5-1
		c0.2-0.3,0.5-0.5,0.8-0.7s0.6-0.4,1-0.5s0.7-0.2,1.1-0.3c0.4-0.1,0.8-0.1,1.1-0.1c0.8,0,1.4,0.1,2,0.2c0.6,0.1,1.1,0.4,1.6,0.7
		s0.8,0.7,1.1,1.2s0.5,1.1,0.6,1.8h-1.8c-0.2-0.9-0.5-1.6-1.1-2.1c-0.6-0.4-1.3-0.7-2.1-0.7c-0.4,0-0.7,0-1.1,0.1s-0.7,0.2-1,0.4
		s-0.5,0.4-0.7,0.8s-0.3,0.7-0.3,1.1c0,0.4,0.1,0.7,0.3,1s0.4,0.5,0.8,0.7c0.3,0.2,0.7,0.4,1.2,0.6s1,0.4,1.6,0.6
		c0.9,0.3,1.7,0.7,2.3,1c0.6,0.3,1.1,0.6,1.5,1c0.4,0.3,0.6,0.7,0.8,1.1s0.2,0.8,0.2,1.3c0,0.8-0.1,1.4-0.4,1.9
		c-0.3,0.5-0.7,1-1.1,1.3s-1.1,0.6-1.7,0.7c-0.7,0.2-1.4,0.2-2.1,0.2c-0.7,0-1.4-0.1-2.1-0.3s-1.2-0.4-1.7-0.8
		c-0.5-0.4-0.9-0.8-1.2-1.4c-0.3-0.6-0.5-1.2-0.5-2H683.7z"/>
	<path d="M684.6,355.9v-2.6h1.7v1.3h7.5v1.3H684.6z"/>
	<path d="M701.2,372.3c0.6,0,1-0.1,1.5-0.2c0.4-0.1,0.8-0.3,1.1-0.5c0.3-0.2,0.6-0.5,0.8-0.8s0.4-0.6,0.5-1c0.1-0.3,0.2-0.7,0.3-1.1
		s0.1-0.7,0.1-1.1v-9.1h1.8v8.8c0,0.5,0,1.1-0.1,1.6s-0.2,1-0.4,1.5s-0.4,0.9-0.7,1.3s-0.7,0.7-1.1,1s-1,0.5-1.6,0.7
		s-1.3,0.2-2.1,0.2c-0.8,0-1.6-0.1-2.2-0.2s-1.2-0.4-1.6-0.7s-0.8-0.6-1.1-1s-0.5-0.8-0.7-1.3s-0.3-1-0.4-1.5s-0.1-1-0.1-1.6v-8.8
		h1.8v9.1c0,0.4,0,0.7,0.1,1.1s0.1,0.7,0.3,1c0.1,0.3,0.3,0.7,0.5,1c0.2,0.3,0.5,0.6,0.8,0.8c0.3,0.2,0.7,0.4,1.1,0.5
		C700.1,372.3,700.6,372.3,701.2,372.3z"/>
</g>
<g class="st0">
	<path d="M711.5,352.3c0-0.4-0.1-0.8-0.2-1.1c-0.1-0.3-0.3-0.6-0.6-0.8c-0.3-0.2-0.5-0.4-0.9-0.5c-0.3-0.1-0.7-0.2-1.1-0.2l0.7-2.8
		h9l1.7,3h-5.7c0.3,0.3,0.5,0.7,0.6,1.2s0.2,0.9,0.2,1.3v18.2h1.9v3h-5.6V352.3z"/>
	<path d="M731.7,364.5c-0.2,0.1-0.5,0.2-0.7,0.3c-0.3,0.1-0.5,0.1-0.8,0.2c-0.3,0.1-0.6,0.1-0.9,0.1s-0.6,0.1-0.9,0.1
		c-0.6,0.1-1.3,0.2-1.9,0.3c-0.6,0.1-1.2,0.3-1.7,0.5s-0.9,0.5-1.2,0.9c-0.3,0.4-0.5,0.9-0.5,1.5c0,0.5,0.1,0.8,0.3,1.2
		c0.2,0.3,0.5,0.6,0.8,0.7c0.3,0.2,0.7,0.3,1.1,0.4c0.4,0.1,0.8,0.1,1.2,0.1c0.3,0,0.7,0,1-0.1c0.4-0.1,0.7-0.1,1.1-0.2v2.9
		c-0.5,0.1-1,0.2-1.4,0.3c-0.5,0.1-0.9,0.1-1.4,0.1c-0.9,0-1.7-0.1-2.5-0.3c-0.8-0.2-1.5-0.5-2-0.9c-0.6-0.4-1-1-1.4-1.6
		c-0.3-0.7-0.5-1.5-0.5-2.5c0-0.7,0.1-1.4,0.3-1.9c0.2-0.5,0.4-1,0.8-1.4c0.3-0.4,0.7-0.8,1.2-1c0.5-0.3,1-0.5,1.6-0.7
		c0.6-0.2,1.3-0.4,2-0.5c0.7-0.1,1.5-0.3,2.4-0.4c0.5-0.1,1-0.2,1.5-0.2c0.5-0.1,0.9-0.2,1.3-0.3c0.4-0.1,0.7-0.3,0.9-0.5
		c0.2-0.2,0.4-0.5,0.4-0.9c0-0.6-0.1-1.1-0.3-1.4c-0.2-0.4-0.5-0.6-0.9-0.8c-0.4-0.2-0.8-0.3-1.2-0.4s-0.9-0.1-1.3-0.1
		c-0.6,0-1.1,0.1-1.6,0.2c-0.5,0.1-0.9,0.3-1.3,0.6c-0.4,0.3-0.7,0.6-0.9,1.1c-0.2,0.4-0.3,1-0.4,1.7H720c0-0.8,0.1-1.6,0.3-2.2
		c0.2-0.6,0.5-1.2,0.9-1.7c0.4-0.5,0.8-0.9,1.3-1.2c0.5-0.3,1-0.6,1.6-0.8c0.6-0.2,1.2-0.4,1.9-0.5c0.7-0.1,1.4-0.1,2.1-0.1
		c0.6,0,1.1,0,1.7,0.1s1.1,0.2,1.7,0.3s1,0.4,1.5,0.7s0.9,0.6,1.2,1c0.3,0.4,0.6,0.9,0.8,1.4c0.2,0.6,0.3,1.2,0.3,1.9v13.3h-3.7
		V364.5z"/>
	<path d="M746.2,357.8c-0.8,0-1.4,0.1-2,0.2c-0.6,0.2-1,0.4-1.4,0.7c-0.4,0.3-0.7,0.5-0.9,0.8c-0.2,0.3-0.4,0.6-0.4,0.8
		c0.4,0.3,0.7,0.8,0.9,1.4c0.2,0.6,0.4,1.2,0.4,1.8v9.9h-3.7v-9.9c0-0.2,0-0.5-0.1-0.8c0-0.3-0.1-0.5-0.2-0.7
		c-0.1-0.2-0.3-0.5-0.5-0.7s-0.5-0.4-0.8-0.6c0.1-0.5,0.3-1,0.5-1.5c0.2-0.5,0.5-1,0.8-1.4c0.3-0.4,0.7-0.9,1.2-1.3s1-0.7,1.6-1
		c0.6-0.3,1.3-0.5,2-0.7s1.6-0.2,2.5-0.2c1.1,0,2,0.1,2.9,0.3s1.6,0.5,2.2,0.8s1.2,0.8,1.6,1.3c0.4,0.5,0.8,1,1.1,1.6
		c0.3,0.6,0.5,1.2,0.6,1.8c0.1,0.6,0.2,1.3,0.2,1.9v11.1H751V362c0-0.5-0.1-1-0.2-1.5c-0.2-0.5-0.4-1-0.8-1.4
		c-0.4-0.4-0.9-0.7-1.5-1C747.9,357.9,747.1,357.8,746.2,357.8z"/>
	<path d="M757.9,359.6c0-0.6,0.1-1.1,0.2-1.6c0.2-0.5,0.4-0.8,0.6-1.2c0.3-0.3,0.6-0.6,0.9-0.8c0.4-0.2,0.7-0.4,1.1-0.5
		c0.4-0.1,0.8-0.2,1.2-0.3c0.4-0.1,0.8-0.1,1.1-0.1h2.8v3.1h-2c-0.2,0-0.4,0-0.6,0s-0.5,0.1-0.7,0.2s-0.4,0.3-0.6,0.5
		s-0.2,0.5-0.2,0.9c0,0.4,0.1,0.8,0.2,1c0.1,0.3,0.3,0.5,0.5,0.6s0.5,0.3,0.8,0.3c0.3,0.1,0.6,0.1,0.9,0.1h1.8v3.1h-1.8
		c-0.4,0-0.7,0.1-1,0.1c-0.3,0.1-0.6,0.2-0.8,0.4s-0.4,0.4-0.5,0.8c-0.1,0.3-0.2,0.7-0.2,1.3c0,0.5,0.1,1,0.3,1.4
		c0.2,0.4,0.5,0.7,0.9,1s0.8,0.5,1.3,0.6c0.5,0.1,1,0.2,1.6,0.2c0.6,0,1.1-0.1,1.6-0.2s0.9-0.4,1.3-0.7c0.4-0.3,0.7-0.8,0.9-1.4
		c0.2-0.6,0.3-1.2,0.3-2.1V355h3.7V367c0,1.1-0.2,2.1-0.6,3c-0.4,0.9-1,1.6-1.7,2.2c-0.7,0.6-1.5,1-2.5,1.3s-1.9,0.4-3,0.4
		c-0.7,0-1.3-0.1-2-0.2c-0.7-0.1-1.3-0.3-1.9-0.5c-0.6-0.2-1.1-0.5-1.6-0.8c-0.5-0.3-0.9-0.7-1.3-1.2c-0.4-0.5-0.7-1-0.9-1.6
		c-0.2-0.6-0.3-1.2-0.3-1.9c0-0.5,0-0.9,0.1-1.3c0.1-0.4,0.2-0.8,0.3-1.2c0.2-0.4,0.4-0.7,0.6-1c0.3-0.3,0.6-0.5,1-0.7
		c-0.4-0.2-0.8-0.5-1-0.8c-0.3-0.3-0.5-0.6-0.6-1c-0.1-0.3-0.2-0.7-0.3-1.1C757.9,360.2,757.9,359.9,757.9,359.6z"/>
	<path d="M770.1,382.4v-4h-1.6v-2.8h5.1v6.8H770.1z"/>
	<path d="M780.7,373.4H777v-10.6c0-0.7,0.1-1.4,0.2-2s0.3-1.3,0.5-1.9c0.2-0.6,0.6-1.2,1-1.7c0.4-0.5,0.9-1,1.5-1.3
		c0.6-0.4,1.3-0.7,2.1-0.9c0.8-0.2,1.8-0.3,2.8-0.3c1.1,0,2,0.1,2.8,0.3c0.8,0.2,1.5,0.5,2.1,0.9c0.6,0.4,1.1,0.8,1.5,1.3
		c0.4,0.5,0.7,1.1,1,1.7s0.4,1.2,0.5,1.9c0.1,0.7,0.2,1.3,0.2,2v10.6h-3.7v-11c0-0.3,0-0.7-0.1-1c-0.1-0.4-0.2-0.7-0.3-1
		s-0.3-0.6-0.5-0.9c-0.2-0.3-0.5-0.5-0.8-0.8c-0.3-0.2-0.7-0.4-1.1-0.5s-0.9-0.2-1.5-0.2c-0.8,0-1.5,0.1-2.1,0.4
		c-0.6,0.3-1,0.6-1.4,1.1c-0.3,0.4-0.6,0.9-0.7,1.4s-0.2,1.1-0.2,1.6v2.5c0.3-0.5,0.7-0.9,1.1-1.2c0.4-0.3,0.8-0.6,1.2-0.8
		c0.4-0.2,0.9-0.4,1.5-0.5c0.6-0.1,1.2-0.1,1.9-0.1v3.2c-1.1,0-2,0.1-2.7,0.4c-0.7,0.3-1.3,0.7-1.7,1.2s-0.7,1.2-0.9,1.9
		c-0.2,0.8-0.3,1.6-0.3,2.6V373.4z"/>
	<path d="M801.1,370.4h1.9v3h-5.6v-17.3c0-0.5,0-1,0.1-1.3c0-0.4,0.1-0.8,0.2-1.1c0.1-0.3,0.3-0.7,0.5-1c0.2-0.3,0.5-0.6,0.8-1
		c0.1-0.1,0.2-0.2,0.4-0.3c0.2-0.1,0.3-0.3,0.4-0.4c0.1-0.2,0.3-0.3,0.4-0.5c0.1-0.2,0.2-0.3,0.2-0.5c0-0.1,0-0.3-0.1-0.4
		c0-0.1-0.1-0.3-0.2-0.4c-0.1-0.1-0.2-0.2-0.4-0.3s-0.4-0.1-0.7-0.1c-0.3,0-0.5,0.1-0.8,0.2c-0.2,0.1-0.4,0.3-0.6,0.6
		c-0.2,0.2-0.3,0.5-0.3,0.9c-0.1,0.3-0.1,0.7-0.1,1.1h-3.4c0-1,0.1-1.8,0.4-2.5c0.3-0.7,0.7-1.3,1.2-1.8c0.5-0.5,1-0.8,1.7-1
		c0.6-0.2,1.3-0.3,2-0.3c0.6,0,1.2,0.1,1.8,0.2c0.6,0.1,1.1,0.4,1.5,0.7s0.8,0.7,1.1,1.2c0.3,0.5,0.4,1.1,0.4,1.8
		c0,0.4-0.1,0.7-0.2,1s-0.3,0.6-0.5,0.8s-0.4,0.5-0.7,0.7s-0.5,0.5-0.7,0.8c-0.2,0.2-0.3,0.4-0.4,0.6c-0.1,0.2-0.2,0.5-0.2,0.8
		c0,0.3-0.1,0.5-0.1,0.8s0,0.5,0,0.7V370.4z"/>
	<path d="M809.5,355v6.4l7.5-6.4h5.4l-4.1,3.4c0.6,0.3,1.2,0.6,1.6,1c0.4,0.4,0.7,0.9,0.9,1.5s0.4,1.2,0.5,1.9s0.1,1.4,0.1,2.2v8.4
		h-3.7v-8.7c0-0.4,0-0.9-0.1-1.3c-0.1-0.4-0.2-0.8-0.4-1.1c-0.2-0.3-0.4-0.6-0.7-0.9s-0.6-0.4-1-0.5l-6,5.2v7.4h-3.7V355H809.5z"/>
	<path d="M824.8,373.4V355h3.7v10c0,0.8,0.1,1.5,0.3,2.2c0.2,0.7,0.5,1.2,0.9,1.7c0.4,0.5,1,0.9,1.6,1.1s1.4,0.4,2.3,0.4
		c0.5,0,1-0.1,1.4-0.2s0.8-0.4,1.1-0.7c0.3-0.3,0.5-0.7,0.7-1.1c0.2-0.4,0.2-0.9,0.2-1.4v-12h3.7v11.7c0,1.1-0.1,2-0.3,2.9
		c-0.2,0.9-0.6,1.6-1.1,2.3c-0.5,0.6-1.2,1.1-2.1,1.5c-0.9,0.3-1.9,0.5-3.2,0.5c-1.3,0-2.4-0.2-3.3-0.7c-0.9-0.5-1.7-1.1-2.4-2
		l0,2.2H824.8z"/>
	<path d="M837.1,346.7h3.6v5.6h-3.6V346.7z"/>
	<path d="M856.3,351.2v3.7c0,0.7-0.1,1.3-0.2,1.9s-0.4,1.1-0.8,1.6c-0.3,0.4-0.8,0.8-1.3,1.1c-0.5,0.3-1.1,0.4-1.9,0.4v-2.1
		c0.3,0,0.6-0.1,0.8-0.2c0.2-0.1,0.4-0.3,0.6-0.5s0.3-0.5,0.3-0.8c0.1-0.3,0.1-0.6,0.1-0.9h-1.8v-4.1H856.3z M862,351.2v3.7
		c0,0.7-0.1,1.3-0.2,1.9s-0.4,1.1-0.8,1.6c-0.3,0.4-0.8,0.8-1.3,1.1c-0.5,0.3-1.1,0.4-1.9,0.4v-2.1c0.3,0,0.6-0.1,0.8-0.2
		c0.2-0.1,0.4-0.3,0.6-0.5s0.3-0.5,0.3-0.8c0.1-0.3,0.1-0.6,0.1-0.9h-1.8v-4.1H862z"/>
</g>
<g class="st0">
	<path class="st1" d="M157.6,268.3v8.3h4.9v1.5h-6.6v-9.8H157.6z"/>
	<path class="st1" d="M169.6,275.6c-0.1,0.4-0.2,0.8-0.4,1.2s-0.4,0.6-0.7,0.8c-0.3,0.2-0.6,0.4-1,0.5c-0.4,0.1-0.7,0.2-1.2,0.2
		c-0.6,0-1.1-0.1-1.6-0.3s-0.8-0.4-1.1-0.8s-0.5-0.7-0.6-1.2c-0.1-0.5-0.2-1-0.2-1.5c0-0.6,0.1-1.1,0.3-1.5s0.4-0.8,0.7-1.2
		c0.3-0.3,0.7-0.6,1.1-0.7s0.9-0.3,1.4-0.3c0.4,0,0.8,0.1,1.1,0.2c0.3,0.1,0.6,0.3,0.9,0.5c0.3,0.2,0.5,0.4,0.7,0.7s0.3,0.6,0.5,0.9
		s0.2,0.6,0.2,1s0.1,0.7,0,1.1h-5.2c0,0.2,0.1,0.5,0.1,0.7c0.1,0.2,0.2,0.4,0.4,0.6c0.2,0.2,0.3,0.3,0.6,0.4s0.5,0.1,0.8,0.1
		c0.2,0,0.4,0,0.5-0.1c0.2,0,0.3-0.1,0.5-0.2c0.1-0.1,0.3-0.2,0.4-0.4c0.1-0.2,0.2-0.3,0.2-0.6H169.6z M166.3,272.3
		c-0.2,0-0.4,0-0.6,0.1s-0.4,0.2-0.5,0.3c-0.1,0.1-0.3,0.3-0.4,0.5s-0.2,0.4-0.2,0.6h3.5c0-0.2-0.1-0.4-0.2-0.5s-0.2-0.3-0.4-0.5
		s-0.3-0.2-0.5-0.3C166.7,272.3,166.5,272.3,166.3,272.3z"/>
	<path class="st1" d="M177.3,277.9c-0.2,0.1-0.3,0.2-0.5,0.2s-0.3,0.1-0.5,0.1c-0.1,0-0.3,0-0.4,0s-0.2-0.1-0.3-0.1
		s-0.2-0.1-0.3-0.2c-0.1-0.1-0.1-0.2-0.2-0.4c-0.1,0.1-0.3,0.2-0.5,0.3s-0.4,0.2-0.6,0.2c-0.2,0.1-0.4,0.1-0.6,0.2
		c-0.2,0-0.4,0.1-0.6,0.1c-0.3,0-0.7,0-1-0.1c-0.3-0.1-0.6-0.2-0.8-0.4s-0.4-0.4-0.5-0.6s-0.2-0.6-0.2-1c0-0.3,0-0.6,0.1-0.8
		s0.2-0.4,0.3-0.6c0.1-0.2,0.3-0.3,0.5-0.4s0.4-0.2,0.6-0.3c0.2-0.1,0.5-0.1,0.7-0.2s0.5-0.1,0.8-0.2c0.2,0,0.4-0.1,0.6-0.1
		s0.4-0.1,0.5-0.2s0.3-0.1,0.4-0.2s0.2-0.2,0.2-0.3c0-0.2,0-0.3-0.1-0.4s-0.2-0.2-0.3-0.2c-0.1-0.1-0.3-0.1-0.4-0.1
		c-0.2,0-0.3,0-0.5,0c-0.2,0-0.4,0-0.6,0s-0.3,0.1-0.4,0.2c-0.1,0.1-0.2,0.2-0.3,0.4c-0.1,0.2-0.1,0.4-0.1,0.6h-1.6
		c0-0.3,0.1-0.6,0.1-0.9s0.2-0.5,0.3-0.7c0.1-0.2,0.3-0.4,0.5-0.5s0.4-0.2,0.6-0.3c0.2-0.1,0.5-0.1,0.7-0.2c0.3,0,0.5-0.1,0.8-0.1
		c0.2,0,0.5,0,0.7,0c0.2,0,0.4,0.1,0.7,0.1c0.2,0.1,0.4,0.1,0.6,0.2c0.2,0.1,0.3,0.2,0.5,0.4s0.2,0.3,0.3,0.6s0.1,0.5,0.1,0.8v3.5
		c0,0.1,0,0.3,0,0.3s0,0.1,0.1,0.1c0,0,0,0,0.1,0c0,0,0.1,0,0.1,0s0.1,0,0.2,0s0.1-0.1,0.2-0.1V277.9z M173.1,276.8
		c0.3,0,0.6,0,0.9-0.1c0.2-0.1,0.4-0.2,0.6-0.3s0.3-0.3,0.3-0.4s0.1-0.3,0.1-0.4v-0.9c-0.2,0.1-0.4,0.2-0.6,0.2s-0.4,0.1-0.6,0.2
		c-0.2,0.1-0.4,0.1-0.6,0.2c-0.2,0.1-0.4,0.1-0.6,0.2c-0.2,0.1-0.3,0.2-0.4,0.3s-0.1,0.3-0.1,0.4c0,0.1,0,0.3,0.1,0.3
		s0.1,0.2,0.2,0.2s0.2,0.1,0.4,0.1S173,276.8,173.1,276.8z"/>
	<path class="st1" d="M179.8,271v0.9c0.1-0.2,0.3-0.3,0.4-0.5c0.2-0.1,0.3-0.2,0.5-0.3c0.2-0.1,0.4-0.1,0.6-0.2s0.5-0.1,0.8-0.1v1.6
		c-0.5,0-0.9,0.1-1.2,0.2c-0.3,0.1-0.5,0.3-0.7,0.5s-0.3,0.5-0.4,0.8c-0.1,0.3-0.1,0.7-0.1,1v3.2h-1.6V271H179.8z"/>
	<path class="st1" d="M184.6,271v0.7c0.2-0.3,0.5-0.5,0.9-0.6c0.3-0.2,0.7-0.2,1.2-0.2c0.5,0,0.9,0.1,1.3,0.2s0.6,0.3,0.8,0.6
		c0.2,0.2,0.3,0.5,0.4,0.8s0.1,0.7,0.1,1.1v4.6h-1.6v-4.7c0-0.4-0.1-0.6-0.3-0.8c-0.2-0.2-0.5-0.3-0.9-0.3c-0.3,0-0.6,0-0.8,0.1
		s-0.4,0.2-0.6,0.4c-0.1,0.2-0.3,0.4-0.3,0.6c-0.1,0.2-0.1,0.5-0.1,0.7v4H183V271H184.6z"/>
	<path class="st1" d="M190.9,270.1v-1.8h1.6v1.8H190.9z M192.5,271v7.1h-1.6V271H192.5z"/>
	<path class="st1" d="M195.8,271v0.7c0.2-0.3,0.5-0.5,0.9-0.6c0.3-0.2,0.7-0.2,1.2-0.2c0.5,0,0.9,0.1,1.3,0.2s0.6,0.3,0.8,0.6
		c0.2,0.2,0.3,0.5,0.4,0.8s0.1,0.7,0.1,1.1v4.6h-1.6v-4.7c0-0.4-0.1-0.6-0.3-0.8c-0.2-0.2-0.5-0.3-0.9-0.3c-0.3,0-0.6,0-0.8,0.1
		s-0.4,0.2-0.6,0.4c-0.1,0.2-0.3,0.4-0.3,0.6c-0.1,0.2-0.1,0.5-0.1,0.7v4h-1.6V271H195.8z"/>
	<path class="st1" d="M208.5,277.6c0,0.6-0.1,1.1-0.2,1.5c-0.1,0.4-0.4,0.8-0.6,1.1c-0.3,0.3-0.6,0.5-1.1,0.6s-1,0.2-1.6,0.2
		c-0.2,0-0.5,0-0.7-0.1s-0.5-0.1-0.7-0.2s-0.4-0.2-0.6-0.3s-0.4-0.3-0.5-0.5c-0.2-0.2-0.3-0.4-0.4-0.6c-0.1-0.2-0.1-0.5-0.2-0.8h1.6
		c0,0.2,0.1,0.4,0.2,0.5s0.2,0.2,0.4,0.3s0.3,0.2,0.5,0.2c0.2,0,0.4,0.1,0.5,0.1c0.3,0,0.6-0.1,0.9-0.2s0.4-0.2,0.6-0.4
		s0.3-0.4,0.3-0.7c0.1-0.3,0.1-0.6,0.1-0.9v-0.1c-0.1,0.1-0.3,0.2-0.4,0.3s-0.3,0.2-0.5,0.2s-0.3,0.1-0.5,0.1s-0.4,0-0.5,0
		c-0.6,0-1-0.1-1.5-0.3c-0.4-0.2-0.8-0.5-1-0.8s-0.5-0.7-0.6-1.1c-0.1-0.4-0.2-0.9-0.2-1.4c0-0.3,0-0.6,0.1-0.8
		c0-0.3,0.1-0.6,0.2-0.9s0.3-0.5,0.4-0.8s0.4-0.5,0.6-0.6s0.6-0.3,0.9-0.4c0.3-0.1,0.7-0.2,1.2-0.2c0.4,0,0.7,0.1,1,0.2
		s0.6,0.3,0.8,0.6V271h1.6V277.6z M205,276.8c0.3,0,0.6-0.1,0.9-0.2c0.2-0.1,0.4-0.3,0.6-0.5c0.1-0.2,0.2-0.5,0.3-0.8
		s0.1-0.6,0.1-0.8c0-0.3,0-0.5-0.1-0.8s-0.2-0.5-0.3-0.7c-0.1-0.2-0.3-0.4-0.5-0.5s-0.5-0.2-0.8-0.2c-0.3,0-0.6,0.1-0.8,0.2
		s-0.4,0.3-0.6,0.5c-0.1,0.2-0.2,0.4-0.3,0.7c-0.1,0.3-0.1,0.6-0.1,0.8c0,0.3,0,0.5,0.1,0.8s0.2,0.5,0.3,0.7
		c0.1,0.2,0.3,0.4,0.5,0.5C204.4,276.7,204.7,276.8,205,276.8z"/>
	<path class="st1" d="M217,268.3c0.8,0,1.5,0.1,2.1,0.3c0.6,0.2,1.1,0.5,1.5,0.9c0.4,0.4,0.7,0.9,0.9,1.4s0.3,1.3,0.3,2
		c0,0.8-0.1,1.5-0.3,2.2c-0.2,0.6-0.5,1.2-0.9,1.6c-0.4,0.4-0.9,0.8-1.5,1c-0.6,0.2-1.3,0.3-2.2,0.3h-3.5v-9.8H217z M217.1,276.6
		c0.1,0,0.3,0,0.5,0c0.2,0,0.4-0.1,0.6-0.1s0.5-0.2,0.7-0.3s0.4-0.4,0.6-0.6s0.3-0.6,0.4-1c0.1-0.4,0.2-0.8,0.2-1.4
		c0-0.5-0.1-1-0.2-1.4s-0.3-0.8-0.5-1.1s-0.6-0.5-0.9-0.7s-0.8-0.2-1.4-0.2h-1.9v6.8H217.1z"/>
	<path class="st1" d="M229.4,275.6c-0.1,0.4-0.2,0.8-0.4,1.2s-0.4,0.6-0.7,0.8c-0.3,0.2-0.6,0.4-1,0.5c-0.4,0.1-0.7,0.2-1.2,0.2
		c-0.6,0-1.1-0.1-1.6-0.3s-0.8-0.4-1.1-0.8s-0.5-0.7-0.6-1.2c-0.1-0.5-0.2-1-0.2-1.5c0-0.6,0.1-1.1,0.3-1.5s0.4-0.8,0.7-1.2
		c0.3-0.3,0.7-0.6,1.1-0.7s0.9-0.3,1.4-0.3c0.4,0,0.8,0.1,1.1,0.2c0.3,0.1,0.6,0.3,0.9,0.5c0.3,0.2,0.5,0.4,0.7,0.7s0.3,0.6,0.5,0.9
		s0.2,0.6,0.2,1s0.1,0.7,0,1.1h-5.2c0,0.2,0.1,0.5,0.1,0.7c0.1,0.2,0.2,0.4,0.4,0.6c0.2,0.2,0.3,0.3,0.6,0.4s0.5,0.1,0.8,0.1
		c0.2,0,0.4,0,0.5-0.1c0.2,0,0.3-0.1,0.5-0.2c0.1-0.1,0.3-0.2,0.4-0.4c0.1-0.2,0.2-0.3,0.2-0.6H229.4z M226.1,272.3
		c-0.2,0-0.4,0-0.6,0.1s-0.4,0.2-0.5,0.3c-0.1,0.1-0.3,0.3-0.4,0.5s-0.2,0.4-0.2,0.6h3.5c0-0.2-0.1-0.4-0.2-0.5s-0.2-0.3-0.4-0.5
		s-0.3-0.2-0.5-0.3C226.5,272.3,226.3,272.3,226.1,272.3z"/>
	<path class="st1" d="M231.9,276.2c0.1,0.2,0.2,0.3,0.4,0.4c0.1,0.1,0.3,0.2,0.5,0.2s0.4,0.1,0.6,0.1c0.2,0,0.3,0,0.5,0
		c0.2,0,0.3-0.1,0.5-0.1s0.3-0.1,0.3-0.2s0.1-0.2,0.1-0.4c0-0.1,0-0.3-0.1-0.4s-0.2-0.2-0.4-0.2s-0.3-0.1-0.6-0.2
		c-0.2,0-0.4-0.1-0.6-0.1c-0.2,0-0.4-0.1-0.6-0.1c-0.2-0.1-0.4-0.1-0.6-0.2c-0.2-0.1-0.4-0.2-0.6-0.3s-0.3-0.2-0.5-0.4
		s-0.2-0.3-0.3-0.5s-0.1-0.4-0.1-0.7c0-0.3,0-0.5,0.1-0.7s0.2-0.4,0.3-0.5s0.3-0.3,0.5-0.4s0.4-0.2,0.6-0.3c0.2-0.1,0.4-0.1,0.7-0.2
		s0.5-0.1,0.7-0.1c0.4,0,0.8,0,1.2,0.1s0.7,0.2,1,0.4s0.5,0.5,0.7,0.8s0.3,0.7,0.3,1.2h-1.6c0-0.2-0.1-0.4-0.2-0.5
		c-0.1-0.1-0.2-0.3-0.3-0.4c-0.1-0.1-0.3-0.2-0.4-0.2c-0.2,0-0.3-0.1-0.5-0.1c-0.1,0-0.3,0-0.4,0c-0.1,0-0.3,0.1-0.4,0.1
		c-0.1,0.1-0.2,0.1-0.3,0.2s-0.1,0.2-0.1,0.3c0,0.1,0,0.2,0.1,0.3s0.2,0.2,0.3,0.2s0.3,0.1,0.5,0.2s0.4,0.1,0.6,0.1l0.5,0.1
		c0.3,0.1,0.7,0.2,0.9,0.3c0.3,0.1,0.6,0.2,0.8,0.4s0.4,0.4,0.5,0.6s0.2,0.5,0.2,0.8c0,0.3,0,0.6-0.1,0.8s-0.2,0.4-0.4,0.6
		c-0.1,0.2-0.3,0.3-0.5,0.4c-0.2,0.1-0.4,0.2-0.7,0.3s-0.5,0.1-0.7,0.2c-0.3,0-0.5,0-0.8,0c-0.4,0-0.8,0-1.2-0.1s-0.7-0.2-1-0.5
		s-0.5-0.5-0.7-0.8s-0.3-0.8-0.3-1.3h1.6C231.7,275.8,231.8,276,231.9,276.2z"/>
	<path class="st1" d="M237.6,270.1v-1.8h1.6v1.8H237.6z M239.3,271v7.1h-1.6V271H239.3z"/>
	<path class="st1" d="M247.4,277.6c0,0.6-0.1,1.1-0.2,1.5c-0.1,0.4-0.4,0.8-0.6,1.1c-0.3,0.3-0.6,0.5-1.1,0.6s-1,0.2-1.6,0.2
		c-0.2,0-0.5,0-0.7-0.1s-0.5-0.1-0.7-0.2s-0.4-0.2-0.6-0.3s-0.4-0.3-0.5-0.5c-0.2-0.2-0.3-0.4-0.4-0.6c-0.1-0.2-0.1-0.5-0.2-0.8h1.6
		c0,0.2,0.1,0.4,0.2,0.5s0.2,0.2,0.4,0.3s0.3,0.2,0.5,0.2c0.2,0,0.4,0.1,0.5,0.1c0.3,0,0.6-0.1,0.9-0.2s0.4-0.2,0.6-0.4
		s0.3-0.4,0.3-0.7c0.1-0.3,0.1-0.6,0.1-0.9v-0.1c-0.1,0.1-0.3,0.2-0.4,0.3s-0.3,0.2-0.5,0.2s-0.3,0.1-0.5,0.1s-0.4,0-0.5,0
		c-0.6,0-1-0.1-1.5-0.3c-0.4-0.2-0.8-0.5-1-0.8s-0.5-0.7-0.6-1.1c-0.1-0.4-0.2-0.9-0.2-1.4c0-0.3,0-0.6,0.1-0.8
		c0-0.3,0.1-0.6,0.2-0.9s0.3-0.5,0.4-0.8s0.4-0.5,0.6-0.6s0.6-0.3,0.9-0.4c0.3-0.1,0.7-0.2,1.2-0.2c0.4,0,0.7,0.1,1,0.2
		s0.6,0.3,0.8,0.6V271h1.6V277.6z M244,276.8c0.3,0,0.6-0.1,0.9-0.2c0.2-0.1,0.4-0.3,0.6-0.5c0.1-0.2,0.2-0.5,0.3-0.8
		s0.1-0.6,0.1-0.8c0-0.3,0-0.5-0.1-0.8s-0.2-0.5-0.3-0.7c-0.1-0.2-0.3-0.4-0.5-0.5s-0.5-0.2-0.8-0.2c-0.3,0-0.6,0.1-0.8,0.2
		s-0.4,0.3-0.6,0.5c-0.1,0.2-0.2,0.4-0.3,0.7c-0.1,0.3-0.1,0.6-0.1,0.8c0,0.3,0,0.5,0.1,0.8s0.2,0.5,0.3,0.7
		c0.1,0.2,0.3,0.4,0.5,0.5C243.4,276.7,243.6,276.8,244,276.8z"/>
	<path class="st1" d="M250.5,271v0.7c0.2-0.3,0.5-0.5,0.9-0.6c0.3-0.2,0.7-0.2,1.2-0.2c0.5,0,0.9,0.1,1.3,0.2s0.6,0.3,0.8,0.6
		c0.2,0.2,0.3,0.5,0.4,0.8s0.1,0.7,0.1,1.1v4.6h-1.6v-4.7c0-0.4-0.1-0.6-0.3-0.8c-0.2-0.2-0.5-0.3-0.9-0.3c-0.3,0-0.6,0-0.8,0.1
		s-0.4,0.2-0.6,0.4c-0.1,0.2-0.3,0.4-0.3,0.6c-0.1,0.2-0.1,0.5-0.1,0.7v4H249V271H250.5z"/>
</g>
<g class="st0">
	<path class="st1" d="M524.7,396.6v10.7h-1.9v-7.7c-0.2,0.7-0.5,1.3-0.7,2c-0.2,0.6-0.5,1.3-0.7,1.9c-0.2,0.6-0.5,1.3-0.7,1.9
		c-0.2,0.6-0.5,1.3-0.7,1.9h-1.6l-2.8-7.8v7.8h-1.9v-10.7h2.5l2.9,8.4l3-8.4H524.7z"/>
	<path class="st1" d="M533.6,404.6c-0.1,0.5-0.3,0.9-0.5,1.3s-0.5,0.7-0.8,0.9c-0.3,0.2-0.7,0.4-1.1,0.5c-0.4,0.1-0.8,0.2-1.3,0.2
		c-0.7,0-1.2-0.1-1.7-0.3c-0.5-0.2-0.9-0.5-1.2-0.9c-0.3-0.4-0.6-0.8-0.7-1.3c-0.2-0.5-0.2-1.1-0.2-1.7c0-0.6,0.1-1.2,0.3-1.7
		c0.2-0.5,0.4-0.9,0.8-1.3c0.3-0.4,0.7-0.6,1.2-0.8s1-0.3,1.6-0.3c0.4,0,0.9,0.1,1.2,0.2c0.4,0.1,0.7,0.3,1,0.5
		c0.3,0.2,0.5,0.5,0.7,0.8s0.4,0.6,0.5,1c0.1,0.3,0.2,0.7,0.3,1.1s0.1,0.8,0.1,1.2H528c0,0.3,0.1,0.5,0.2,0.7
		c0.1,0.2,0.2,0.4,0.4,0.6s0.4,0.3,0.6,0.4c0.3,0.1,0.5,0.2,0.9,0.2c0.2,0,0.4,0,0.6-0.1c0.2,0,0.4-0.1,0.5-0.2
		c0.2-0.1,0.3-0.2,0.4-0.4c0.1-0.2,0.2-0.4,0.3-0.6H533.6z M529.9,400.9c-0.3,0-0.5,0-0.7,0.1s-0.4,0.2-0.6,0.3
		c-0.2,0.1-0.3,0.3-0.4,0.5c-0.1,0.2-0.2,0.4-0.2,0.6h3.8c0-0.2-0.1-0.4-0.2-0.6c-0.1-0.2-0.3-0.4-0.4-0.5c-0.2-0.1-0.4-0.3-0.6-0.3
		C530.4,400.9,530.2,400.9,529.9,400.9z"/>
	<path class="st1" d="M542.2,396.6v10.7h-1.8v-0.8c-0.2,0.2-0.3,0.3-0.5,0.5c-0.2,0.1-0.4,0.2-0.6,0.3c-0.2,0.1-0.4,0.1-0.6,0.2
		c-0.2,0-0.4,0-0.6,0c-0.6,0-1.2-0.1-1.6-0.3s-0.8-0.5-1.2-0.9c-0.3-0.4-0.5-0.8-0.7-1.3s-0.2-1-0.2-1.6c0-0.4,0-0.7,0.1-1
		c0.1-0.3,0.2-0.7,0.3-1c0.1-0.3,0.3-0.6,0.5-0.8s0.4-0.5,0.7-0.7c0.3-0.2,0.6-0.3,0.9-0.4c0.3-0.1,0.7-0.2,1.2-0.2
		c0.2,0,0.4,0,0.6,0.1c0.2,0,0.4,0.1,0.6,0.2c0.2,0.1,0.4,0.2,0.6,0.3c0.2,0.1,0.3,0.3,0.5,0.4v-3.6H542.2z M536.3,403.3
		c0,0.3,0,0.7,0.1,1c0.1,0.3,0.2,0.6,0.3,0.8c0.2,0.2,0.4,0.4,0.6,0.6s0.6,0.2,1,0.2c0.4,0,0.7-0.1,1-0.2c0.3-0.1,0.5-0.3,0.7-0.6
		c0.2-0.2,0.3-0.5,0.4-0.8s0.1-0.6,0.1-1c0-0.3,0-0.6-0.1-0.9s-0.2-0.6-0.4-0.8c-0.2-0.2-0.4-0.4-0.6-0.6c-0.3-0.2-0.6-0.2-1-0.2
		c-0.4,0-0.7,0.1-1,0.2c-0.3,0.1-0.5,0.3-0.6,0.6c-0.2,0.2-0.3,0.5-0.4,0.8C536.3,402.7,536.3,403,536.3,403.3z"/>
	<path class="st1" d="M544,398.6v-2h1.8v2H544z M545.8,399.5v7.8H544v-7.8H545.8z"/>
	<path class="st1" d="M554.9,407.1c-0.2,0.1-0.3,0.2-0.5,0.3c-0.2,0.1-0.4,0.1-0.6,0.1c-0.2,0-0.3,0-0.4,0c-0.1,0-0.3-0.1-0.4-0.2
		c-0.1-0.1-0.2-0.2-0.3-0.3c-0.1-0.1-0.1-0.2-0.2-0.4c-0.2,0.1-0.3,0.3-0.5,0.4s-0.4,0.2-0.6,0.3c-0.2,0.1-0.4,0.1-0.7,0.2
		c-0.2,0-0.5,0.1-0.7,0.1c-0.4,0-0.7,0-1.1-0.1c-0.3-0.1-0.6-0.2-0.9-0.4c-0.3-0.2-0.5-0.4-0.6-0.7c-0.1-0.3-0.2-0.6-0.2-1.1
		c0-0.3,0-0.6,0.1-0.9s0.2-0.4,0.4-0.6s0.3-0.3,0.5-0.4c0.2-0.1,0.4-0.2,0.7-0.3c0.2-0.1,0.5-0.1,0.8-0.2c0.3-0.1,0.6-0.1,0.8-0.2
		c0.2-0.1,0.4-0.1,0.6-0.2c0.2-0.1,0.4-0.1,0.6-0.2c0.2-0.1,0.3-0.1,0.4-0.2c0.1-0.1,0.2-0.2,0.2-0.3c0-0.2,0-0.4-0.1-0.5
		c-0.1-0.1-0.2-0.2-0.3-0.3c-0.1-0.1-0.3-0.1-0.5-0.1c-0.2,0-0.3,0-0.5,0c-0.2,0-0.4,0-0.6,0c-0.2,0-0.3,0.1-0.5,0.2
		c-0.1,0.1-0.2,0.2-0.3,0.4c-0.1,0.2-0.1,0.4-0.1,0.7h-1.8c0-0.4,0.1-0.7,0.2-1c0.1-0.3,0.2-0.5,0.4-0.8c0.2-0.2,0.3-0.4,0.5-0.5
		c0.2-0.1,0.4-0.3,0.7-0.4c0.3-0.1,0.5-0.2,0.8-0.2c0.3,0,0.6-0.1,0.9-0.1c0.3,0,0.5,0,0.8,0c0.3,0,0.5,0.1,0.7,0.1
		c0.2,0.1,0.4,0.1,0.6,0.3c0.2,0.1,0.4,0.2,0.5,0.4c0.1,0.2,0.3,0.4,0.3,0.6s0.1,0.5,0.1,0.8v3.8c0,0.2,0,0.3,0,0.4
		c0,0.1,0,0.1,0.1,0.1c0,0,0,0,0.1,0c0,0,0.1,0,0.1,0c0,0,0.1,0,0.2-0.1c0.1,0,0.2-0.1,0.3-0.1V407.1z M550.3,405.9
		c0.4,0,0.7,0,0.9-0.1s0.5-0.2,0.6-0.3c0.2-0.1,0.3-0.3,0.4-0.5s0.1-0.3,0.1-0.5v-1c-0.2,0.1-0.4,0.2-0.7,0.2
		c-0.3,0.1-0.5,0.1-0.7,0.2c-0.2,0.1-0.5,0.1-0.7,0.2c-0.2,0.1-0.4,0.1-0.6,0.2c-0.2,0.1-0.3,0.2-0.4,0.3c-0.1,0.1-0.2,0.3-0.2,0.5
		c0,0.2,0,0.3,0.1,0.4c0.1,0.1,0.2,0.2,0.3,0.3c0.1,0.1,0.2,0.1,0.4,0.1C550,405.9,550.1,405.9,550.3,405.9z"/>
</g>
<g class="st0">
	<path class="st1" d="M677.8,119.2c-0.1-0.3-0.3-0.5-0.5-0.6c-0.2-0.2-0.4-0.3-0.7-0.3c-0.3-0.1-0.6-0.1-0.9-0.1
		c-0.3,0-0.5,0-0.8,0.1s-0.5,0.1-0.7,0.3c-0.2,0.1-0.4,0.3-0.5,0.5c-0.1,0.2-0.2,0.4-0.2,0.7c0,0.2,0.1,0.4,0.2,0.6
		c0.1,0.2,0.3,0.3,0.6,0.4c0.2,0.1,0.5,0.2,0.8,0.3c0.3,0.1,0.6,0.1,1,0.2c0.3,0.1,0.7,0.1,1,0.2c0.3,0.1,0.7,0.2,1,0.3
		s0.6,0.2,0.9,0.4c0.3,0.2,0.5,0.3,0.7,0.6s0.4,0.5,0.5,0.8c0.1,0.3,0.2,0.7,0.2,1.1c0,0.4-0.1,0.8-0.2,1.1
		c-0.1,0.3-0.3,0.6-0.5,0.8c-0.2,0.2-0.5,0.4-0.7,0.6c-0.3,0.2-0.6,0.3-0.9,0.4s-0.7,0.2-1,0.2c-0.3,0.1-0.7,0.1-1,0.1
		c-0.4,0-0.8,0-1.2-0.1s-0.7-0.2-1.1-0.3c-0.3-0.1-0.6-0.3-0.9-0.5c-0.3-0.2-0.5-0.5-0.7-0.8c-0.2-0.3-0.3-0.6-0.5-1
		s-0.2-0.8-0.2-1.3h1.8c0,0.4,0.1,0.8,0.2,1.1c0.1,0.3,0.3,0.6,0.6,0.7c0.3,0.2,0.5,0.3,0.9,0.4c0.3,0.1,0.7,0.1,1.1,0.1
		c0.2,0,0.4,0,0.6,0s0.4-0.1,0.6-0.1c0.2,0,0.3-0.1,0.5-0.2c0.2-0.1,0.3-0.2,0.4-0.3c0.1-0.1,0.2-0.3,0.3-0.4
		c0.1-0.2,0.1-0.4,0.1-0.6c0-0.3-0.1-0.5-0.2-0.7c-0.2-0.2-0.4-0.3-0.6-0.5c-0.3-0.1-0.6-0.2-0.9-0.3c-0.3-0.1-0.7-0.2-1.1-0.2
		c-0.3-0.1-0.6-0.1-1-0.2c-0.3-0.1-0.6-0.2-0.9-0.3c-0.3-0.1-0.6-0.2-0.8-0.4c-0.3-0.1-0.5-0.3-0.7-0.5c-0.2-0.2-0.3-0.4-0.4-0.7
		c-0.1-0.3-0.2-0.6-0.2-1s0.1-0.7,0.2-1c0.1-0.3,0.2-0.6,0.4-0.8s0.4-0.4,0.7-0.6c0.3-0.2,0.5-0.3,0.8-0.4c0.3-0.1,0.6-0.2,1-0.3
		c0.3-0.1,0.7-0.1,1-0.1c0.6,0,1.1,0.1,1.6,0.2c0.5,0.1,0.9,0.3,1.3,0.6c0.4,0.3,0.6,0.7,0.8,1.1c0.2,0.5,0.3,1,0.4,1.7H678
		C678,119.8,677.9,119.5,677.8,119.2z"/>
	<path class="st1" d="M685.3,119.7v1.7h-1.4v4.1c0,0.1,0,0.2,0,0.2s0.1,0.1,0.1,0.1s0.1,0,0.2,0.1s0.2,0,0.3,0h0.8v1.6h-1.2
		c-0.4,0-0.7,0-1-0.1c-0.3-0.1-0.5-0.2-0.6-0.3s-0.3-0.3-0.4-0.6s-0.1-0.6-0.1-1v-4.2h-1.2v-1.7h1.2v-2.3h1.8v2.3H685.3z"/>
	<path class="st1" d="M691.7,127.6l0-0.8c-0.3,0.3-0.6,0.5-1,0.7c-0.4,0.2-0.8,0.2-1.2,0.2c-0.6,0-1-0.1-1.4-0.2
		c-0.4-0.1-0.7-0.3-0.9-0.6s-0.4-0.6-0.5-0.9s-0.1-0.8-0.1-1.2v-5h1.8v5.2c0,0.4,0.1,0.7,0.3,0.9s0.5,0.3,0.9,0.3
		c0.3,0,0.6,0,0.9-0.2c0.2-0.1,0.5-0.2,0.6-0.4s0.3-0.4,0.4-0.6c0.1-0.2,0.1-0.5,0.1-0.8v-4.4h1.8v7.8H691.7z"/>
	<path class="st1" d="M702.5,116.8v10.7h-1.8v-0.8c-0.2,0.2-0.3,0.3-0.5,0.5c-0.2,0.1-0.4,0.2-0.6,0.3c-0.2,0.1-0.4,0.1-0.6,0.2
		c-0.2,0-0.4,0-0.6,0c-0.6,0-1.2-0.1-1.6-0.3c-0.5-0.2-0.8-0.5-1.2-0.9s-0.5-0.8-0.7-1.3c-0.2-0.5-0.2-1-0.2-1.6c0-0.4,0-0.7,0.1-1
		s0.2-0.7,0.3-1c0.1-0.3,0.3-0.6,0.5-0.8c0.2-0.3,0.4-0.5,0.7-0.7c0.3-0.2,0.6-0.3,0.9-0.4s0.7-0.2,1.2-0.2c0.2,0,0.4,0,0.6,0.1
		c0.2,0,0.4,0.1,0.6,0.2s0.4,0.2,0.6,0.3c0.2,0.1,0.3,0.3,0.5,0.4v-3.6H702.5z M696.6,123.5c0,0.3,0,0.7,0.1,1
		c0.1,0.3,0.2,0.6,0.3,0.8s0.4,0.4,0.6,0.6c0.3,0.1,0.6,0.2,1,0.2c0.4,0,0.7-0.1,1-0.2s0.5-0.3,0.7-0.6s0.3-0.5,0.4-0.8
		c0.1-0.3,0.1-0.6,0.1-1c0-0.3,0-0.6-0.1-0.9c-0.1-0.3-0.2-0.6-0.4-0.8c-0.2-0.2-0.4-0.4-0.6-0.6s-0.6-0.2-1-0.2
		c-0.4,0-0.7,0.1-1,0.2s-0.5,0.3-0.7,0.6c-0.2,0.2-0.3,0.5-0.4,0.8C696.6,122.9,696.6,123.2,696.6,123.5z"/>
	<path class="st1" d="M711.2,124.8c-0.1,0.5-0.3,0.9-0.5,1.3s-0.5,0.7-0.8,0.9c-0.3,0.2-0.7,0.4-1.1,0.5c-0.4,0.1-0.8,0.2-1.3,0.2
		c-0.7,0-1.2-0.1-1.7-0.3c-0.5-0.2-0.9-0.5-1.2-0.9c-0.3-0.4-0.6-0.8-0.7-1.3c-0.2-0.5-0.2-1.1-0.2-1.7c0-0.6,0.1-1.2,0.3-1.7
		c0.2-0.5,0.4-0.9,0.8-1.3c0.3-0.4,0.7-0.6,1.2-0.8s1-0.3,1.6-0.3c0.4,0,0.9,0.1,1.2,0.2c0.4,0.1,0.7,0.3,1,0.5
		c0.3,0.2,0.5,0.5,0.7,0.8c0.2,0.3,0.4,0.6,0.5,1s0.2,0.7,0.3,1.1s0.1,0.8,0.1,1.2h-5.7c0,0.3,0.1,0.5,0.2,0.7
		c0.1,0.2,0.2,0.4,0.4,0.6s0.4,0.3,0.6,0.4c0.3,0.1,0.5,0.2,0.9,0.2c0.2,0,0.4,0,0.6-0.1s0.4-0.1,0.5-0.2c0.2-0.1,0.3-0.2,0.4-0.4
		s0.2-0.4,0.3-0.6H711.2z M707.5,121.1c-0.3,0-0.5,0-0.7,0.1c-0.2,0.1-0.4,0.2-0.6,0.3c-0.2,0.1-0.3,0.3-0.4,0.5
		c-0.1,0.2-0.2,0.4-0.2,0.6h3.8c0-0.2-0.1-0.4-0.2-0.6s-0.3-0.4-0.4-0.5c-0.2-0.1-0.4-0.3-0.6-0.3S707.8,121.1,707.5,121.1z"/>
	<path class="st1" d="M714.1,119.7v0.8c0.3-0.3,0.6-0.5,0.9-0.7s0.8-0.3,1.3-0.3c0.6,0,1,0.1,1.4,0.2s0.7,0.3,0.9,0.6
		c0.2,0.3,0.4,0.6,0.5,0.9c0.1,0.4,0.1,0.7,0.1,1.2v5h-1.8v-5.2c0-0.4-0.1-0.7-0.3-0.9c-0.2-0.2-0.5-0.3-1-0.3
		c-0.3,0-0.6,0.1-0.9,0.2s-0.5,0.3-0.6,0.4c-0.2,0.2-0.3,0.4-0.4,0.6s-0.1,0.5-0.1,0.8v4.4h-1.8v-7.8H714.1z"/>
	<path class="st1" d="M724.6,119.7v1.7h-1.4v4.1c0,0.1,0,0.2,0,0.2s0.1,0.1,0.1,0.1s0.1,0,0.2,0.1s0.2,0,0.3,0h0.8v1.6h-1.2
		c-0.4,0-0.7,0-1-0.1c-0.3-0.1-0.5-0.2-0.6-0.3s-0.3-0.3-0.4-0.6s-0.1-0.6-0.1-1v-4.2h-1.2v-1.7h1.2v-2.3h1.8v2.3H724.6z"/>
</g>
<g class="st0">
	<path class="st1" d="M301.7,13.9v-1.6h8.5v1.6h-3.3V23H305v-9.1H301.7z"/>
	<path class="st1" d="M317.7,20.3c-0.1,0.5-0.3,0.9-0.5,1.3c-0.2,0.4-0.5,0.7-0.8,0.9c-0.3,0.2-0.7,0.4-1.1,0.5
		c-0.4,0.1-0.8,0.2-1.3,0.2c-0.7,0-1.2-0.1-1.7-0.3s-0.9-0.5-1.2-0.9c-0.3-0.4-0.6-0.8-0.7-1.3c-0.2-0.5-0.2-1.1-0.2-1.7
		c0-0.6,0.1-1.2,0.3-1.7c0.2-0.5,0.4-0.9,0.8-1.3c0.3-0.4,0.7-0.6,1.2-0.8s1-0.3,1.6-0.3c0.4,0,0.9,0.1,1.2,0.2
		c0.4,0.1,0.7,0.3,1,0.5c0.3,0.2,0.5,0.5,0.7,0.8s0.4,0.6,0.5,1s0.2,0.7,0.3,1.1s0.1,0.8,0.1,1.2h-5.7c0,0.3,0.1,0.5,0.2,0.7
		c0.1,0.2,0.2,0.4,0.4,0.6c0.2,0.2,0.4,0.3,0.6,0.4c0.3,0.1,0.5,0.2,0.9,0.2c0.2,0,0.4,0,0.6-0.1c0.2,0,0.4-0.1,0.5-0.2
		c0.2-0.1,0.3-0.2,0.4-0.4c0.1-0.2,0.2-0.4,0.3-0.6H317.7z M314.1,16.6c-0.3,0-0.5,0-0.7,0.1c-0.2,0.1-0.4,0.2-0.6,0.3
		s-0.3,0.3-0.4,0.5s-0.2,0.4-0.2,0.6h3.8c-0.1-0.2-0.1-0.4-0.2-0.6c-0.1-0.2-0.3-0.4-0.4-0.5c-0.2-0.1-0.4-0.3-0.6-0.3
		C314.5,16.7,314.3,16.6,314.1,16.6z"/>
	<path class="st1" d="M326.2,22.9c-0.2,0.1-0.3,0.2-0.5,0.3c-0.2,0.1-0.4,0.1-0.6,0.1c-0.2,0-0.3,0-0.4,0c-0.1,0-0.3-0.1-0.4-0.2
		c-0.1-0.1-0.2-0.2-0.3-0.3c-0.1-0.1-0.1-0.2-0.2-0.4c-0.2,0.1-0.3,0.3-0.5,0.4s-0.4,0.2-0.6,0.3s-0.4,0.1-0.7,0.2
		c-0.2,0-0.5,0.1-0.7,0.1c-0.4,0-0.7,0-1.1-0.1c-0.3-0.1-0.6-0.2-0.9-0.4c-0.3-0.2-0.5-0.4-0.6-0.7c-0.1-0.3-0.2-0.6-0.2-1.1
		c0-0.3,0-0.6,0.1-0.9s0.2-0.4,0.4-0.6c0.2-0.2,0.3-0.3,0.5-0.4c0.2-0.1,0.4-0.2,0.7-0.3s0.5-0.1,0.8-0.2c0.3-0.1,0.6-0.1,0.8-0.2
		c0.2,0,0.4-0.1,0.6-0.2c0.2,0,0.4-0.1,0.6-0.2c0.2-0.1,0.3-0.1,0.4-0.2c0.1-0.1,0.2-0.2,0.2-0.3c0-0.2,0-0.4-0.1-0.5
		c-0.1-0.1-0.2-0.2-0.3-0.3c-0.1-0.1-0.3-0.1-0.5-0.1c-0.2,0-0.3,0-0.5,0c-0.2,0-0.4,0-0.6,0c-0.2,0-0.3,0.1-0.5,0.2
		s-0.2,0.2-0.3,0.4c-0.1,0.2-0.1,0.4-0.1,0.7h-1.8c0-0.4,0.1-0.7,0.2-1c0.1-0.3,0.2-0.5,0.4-0.7c0.2-0.2,0.3-0.4,0.5-0.5
		c0.2-0.1,0.4-0.3,0.7-0.4c0.3-0.1,0.5-0.2,0.8-0.2c0.3,0,0.6-0.1,0.9-0.1c0.3,0,0.5,0,0.8,0c0.3,0,0.5,0.1,0.7,0.1
		c0.2,0.1,0.4,0.1,0.6,0.3c0.2,0.1,0.4,0.2,0.5,0.4c0.1,0.2,0.3,0.4,0.3,0.6s0.1,0.5,0.1,0.8v3.8c0,0.2,0,0.3,0,0.4s0,0.1,0.1,0.1
		c0,0,0,0,0.1,0c0,0,0.1,0,0.1,0s0.1,0,0.2-0.1c0.1,0,0.2-0.1,0.3-0.1V22.9z M321.6,21.7c0.4,0,0.7,0,0.9-0.1
		c0.3-0.1,0.5-0.2,0.6-0.3s0.3-0.3,0.4-0.5c0.1-0.2,0.1-0.3,0.1-0.5v-1c-0.2,0.1-0.4,0.2-0.7,0.2c-0.3,0.1-0.5,0.1-0.7,0.2
		c-0.2,0.1-0.5,0.1-0.7,0.2c-0.2,0.1-0.4,0.1-0.6,0.2c-0.2,0.1-0.3,0.2-0.4,0.3s-0.2,0.3-0.2,0.5c0,0.2,0,0.3,0.1,0.4
		c0.1,0.1,0.2,0.2,0.3,0.3c0.1,0.1,0.2,0.1,0.4,0.1C321.3,21.6,321.4,21.7,321.6,21.7z"/>
	<path class="st1" d="M332.2,17.3c-0.1-0.2-0.2-0.3-0.4-0.4c-0.1-0.1-0.3-0.2-0.5-0.2s-0.4-0.1-0.6-0.1c-0.4,0-0.7,0.1-1,0.2
		c-0.3,0.1-0.5,0.3-0.7,0.6c-0.2,0.2-0.3,0.5-0.4,0.8c-0.1,0.3-0.1,0.6-0.1,1c0,0.3,0,0.6,0.1,0.9c0.1,0.3,0.2,0.6,0.4,0.8
		c0.2,0.2,0.4,0.4,0.6,0.5c0.3,0.1,0.6,0.2,0.9,0.2c0.5,0,1-0.1,1.3-0.4s0.5-0.7,0.6-1.3h1.9c-0.1,0.5-0.2,1-0.4,1.4s-0.4,0.7-0.7,1
		c-0.3,0.3-0.7,0.5-1.1,0.6c-0.4,0.1-0.9,0.2-1.4,0.2c-0.6,0-1.2-0.1-1.7-0.3c-0.5-0.2-0.9-0.5-1.2-0.8c-0.3-0.4-0.6-0.8-0.7-1.3
		s-0.2-1-0.2-1.6c0-0.6,0.1-1.1,0.2-1.6c0.2-0.5,0.4-1,0.7-1.3c0.3-0.4,0.7-0.7,1.2-0.9s1.1-0.3,1.7-0.3c0.5,0,0.9,0.1,1.3,0.2
		c0.4,0.1,0.8,0.3,1.1,0.5c0.3,0.2,0.6,0.5,0.8,0.9s0.3,0.8,0.4,1.3h-1.8C332.3,17.7,332.3,17.5,332.2,17.3z"/>
	<path class="st1" d="M337.2,12.3v3.6c0.1-0.1,0.3-0.2,0.5-0.3c0.2-0.1,0.4-0.2,0.6-0.3s0.4-0.1,0.6-0.2s0.4-0.1,0.6-0.1
		c0.6,0,1,0.1,1.4,0.2c0.4,0.1,0.7,0.4,0.9,0.6c0.2,0.3,0.4,0.6,0.5,0.9c0.1,0.4,0.1,0.7,0.1,1.2V23h-1.8v-5.2
		c0-0.4-0.1-0.7-0.3-0.9s-0.5-0.3-1-0.3c-0.3,0-0.6,0.1-0.9,0.2s-0.5,0.3-0.6,0.4c-0.2,0.2-0.3,0.4-0.4,0.6
		c-0.1,0.2-0.1,0.5-0.1,0.8V23h-1.8V12.3H337.2z"/>
	<path class="st1" d="M351,20.3c-0.1,0.5-0.3,0.9-0.5,1.3s-0.5,0.7-0.8,0.9c-0.3,0.2-0.7,0.4-1.1,0.5c-0.4,0.1-0.8,0.2-1.3,0.2
		c-0.7,0-1.2-0.1-1.7-0.3c-0.5-0.2-0.9-0.5-1.2-0.9c-0.3-0.4-0.6-0.8-0.7-1.3c-0.2-0.5-0.2-1.1-0.2-1.7c0-0.6,0.1-1.2,0.3-1.7
		c0.2-0.5,0.4-0.9,0.8-1.3c0.3-0.4,0.7-0.6,1.2-0.8s1-0.3,1.6-0.3c0.4,0,0.9,0.1,1.2,0.2c0.4,0.1,0.7,0.3,1,0.5
		c0.3,0.2,0.5,0.5,0.7,0.8s0.4,0.6,0.5,1c0.1,0.3,0.2,0.7,0.3,1.1s0.1,0.8,0.1,1.2h-5.7c0,0.3,0.1,0.5,0.2,0.7
		c0.1,0.2,0.2,0.4,0.4,0.6s0.4,0.3,0.6,0.4c0.3,0.1,0.5,0.2,0.9,0.2c0.2,0,0.4,0,0.6-0.1c0.2,0,0.4-0.1,0.5-0.2
		c0.2-0.1,0.3-0.2,0.4-0.4c0.1-0.2,0.2-0.4,0.3-0.6H351z M347.3,16.6c-0.3,0-0.5,0-0.7,0.1c-0.2,0.1-0.4,0.2-0.6,0.3
		c-0.2,0.1-0.3,0.3-0.4,0.5c-0.1,0.2-0.2,0.4-0.2,0.6h3.8c0-0.2-0.1-0.4-0.2-0.6c-0.1-0.2-0.3-0.4-0.4-0.5c-0.2-0.1-0.4-0.3-0.6-0.3
		C347.8,16.7,347.5,16.6,347.3,16.6z"/>
	<path class="st1" d="M353.9,15.2v1c0.2-0.2,0.3-0.4,0.5-0.5c0.2-0.1,0.4-0.3,0.6-0.4c0.2-0.1,0.4-0.2,0.7-0.2s0.6-0.1,0.9-0.1v1.8
		c-0.5,0-0.9,0.1-1.3,0.2c-0.3,0.1-0.6,0.3-0.8,0.5c-0.2,0.2-0.3,0.5-0.4,0.9c-0.1,0.3-0.1,0.7-0.1,1.2V23h-1.8v-7.8H353.9z"/>
</g>
</svg>
