<?xml version="1.0" encoding="utf-8"?>
<!-- Generator: Adobe Illustrator 23.1.1, SVG Export Plug-In . SVG Version: 6.00 Build 0)  -->
<svg version="1.1" id="Layer_1" xmlns="http://www.w3.org/2000/svg" xmlns:xlink="http://www.w3.org/1999/xlink" x="0px" y="0px"
	 viewBox="0 0 612 625" style="enable-background:new 0 0 612 625;" xml:space="preserve">
<style type="text/css">
	.st0{fill:#3C3C3B;}
	.st1{fill:#FFFFFF;}
	.st2{fill:#F49C24;}
	.st3{fill:#E32A2C;}
	.st4{fill:#ED7225;}
</style>
<g>
	<path class="st0" d="M210.1,135.6c0,0-4.7-4.2-5.6-7.9c-0.9-3.7-2.6-7.8-5.2-9.5c-2.6-1.7-9.3-6.7-13.6-8.4
		c-4.3-1.7-4.7-0.4-2.7,1.2c4.2,3.4,4.9,6.2,5.7,9.3c0.8,3,1.6,11.2,5.4,14.9c3.8,3.7,6.6,5.9,6.7,7.5c0.1,1.5-1.1,2.1-1.1,2.1
		s-4.3,2-5.6,2.1c-1.3,0.1-1.5,1.3-0.5,4.3c1.1,3,2.8,4.4,5.9,4c3.1-0.5,2.8,0.2,3.3-2.1c0.5-2.2-0.2-3.6,1.1-4.3
		c1.4-0.7,2.4-1.4,3.7-1c1.2,0.5,10.2,8.7,14.5,9.4c4.3,0.7,4,0,6.5,1.5c2.5,1.5,7.4,8,9,7.4c1.6-0.6-1.8-5.6-4.2-9.5
		c-2.4-4-5.8-9.4-7.7-10.3c-1.9-0.8-8.8-2.4-9.7-4.5c0,0,0.8-1.1,1.9-1.4c1.1-0.4,2.2-0.2,3.3-0.8c1.1-0.6,2.4-0.4,2.4-0.4
		s-0.8-0.8-1.4-0.8c-0.7-0.1-1.8-3-4.8-2.7c-3,0.2-4,0.5-4.9,0.5S210.1,135.6,210.1,135.6z"/>
	<path class="st0" d="M30,277.7c0,0-0.4-0.5-0.8-0.4c-0.5,0.1-0.8,0.3-1.1,0.3c-0.3,0-1.4-0.3-1.8-1.4c-0.4-1.2,0.1-2.9-0.8-3.3
		c-1-0.4-3.6-0.9-6.7-0.6c-3,0.3-3.3,0.2-2.3,0.9c1,0.7,2.5,0.9,3,0.9s1.7,0.1,2.1,0.5c0.4,0.4,0.7,1.3,1.4,2.5
		c0.7,1.3,1.5,2.6,1.5,3c0,0.4-0.6,0.9-1.2,1.2c-0.6,0.2-1.1,0.3-1,0.5c0.1,0.2,0.8,0.5,1.1,0.7c0.3,0.2,0.7,0.6,0.8,0.3
		c0.2-0.2,0.5-1,1.3-1.2c0.7-0.2,1.1-0.1,2.3-0.8c1.2-0.7,1.9-1.7,2-1.9c0.1-0.2,0.6,0.1,0.9,0.4c0.2,0.3,0.6,1,1.2,1.5
		c0.7,0.5,0.9,1.4,1.4,1.5c0.5,0.1,0.3-2,0.3-3.1c0-1.1-0.1-1.6-0.5-2.1c-0.4-0.5-0.8-0.6-1.1-0.4C31.5,277.1,30.3,277.7,30,277.7z"
		/>
	<path class="st0" d="M219.9,326.2c0,0-0.7-0.9-1.6-0.7c-0.9,0.2-1.5,0.5-2,0.5c-0.5,0-2.7-0.5-3.4-2.7c-0.7-2.2,0.3-5.5-1.5-6.3
		c-1.8-0.8-6.8-1.7-12.5-1.1c-5.7,0.6-6.2,0.4-4.4,1.8c1.8,1.3,4.7,1.7,5.7,1.7c1,0,3.1,0.2,3.9,0.9c0.8,0.7,1.3,2.3,2.6,4.7
		c1.3,2.3,2.9,4.9,2.8,5.7c-0.1,0.8-1.1,1.8-2.3,2.2c-1.2,0.4-2.1,0.6-1.9,1c0.2,0.4,1.5,0.9,2,1.3c0.5,0.4,1.2,1.1,1.5,0.6
		c0.3-0.4,1-1.9,2.3-2.3c1.3-0.4,2.1-0.2,4.2-1.5c2.2-1.2,3.5-3.2,3.8-3.5c0.3-0.3,1.2,0.2,1.6,0.8c0.4,0.5,1.1,1.9,2.3,2.9
		c1.2,0.9,1.6,2.6,2.6,2.8c0.9,0.3,0.6-3.8,0.5-5.7c0-2-0.2-3-0.9-3.9c-0.7-1-1.4-1.2-2-0.8C222.8,325,220.6,326.1,219.9,326.2z"/>
	<path class="st0" d="M438.7,302.2c0,0,2.1-2.7,3.5-3.1c1.5-0.4,1.8,0.4,2.3,0.2c0.5-0.2,1.4-0.3,1.1,0c-0.3,0.3-0.7,0.7-0.8,1.1
		c-0.1,0.4-0.4,2.7-1.1,3.8c-0.7,1-1.3,1.4-0.7,1.6c0.6,0.2,3.4,1.2,5.1,0.4c1.8-0.8,3.8-1.6,5.2-0.7c1.4,0.9,4,4.1,6,5.9
		c2,1.8,6.5,8.1,7.7,10.4c1.1,2.4,1.7,3.1,1.1,3.9c-0.6,0.8-4.9-0.9-6.6-2.7c-1.7-1.8-4.6-5.1-7-5.8c-2.5-0.7-11.6-1.3-13.5-1.4
		c-1.9-0.1-3.2-1-3.2-1s-1.6,1.9-2.5,2.9c-0.6,0.6-1.6,3.9-1.5,4.8c0,0.9,0,1.4-0.8,1.3c-0.8-0.1-1.9-0.3-2.8-0.7
		c-0.9-0.4-2.6-1.3-2.2-1.9c0.4-0.6,1.3-1.4,2.1-2.4c0.8-1,1.3-2.4,1.6-3.6c0.4-1.2,0.1-2.4,0.1-2.6c-0.1-0.1-4.1-2.6-5.9-5.4
		c-1.9-2.7-5.1-5.5-6-6c-0.9-0.5-8-1.5-10.2-2.2c-2.2-0.7-4.9-1.4-2.4-2.7c2.5-1.3,10.4-2.8,13.7-3c3.4-0.1,6.2-0.6,7.4,1.2
		c1.1,1.8,1.9,4.7,3.5,6C433.5,301.8,437.3,303.3,438.7,302.2z"/>
</g>
<g>
	<path class="st1" d="M539.7,550.5c0,0-0.2-3.7-6.2-7.6c-6.1-3.9-16.4-13.9-17.3-16.3c-0.9-2.5-4-6.6-4.3-7.7
		c-0.3-1.1-2,1.8-0.3,5.4c1.7,3.6,3.7,7.5,4.3,9.8c0.6,2.3,3.5,10.3,10.4,13.9c6.9,3.5,10.2,5.5,9.9,6.4c-0.3,0.9-1.9,2-3.5,1.6
		c-1.6-0.4-5.8-2.3-6.2-1.4c-0.5,0.9,1.4,9.3,6.5,11.3c5.1,2,10.8,0.6,11.6-0.1c0.8-0.6-3.6-1.7-2.8-3.3c0.8-1.6,3-0.6,4.4-1.6
		c1.4-1,5-0.1,5.9,0c0.9,0.1-0.4-0.9-0.4-0.9s7.5,1.2,10.7,1.8c3.1,0.6,10.8,0,12.9,0.8c2.1,0.8,20.7,0.9,21.6-0.5
		c0.6-0.9-2.8-0.4-5.7-0.4c-3,0-12.4-1-15.9-2.7c-3.5-1.7-8.6-3.7-10.9-4.2c-2.3-0.5-9.3,0.5-12,0.5c-2.7,0-4.2-0.1-4.2-0.1
		s-1.5-2.2-3-3.1C543.9,551.1,539.7,550.5,539.7,550.5z"/>
	<path class="st1" d="M453,76.7c0,0-0.3-7-11.8-14.4c-11.5-7.4-31.1-26.4-32.8-31.1c-1.7-4.7-7.5-12.6-8.2-14.7
		c-0.7-2.1-3.8,3.4-0.5,10.3c3.2,6.9,7.1,14.3,8.2,18.7c1.1,4.4,6.7,19.7,19.9,26.4c13.2,6.7,19.5,10.4,18.8,12.1
		c-0.7,1.7-3.6,3.9-6.7,3.1c-3.1-0.8-11-4.4-11.8-2.7c-0.9,1.7,2.7,17.6,12.4,21.5c9.7,3.8,20.6,1.1,22.1-0.1
		c1.5-1.2-6.8-3.3-5.3-6.3c1.5-3,5.8-1.1,8.5-3.1c2.7-1.9,9.5-0.2,11.3,0c1.8,0.2-0.7-1.7-0.7-1.7s14.4,2.3,20.3,3.5
		c5.9,1.1,20.5-0.1,24.6,1.5c4.1,1.6,39.3,1.6,41.1-1c1.1-1.7-5.3-0.8-10.9-0.8c-5.6,0-23.6-1.9-30.2-5.1c-6.6-3.2-16.3-7.1-20.7-8
		c-4.4-1-17.7,0.9-22.8,1c-5.2,0.1-8.1-0.3-8.1-0.3s-2.9-4.2-5.6-5.8C460.9,77.9,453,76.7,453,76.7z"/>
	<path class="st2" d="M449.8,601.2c-1.1,0.2-4.6,0.3-6-0.2c-1.4-0.5-3.4-0.9-4.2-1c-0.9-0.1-3.4,0.6-4.4,0.8c-1,0.2-1.6,0.2-1.6,0.2
		s-0.7-0.7-1.2-1c-0.6-0.3-2.2-0.3-2.2-0.3s-0.2-1.4-2.7-2.5c-2.4-1.1-6.8-4.3-7.2-5.2c-0.5-0.9-1.8-2.2-2-2.6
		c-0.2-0.4-0.6,0.8,0.2,2c0.8,1.3,1.8,2.6,2.1,3.4c0.3,0.8,1.8,3.7,4.6,4.6c2.7,1,4.1,1.5,4,1.9c-0.1,0.4-0.6,0.8-1.2,0.8
		c-0.6-0.1-2.2-0.6-2.4-0.2c-0.1,0.4,1,3.4,3,3.8c2,0.5,4-0.3,4.3-0.6c0.3-0.3-1.4-0.5-1.2-1.1c0.2-0.6,1.1-0.4,1.6-0.8
		c0.5-0.4,1.8-0.3,2.2-0.3c0.4,0-0.2-0.3-0.2-0.3s2.9,0.1,4,0.1c1.2,0.1,4-0.6,4.8-0.4c0.8,0.2,7.7-0.7,8-1.3
		C452.1,600.7,450.9,601,449.8,601.2z"/>
	<path class="st3" d="M145.2,481.6c-0.8-0.4-1-0.4-1.6-0.7c-0.6-0.3-1.8-0.7-2.2-0.5c0,0,0.2-1.1,0.7-1.6c0.5-0.5,0.9-1.3,1.2-1.5
		c0.3-0.2,0.8-0.3,0.9-0.5c0-0.1-1.2,0-1.2,0s-0.5-0.7-2.1-0.3c-1.5,0.4-2.2,1.5-2.7,1.8c0,0-1-0.8-1.4-2.6
		c-0.4-1.8-0.6-3.3-1.5-4.2c-0.8-0.9-3.2-3.1-4.4-5.1c-1.2-2-2.3-3.7-2.7-3.6c-0.4,0-0.7,5,0.6,7.8s1.9,3.2,2.3,4
		c0.4,0.8,0.2,1.6,0.9,3.4c0.7,1.8,2,3.5,2.1,3.8c0.2,0.3-0.1,0.9-0.5,1.4c-0.3,0.5-1.3,1.2-1.8,1.5c-0.5,0.3-1,0.5-0.8,0.8
		c0.2,0.3,0.5,1.1,1.1,1.3c0.6,0.2,1.3,0.1,1.7,0c0.4-0.1,0.3-1.5,0.8-1.7c0.4-0.2,2.3-1.4,2.7-1.4c0.4-0.1,1.6,0.4,2.9-0.4
		c1.3-0.8,1.8-0.8,2.8-0.8c0.9,0,3.1,0.3,3.3,0.2C146.4,482.7,145.7,481.9,145.2,481.6z"/>
	<path class="st4" d="M375.3,474.5c-1.5-0.7-1.9-0.7-2.9-1.2c-1.1-0.6-3.4-1.2-4.1-0.9c0,0,0.3-2,1.2-3c0.9-1,1.5-2.4,2.1-2.8
		c0.5-0.3,1.5-0.6,1.6-0.9c0.1-0.2-2.2,0.1-2.2,0.1s-1-1.2-3.8-0.4c-2.8,0.8-4.1,2.8-4.8,3.4c0,0-1.9-1.5-2.6-4.7
		c-0.7-3.2-1.3-6.1-2.9-7.7c-1.6-1.6-6-5.5-8.4-9.1c-2.3-3.6-4.5-6.7-5.2-6.6c-0.7,0.1-1.1,9.2,1.4,14.4c2.5,5.1,3.7,5.7,4.5,7.2
		c0.8,1.5,0.4,3,1.7,6.2c1.3,3.2,3.8,6.3,4.1,6.9c0.3,0.6-0.2,1.7-0.8,2.6c-0.6,0.9-2.4,2.3-3.3,2.9c-0.9,0.6-1.7,0.9-1.4,1.4
		c0.3,0.5,1,1.9,2.1,2.4c1.1,0.4,2.4,0.2,3.1,0c0.7-0.2,0.6-2.7,1.3-3.1c0.8-0.4,4.2-2.6,4.9-2.8c0.7-0.1,2.9,0.6,5.4-0.9
		c2.4-1.5,3.3-1.6,5.1-1.7c1.7-0.1,5.7,0.5,6.1,0.3C377.7,476.3,376.3,475,375.3,474.5z"/>
	<path class="st1" d="M247.2,518.8c0,0-0.4-0.5-0.9-0.4c-0.5,0.1-0.8,0.3-1.1,0.3c-0.3,0-1.5-0.3-1.9-1.4c-0.4-1.2,0.1-3-0.8-3.4
		c-1-0.4-3.7-0.9-6.8-0.6c-3.1,0.3-3.4,0.2-2.4,1c1,0.7,2.6,0.9,3.1,0.9c0.5,0,1.7,0.1,2.1,0.5c0.5,0.4,0.7,1.3,1.4,2.5
		c0.7,1.3,1.6,2.7,1.5,3.1c0,0.4-0.6,1-1.2,1.2c-0.6,0.2-1.2,0.3-1,0.6c0.1,0.2,0.8,0.5,1.1,0.7c0.3,0.2,0.7,0.6,0.8,0.3
		c0.2-0.2,0.6-1,1.3-1.2c0.7-0.2,1.1-0.1,2.3-0.8c1.2-0.7,1.9-1.8,2.1-1.9c0.1-0.2,0.6,0.1,0.9,0.4c0.2,0.3,0.6,1.1,1.2,1.6
		c0.7,0.5,0.9,1.4,1.4,1.5c0.5,0.1,0.3-2,0.3-3.1c0-1.1-0.1-1.6-0.5-2.1c-0.4-0.5-0.8-0.6-1.1-0.4
		C248.8,518.2,247.6,518.8,247.2,518.8z"/>
	<path class="st1" d="M470,423c0,0,4.7-2.4,6.8-2.5c2.1,0,3.5,0.2,3.2,1.1c-0.3,0.8-0.9,3.2-0.3,4.1c0.6,0.9,0.5,1.4,1.6,0.5
		c1.1-0.9,1.5-2.4,2.2-1.6c0.7,0.8,0.2,1.7,1.1,1.5c0.9-0.2,0.8-0.2,1.2-0.1c0.4,0.1,0.7-0.1,1.1-0.2c0.4,0-0.5,0.4-0.6,0.6
		c-0.2,0.2-0.6,1.6-1,2.1c-0.5,0.6-0.8,1.2-0.8,1.2s0.6,1.9,1.5,4.6c0.9,2.7,1.3,4.1-0.2,2.6c-1.5-1.5-0.8-1.5-2.1-2.4
		c-1.3-0.9-2.3-1.9-2.6-2.5c0,0-2.6,1.1-3.7,0.8c-1.1-0.3-1.5,1-2.5,1.6c-1,0.6-2.2,0.8-3.4-0.8c-1.3-1.6-0.3-2.8,0.2-3
		c0.5-0.2,2.2,0,3.1-0.3c0.9-0.3,1.8-1.2,0.8-1.2c-1,0-2.2-2.6-1.7-3.4c0.5-0.8,1.6-2.3,0.4-2.5C473,423,470.6,423.7,470,423z"/>
</g>
</svg>
