<?xml version="1.0" encoding="utf-8"?>
<!-- Generator: Adobe Illustrator 23.1.1, SVG Export Plug-In . SVG Version: 6.00 Build 0)  -->
<svg version="1.1" id="Layer_1" xmlns="http://www.w3.org/2000/svg" xmlns:xlink="http://www.w3.org/1999/xlink" x="0px" y="0px"
	 viewBox="0 0 882 790" style="enable-background:new 0 0 882 790;" xml:space="preserve">
<style type="text/css">
	.st0{fill:#333333;}
	.st1{enable-background:new    ;}
	.st2{fill:#FFFFFF;}
	.st3{fill:#F49C24;}
	.st4{fill:#E32A2C;}
	.st5{fill:#ED7225;}
</style>
<g>
	<path class="st0" d="M201.1,515.5c0.2,0.1,0.3,0.2,0.4,0.3s0.2,0.3,0.3,0.5s0.2,0.4,0.2,0.6c0,0.2,0.1,0.4,0.1,0.7v7H201v-5.2
		c-0.1,0.1-0.2,0.2-0.4,0.3s-0.4,0.2-0.6,0.2c-0.2,0.1-0.4,0.1-0.7,0.2c-0.2,0-0.4,0.1-0.6,0.1c-0.2,0-0.4,0.1-0.7,0.1
		c-0.2,0-0.5,0.1-0.7,0.1c-0.2,0.1-0.4,0.1-0.7,0.2c-0.2,0.1-0.4,0.2-0.5,0.3s-0.3,0.3-0.4,0.5c-0.1,0.2-0.1,0.4-0.1,0.7
		c0,0.4,0.1,0.6,0.2,0.9s0.3,0.4,0.5,0.6c0.2,0.1,0.5,0.2,0.7,0.3s0.5,0.1,0.8,0.1c0.1,0,0.2,0,0.4,0s0.3,0,0.4,0v0.8
		c-0.2,0-0.4,0.1-0.6,0.1c-0.2,0-0.4,0-0.6,0c-0.4,0-0.8,0-1.2-0.1s-0.7-0.2-1-0.4s-0.5-0.5-0.7-0.8s-0.2-0.7-0.2-1.2
		c0-0.3,0-0.6,0.1-0.9c0.1-0.3,0.2-0.5,0.4-0.7s0.3-0.4,0.5-0.5s0.4-0.3,0.7-0.3c0.2-0.1,0.5-0.2,0.7-0.2s0.5-0.1,0.8-0.1
		c0.6-0.1,1.1-0.2,1.5-0.2c0.4-0.1,0.8-0.2,1.1-0.3s0.5-0.3,0.6-0.5s0.2-0.4,0.2-0.8c0-0.3,0-0.5-0.1-0.7s-0.2-0.4-0.3-0.5
		s-0.2-0.3-0.4-0.3c-0.2-0.1-0.3-0.2-0.5-0.2s-0.4-0.1-0.6-0.1c-0.2,0-0.4,0-0.6,0c-0.4,0-0.7,0-1,0.1s-0.6,0.2-0.8,0.3
		s-0.4,0.3-0.6,0.6s-0.2,0.6-0.3,1h-1.2c0-0.5,0.2-1,0.4-1.3s0.5-0.7,0.9-0.9s0.8-0.4,1.2-0.5c0.5-0.1,0.9-0.1,1.5-0.1
		c0.2,0,0.5,0,0.7,0s0.5,0.1,0.7,0.1s0.4,0,0.5-0.1c0.2-0.1,0.3-0.1,0.4-0.2c0.1-0.1,0.2-0.2,0.3-0.3s0.1-0.3,0.2-0.4h1.3
		c0,0.1-0.1,0.3-0.1,0.4c-0.1,0.1-0.2,0.3-0.3,0.4c-0.1,0.1-0.3,0.3-0.5,0.4C201.7,515.3,201.4,515.4,201.1,515.5z"/>
	<path class="st0" d="M201.1,510.7h1.1v2.6h-1.1V510.7z"/>
	<path class="st0" d="M206.1,523.1c0.1,0.2,0.2,0.4,0.4,0.5s0.4,0.2,0.6,0.2c0.2,0,0.3,0,0.4-0.1c0.1-0.1,0.2-0.1,0.3-0.2
		c0.1-0.1,0.1-0.2,0.2-0.3c0-0.1,0.1-0.2,0.1-0.4v-7h-1.4V515h2.5v7.5c0,0.4-0.1,0.7-0.2,1c-0.1,0.3-0.3,0.5-0.4,0.7
		c-0.2,0.2-0.4,0.3-0.7,0.4c-0.3,0.1-0.5,0.1-0.9,0.1c-0.3,0-0.6,0-0.8-0.1s-0.4-0.2-0.6-0.3c-0.2-0.1-0.3-0.3-0.4-0.5
		c-0.1-0.2-0.2-0.4-0.3-0.7l-1.4-4h1.2L206.1,523.1z"/>
	<path class="st0" d="M211.5,524.5V515h1.1v9.5H211.5z"/>
	<path class="st0" d="M221.4,515.5c0.2,0.1,0.3,0.2,0.4,0.3s0.2,0.3,0.3,0.5s0.2,0.4,0.2,0.6c0,0.2,0.1,0.4,0.1,0.7v7h-1.2v-5.2
		c-0.1,0.1-0.2,0.2-0.4,0.3s-0.4,0.2-0.6,0.2c-0.2,0.1-0.4,0.1-0.7,0.2c-0.2,0-0.4,0.1-0.6,0.1c-0.2,0-0.4,0.1-0.7,0.1
		c-0.2,0-0.5,0.1-0.7,0.1c-0.2,0.1-0.4,0.1-0.7,0.2c-0.2,0.1-0.4,0.2-0.5,0.3s-0.3,0.3-0.4,0.5c-0.1,0.2-0.1,0.4-0.1,0.7
		c0,0.4,0.1,0.6,0.2,0.9s0.3,0.4,0.5,0.6c0.2,0.1,0.5,0.2,0.7,0.3s0.5,0.1,0.8,0.1c0.1,0,0.2,0,0.4,0s0.3,0,0.4,0v0.8
		c-0.2,0-0.4,0.1-0.6,0.1c-0.2,0-0.4,0-0.6,0c-0.4,0-0.8,0-1.2-0.1s-0.7-0.2-1-0.4s-0.5-0.5-0.7-0.8s-0.2-0.7-0.2-1.2
		c0-0.3,0-0.6,0.1-0.9c0.1-0.3,0.2-0.5,0.4-0.7s0.3-0.4,0.5-0.5s0.4-0.3,0.7-0.3c0.2-0.1,0.5-0.2,0.7-0.2s0.5-0.1,0.8-0.1
		c0.6-0.1,1.1-0.2,1.5-0.2c0.4-0.1,0.8-0.2,1.1-0.3s0.5-0.3,0.6-0.5s0.2-0.4,0.2-0.8c0-0.3,0-0.5-0.1-0.7s-0.2-0.4-0.3-0.5
		s-0.2-0.3-0.4-0.3c-0.2-0.1-0.3-0.2-0.5-0.2s-0.4-0.1-0.6-0.1c-0.2,0-0.4,0-0.6,0c-0.4,0-0.7,0-1,0.1s-0.6,0.2-0.8,0.3
		s-0.4,0.3-0.6,0.6s-0.2,0.6-0.3,1H215c0-0.5,0.2-1,0.4-1.3s0.5-0.7,0.9-0.9s0.8-0.4,1.2-0.5c0.5-0.1,0.9-0.1,1.5-0.1
		c0.2,0,0.5,0,0.7,0s0.5,0.1,0.7,0.1s0.4,0,0.5-0.1c0.2-0.1,0.3-0.1,0.4-0.2c0.1-0.1,0.2-0.2,0.3-0.3s0.1-0.3,0.2-0.4h1.3
		c0,0.1-0.1,0.3-0.1,0.4c-0.1,0.1-0.2,0.3-0.3,0.4c-0.1,0.1-0.3,0.3-0.5,0.4C221.9,515.3,221.7,515.4,221.4,515.5z"/>
	<path class="st0" d="M225.1,521.9c0.1,0.6,0.3,1.1,0.7,1.4c0.4,0.3,1,0.5,1.7,0.5c0.2,0,0.5,0,0.7-0.1c0.3-0.1,0.5-0.1,0.7-0.3
		s0.4-0.3,0.5-0.6s0.2-0.5,0.2-0.9c0-0.2,0-0.4-0.1-0.6c-0.1-0.2-0.2-0.3-0.4-0.5c-0.2-0.1-0.4-0.3-0.7-0.4s-0.6-0.3-1-0.5
		c-0.3-0.1-0.6-0.2-0.8-0.3c-0.3-0.1-0.5-0.2-0.7-0.3s-0.4-0.2-0.6-0.4c-0.2-0.1-0.4-0.3-0.5-0.4c-0.1-0.2-0.2-0.4-0.3-0.6
		s-0.1-0.4-0.1-0.7s0-0.5,0.1-0.8c0.1-0.2,0.2-0.4,0.3-0.6c0.1-0.2,0.3-0.3,0.5-0.5c0.2-0.1,0.4-0.2,0.6-0.3
		c0.2-0.1,0.5-0.1,0.7-0.2c0.2,0,0.5-0.1,0.7-0.1c0.5,0,0.9,0,1.3,0.1c0.4,0.1,0.7,0.2,1,0.5c0.3,0.2,0.5,0.5,0.7,0.8
		s0.3,0.7,0.4,1.2h-1.2c-0.1-0.6-0.3-1-0.7-1.3s-0.8-0.4-1.4-0.4c-0.2,0-0.5,0-0.7,0.1s-0.4,0.1-0.6,0.3c-0.2,0.1-0.3,0.3-0.5,0.5
		c-0.1,0.2-0.2,0.4-0.2,0.7s0.1,0.5,0.2,0.6s0.3,0.3,0.5,0.5c0.2,0.1,0.5,0.3,0.8,0.4c0.3,0.1,0.6,0.3,1,0.4
		c0.6,0.2,1.1,0.4,1.5,0.6c0.4,0.2,0.7,0.4,0.9,0.6c0.2,0.2,0.4,0.5,0.5,0.7s0.1,0.5,0.1,0.8c0,0.5-0.1,0.9-0.3,1.2
		s-0.4,0.6-0.7,0.8s-0.7,0.4-1.1,0.5c-0.4,0.1-0.9,0.1-1.3,0.1c-0.5,0-0.9-0.1-1.3-0.2c-0.4-0.1-0.8-0.3-1.1-0.5s-0.6-0.5-0.8-0.9
		s-0.3-0.8-0.3-1.3h1.1L225.1,521.9L225.1,521.9z"/>
	<path class="st0" d="M224.1,513.3l0.4-0.8h5.9v0.8H224.1z"/>
	<path class="st0" d="M232.5,524.5V515h1.2v5.4c0,0.5,0.1,0.9,0.2,1.3s0.3,0.8,0.6,1c0.3,0.3,0.6,0.5,1,0.7s0.9,0.3,1.4,0.3
		c0.8,0,1.3-0.2,1.7-0.6c0.4-0.4,0.6-1,0.6-1.8v-6.2h1.2v6.2c0,0.5-0.1,1-0.2,1.4c-0.1,0.4-0.3,0.8-0.6,1.1s-0.6,0.5-1,0.7
		s-0.9,0.2-1.5,0.2c-0.3,0-0.7,0-1-0.1c-0.3,0-0.6-0.1-0.9-0.3c-0.3-0.1-0.6-0.3-0.8-0.5c-0.3-0.2-0.5-0.5-0.7-0.9v1.5L232.5,524.5
		L232.5,524.5z"/>
	<path class="st0" d="M165.7,543.7h1v0.8h-2.2v-8.8c0-0.2,0-0.5,0.1-0.7c0-0.2,0.1-0.4,0.2-0.6c0.1-0.2,0.2-0.3,0.3-0.5
		s0.2-0.3,0.4-0.5c0.1-0.1,0.2-0.2,0.3-0.3s0.2-0.2,0.2-0.3c0.1-0.1,0.1-0.2,0.2-0.3c0-0.1,0.1-0.2,0.1-0.3s0-0.2,0-0.3
		s-0.1-0.2-0.2-0.3c-0.1-0.1-0.2-0.2-0.4-0.2s-0.4-0.1-0.6-0.1c-0.2,0-0.4,0-0.6,0.1c-0.2,0.1-0.3,0.2-0.4,0.3
		c-0.1,0.1-0.2,0.3-0.3,0.5s-0.1,0.4-0.1,0.6h-1.1c0-0.4,0.1-0.7,0.2-1c0.1-0.3,0.3-0.5,0.5-0.7s0.5-0.3,0.8-0.4
		c0.3-0.1,0.6-0.1,0.9-0.1c0.3,0,0.6,0,0.9,0.1c0.3,0.1,0.5,0.2,0.7,0.3s0.3,0.3,0.5,0.5c0.1,0.2,0.2,0.5,0.2,0.8c0,0.1,0,0.2,0,0.3
		s-0.1,0.2-0.1,0.3c-0.1,0.1-0.1,0.2-0.2,0.3s-0.2,0.2-0.3,0.4c-0.2,0.2-0.3,0.4-0.4,0.6c-0.1,0.2-0.2,0.3-0.2,0.5s-0.1,0.3-0.1,0.5
		s0,0.4,0,0.6v7.9L165.7,543.7L165.7,543.7z"/>
	<path class="st0" d="M169.5,535.1v4.2l4.9-4.2h1.6l-2.2,1.8c0.4,0.1,0.8,0.3,1.1,0.5s0.5,0.5,0.6,0.8s0.2,0.6,0.3,1
		c0,0.4,0.1,0.7,0.1,1.1v4.3h-1.2v-4.5c0-0.3,0-0.6-0.1-0.9s-0.1-0.5-0.3-0.8c-0.1-0.2-0.3-0.4-0.5-0.6s-0.5-0.3-0.8-0.3l-3.5,3.1
		v3.9h-1.2V535L169.5,535.1L169.5,535.1L169.5,535.1z"/>
	<path class="st0" d="M172.6,533.3v-1.5h-0.8V531h1.7v1.4c0.4,0,0.8,0,1.1-0.1s0.5-0.2,0.7-0.3s0.3-0.3,0.4-0.5
		c0.1-0.2,0.2-0.3,0.2-0.5h1.1c0,0.1-0.1,0.3-0.1,0.4c-0.1,0.2-0.2,0.3-0.3,0.5s-0.3,0.3-0.5,0.5s-0.4,0.3-0.6,0.4s-0.5,0.2-0.8,0.3
		s-0.7,0.1-1,0.1L172.6,533.3L172.6,533.3z"/>
	<path class="st0" d="M178.2,544.5V535h1.1v9.5H178.2z"/>
	<path class="st0" d="M185.3,535.8c-0.3,0-0.6,0-0.9,0.1c-0.3,0.1-0.5,0.1-0.7,0.3c-0.2,0.1-0.4,0.2-0.6,0.4
		c-0.2,0.1-0.3,0.3-0.4,0.4c-0.1,0.1-0.2,0.3-0.3,0.4c-0.1,0.1-0.1,0.3-0.1,0.4c0.3,0.2,0.4,0.4,0.6,0.7c0.1,0.3,0.2,0.7,0.2,1.1v5
		h-1.2v-5.1c0-0.2,0-0.3,0-0.5s0-0.3-0.1-0.5s-0.1-0.3-0.2-0.4s-0.2-0.2-0.4-0.3c0.1-0.4,0.2-0.7,0.4-1.1c0.2-0.3,0.5-0.7,0.8-0.9
		c0.3-0.3,0.8-0.5,1.2-0.7c0.5-0.2,1.1-0.3,1.7-0.3c0.5,0,1,0.1,1.4,0.2s0.8,0.2,1.1,0.4s0.6,0.4,0.8,0.6c0.2,0.2,0.4,0.5,0.5,0.8
		s0.2,0.6,0.3,0.9s0.1,0.7,0.1,1v5.7h-1.2v-5.9c0-0.2,0-0.5-0.1-0.7c0-0.2-0.1-0.4-0.2-0.7s-0.2-0.4-0.3-0.6s-0.3-0.3-0.5-0.5
		c-0.2-0.1-0.5-0.2-0.8-0.3C186,535.8,185.7,535.8,185.3,535.8z"/>
	<path class="st0" d="M181.7,533.3l0.4-0.8h7.3v0.8H181.7z"/>
	<path class="st0" d="M192.6,543.1l2.7-3.2h-1.1v-0.8h2.3v0.8l-3.8,4.6h-1.3v-5.6c0-0.4,0-0.7,0.1-1s0.1-0.7,0.3-1
		c0.1-0.3,0.3-0.6,0.5-0.8c0.2-0.3,0.4-0.5,0.7-0.6s0.6-0.3,1-0.4s0.9-0.1,1.4-0.1s1,0,1.4,0.1s0.7,0.2,1,0.4s0.5,0.4,0.7,0.6
		c0.2,0.2,0.4,0.5,0.5,0.8s0.2,0.6,0.3,1s0.1,0.7,0.1,1v5.6h-1.2v-5.8c0-0.2,0-0.5-0.1-0.7c0-0.2-0.1-0.5-0.2-0.7
		c-0.1-0.2-0.2-0.4-0.3-0.6s-0.3-0.3-0.5-0.5c-0.2-0.1-0.5-0.2-0.7-0.3s-0.6-0.1-1-0.1s-0.7,0-1,0.1s-0.5,0.2-0.7,0.3
		s-0.4,0.3-0.5,0.5s-0.3,0.4-0.3,0.6c-0.1,0.2-0.1,0.5-0.2,0.7c0,0.2-0.1,0.5-0.1,0.7L192.6,543.1L192.6,543.1z"/>
	<path class="st0" d="M202.7,539.9h-1.2v-0.8h2.1l1.5,4.5c0.1-0.3,0.3-0.6,0.4-1c0.1-0.3,0.3-0.7,0.4-1c0.1-0.3,0.2-0.7,0.4-1
		c0.1-0.3,0.2-0.6,0.3-0.9c0.1-0.3,0.2-0.6,0.2-0.9c0.1-0.3,0.1-0.5,0.1-0.7c0-0.3,0-0.6-0.1-0.9s-0.2-0.5-0.4-0.7s-0.4-0.4-0.7-0.5
		s-0.7-0.2-1.1-0.2c-0.7,0-1.3,0.1-1.7,0.4c-0.4,0.3-0.6,0.7-0.7,1.3H201c0-0.4,0.2-0.8,0.3-1.1c0.2-0.3,0.4-0.6,0.7-0.8
		s0.7-0.4,1.1-0.5s1-0.2,1.6-0.2s1.2,0.1,1.6,0.3s0.8,0.4,1,0.7c0.3,0.3,0.4,0.6,0.6,1c0.1,0.4,0.2,0.8,0.1,1.2c0,0.2,0,0.5-0.1,0.8
		s-0.1,0.6-0.3,1c-0.1,0.4-0.2,0.7-0.4,1.1c-0.1,0.4-0.3,0.8-0.4,1.2c-0.2,0.4-0.3,0.8-0.5,1.2s-0.3,0.8-0.5,1.2h-1.5L202.7,539.9z"
		/>
	<path class="st0" d="M200.1,533.3l0.4-0.8h7.3v0.8H200.1z"/>
	<path class="st0" d="M216.5,544.5V543c-0.2,0.4-0.5,0.7-0.7,0.9s-0.5,0.4-0.8,0.5s-0.6,0.2-0.9,0.3c-0.3,0-0.6,0.1-1,0.1
		c-0.6,0-1.1-0.1-1.5-0.2c-0.4-0.2-0.7-0.4-1-0.7s-0.4-0.7-0.6-1.1c-0.1-0.4-0.2-0.9-0.2-1.4v-6.2h1.2v6.2c0,0.8,0.2,1.4,0.5,1.8
		c0.4,0.4,0.9,0.6,1.7,0.6c0.5,0,1-0.1,1.4-0.3s0.7-0.4,1-0.7s0.5-0.6,0.6-1s0.2-0.8,0.2-1.3v-5.4h1.2v9.5L216.5,544.5L216.5,544.5z
		"/>
	<path class="st0" d="M221,544.5h-1.3v-5.8c0-0.3,0-0.6,0.1-0.8s0.1-0.5,0.2-0.8s0.2-0.5,0.3-0.7s0.3-0.4,0.5-0.6
		c0.2-0.2,0.4-0.3,0.7-0.5c0.3-0.1,0.6-0.2,0.9-0.3l1.4,1.3l1.3-1.3c0.5,0.1,1,0.3,1.3,0.5c0.4,0.2,0.6,0.5,0.8,0.9s0.3,0.7,0.4,1.1
		c0.1,0.4,0.1,0.8,0.1,1.3v5.8h-1.2v-6c0-0.3,0-0.6-0.1-0.8c0-0.3-0.1-0.5-0.2-0.7c-0.1-0.2-0.2-0.4-0.4-0.6
		c-0.2-0.2-0.4-0.3-0.6-0.4l-1.5,1.5c0,0,0,0-0.1,0l-1.6-1.5c-0.2,0.1-0.4,0.3-0.6,0.4c-0.2,0.2-0.3,0.4-0.4,0.6s-0.2,0.4-0.2,0.7
		s-0.1,0.5-0.1,0.8v4.6l2.7-3.2h-1.1v-0.8h2.3v0.8L221,544.5z"/>
	<path class="st0" d="M236.5,544.5V543c-0.2,0.4-0.5,0.7-0.7,0.9s-0.5,0.4-0.8,0.5s-0.6,0.2-0.9,0.3c-0.3,0-0.6,0.1-1,0.1
		c-0.6,0-1.1-0.1-1.5-0.2c-0.4-0.2-0.7-0.4-1-0.7s-0.4-0.7-0.6-1.1c-0.1-0.4-0.2-0.9-0.2-1.4v-6.2h1.2v6.2c0,0.8,0.2,1.4,0.5,1.8
		c0.4,0.4,0.9,0.6,1.7,0.6c0.5,0,1-0.1,1.4-0.3s0.7-0.4,1-0.7s0.5-0.6,0.6-1s0.2-0.8,0.2-1.3v-5.4h1.2v9.5L236.5,544.5L236.5,544.5z
		"/>
	<path class="st0" d="M239,537.5c0-0.4,0.1-0.8,0.3-1.1s0.4-0.6,0.7-0.8s0.7-0.4,1-0.5c0.4-0.1,0.8-0.2,1.2-0.2
		c0.5,0,0.9,0.1,1.3,0.2s0.7,0.3,1,0.6s0.5,0.6,0.7,1s0.2,0.8,0.2,1.4v6.6h-1.2v-6.2c0-0.4,0-0.8-0.1-1.1s-0.2-0.6-0.4-0.8
		s-0.4-0.4-0.6-0.5c-0.3-0.1-0.5-0.1-0.9-0.1c-0.3,0-0.5,0-0.8,0.1c-0.2,0.1-0.4,0.2-0.6,0.3c-0.2,0.1-0.3,0.3-0.4,0.5
		c-0.1,0.2-0.2,0.5-0.2,0.7H239V537.5z"/>
	<path class="st0" d="M251.2,535.8c-0.3,0-0.6,0-0.9,0.1c-0.3,0.1-0.5,0.1-0.7,0.3c-0.2,0.1-0.4,0.2-0.6,0.4
		c-0.2,0.1-0.3,0.3-0.4,0.4c-0.1,0.1-0.2,0.3-0.3,0.4c-0.1,0.1-0.1,0.3-0.1,0.4c0.3,0.2,0.4,0.4,0.6,0.7c0.1,0.3,0.2,0.7,0.2,1.1v5
		h-1.2v-5.1c0-0.2,0-0.3,0-0.5s0-0.3-0.1-0.5s-0.1-0.3-0.2-0.4s-0.2-0.2-0.4-0.3c0.1-0.4,0.2-0.7,0.4-1.1c0.2-0.3,0.5-0.7,0.8-0.9
		c0.3-0.3,0.8-0.5,1.2-0.7c0.5-0.2,1.1-0.3,1.7-0.3c0.5,0,1,0.1,1.4,0.2s0.8,0.2,1.1,0.4s0.6,0.4,0.8,0.6c0.2,0.2,0.4,0.5,0.5,0.8
		s0.2,0.6,0.3,0.9s0.1,0.7,0.1,1v5.7h-1.2v-5.9c0-0.2,0-0.5-0.1-0.7c0-0.2-0.1-0.4-0.2-0.7s-0.2-0.4-0.3-0.6s-0.3-0.3-0.5-0.5
		c-0.2-0.1-0.5-0.2-0.8-0.3C251.9,535.8,251.5,535.8,251.2,535.8z"/>
	<path class="st0" d="M256.6,537.5c0-0.4,0.1-0.8,0.3-1.1c0.2-0.3,0.4-0.6,0.7-0.8c0.3-0.2,0.7-0.4,1-0.5c0.4-0.1,0.8-0.2,1.2-0.2
		c0.5,0,0.9,0.1,1.3,0.2s0.7,0.3,1,0.6s0.5,0.6,0.7,1s0.2,0.8,0.2,1.4v6.6h-1v-6.2c0-0.4,0-0.8-0.1-1.1s-0.2-0.6-0.4-0.8
		c-0.2-0.2-0.4-0.4-0.6-0.5c-0.3-0.1-0.5-0.1-0.9-0.1c-0.3,0-0.5,0-0.8,0.1c-0.2,0.1-0.4,0.2-0.6,0.3s-0.3,0.3-0.4,0.5
		s-0.2,0.5-0.2,0.7h-1.4L256.6,537.5L256.6,537.5z"/>
	<path class="st0" d="M265.8,541.9c0.1,0.6,0.3,1.1,0.7,1.4c0.4,0.3,1,0.5,1.7,0.5c0.2,0,0.5,0,0.7-0.1c0.3-0.1,0.5-0.1,0.7-0.3
		s0.4-0.3,0.5-0.6s0.2-0.5,0.2-0.9c0-0.2,0-0.4-0.1-0.6c-0.1-0.2-0.2-0.3-0.4-0.5c-0.2-0.1-0.4-0.3-0.7-0.4s-0.6-0.3-1-0.5
		c-0.3-0.1-0.6-0.2-0.8-0.3c-0.3-0.1-0.5-0.2-0.7-0.3s-0.4-0.2-0.6-0.4c-0.2-0.1-0.4-0.3-0.5-0.4c-0.1-0.2-0.2-0.4-0.3-0.6
		s-0.1-0.4-0.1-0.7s0-0.5,0.1-0.8c0.1-0.2,0.2-0.4,0.3-0.6c0.1-0.2,0.3-0.3,0.5-0.5c0.2-0.1,0.4-0.2,0.6-0.3s0.5-0.1,0.7-0.2
		c0.2,0,0.5-0.1,0.7-0.1c0.5,0,0.9,0,1.3,0.1s0.7,0.2,1,0.5c0.3,0.2,0.5,0.5,0.7,0.8s0.3,0.7,0.4,1.2h-1.2c-0.1-0.6-0.3-1-0.7-1.3
		c-0.4-0.3-0.8-0.4-1.4-0.4c-0.2,0-0.5,0-0.7,0.1s-0.4,0.1-0.6,0.3c-0.2,0.1-0.3,0.3-0.5,0.5c-0.1,0.2-0.2,0.4-0.2,0.7
		s0.1,0.5,0.2,0.6s0.3,0.3,0.5,0.5c0.2,0.1,0.5,0.3,0.8,0.4c0.3,0.1,0.6,0.3,1,0.4c0.6,0.2,1.1,0.4,1.5,0.6c0.4,0.2,0.7,0.4,0.9,0.6
		c0.2,0.2,0.4,0.5,0.5,0.7s0.1,0.5,0.1,0.8c0,0.5-0.1,0.9-0.3,1.2c-0.2,0.3-0.4,0.6-0.7,0.8s-0.7,0.4-1.1,0.5s-0.9,0.1-1.3,0.1
		c-0.5,0-0.9-0.1-1.3-0.2c-0.4-0.1-0.8-0.3-1.1-0.5s-0.6-0.5-0.8-0.9s-0.3-0.8-0.3-1.3h1.1L265.8,541.9L265.8,541.9z"/>
</g>
<g class="st1">
	<path d="M171.3,18.8c0.2,0.2,0.4,0.3,0.6,0.5c0.2,0.2,0.4,0.4,0.5,0.7s0.2,0.6,0.3,0.9s0.1,0.7,0.1,1.1v10.9H171v-8.1
		c-0.2,0.2-0.4,0.3-0.7,0.5s-0.6,0.2-0.9,0.3s-0.7,0.2-1.1,0.2s-0.7,0.1-1,0.2c-0.3,0-0.7,0.1-1.1,0.1s-0.7,0.1-1.1,0.2
		s-0.7,0.2-1,0.3c-0.3,0.1-0.6,0.3-0.9,0.5s-0.4,0.5-0.6,0.8c-0.1,0.3-0.2,0.7-0.2,1.1c0,0.6,0.1,1,0.3,1.4s0.5,0.7,0.8,0.9
		s0.7,0.4,1.1,0.5s0.8,0.1,1.3,0.1c0.2,0,0.4,0,0.6,0s0.4,0,0.6,0v1.2c-0.3,0.1-0.6,0.1-0.9,0.2s-0.6,0.1-0.9,0.1
		c-0.7,0-1.3-0.1-1.8-0.2c-0.6-0.1-1.1-0.4-1.5-0.7s-0.8-0.7-1-1.2c-0.3-0.5-0.4-1.1-0.4-1.8c0-0.5,0.1-1,0.2-1.4
		c0.1-0.4,0.3-0.8,0.6-1.1s0.5-0.6,0.8-0.8c0.3-0.2,0.7-0.4,1-0.5s0.8-0.3,1.2-0.4s0.8-0.2,1.2-0.2c0.9-0.1,1.7-0.2,2.4-0.4
		c0.7-0.1,1.2-0.3,1.7-0.4s0.8-0.4,1-0.7c0.2-0.3,0.3-0.7,0.3-1.2s0-0.8-0.1-1.2c-0.1-0.3-0.2-0.6-0.4-0.8c-0.2-0.2-0.4-0.4-0.6-0.5
		s-0.5-0.2-0.8-0.3c-0.3-0.1-0.6-0.1-0.9-0.1s-0.6,0-0.9,0c-0.6,0-1.1,0-1.6,0.1s-0.9,0.3-1.3,0.5c-0.4,0.2-0.7,0.5-0.9,0.9
		s-0.4,0.9-0.4,1.5h-1.8c0.1-0.8,0.3-1.5,0.6-2.1s0.8-1,1.4-1.4s1.2-0.6,1.9-0.7s1.5-0.2,2.3-0.2c0.4,0,0.8,0,1.1,0.1
		s0.7,0.1,1.1,0.2c0.3,0,0.6,0,0.8-0.1s0.5-0.2,0.7-0.4s0.3-0.3,0.5-0.5s0.2-0.4,0.3-0.6h2c0,0.2-0.1,0.4-0.2,0.7s-0.3,0.4-0.5,0.6
		s-0.5,0.4-0.8,0.6C172.1,18.5,171.7,18.7,171.3,18.8z"/>
	<path d="M161.5,14.2h5.9v-2.3h1.6v2.3h2.2v-2.3h1.6v3.6h-12L161.5,14.2z"/>
	<path d="M171.2,6.2h1.7v3.7h-1.7V6.2z"/>
	<path d="M175.6,22.3c0.2-0.7,0.5-1.2,0.8-1.8s0.8-1,1.3-1.4s1.1-0.7,1.8-0.9c0.7-0.2,1.4-0.3,2.3-0.3c1.2,0,2.2,0.2,3,0.6
		s1.5,0.9,2,1.6s0.9,1.5,1.1,2.4c0.2,0.9,0.3,2,0.3,3.1c0,0.7,0,1.4-0.1,2c-0.1,0.7-0.3,1.3-0.5,1.8c-0.2,0.6-0.5,1.1-0.8,1.6
		s-0.7,0.9-1.2,1.2s-1,0.6-1.6,0.8s-1.3,0.3-2.1,0.3s-1.5-0.1-2.1-0.3s-1.1-0.5-1.6-0.8s-0.9-0.8-1.2-1.2s-0.6-1-0.8-1.6
		s-0.4-1.2-0.5-1.8s-0.1-1.3-0.1-2V25h5.9v1.3h-4.1c0,0.8,0.1,1.6,0.3,2.3s0.5,1.3,0.9,1.8s0.9,0.9,1.4,1.1c0.5,0.3,1.1,0.4,1.8,0.4
		s1.3-0.1,1.9-0.4c0.6-0.3,1-0.7,1.4-1.2s0.7-1.2,0.9-2s0.3-1.7,0.3-2.7c0-4.1-1.5-6.2-4.5-6.2c-0.5,0-1,0.1-1.5,0.2
		s-0.9,0.3-1.3,0.6c-0.4,0.3-0.7,0.6-1,0.9s-0.5,0.8-0.6,1.2H175.6z"/>
	<path d="M200.5,18.8c0.2,0.2,0.4,0.3,0.6,0.5c0.2,0.2,0.4,0.4,0.5,0.7s0.2,0.6,0.3,0.9s0.1,0.7,0.1,1.1v10.9h-1.8v-8.1
		c-0.2,0.2-0.4,0.3-0.7,0.5s-0.6,0.2-0.9,0.3s-0.7,0.2-1.1,0.2s-0.7,0.1-1,0.2c-0.3,0-0.7,0.1-1.1,0.1s-0.7,0.1-1.1,0.2
		s-0.7,0.2-1,0.3c-0.3,0.1-0.6,0.3-0.9,0.5s-0.4,0.5-0.6,0.8c-0.1,0.3-0.2,0.7-0.2,1.1c0,0.6,0.1,1,0.3,1.4s0.5,0.7,0.8,0.9
		s0.7,0.4,1.1,0.5s0.8,0.1,1.3,0.1c0.2,0,0.4,0,0.6,0s0.4,0,0.6,0v1.2c-0.3,0.1-0.6,0.1-0.9,0.2s-0.6,0.1-0.9,0.1
		c-0.7,0-1.3-0.1-1.8-0.2c-0.6-0.1-1.1-0.4-1.5-0.7s-0.8-0.7-1-1.2c-0.3-0.5-0.4-1.1-0.4-1.8c0-0.5,0.1-1,0.2-1.4
		c0.1-0.4,0.3-0.8,0.6-1.1s0.5-0.6,0.8-0.8c0.3-0.2,0.7-0.4,1-0.5s0.8-0.3,1.2-0.4s0.8-0.2,1.2-0.2c0.9-0.1,1.7-0.2,2.4-0.4
		c0.7-0.1,1.2-0.3,1.7-0.4s0.8-0.4,1-0.7c0.2-0.3,0.3-0.7,0.3-1.2s0-0.8-0.1-1.2c-0.1-0.3-0.2-0.6-0.4-0.8c-0.2-0.2-0.4-0.4-0.6-0.5
		s-0.5-0.2-0.8-0.3c-0.3-0.1-0.6-0.1-0.9-0.1s-0.6,0-0.9,0c-0.6,0-1.1,0-1.6,0.1s-0.9,0.3-1.3,0.5c-0.4,0.2-0.7,0.5-0.9,0.9
		s-0.4,0.9-0.4,1.5h-1.8c0.1-0.8,0.3-1.5,0.6-2.1s0.8-1,1.4-1.4s1.2-0.6,1.9-0.7s1.5-0.2,2.3-0.2c0.4,0,0.8,0,1.1,0.1
		s0.7,0.1,1.1,0.2c0.3,0,0.6,0,0.8-0.1s0.5-0.2,0.7-0.4s0.3-0.3,0.5-0.5s0.2-0.4,0.3-0.6h2c0,0.2-0.1,0.4-0.2,0.7s-0.3,0.4-0.5,0.6
		s-0.5,0.4-0.8,0.6C201.3,18.5,201,18.7,200.5,18.8z"/>
	<path d="M197.6,13.2c0-0.3,0.1-0.6,0.2-0.9c0.1-0.3,0.3-0.5,0.5-0.7s0.4-0.4,0.7-0.5s0.6-0.2,0.9-0.2c0.3,0,0.6,0.1,0.9,0.2
		c0.3,0.1,0.5,0.3,0.7,0.5s0.4,0.5,0.5,0.7s0.2,0.6,0.2,0.9c0,0.3-0.1,0.6-0.2,0.9c-0.1,0.3-0.3,0.5-0.5,0.7s-0.5,0.4-0.7,0.5
		c-0.3,0.1-0.6,0.2-0.9,0.2c-0.3,0-0.6-0.1-0.9-0.2s-0.5-0.3-0.7-0.5s-0.4-0.4-0.5-0.7C197.7,13.8,197.6,13.5,197.6,13.2z
		 M198.8,13.2c0,0.1,0,0.3,0.1,0.4s0.1,0.2,0.2,0.3s0.2,0.2,0.3,0.2c0.1,0.1,0.3,0.1,0.4,0.1c0.2,0,0.3,0,0.4-0.1s0.3-0.1,0.4-0.2
		s0.2-0.2,0.2-0.3c0.1-0.1,0.1-0.3,0.1-0.4c0-0.2,0-0.3-0.1-0.4c-0.1-0.1-0.1-0.3-0.2-0.4s-0.2-0.2-0.4-0.2s-0.3-0.1-0.4-0.1
		c-0.1,0-0.3,0-0.4,0.1c-0.1,0.1-0.2,0.1-0.3,0.2s-0.2,0.2-0.2,0.4C198.9,12.9,198.8,13.1,198.8,13.2z M204.3,22
		c0-0.7,0.2-1.3,0.5-1.8s0.7-0.9,1.2-1.3c0.5-0.3,1-0.6,1.6-0.8c0.6-0.2,1.2-0.3,1.9-0.3s1.4,0.1,2,0.3c0.6,0.2,1.1,0.5,1.6,0.9
		c0.4,0.4,0.8,0.9,1,1.5s0.4,1.3,0.4,2.1v10.2h-1.8v-9.7c0-0.7-0.1-1.3-0.2-1.8c-0.1-0.5-0.3-0.9-0.6-1.2s-0.6-0.6-1-0.7
		s-0.8-0.2-1.4-0.2c-0.4,0-0.8,0.1-1.2,0.2s-0.7,0.3-1,0.5s-0.5,0.5-0.7,0.8s-0.3,0.7-0.3,1.2L204.3,22L204.3,22z"/>
	<path d="M219.4,18.2v6.6l7.6-6.6h2.5l-3.4,2.8c0.7,0.2,1.2,0.5,1.6,0.8s0.7,0.7,0.9,1.2s0.4,1,0.4,1.5s0.1,1.1,0.1,1.8v6.6h-1.8v-7
		c0-0.5,0-0.9-0.1-1.4c-0.1-0.4-0.2-0.8-0.4-1.2c-0.2-0.3-0.5-0.6-0.8-0.9s-0.8-0.4-1.3-0.5l-5.4,4.8v6.1h-1.8V18.2H219.4z"/>
	<path d="M233.5,28.7c0.1,1,0.4,1.7,1,2.2s1.5,0.8,2.7,0.8c0.4,0,0.7,0,1.1-0.1c0.4-0.1,0.8-0.2,1.1-0.4c0.3-0.2,0.6-0.5,0.8-0.9
		s0.3-0.8,0.3-1.4c0-0.4-0.1-0.7-0.2-0.9c-0.1-0.3-0.4-0.5-0.7-0.7s-0.7-0.4-1.1-0.7c-0.5-0.2-1-0.4-1.6-0.7
		c-0.5-0.2-0.9-0.4-1.3-0.5s-0.8-0.3-1.2-0.5s-0.7-0.4-1-0.6s-0.5-0.4-0.8-0.7s-0.4-0.5-0.5-0.9S232,22,232,21.6s0.1-0.8,0.2-1.2
		s0.3-0.7,0.5-1s0.5-0.5,0.8-0.7s0.6-0.4,1-0.5s0.7-0.2,1.1-0.3c0.4-0.1,0.8-0.1,1.1-0.1c0.8,0,1.4,0.1,2,0.2s1.1,0.4,1.6,0.7
		c0.4,0.3,0.8,0.7,1.1,1.2s0.5,1.1,0.6,1.8h-1.8c-0.2-0.9-0.5-1.6-1.1-2.1c-0.6-0.4-1.3-0.7-2.1-0.7c-0.4,0-0.7,0-1.1,0.1
		s-0.7,0.2-1,0.4c-0.3,0.2-0.5,0.4-0.7,0.8s-0.3,0.7-0.3,1.1s0.1,0.7,0.3,1s0.4,0.5,0.8,0.7c0.3,0.2,0.7,0.4,1.2,0.6s1,0.4,1.6,0.6
		c0.9,0.3,1.7,0.7,2.3,1s1.1,0.6,1.5,1c0.4,0.3,0.6,0.7,0.8,1.1s0.2,0.8,0.2,1.3c0,0.8-0.1,1.4-0.4,1.9c-0.3,0.5-0.7,1-1.1,1.3
		s-1.1,0.6-1.7,0.7c-0.7,0.2-1.4,0.2-2.1,0.2c-0.7,0-1.4-0.1-2.1-0.3c-0.7-0.2-1.2-0.4-1.7-0.8c-0.5-0.4-0.9-0.8-1.2-1.4
		s-0.5-1.2-0.5-2h1.7V28.7z"/>
	<path d="M234.4,15.4v-2.6h1.7v1.3h7.5v1.3H234.4z"/>
	<path d="M251,31.8c0.6,0,1-0.1,1.5-0.2c0.4-0.1,0.8-0.3,1.1-0.5s0.6-0.5,0.8-0.8s0.4-0.6,0.5-1c0.1-0.3,0.2-0.7,0.3-1.1
		s0.1-0.7,0.1-1.1V18h1.8v8.8c0,0.5,0,1.1-0.1,1.6s-0.2,1-0.4,1.5s-0.4,0.9-0.7,1.3s-0.7,0.7-1.1,1c-0.4,0.3-1,0.5-1.6,0.7
		s-1.3,0.2-2.1,0.2s-1.6-0.1-2.2-0.2c-0.6-0.2-1.2-0.4-1.6-0.7c-0.4-0.3-0.8-0.6-1.1-1s-0.5-0.8-0.7-1.3s-0.3-1-0.4-1.5
		s-0.1-1-0.1-1.6V18h1.8v9.1c0,0.4,0,0.7,0.1,1.1s0.1,0.7,0.3,1c0.1,0.3,0.3,0.7,0.5,1s0.5,0.6,0.8,0.8c0.3,0.2,0.7,0.4,1.1,0.5
		C249.9,31.8,250.4,31.8,251,31.8z"/>
</g>
<g>
	<path class="st2" d="M73.5,51.6c0-0.6-0.1-1.2-0.3-1.7c-0.2-0.5-0.5-0.9-0.9-1.2s-0.8-0.6-1.3-0.8s-1-0.3-1.6-0.3l1-4.1h13.2
		l2.4,4.3h-8.4c0.4,0.5,0.7,1.1,0.9,1.7c0.2,0.6,0.3,1.3,0.3,1.9v26.8h2.8v4.4h-8.2L73.5,51.6L73.5,51.6z"/>
	<path class="st2" d="M103.2,69.5c-0.3,0.2-0.7,0.3-1.1,0.4s-0.8,0.2-1.2,0.3c-0.4,0.1-0.9,0.2-1.3,0.2c-0.4,0.1-0.9,0.1-1.3,0.2
		c-0.9,0.1-1.9,0.3-2.8,0.4c-0.9,0.2-1.7,0.4-2.5,0.7c-0.7,0.3-1.3,0.8-1.8,1.3c-0.4,0.6-0.7,1.3-0.7,2.2c0,0.7,0.1,1.2,0.4,1.7
		s0.7,0.8,1.1,1.1c0.5,0.3,1,0.5,1.6,0.6s1.2,0.2,1.8,0.2c0.5,0,1,0,1.5-0.1s1.1-0.2,1.6-0.3v4.3c-0.7,0.2-1.4,0.4-2.1,0.5
		s-1.4,0.2-2.1,0.2c-1.3,0-2.5-0.1-3.6-0.4s-2.1-0.7-3-1.3c-0.9-0.6-1.5-1.4-2-2.4s-0.8-2.2-0.8-3.6c0-1.1,0.1-2,0.4-2.8
		s0.6-1.5,1.1-2.1s1.1-1.1,1.8-1.5c0.7-0.4,1.5-0.8,2.4-1.1c0.9-0.3,1.9-0.6,2.9-0.8c1.1-0.2,2.2-0.4,3.5-0.6
		c0.8-0.1,1.5-0.2,2.3-0.3c0.7-0.1,1.4-0.3,2-0.5s1-0.5,1.4-0.8c0.3-0.3,0.5-0.8,0.5-1.3c0-0.9-0.2-1.6-0.5-2.1s-0.8-0.9-1.3-1.2
		s-1.1-0.5-1.8-0.5S98.3,60,97.7,60c-0.9,0-1.6,0.1-2.4,0.3c-0.7,0.2-1.4,0.5-1.9,0.9s-1,0.9-1.3,1.6c-0.3,0.7-0.5,1.5-0.6,2.4H86
		c0-1.2,0.2-2.3,0.5-3.2s0.7-1.8,1.3-2.5c0.5-0.7,1.2-1.3,1.9-1.8c0.7-0.5,1.5-0.9,2.4-1.2s1.8-0.5,2.8-0.7c1-0.1,2-0.2,3.1-0.2
		c0.8,0,1.7,0.1,2.5,0.2c0.8,0.1,1.7,0.3,2.4,0.5c0.8,0.2,1.5,0.6,2.2,1s1.3,0.9,1.8,1.5s0.9,1.3,1.2,2.1c0.3,0.8,0.4,1.8,0.4,2.8
		v19.5h-5.4L103.2,69.5L103.2,69.5z"/>
	<path class="st2" d="M124.5,59.7c-1.1,0-2.1,0.1-2.9,0.4c-0.8,0.3-1.5,0.6-2.1,1s-1,0.8-1.3,1.2s-0.5,0.8-0.6,1.2
		c0.6,0.5,1,1.2,1.4,2c0.4,0.8,0.5,1.7,0.5,2.7v14.5H114V68c0-0.4,0-0.7-0.1-1.1s-0.2-0.7-0.3-1.1c-0.2-0.4-0.4-0.7-0.7-1
		c-0.3-0.3-0.7-0.6-1.1-0.9c0.2-0.7,0.4-1.5,0.7-2.2c0.3-0.7,0.7-1.4,1.2-2.1c0.5-0.7,1.1-1.3,1.8-1.8c0.7-0.6,1.5-1.1,2.4-1.5
		s1.9-0.7,3-1c1.1-0.2,2.3-0.4,3.7-0.4c1.6,0,3,0.1,4.2,0.4c1.2,0.3,2.3,0.7,3.2,1.2s1.7,1.1,2.3,1.8s1.2,1.5,1.5,2.3
		c0.4,0.8,0.7,1.7,0.9,2.7c0.2,0.9,0.3,1.9,0.3,2.8v16.2h-5.5V65.9c0-0.8-0.1-1.5-0.4-2.2c-0.2-0.7-0.6-1.4-1.2-2
		c-0.5-0.6-1.3-1.1-2.2-1.4C126.9,59.9,125.8,59.7,124.5,59.7z"/>
	<path class="st2" d="M141.6,62.3c0-0.9,0.1-1.7,0.3-2.3c0.2-0.7,0.5-1.2,0.9-1.7s0.8-0.9,1.4-1.2c0.5-0.3,1.1-0.6,1.6-0.8
		c0.6-0.2,1.1-0.3,1.7-0.4s1.2-0.1,1.7-0.1h4.1v4.6h-3c-0.2,0-0.6,0-0.9,0.1c-0.4,0-0.7,0.1-1.1,0.3c-0.3,0.2-0.6,0.4-0.9,0.7
		c-0.2,0.3-0.4,0.8-0.4,1.3c0,0.6,0.1,1.1,0.3,1.5s0.4,0.7,0.8,0.9c0.3,0.2,0.7,0.4,1.1,0.5c0.4,0.1,0.9,0.2,1.4,0.2h2.6v4.5h-2.6
		c-0.5,0-1,0.1-1.4,0.2s-0.8,0.3-1.1,0.5c-0.3,0.3-0.6,0.6-0.7,1.1c-0.2,0.5-0.3,1.1-0.3,1.8c0,0.8,0.2,1.5,0.5,2.1s0.8,1.1,1.3,1.5
		c0.6,0.4,1.2,0.7,1.9,0.9c0.7,0.2,1.5,0.3,2.3,0.3c0.9,0,1.7-0.1,2.4-0.3c0.7-0.2,1.4-0.6,1.9-1.1s1-1.2,1.3-2s0.5-1.8,0.5-3V55.7
		h5.4v17.5c0,1.6-0.3,3.1-0.9,4.4c-0.6,1.3-1.4,2.3-2.5,3.2c-1,0.9-2.3,1.5-3.6,1.9s-2.9,0.7-4.4,0.7c-1,0-1.9-0.1-2.9-0.2
		c-1-0.2-1.9-0.4-2.7-0.7c-0.9-0.3-1.7-0.7-2.4-1.2s-1.4-1.1-1.9-1.8c-0.5-0.7-1-1.4-1.3-2.3s-0.5-1.8-0.5-2.8c0-0.7,0-1.3,0.1-2
		c0.1-0.6,0.3-1.2,0.5-1.7s0.5-1,0.9-1.4s0.9-0.8,1.5-1.1c-0.6-0.4-1.1-0.8-1.5-1.2c-0.4-0.5-0.7-0.9-0.9-1.5
		c-0.2-0.5-0.4-1-0.4-1.5C141.6,63.3,141.6,62.8,141.6,62.3z"/>
	<path class="st2" d="M159.6,95.8v-5.9h-2.4v-4.1h7.4v10.1L159.6,95.8L159.6,95.8z"/>
	<path class="st2" d="M175.1,82.6h-5.4V67c0-1,0.1-2,0.2-3c0.2-1,0.4-1.9,0.8-2.8s0.8-1.7,1.4-2.5c0.6-0.8,1.3-1.4,2.2-2
		s1.9-1,3.1-1.3c1.2-0.3,2.6-0.5,4.2-0.5c1.6,0,2.9,0.2,4.1,0.5c1.2,0.3,2.2,0.7,3.1,1.3c0.9,0.6,1.6,1.2,2.2,2
		c0.6,0.8,1.1,1.6,1.4,2.5c0.4,0.9,0.6,1.8,0.8,2.8s0.2,2,0.2,3v15.6h-5.5V66.4c0-0.5,0-1-0.1-1.5s-0.2-1-0.4-1.5s-0.5-0.9-0.8-1.4
		s-0.7-0.8-1.2-1.1s-1-0.6-1.7-0.8c-0.6-0.2-1.3-0.3-2.2-0.3c-1.2,0-2.2,0.2-3.1,0.6c-0.8,0.4-1.5,0.9-2,1.5s-0.9,1.3-1.1,2.1
		c-0.2,0.8-0.3,1.5-0.3,2.3v3.6c0.5-0.7,1-1.3,1.5-1.8s1.1-0.9,1.8-1.2s1.4-0.5,2.2-0.7c0.8-0.1,1.7-0.2,2.7-0.2v4.7
		c-1.6,0-2.9,0.2-4,0.6s-1.9,1-2.6,1.8c-0.6,0.8-1.1,1.7-1.4,2.8c-0.3,1.1-0.4,2.4-0.4,3.8v2.9L175.1,82.6L175.1,82.6z"/>
	<path class="st2" d="M205.1,78.2h2.8v4.4h-8.2V57.2c0-0.7,0-1.4,0.1-2s0.2-1.1,0.3-1.6c0.2-0.5,0.4-1,0.7-1.4s0.7-0.9,1.2-1.5
		c0.1-0.1,0.3-0.3,0.5-0.5s0.4-0.4,0.7-0.6c0.2-0.2,0.4-0.5,0.6-0.7c0.2-0.2,0.2-0.5,0.2-0.7s0-0.4-0.1-0.6
		c-0.1-0.2-0.2-0.4-0.3-0.5c-0.2-0.2-0.4-0.3-0.6-0.4c-0.3-0.1-0.6-0.1-1-0.1s-0.8,0.1-1.1,0.3s-0.6,0.5-0.8,0.8
		c-0.2,0.4-0.4,0.8-0.5,1.3s-0.2,1.1-0.2,1.7h-5.1c0-1.4,0.2-2.7,0.6-3.7c0.4-1,1-1.9,1.7-2.6c0.7-0.7,1.5-1.2,2.5-1.5
		c0.9-0.3,1.9-0.5,2.9-0.5c0.9,0,1.8,0.1,2.6,0.3s1.6,0.5,2.2,1c0.6,0.4,1.2,1,1.5,1.8c0.4,0.7,0.6,1.6,0.6,2.6
		c0,0.6-0.1,1.1-0.3,1.5s-0.4,0.8-0.7,1.2s-0.6,0.7-1,1.1c-0.4,0.4-0.7,0.8-1,1.2c-0.2,0.3-0.4,0.6-0.5,0.9
		c-0.1,0.4-0.2,0.7-0.3,1.1c-0.1,0.4-0.1,0.8-0.1,1.1c0,0.4,0,0.7,0,1.1v20.9H205.1z"/>
	<path class="st2" d="M217.4,55.7v9.5l11-9.5h7.9l-6,5.1c0.9,0.4,1.7,0.9,2.3,1.5s1,1.3,1.4,2.2c0.3,0.8,0.6,1.7,0.7,2.7
		c0.1,1,0.2,2.1,0.2,3.2v12.3h-5.4V69.8c0-0.6-0.1-1.3-0.2-1.9c-0.1-0.6-0.3-1.2-0.5-1.7c-0.3-0.5-0.6-0.9-1-1.3s-0.9-0.6-1.5-0.7
		l-8.9,7.6v10.9H212v-27C212,55.7,217.4,55.7,217.4,55.7z"/>
	<path class="st2" d="M239.8,82.6v-27h5.5v14.7c0,1.1,0.2,2.2,0.5,3.2s0.8,1.8,1.4,2.5c0.6,0.7,1.4,1.3,2.3,1.7
		c0.9,0.4,2,0.6,3.3,0.6c0.8,0,1.5-0.1,2.1-0.4c0.6-0.2,1.2-0.6,1.6-1s0.8-1,1-1.6s0.4-1.3,0.4-2V55.7h5.4v17.2c0,1.5-0.2,3-0.5,4.2
		c-0.3,1.3-0.8,2.4-1.6,3.3c-0.8,0.9-1.8,1.6-3,2.1c-1.3,0.5-2.8,0.8-4.7,0.8s-3.5-0.3-4.8-1c-1.4-0.7-2.5-1.7-3.5-2.9l-0.1,3.3
		h-5.3L239.8,82.6L239.8,82.6z"/>
	<path class="st2" d="M257.9,43.4h5.3v8.3h-5.3V43.4z"/>
</g>
<circle class="st3" cx="189.2" cy="359.7" r="9.5"/>
<circle class="st4" cx="679.6" cy="209.2" r="9.5"/>
<g>
	<path class="st0" d="M706.2,418.9v-9.5h1.1v9.5H706.2z"/>
	<path class="st0" d="M715,415c0-0.3,0-0.6-0.1-0.8c0-0.2-0.1-0.4-0.2-0.6c-0.1-0.2-0.2-0.3-0.3-0.4s-0.2-0.1-0.4-0.2
		c-0.2,0-0.3-0.1-0.5-0.1s-0.4,0-0.6,0h-0.3V412h0.3c0.4,0,0.8-0.1,1-0.2c0.3-0.1,0.5-0.3,0.7-0.5s0.3-0.5,0.4-0.8
		c0.1-0.3,0.1-0.7,0.1-1.1h1.2c0,0.2,0,0.4-0.1,0.6c0,0.2-0.1,0.4-0.1,0.6c-0.1,0.2-0.1,0.4-0.2,0.6c-0.1,0.2-0.2,0.4-0.4,0.5
		s-0.3,0.3-0.6,0.4c-0.2,0.1-0.5,0.2-0.8,0.3c0.3,0,0.6,0.1,0.8,0.2s0.4,0.2,0.5,0.4c0.1,0.1,0.3,0.3,0.3,0.5
		c0.1,0.2,0.1,0.4,0.2,0.5c0,0.2,0.1,0.4,0.1,0.5c0,0.2,0,0.3,0,0.5v0.9c0,0.5-0.1,1-0.3,1.4s-0.4,0.7-0.7,1s-0.6,0.4-1,0.6
		c-0.4,0.1-0.8,0.2-1.2,0.2s-0.9-0.1-1.3-0.2c-0.4-0.1-0.8-0.3-1.1-0.6c-0.3-0.3-0.6-0.6-0.7-1c-0.2-0.4-0.3-0.8-0.3-1.3v-1.1
		c0-0.2,0-0.5,0-0.6s0-0.3,0.1-0.5c0-0.1,0.1-0.3,0.1-0.4s0.1-0.2,0.2-0.3c0.1-0.1,0.2-0.2,0.2-0.3c0.1-0.1,0.2-0.2,0.3-0.4
		c0.1-0.1,0.2-0.3,0.3-0.4s0.2-0.2,0.2-0.3c0.1-0.1,0.1-0.2,0.2-0.3c0-0.1,0.1-0.2,0.1-0.3c0.1-0.4,0-0.7-0.2-0.8
		c-0.2-0.2-0.4-0.3-0.8-0.3c-0.2,0-0.5,0-0.7,0.1s-0.4,0.1-0.5,0.2v-0.7c0.1,0,0.2-0.1,0.4-0.1c0.1,0,0.3-0.1,0.4-0.1
		s0.3-0.1,0.4-0.1c0.1,0,0.2,0,0.3,0c0.6,0,1.1,0.2,1.4,0.5c0.3,0.3,0.4,0.7,0.4,1.3c0,0.1,0,0.2-0.1,0.3c0,0.1-0.1,0.2-0.1,0.2
		c0,0.1-0.1,0.2-0.2,0.3c-0.1,0.1-0.1,0.2-0.2,0.3c-0.1,0.1-0.2,0.2-0.3,0.4c-0.1,0.1-0.2,0.3-0.4,0.5c-0.1,0.2-0.2,0.3-0.3,0.5
		s-0.1,0.3-0.1,0.4s0,0.3,0,0.4s0,0.3,0,0.5v0.9c0,0.4,0.1,0.7,0.2,1s0.3,0.6,0.5,0.8c0.2,0.2,0.4,0.4,0.7,0.5s0.6,0.2,0.9,0.2
		c0.3,0,0.6,0,0.8-0.1c0.3-0.1,0.5-0.2,0.7-0.4c0.2-0.2,0.3-0.4,0.4-0.7c0.1-0.3,0.2-0.7,0.2-1.1L715,415L715,415z"/>
	<path class="st0" d="M708.7,406.9h3.8v-1.5h1v1.5h1.4v-1.5h1v2.3h-7.7L708.7,406.9z"/>
	<path class="st0" d="M714.9,401.7h1.1v2.4h-1.1V401.7z"/>
	<path class="st0" d="M717.7,412.1c0.1-0.4,0.3-0.8,0.5-1.2c0.2-0.4,0.5-0.7,0.8-0.9s0.7-0.5,1.1-0.6c0.4-0.1,0.9-0.2,1.5-0.2
		c0.8,0,1.4,0.1,1.9,0.4c0.5,0.2,0.9,0.6,1.3,1s0.6,1,0.7,1.6c0.1,0.6,0.2,1.3,0.2,2c0,0.4,0,0.9-0.1,1.3s-0.2,0.8-0.3,1.2
		c-0.1,0.4-0.3,0.7-0.5,1s-0.5,0.6-0.8,0.8c-0.3,0.2-0.7,0.4-1,0.5c-0.4,0.1-0.8,0.2-1.3,0.2s-0.9-0.1-1.3-0.2
		c-0.4-0.1-0.7-0.3-1-0.5s-0.6-0.5-0.8-0.8s-0.4-0.6-0.5-1s-0.2-0.8-0.3-1.2s-0.1-0.9-0.1-1.3v-0.3h3.8v0.8h-2.6
		c0,0.5,0.1,1,0.2,1.5c0.1,0.4,0.3,0.8,0.6,1.1c0.3,0.3,0.6,0.6,0.9,0.7c0.3,0.2,0.7,0.3,1.2,0.3c0.4,0,0.8-0.1,1.2-0.3
		s0.7-0.4,0.9-0.8c0.2-0.3,0.4-0.8,0.6-1.3c0.1-0.5,0.2-1.1,0.2-1.7c0-2.7-1-4-2.9-4c-0.3,0-0.7,0-1,0.1s-0.6,0.2-0.8,0.4
		c-0.2,0.2-0.4,0.4-0.6,0.6c-0.2,0.2-0.3,0.5-0.4,0.8H717.7z"/>
	<path class="st0" d="M727.5,418.9v-9.5h1.2v5.4c0,0.5,0.1,0.9,0.2,1.3s0.3,0.8,0.6,1c0.3,0.3,0.6,0.5,1,0.7s0.9,0.3,1.4,0.3
		c0.8,0,1.3-0.2,1.7-0.6s0.6-1,0.6-1.8v-6.2h1.2v6.2c0,0.5-0.1,1-0.2,1.4c-0.1,0.4-0.3,0.8-0.6,1.1s-0.6,0.5-1,0.7s-0.9,0.2-1.5,0.2
		c-0.3,0-0.7,0-1-0.1c-0.3,0-0.6-0.1-0.9-0.3c-0.3-0.1-0.6-0.3-0.8-0.5c-0.3-0.2-0.5-0.5-0.7-0.9v1.5L727.5,418.9L727.5,418.9z"/>
	<path class="st0" d="M737.9,408c0-0.3,0-0.5-0.1-0.7s-0.2-0.4-0.3-0.5s-0.3-0.3-0.4-0.4c-0.2-0.1-0.4-0.2-0.6-0.2l0.2-0.8h4.2
		l0.4,0.8h-3.5c0.2,0.1,0.4,0.2,0.5,0.3c0.1,0.1,0.3,0.3,0.4,0.4s0.2,0.3,0.2,0.5s0.1,0.4,0.1,0.5V418h1v0.8h-2.2L737.9,408
		L737.9,408z"/>
	<path class="st0" d="M741.4,411.5c0-0.3,0-0.5,0.1-0.7s0.2-0.4,0.3-0.6s0.3-0.3,0.4-0.4c0.2-0.1,0.3-0.2,0.5-0.2
		c0.2-0.1,0.4-0.1,0.6-0.1c0.2,0,0.4,0,0.5,0h1.1v0.9h-0.6c-0.1,0-0.2,0-0.3,0s-0.2,0-0.4,0c-0.1,0-0.2,0.1-0.4,0.1
		s-0.2,0.1-0.3,0.2s-0.2,0.2-0.2,0.4c-0.1,0.1-0.1,0.3-0.1,0.5c0,0.3,0,0.5,0.1,0.7s0.2,0.4,0.4,0.5s0.3,0.2,0.6,0.3
		c0.2,0.1,0.4,0.1,0.7,0.1h0.6v0.9h-0.6c-0.3,0-0.5,0.1-0.7,0.1c-0.2,0.1-0.4,0.2-0.5,0.4s-0.3,0.3-0.4,0.6
		c-0.1,0.2-0.1,0.5-0.1,0.8c0,0.4,0.1,0.7,0.2,1s0.3,0.5,0.6,0.7c0.2,0.2,0.5,0.3,0.8,0.4s0.6,0.1,1,0.1s0.8-0.1,1.1-0.2
		s0.6-0.3,0.8-0.5s0.4-0.5,0.5-0.9s0.2-0.8,0.2-1.3v-5.9h1.1v6.2c0,0.6-0.1,1.1-0.3,1.5s-0.5,0.8-0.8,1.1c-0.3,0.3-0.7,0.5-1.2,0.7
		c-0.5,0.1-1,0.2-1.5,0.2c-0.3,0-0.6,0-1-0.1s-0.6-0.1-0.9-0.2c-0.3-0.1-0.6-0.3-0.8-0.4c-0.2-0.2-0.5-0.4-0.6-0.6
		c-0.2-0.2-0.3-0.5-0.4-0.8c-0.1-0.3-0.1-0.6-0.1-1c0-0.3,0-0.5,0.1-0.7c0-0.2,0.1-0.5,0.2-0.7c0.1-0.2,0.3-0.4,0.5-0.5
		s0.5-0.3,0.8-0.4c-0.4-0.1-0.7-0.3-0.9-0.4c-0.2-0.2-0.4-0.4-0.5-0.6s-0.2-0.4-0.2-0.6S741.4,411.7,741.4,411.5z"/>
	<path class="st0" d="M753,417.5c0.1,0.2,0.2,0.4,0.4,0.5s0.4,0.2,0.6,0.2c0.2,0,0.3,0,0.4-0.1c0.1-0.1,0.2-0.1,0.3-0.2
		s0.1-0.2,0.2-0.3c0-0.1,0.1-0.2,0.1-0.4v-7h-1.4v-0.8h2.5v7.5c0,0.4-0.1,0.7-0.2,1c-0.1,0.3-0.3,0.5-0.4,0.7
		c-0.2,0.2-0.4,0.3-0.7,0.4s-0.5,0.1-0.9,0.1c-0.3,0-0.6,0-0.8-0.1s-0.4-0.2-0.6-0.3c-0.2-0.1-0.3-0.3-0.4-0.5
		c-0.1-0.2-0.2-0.4-0.3-0.7l-1.4-4h1.2L753,417.5z"/>
	<path class="st0" d="M681.4,438.9h-1.2v-5.6c0-0.3,0-0.7,0.1-1c0-0.3,0.1-0.6,0.2-0.9c0.1-0.3,0.3-0.6,0.5-0.8s0.4-0.5,0.7-0.7
		s0.6-0.3,1-0.4s0.9-0.2,1.4-0.2s1,0.1,1.4,0.2s0.7,0.3,1,0.4c0.3,0.2,0.5,0.4,0.7,0.7s0.3,0.5,0.5,0.8c0.1,0.3,0.2,0.6,0.2,0.9
		s0.1,0.7,0.1,1v5.6h-1V433c0-0.2,0-0.4-0.1-0.7s-0.1-0.5-0.2-0.7c-0.1-0.2-0.2-0.4-0.3-0.6s-0.3-0.4-0.5-0.5s-0.4-0.2-0.7-0.3
		s-0.6-0.1-1-0.1s-0.7,0-1,0.1s-0.5,0.2-0.7,0.3c-0.2,0.1-0.4,0.3-0.5,0.5s-0.3,0.4-0.3,0.6c-0.1,0.2-0.1,0.4-0.2,0.7
		s-0.1,0.5-0.1,0.7v2.3l0,0c0.2-0.4,0.4-0.7,0.6-0.9c0.2-0.2,0.5-0.4,0.8-0.6s0.6-0.2,0.9-0.3s0.6-0.1,0.9-0.1v0.9
		c-0.6,0-1,0.1-1.5,0.3s-0.7,0.4-1,0.8s-0.5,0.7-0.6,1.2s-0.2,1-0.2,1.6L681.4,438.9L681.4,438.9z"/>
	<path class="st0" d="M695.6,434.1c0-0.7-0.1-1.3-0.2-1.8s-0.3-0.9-0.5-1.2c-0.2-0.3-0.5-0.6-0.8-0.7c-0.3-0.2-0.7-0.2-1.1-0.2
		c-0.3,0-0.5,0-0.8,0.1s-0.5,0.2-0.7,0.4c-0.2,0.2-0.4,0.4-0.5,0.7c-0.1,0.3-0.2,0.6-0.3,1h-1.2c0-0.5,0.2-0.9,0.3-1.3
		c0.2-0.4,0.4-0.7,0.7-1s0.7-0.5,1.1-0.6s0.9-0.2,1.3-0.2c0.6,0,1.2,0.1,1.7,0.3c0.5,0.2,0.9,0.6,1.2,1s0.5,0.9,0.7,1.5
		s0.2,1.3,0.2,2c0,0.8-0.1,1.4-0.2,2s-0.4,1.1-0.7,1.6c-0.3,0.4-0.7,0.8-1.2,1s-1,0.4-1.7,0.4c-0.5,0-0.9-0.1-1.3-0.2
		s-0.8-0.4-1.1-0.6c-0.3-0.3-0.5-0.6-0.7-1s-0.3-0.8-0.3-1.3h1.2c0.1,0.4,0.1,0.7,0.3,1s0.3,0.5,0.5,0.7s0.4,0.3,0.7,0.4
		s0.5,0.1,0.8,0.1c0.4,0,0.7-0.1,1-0.2c0.3-0.2,0.6-0.4,0.8-0.7s0.4-0.8,0.5-1.3C695.6,435.4,695.6,434.8,695.6,434.1z"/>
	<path class="st0" d="M697.8,431.9c0-0.4,0.1-0.8,0.3-1.1c0.2-0.3,0.4-0.6,0.7-0.8c0.3-0.2,0.7-0.4,1-0.5c0.4-0.1,0.8-0.2,1.2-0.2
		c0.5,0,0.9,0.1,1.3,0.2s0.7,0.3,1,0.6c0.3,0.3,0.5,0.6,0.7,1s0.2,0.8,0.2,1.4v6.6H703v-6.2c0-0.4,0-0.8-0.1-1.1
		c-0.1-0.3-0.2-0.6-0.4-0.8c-0.2-0.2-0.4-0.4-0.6-0.5c-0.3-0.1-0.5-0.1-0.9-0.1c-0.3,0-0.5,0-0.8,0.1c-0.2,0.1-0.4,0.2-0.6,0.3
		c-0.2,0.1-0.3,0.3-0.4,0.5c-0.1,0.2-0.2,0.5-0.2,0.7h-1.2V431.9z"/>
	<path class="st0" d="M706.3,438.9v-9.5h1.2v5.4c0,0.5,0.1,0.9,0.2,1.3s0.3,0.8,0.6,1c0.3,0.3,0.6,0.5,1,0.7s0.9,0.3,1.4,0.3
		c0.8,0,1.3-0.2,1.7-0.6s0.6-1,0.6-1.8v-6.2h1.2v6.2c0,0.5-0.1,1-0.2,1.4c-0.1,0.4-0.3,0.8-0.6,1.1s-0.6,0.5-1,0.7s-0.9,0.2-1.5,0.2
		c-0.3,0-0.7,0-1-0.1c-0.3,0-0.6-0.1-0.9-0.3c-0.3-0.1-0.6-0.3-0.8-0.5c-0.3-0.2-0.5-0.5-0.7-0.9v1.5L706.3,438.9L706.3,438.9z"/>
	<path class="st0" d="M716.8,436.2c0.1,0.6,0.3,1.1,0.7,1.4s1,0.5,1.7,0.5c0.2,0,0.5,0,0.7-0.1c0.3-0.1,0.5-0.1,0.7-0.3
		s0.4-0.3,0.5-0.6s0.2-0.5,0.2-0.9c0-0.2,0-0.4-0.1-0.6s-0.2-0.3-0.4-0.5c-0.2-0.1-0.4-0.3-0.7-0.4s-0.6-0.3-1-0.5
		c-0.3-0.1-0.6-0.2-0.8-0.3c-0.3-0.1-0.5-0.2-0.7-0.3s-0.4-0.2-0.6-0.4c-0.2-0.1-0.4-0.3-0.5-0.4c-0.1-0.2-0.2-0.4-0.3-0.6
		s-0.1-0.4-0.1-0.7c0-0.3,0-0.5,0.1-0.8c0.1-0.2,0.2-0.4,0.3-0.6s0.3-0.3,0.5-0.5c0.2-0.1,0.4-0.2,0.6-0.3c0.2-0.1,0.5-0.1,0.7-0.2
		c0.2,0,0.5-0.1,0.7-0.1c0.5,0,0.9,0,1.3,0.1c0.4,0.1,0.7,0.2,1,0.5c0.3,0.2,0.5,0.5,0.7,0.8s0.3,0.7,0.4,1.2h-1.2
		c-0.1-0.6-0.3-1-0.7-1.3s-0.8-0.4-1.4-0.4c-0.2,0-0.5,0-0.7,0.1s-0.4,0.1-0.6,0.3c-0.2,0.1-0.3,0.3-0.5,0.5
		c-0.1,0.2-0.2,0.4-0.2,0.7c0,0.3,0.1,0.5,0.2,0.6s0.3,0.3,0.5,0.5c0.2,0.1,0.5,0.3,0.8,0.4s0.6,0.3,1,0.4c0.6,0.2,1.1,0.4,1.5,0.6
		s0.7,0.4,0.9,0.6s0.4,0.5,0.5,0.7s0.1,0.5,0.1,0.8c0,0.5-0.1,0.9-0.3,1.2c-0.2,0.3-0.4,0.6-0.7,0.8s-0.7,0.4-1.1,0.5
		c-0.4,0.1-0.9,0.1-1.3,0.1c-0.5,0-0.9-0.1-1.3-0.2c-0.4-0.1-0.8-0.3-1.1-0.5s-0.6-0.5-0.8-0.9s-0.3-0.8-0.3-1.3h1.1L716.8,436.2
		L716.8,436.2z"/>
	<path class="st0" d="M716.5,440.1h2v1c0,0.5,0.1,0.8,0.3,1s0.5,0.3,0.9,0.3s0.7-0.1,0.9-0.3s0.3-0.6,0.3-1v-1h1.1v1
		c0,0.3,0,0.6-0.1,0.8c-0.1,0.3-0.2,0.5-0.4,0.7s-0.4,0.3-0.7,0.5s-0.7,0.2-1.1,0.2c-0.4,0-0.8,0-1.1-0.1s-0.5-0.2-0.7-0.4
		c-0.2-0.2-0.3-0.4-0.4-0.7c-0.1-0.3-0.1-0.6-0.1-1h-0.9V440.1z"/>
	<path class="st0" d="M718.9,427.7v-1.5H718v-0.8h1.7v1.4c0.4,0,0.8,0,1.1-0.1s0.5-0.2,0.7-0.3s0.3-0.3,0.4-0.5
		c0.1-0.2,0.2-0.3,0.2-0.5h1.1c0,0.1-0.1,0.3-0.1,0.4c-0.1,0.2-0.2,0.3-0.3,0.5s-0.3,0.3-0.5,0.5s-0.4,0.3-0.6,0.4s-0.5,0.2-0.8,0.3
		c-0.3,0.1-0.7,0.1-1,0.1h-1L718.9,427.7L718.9,427.7z"/>
	<path class="st0" d="M730.4,429.8c0.2,0.1,0.3,0.2,0.4,0.3s0.2,0.3,0.3,0.5s0.2,0.4,0.2,0.6s0.1,0.4,0.1,0.7v7h-1.2v-5.2
		c-0.1,0.1-0.2,0.2-0.4,0.3c-0.2,0.1-0.4,0.2-0.6,0.2c-0.2,0.1-0.4,0.1-0.7,0.2c-0.2,0-0.4,0.1-0.6,0.1c-0.2,0-0.4,0.1-0.7,0.1
		c-0.2,0-0.5,0.1-0.7,0.1c-0.2,0.1-0.4,0.1-0.7,0.2c-0.2,0.1-0.4,0.2-0.5,0.3s-0.3,0.3-0.4,0.5c-0.1,0.2-0.1,0.4-0.1,0.7
		c0,0.4,0.1,0.6,0.2,0.9s0.3,0.4,0.5,0.6c0.2,0.1,0.5,0.2,0.7,0.3s0.5,0.1,0.8,0.1c0.1,0,0.2,0,0.4,0s0.3,0,0.4,0v0.8
		c-0.2,0-0.4,0.1-0.6,0.1c-0.2,0-0.4,0-0.6,0c-0.4,0-0.8,0-1.2-0.1s-0.7-0.2-1-0.4c-0.3-0.2-0.5-0.5-0.7-0.8s-0.2-0.7-0.2-1.2
		c0-0.3,0-0.6,0.1-0.9s0.2-0.5,0.4-0.7s0.3-0.4,0.5-0.5s0.4-0.3,0.7-0.3c0.2-0.1,0.5-0.2,0.7-0.2s0.5-0.1,0.8-0.1
		c0.6-0.1,1.1-0.2,1.5-0.2c0.4-0.1,0.8-0.2,1.1-0.3c0.3-0.1,0.5-0.3,0.6-0.5s0.2-0.4,0.2-0.8c0-0.3,0-0.5-0.1-0.7s-0.2-0.4-0.3-0.5
		s-0.2-0.3-0.4-0.3c-0.2-0.1-0.3-0.2-0.5-0.2s-0.4-0.1-0.6-0.1c-0.2,0-0.4,0-0.6,0c-0.4,0-0.7,0-1,0.1s-0.6,0.2-0.8,0.3
		s-0.4,0.3-0.6,0.6s-0.2,0.6-0.3,1H724c0-0.5,0.2-1,0.4-1.3s0.5-0.7,0.9-0.9c0.4-0.2,0.8-0.4,1.2-0.5c0.5-0.1,0.9-0.1,1.5-0.1
		c0.2,0,0.5,0,0.7,0s0.5,0.1,0.7,0.1s0.4,0,0.5-0.1c0.2-0.1,0.3-0.1,0.4-0.2c0.1-0.1,0.2-0.2,0.3-0.3c0.1-0.1,0.1-0.3,0.2-0.4h1.3
		c0,0.1-0.1,0.3-0.1,0.4c-0.1,0.1-0.2,0.3-0.3,0.4s-0.3,0.3-0.5,0.4C731,429.7,730.7,429.8,730.4,429.8z"/>
	<path class="st0" d="M725.9,440.1h2v1c0,0.5,0.1,0.8,0.3,1s0.5,0.3,0.9,0.3s0.7-0.1,0.9-0.3s0.3-0.6,0.3-1v-1h1.1v1
		c0,0.3,0,0.6-0.1,0.8c-0.1,0.3-0.2,0.5-0.4,0.7s-0.4,0.3-0.7,0.5s-0.7,0.2-1.1,0.2c-0.4,0-0.8,0-1.1-0.1s-0.5-0.2-0.7-0.4
		c-0.2-0.2-0.3-0.4-0.4-0.7c-0.1-0.3-0.1-0.6-0.1-1h-0.9V440.1z"/>
	<path class="st0" d="M730.4,425h1.1v2.6h-1.1V425z"/>
	<path class="st0" d="M738.8,435c0-0.3,0-0.6-0.1-0.8c0-0.2-0.1-0.4-0.2-0.6c-0.1-0.2-0.2-0.3-0.3-0.4s-0.2-0.1-0.4-0.2
		c-0.2,0-0.3-0.1-0.5-0.1s-0.4,0-0.6,0h-0.3V432h0.3c0.4,0,0.8-0.1,1-0.2c0.3-0.1,0.5-0.3,0.7-0.5s0.3-0.5,0.4-0.8
		c0.1-0.3,0.1-0.7,0.1-1.1h1.2c0,0.2,0,0.4-0.1,0.6c0,0.2-0.1,0.4-0.1,0.6c-0.1,0.2-0.1,0.4-0.2,0.6c-0.1,0.2-0.2,0.4-0.4,0.5
		s-0.3,0.3-0.6,0.4c-0.2,0.1-0.5,0.2-0.8,0.3c0.3,0,0.6,0.1,0.8,0.2s0.4,0.2,0.5,0.4c0.1,0.1,0.3,0.3,0.3,0.5
		c0.1,0.2,0.1,0.4,0.2,0.5c0,0.2,0.1,0.4,0.1,0.5c0,0.2,0,0.3,0,0.5v0.9c0,0.5-0.1,1-0.3,1.4s-0.4,0.7-0.7,1s-0.6,0.4-1,0.6
		c-0.4,0.1-0.8,0.2-1.2,0.2s-0.9-0.1-1.3-0.2c-0.4-0.1-0.8-0.3-1.1-0.6c-0.3-0.3-0.6-0.6-0.7-1c-0.2-0.4-0.3-0.8-0.3-1.3v-1.1
		c0-0.2,0-0.5,0-0.6s0-0.3,0.1-0.5c0-0.1,0.1-0.3,0.1-0.4s0.1-0.2,0.2-0.3c0.1-0.1,0.2-0.2,0.2-0.3c0.1-0.1,0.2-0.2,0.3-0.4
		c0.1-0.1,0.2-0.3,0.3-0.4s0.2-0.2,0.2-0.3c0.1-0.1,0.1-0.2,0.2-0.3c0-0.1,0.1-0.2,0.1-0.3c0.1-0.4,0-0.7-0.2-0.8
		c-0.2-0.2-0.4-0.3-0.8-0.3c-0.2,0-0.5,0-0.7,0.1s-0.4,0.1-0.5,0.2v-0.7c0.1,0,0.2-0.1,0.4-0.1c0.1,0,0.3-0.1,0.4-0.1
		s0.3-0.1,0.4-0.1c0.1,0,0.2,0,0.3,0c0.6,0,1.1,0.2,1.4,0.5c0.3,0.3,0.4,0.7,0.4,1.3c0,0.1,0,0.2-0.1,0.3c0,0.1-0.1,0.2-0.1,0.2
		c0,0.1-0.1,0.2-0.2,0.3c-0.1,0.1-0.1,0.2-0.2,0.3c-0.1,0.1-0.2,0.2-0.3,0.4c-0.1,0.1-0.2,0.3-0.4,0.5c-0.1,0.2-0.2,0.3-0.3,0.5
		s-0.1,0.3-0.1,0.4s0,0.3,0,0.4s0,0.3,0,0.5v0.9c0,0.4,0.1,0.7,0.2,1s0.3,0.6,0.5,0.8c0.2,0.2,0.4,0.4,0.7,0.5s0.6,0.2,0.9,0.2
		c0.3,0,0.6,0,0.8-0.1c0.3-0.1,0.5-0.2,0.7-0.4c0.2-0.2,0.3-0.4,0.4-0.7c0.1-0.3,0.2-0.7,0.2-1.1L738.8,435L738.8,435z"/>
	<path class="st0" d="M732.6,426.9h6.2v-1.5h1.1v2.3h-7.7L732.6,426.9z"/>
	<path class="st0" d="M747.3,434.1c0-0.7-0.1-1.3-0.2-1.8s-0.3-0.9-0.5-1.2c-0.2-0.3-0.5-0.6-0.8-0.7c-0.3-0.2-0.7-0.2-1.1-0.2
		c-0.3,0-0.5,0-0.8,0.1s-0.5,0.2-0.7,0.4c-0.2,0.2-0.4,0.4-0.5,0.7c-0.1,0.3-0.2,0.6-0.3,1h-1.2c0-0.5,0.2-0.9,0.3-1.3
		c0.2-0.4,0.4-0.7,0.7-1s0.7-0.5,1.1-0.6s0.9-0.2,1.3-0.2c0.6,0,1.2,0.1,1.7,0.3c0.5,0.2,0.9,0.6,1.2,1s0.5,0.9,0.7,1.5
		s0.2,1.3,0.2,2c0,0.8-0.1,1.4-0.2,2s-0.4,1.1-0.7,1.6c-0.3,0.4-0.7,0.8-1.2,1s-1,0.4-1.7,0.4c-0.5,0-0.9-0.1-1.3-0.2
		s-0.8-0.4-1.1-0.6c-0.3-0.3-0.5-0.6-0.7-1s-0.3-0.8-0.3-1.3h1.2c0.1,0.4,0.1,0.7,0.3,1s0.3,0.5,0.5,0.7s0.4,0.3,0.7,0.4
		s0.5,0.1,0.8,0.1c0.4,0,0.7-0.1,1-0.2c0.3-0.2,0.6-0.4,0.8-0.7s0.4-0.8,0.5-1.3C747.3,435.4,747.3,434.8,747.3,434.1z"/>
	<path class="st0" d="M741.8,427.7l0.4-0.8h5.9v0.8H741.8z"/>
	<path class="st0" d="M751.4,438.9h-1.3v-5.8c0-0.3,0-0.6,0.1-0.8s0.1-0.5,0.2-0.8s0.2-0.5,0.3-0.7s0.3-0.4,0.5-0.6s0.4-0.3,0.7-0.5
		c0.3-0.1,0.6-0.2,0.9-0.3l1.4,1.3l1.3-1.3c0.5,0.1,1,0.3,1.3,0.5c0.4,0.2,0.6,0.5,0.8,0.9s0.3,0.7,0.4,1.1c0.1,0.4,0.1,0.8,0.1,1.3
		v5.8h-1.2v-6c0-0.3,0-0.6-0.1-0.8c0-0.3-0.1-0.5-0.2-0.7c-0.1-0.2-0.2-0.4-0.4-0.6s-0.4-0.3-0.6-0.4l-1.5,1.5c0,0,0,0-0.1,0
		l-1.6-1.5c-0.2,0.1-0.4,0.3-0.6,0.4c-0.2,0.2-0.3,0.4-0.4,0.6s-0.2,0.4-0.2,0.7c0,0.3-0.1,0.5-0.1,0.8v4.6l2.7-3.2H753v-0.8h2.3
		v0.8L751.4,438.9z"/>
	<path class="st0" d="M761.6,434.3h-1.2v-0.8h2.1l1.5,4.5c0.1-0.3,0.3-0.6,0.4-1c0.1-0.3,0.3-0.7,0.4-1c0.1-0.3,0.2-0.7,0.4-1
		c0.1-0.3,0.2-0.6,0.3-0.9s0.2-0.6,0.2-0.9c0.1-0.3,0.1-0.5,0.1-0.7c0-0.3,0-0.6-0.1-0.9s-0.2-0.5-0.4-0.7s-0.4-0.4-0.7-0.5
		s-0.7-0.2-1.1-0.2c-0.7,0-1.3,0.1-1.7,0.4s-0.6,0.7-0.7,1.3h-1.3c0-0.4,0.2-0.8,0.3-1.1c0.2-0.3,0.4-0.6,0.7-0.8s0.7-0.4,1.1-0.5
		s1-0.2,1.6-0.2s1.2,0.1,1.6,0.3s0.8,0.4,1,0.7c0.3,0.3,0.4,0.6,0.6,1c0.1,0.4,0.2,0.8,0.1,1.2c0,0.2,0,0.5-0.1,0.8s-0.1,0.6-0.3,1
		c-0.1,0.4-0.2,0.7-0.4,1.1c-0.1,0.4-0.3,0.8-0.4,1.2c-0.2,0.4-0.3,0.8-0.5,1.2c-0.2,0.4-0.3,0.8-0.5,1.2h-1.5L761.6,434.3z"/>
	<path class="st0" d="M769.3,436.2c0.1,0.6,0.3,1.1,0.7,1.4s1,0.5,1.7,0.5c0.2,0,0.5,0,0.7-0.1c0.3-0.1,0.5-0.1,0.7-0.3
		s0.4-0.3,0.5-0.6s0.2-0.5,0.2-0.9c0-0.2,0-0.4-0.1-0.6s-0.2-0.3-0.4-0.5c-0.2-0.1-0.4-0.3-0.7-0.4s-0.6-0.3-1-0.5
		c-0.3-0.1-0.6-0.2-0.8-0.3c-0.3-0.1-0.5-0.2-0.7-0.3s-0.4-0.2-0.6-0.4c-0.2-0.1-0.4-0.3-0.5-0.4c-0.1-0.2-0.2-0.4-0.3-0.6
		s-0.1-0.4-0.1-0.7c0-0.3,0-0.5,0.1-0.8c0.1-0.2,0.2-0.4,0.3-0.6s0.3-0.3,0.5-0.5c0.2-0.1,0.4-0.2,0.6-0.3c0.2-0.1,0.5-0.1,0.7-0.2
		c0.2,0,0.5-0.1,0.7-0.1c0.5,0,0.9,0,1.3,0.1c0.4,0.1,0.7,0.2,1,0.5c0.3,0.2,0.5,0.5,0.7,0.8s0.3,0.7,0.4,1.2h-1.2
		c-0.1-0.6-0.3-1-0.7-1.3s-0.8-0.4-1.4-0.4c-0.2,0-0.5,0-0.7,0.1s-0.4,0.1-0.6,0.3c-0.2,0.1-0.3,0.3-0.5,0.5
		c-0.1,0.2-0.2,0.4-0.2,0.7c0,0.3,0.1,0.5,0.2,0.6s0.3,0.3,0.5,0.5c0.2,0.1,0.5,0.3,0.8,0.4s0.6,0.3,1,0.4c0.6,0.2,1.1,0.4,1.5,0.6
		s0.7,0.4,0.9,0.6s0.4,0.5,0.5,0.7s0.1,0.5,0.1,0.8c0,0.5-0.1,0.9-0.3,1.2c-0.2,0.3-0.4,0.6-0.7,0.8s-0.7,0.4-1.1,0.5
		c-0.4,0.1-0.9,0.1-1.3,0.1c-0.5,0-0.9-0.1-1.3-0.2c-0.4-0.1-0.8-0.3-1.1-0.5s-0.6-0.5-0.8-0.9s-0.3-0.8-0.3-1.3h1.1L769.3,436.2
		L769.3,436.2z"/>
	<path class="st0" d="M768.4,427.7l0.4-0.8h5.9v0.8H768.4z"/>
	<path class="st0" d="M778.5,437.5c0.1,0.2,0.2,0.4,0.4,0.5s0.4,0.2,0.6,0.2c0.2,0,0.3,0,0.4-0.1c0.1-0.1,0.2-0.1,0.3-0.2
		s0.1-0.2,0.2-0.3c0-0.1,0.1-0.2,0.1-0.4v-7h-1.4v-0.8h2.5v7.5c0,0.4-0.1,0.7-0.2,1c-0.1,0.3-0.3,0.5-0.4,0.7
		c-0.2,0.2-0.4,0.3-0.7,0.4s-0.5,0.1-0.9,0.1c-0.3,0-0.6,0-0.8-0.1s-0.4-0.2-0.6-0.3c-0.2-0.1-0.3-0.3-0.4-0.5
		c-0.1-0.2-0.2-0.4-0.3-0.7l-1.4-4h1.2L778.5,437.5z"/>
</g>
<g>
	<path class="st2" d="M706.5,213.7v-9.5h1.1v9.5H706.5z"/>
	<path class="st2" d="M710.7,211.1c0.1,0.6,0.3,1.1,0.7,1.4c0.4,0.3,1,0.5,1.7,0.5c0.2,0,0.5,0,0.7-0.1c0.3-0.1,0.5-0.1,0.7-0.3
		s0.4-0.3,0.5-0.6s0.2-0.5,0.2-0.9c0-0.2,0-0.4-0.1-0.6c-0.1-0.2-0.2-0.3-0.4-0.5c-0.2-0.1-0.4-0.3-0.7-0.4s-0.6-0.3-1-0.5
		c-0.3-0.1-0.6-0.2-0.8-0.3c-0.3-0.1-0.5-0.2-0.7-0.3s-0.4-0.2-0.6-0.4c-0.2-0.1-0.4-0.3-0.5-0.4c-0.1-0.2-0.2-0.4-0.3-0.6
		s-0.1-0.4-0.1-0.7s0-0.5,0.1-0.8c0.1-0.2,0.2-0.4,0.3-0.6c0.1-0.2,0.3-0.3,0.5-0.5c0.2-0.1,0.4-0.2,0.6-0.3
		c0.2-0.1,0.5-0.1,0.7-0.2c0.2,0,0.5-0.1,0.7-0.1c0.5,0,0.9,0,1.3,0.1c0.4,0.1,0.7,0.2,1,0.5c0.3,0.2,0.5,0.5,0.7,0.8
		s0.3,0.7,0.4,1.2H715c-0.1-0.6-0.3-1-0.7-1.3s-0.8-0.4-1.4-0.4c-0.2,0-0.5,0-0.7,0.1s-0.4,0.1-0.6,0.3c-0.2,0.1-0.3,0.3-0.5,0.5
		c-0.1,0.2-0.2,0.4-0.2,0.7s0.1,0.5,0.2,0.6s0.3,0.3,0.5,0.5c0.2,0.1,0.5,0.3,0.8,0.4c0.3,0.1,0.6,0.3,1,0.4
		c0.6,0.2,1.1,0.4,1.5,0.6c0.4,0.2,0.7,0.4,0.9,0.6c0.2,0.2,0.4,0.5,0.5,0.7s0.1,0.5,0.1,0.8c0,0.5-0.1,0.9-0.3,1.2
		s-0.4,0.6-0.7,0.8s-0.7,0.4-1.1,0.5c-0.4,0.1-0.9,0.1-1.3,0.1c-0.5,0-0.9-0.1-1.3-0.2c-0.4-0.1-0.8-0.3-1.1-0.5s-0.6-0.5-0.8-0.9
		s-0.3-0.8-0.3-1.3h1.2L710.7,211.1L710.7,211.1z"/>
	<path class="st2" d="M710.1,201.7h4.8v-1.5h1.1v2.3h-6.3L710.1,201.7z"/>
	<path class="st2" d="M717.8,206.4c0-0.3,0-0.5,0.1-0.7s0.2-0.4,0.3-0.6c0.1-0.2,0.3-0.3,0.4-0.4c0.2-0.1,0.3-0.2,0.5-0.2
		c0.2-0.1,0.4-0.1,0.6-0.1c0.2,0,0.4,0,0.5,0h1.1v0.9h-0.6c-0.1,0-0.2,0-0.3,0s-0.2,0-0.4,0c-0.1,0-0.2,0.1-0.4,0.1
		s-0.2,0.1-0.3,0.2c-0.1,0.1-0.2,0.2-0.2,0.4c-0.1,0.1-0.1,0.3-0.1,0.5c0,0.3,0,0.5,0.1,0.7s0.2,0.4,0.4,0.5s0.3,0.2,0.6,0.3
		c0.2,0.1,0.4,0.1,0.7,0.1h0.6v0.9h-0.6c-0.3,0-0.5,0.1-0.7,0.1c-0.2,0.1-0.4,0.2-0.5,0.4s-0.3,0.3-0.4,0.6
		c-0.1,0.2-0.1,0.5-0.1,0.8c0,0.4,0.1,0.7,0.2,1s0.3,0.5,0.6,0.7c0.2,0.2,0.5,0.3,0.8,0.4c0.3,0.1,0.6,0.1,1,0.1s0.8-0.1,1.1-0.2
		c0.3-0.1,0.6-0.3,0.8-0.5s0.4-0.5,0.5-0.9s0.2-0.8,0.2-1.3v-5.9h1.1v6.2c0,0.6-0.1,1.1-0.3,1.5s-0.5,0.8-0.8,1.1s-0.7,0.5-1.2,0.7
		c-0.5,0.1-1,0.2-1.5,0.2c-0.3,0-0.6,0-1-0.1s-0.6-0.1-0.9-0.2c-0.3-0.1-0.6-0.3-0.8-0.4c-0.2-0.2-0.5-0.4-0.6-0.6
		c-0.2-0.2-0.3-0.5-0.4-0.8c-0.1-0.3-0.1-0.6-0.1-1c0-0.3,0-0.5,0.1-0.7c0-0.2,0.1-0.5,0.2-0.7c0.1-0.2,0.3-0.4,0.5-0.5
		s0.5-0.3,0.8-0.4c-0.4-0.1-0.7-0.3-0.9-0.4c-0.2-0.2-0.4-0.4-0.5-0.6s-0.2-0.4-0.2-0.6S717.8,206.5,717.8,206.4z"/>
	<path class="st2" d="M734.1,213.7v-1.5c-0.2,0.4-0.5,0.7-0.7,0.9s-0.5,0.4-0.8,0.5s-0.6,0.2-0.9,0.3c-0.3,0-0.6,0.1-1,0.1
		c-0.6,0-1.1-0.1-1.5-0.2c-0.4-0.2-0.7-0.4-1-0.7s-0.4-0.7-0.6-1.1c-0.1-0.4-0.2-0.9-0.2-1.4v-6.2h1.2v6.2c0,0.8,0.2,1.4,0.5,1.8
		c0.4,0.4,0.9,0.6,1.7,0.6c0.5,0,1-0.1,1.4-0.3s0.7-0.4,1-0.7s0.5-0.6,0.6-1s0.2-0.8,0.2-1.3v-5.4h1.2v9.5h-1.1L734.1,213.7
		L734.1,213.7z"/>
	<path class="st2" d="M737.9,211.1c0.1,0.6,0.3,1.1,0.7,1.4c0.4,0.3,1,0.5,1.7,0.5c0.2,0,0.5,0,0.7-0.1c0.3-0.1,0.5-0.1,0.7-0.3
		s0.4-0.3,0.5-0.6s0.2-0.5,0.2-0.9c0-0.2,0-0.4-0.1-0.6c-0.1-0.2-0.2-0.3-0.4-0.5c-0.2-0.1-0.4-0.3-0.7-0.4s-0.6-0.3-1-0.5
		c-0.3-0.1-0.6-0.2-0.8-0.3c-0.3-0.1-0.5-0.2-0.7-0.3s-0.4-0.2-0.6-0.4c-0.2-0.1-0.4-0.3-0.5-0.4c-0.1-0.2-0.2-0.4-0.3-0.6
		s-0.1-0.4-0.1-0.7s0-0.5,0.1-0.8c0.1-0.2,0.2-0.4,0.3-0.6c0.1-0.2,0.3-0.3,0.5-0.5c0.2-0.1,0.4-0.2,0.6-0.3
		c0.2-0.1,0.5-0.1,0.7-0.2c0.2,0,0.5-0.1,0.7-0.1c0.5,0,0.9,0,1.3,0.1c0.4,0.1,0.7,0.2,1,0.5c0.3,0.2,0.5,0.5,0.7,0.8
		s0.3,0.7,0.4,1.2h-1.2c-0.1-0.6-0.3-1-0.7-1.3s-0.8-0.4-1.4-0.4c-0.2,0-0.5,0-0.7,0.1s-0.4,0.1-0.6,0.3c-0.2,0.1-0.3,0.3-0.5,0.5
		c-0.1,0.2-0.2,0.4-0.2,0.7s0.1,0.5,0.2,0.6s0.3,0.3,0.5,0.5c0.2,0.1,0.5,0.3,0.8,0.4c0.3,0.1,0.6,0.3,1,0.4
		c0.6,0.2,1.1,0.4,1.5,0.6c0.4,0.2,0.7,0.4,0.9,0.6c0.2,0.2,0.4,0.5,0.5,0.7s0.1,0.5,0.1,0.8c0,0.5-0.1,0.9-0.3,1.2
		s-0.4,0.6-0.7,0.8s-0.7,0.4-1.1,0.5c-0.4,0.1-0.9,0.1-1.3,0.1c-0.5,0-0.9-0.1-1.3-0.2c-0.4-0.1-0.8-0.3-1.1-0.5s-0.6-0.5-0.8-0.9
		s-0.3-0.8-0.3-1.3h1.1L737.9,211.1L737.9,211.1z"/>
	<path class="st2" d="M737.7,215h2v1c0,0.5,0.1,0.8,0.3,1s0.5,0.3,0.9,0.3s0.7-0.1,0.9-0.3s0.3-0.6,0.3-1v-1h1.1v1
		c0,0.3,0,0.6-0.1,0.8c-0.1,0.3-0.2,0.5-0.4,0.7s-0.4,0.3-0.7,0.5s-0.7,0.2-1.1,0.2c-0.4,0-0.8,0-1.1-0.1s-0.5-0.2-0.7-0.4
		s-0.3-0.4-0.4-0.7c-0.1-0.3-0.1-0.6-0.1-1h-0.9V215z"/>
	<path class="st2" d="M740,202.5V201h-0.8v-0.8h1.7v1.4c0.4,0,0.8,0,1.1-0.1s0.5-0.2,0.7-0.3s0.3-0.3,0.4-0.5
		c0.1-0.2,0.2-0.3,0.2-0.5h1.1c0,0.1-0.1,0.3-0.1,0.4c-0.1,0.2-0.2,0.3-0.3,0.5s-0.3,0.3-0.5,0.5s-0.4,0.3-0.6,0.4s-0.5,0.2-0.8,0.3
		s-0.7,0.1-1,0.1H740V202.5z"/>
	<path class="st2" d="M745.3,204.3h2.4v0.8h-1.3v5.9c0,0.4,0,0.7,0.1,1s0.1,0.5,0.2,0.6s0.2,0.3,0.4,0.3c0.2,0.1,0.3,0.1,0.5,0.1
		c0.3,0,0.5-0.1,0.6-0.2c0.2-0.1,0.3-0.3,0.4-0.5c0.1-0.2,0.2-0.5,0.2-0.8s0.1-0.6,0.1-1V209h1.2v1.5c0,0.4,0,0.7,0.1,1
		c0,0.3,0.1,0.6,0.2,0.8c0.1,0.2,0.2,0.4,0.4,0.5s0.4,0.2,0.6,0.2c0.2,0,0.4,0,0.5-0.1s0.3-0.2,0.4-0.3c0.1-0.2,0.2-0.4,0.2-0.6
		s0.1-0.6,0.1-1v-6.7h1.2v6.9c0,0.5-0.1,0.9-0.2,1.2c-0.1,0.3-0.2,0.6-0.4,0.8s-0.4,0.4-0.7,0.5s-0.5,0.2-0.8,0.2
		c-0.2,0-0.4,0-0.6,0c-0.2,0-0.4-0.1-0.6-0.2c-0.2-0.1-0.4-0.2-0.5-0.4c-0.2-0.2-0.3-0.4-0.5-0.8c-0.1,0.3-0.2,0.6-0.4,0.8
		s-0.3,0.3-0.5,0.4c-0.2,0.1-0.4,0.2-0.6,0.2s-0.4,0-0.6,0c-0.3,0-0.6-0.1-0.8-0.2c-0.3-0.1-0.5-0.3-0.7-0.5s-0.3-0.5-0.4-0.8
		c-0.1-0.3-0.2-0.7-0.2-1.2L745.3,204.3L745.3,204.3z"/>
	<path class="st2" d="M752.6,199.9h1.1v2.6h-1.1V199.9z"/>
	<path class="st2" d="M755.1,206.7c0-0.4,0.1-0.8,0.3-1.1s0.4-0.6,0.7-0.8s0.7-0.4,1-0.5c0.4-0.1,0.8-0.2,1.2-0.2
		c0.5,0,0.9,0.1,1.3,0.2s0.7,0.3,1,0.6s0.5,0.6,0.7,1s0.2,0.8,0.2,1.4v6.6h-1.2v-6.2c0-0.4,0-0.8-0.1-1.1s-0.2-0.6-0.4-0.8
		s-0.4-0.4-0.6-0.5c-0.3-0.1-0.5-0.1-0.9-0.1c-0.3,0-0.5,0-0.8,0.1c-0.2,0.1-0.4,0.2-0.6,0.3c-0.2,0.1-0.3,0.3-0.4,0.5
		c-0.1,0.2-0.2,0.5-0.2,0.7L755.1,206.7L755.1,206.7z"/>
	<path class="st2" d="M770.2,213.7v-1.5c-0.2,0.4-0.5,0.7-0.7,0.9s-0.5,0.4-0.8,0.5s-0.6,0.2-0.9,0.3c-0.3,0-0.6,0.1-1,0.1
		c-0.6,0-1.1-0.1-1.5-0.2c-0.4-0.2-0.7-0.4-1-0.7s-0.4-0.7-0.6-1.1c-0.1-0.4-0.2-0.9-0.2-1.4v-6.2h1.2v6.2c0,0.8,0.2,1.4,0.5,1.8
		c0.4,0.4,0.9,0.6,1.7,0.6c0.5,0,1-0.1,1.4-0.3s0.7-0.4,1-0.7s0.5-0.6,0.6-1s0.2-0.8,0.2-1.3v-5.4h1.2v9.5h-1.1L770.2,213.7
		L770.2,213.7z"/>
	<path class="st2" d="M777,205c-0.3,0-0.6,0-0.9,0.1c-0.3,0.1-0.5,0.1-0.7,0.3c-0.2,0.1-0.4,0.2-0.6,0.4c-0.2,0.1-0.3,0.3-0.4,0.4
		c-0.1,0.1-0.2,0.3-0.3,0.4c-0.1,0.1-0.1,0.3-0.1,0.4c0.3,0.2,0.4,0.4,0.6,0.7c0.1,0.3,0.2,0.7,0.2,1.1v5h-1.2v-5.1
		c0-0.2,0-0.3,0-0.5s0-0.3-0.1-0.5s-0.1-0.3-0.2-0.4s-0.2-0.2-0.4-0.3c0.1-0.4,0.2-0.7,0.4-1.1c0.2-0.3,0.5-0.7,0.8-0.9
		c0.3-0.3,0.8-0.5,1.2-0.7c0.5-0.2,1.1-0.3,1.7-0.3c0.5,0,1,0.1,1.4,0.2s0.8,0.2,1.1,0.4s0.6,0.4,0.8,0.6c0.2,0.2,0.4,0.5,0.5,0.8
		s0.2,0.6,0.3,0.9s0.1,0.7,0.1,1v5.7H780v-5.9c0-0.2,0-0.5-0.1-0.7c0-0.2-0.1-0.4-0.2-0.7s-0.2-0.4-0.3-0.6s-0.3-0.3-0.5-0.5
		c-0.2-0.1-0.5-0.2-0.8-0.3C777.8,205,777.4,205,777,205z"/>
	<path class="st2" d="M782.5,206.7c0-0.4,0.1-0.8,0.3-1.1s0.4-0.6,0.7-0.8s0.7-0.4,1-0.5c0.4-0.1,0.8-0.2,1.2-0.2
		c0.5,0,0.9,0.1,1.3,0.2s0.7,0.3,1,0.6s0.5,0.6,0.7,1s0.2,0.8,0.2,1.4v6.6h-1.2v-6.2c0-0.4,0-0.8-0.1-1.1s-0.2-0.6-0.4-0.8
		s-0.4-0.4-0.6-0.5c-0.3-0.1-0.5-0.1-0.9-0.1c-0.3,0-0.5,0-0.8,0.1c-0.2,0.1-0.4,0.2-0.6,0.3c-0.2,0.1-0.3,0.3-0.4,0.5
		c-0.1,0.2-0.2,0.5-0.2,0.7L782.5,206.7L782.5,206.7z"/>
	<path class="st2" d="M791.7,211.1c0.1,0.6,0.3,1.1,0.7,1.4c0.4,0.3,1,0.5,1.7,0.5c0.2,0,0.5,0,0.7-0.1c0.3-0.1,0.5-0.1,0.7-0.3
		s0.4-0.3,0.5-0.6s0.2-0.5,0.2-0.9c0-0.2,0-0.4-0.1-0.6c-0.1-0.2-0.2-0.3-0.4-0.5c-0.2-0.1-0.4-0.3-0.7-0.4s-0.6-0.3-1-0.5
		c-0.3-0.1-0.6-0.2-0.8-0.3c-0.3-0.1-0.5-0.2-0.7-0.3s-0.4-0.2-0.6-0.4c-0.2-0.1-0.4-0.3-0.5-0.4c-0.1-0.2-0.2-0.4-0.3-0.6
		s-0.1-0.4-0.1-0.7s0-0.5,0.1-0.8c0.1-0.2,0.2-0.4,0.3-0.6c0.1-0.2,0.3-0.3,0.5-0.5c0.2-0.1,0.4-0.2,0.6-0.3
		c0.2-0.1,0.5-0.1,0.7-0.2c0.2,0,0.5-0.1,0.7-0.1c0.5,0,0.9,0,1.3,0.1c0.4,0.1,0.7,0.2,1,0.5c0.3,0.2,0.5,0.5,0.7,0.8
		s0.3,0.7,0.4,1.2H796c-0.1-0.6-0.3-1-0.7-1.3s-0.8-0.4-1.4-0.4c-0.2,0-0.5,0-0.7,0.1s-0.4,0.1-0.6,0.3c-0.2,0.1-0.3,0.3-0.5,0.5
		c-0.1,0.2-0.2,0.4-0.2,0.7s0.1,0.5,0.2,0.6s0.3,0.3,0.5,0.5c0.2,0.1,0.5,0.3,0.8,0.4c0.3,0.1,0.6,0.3,1,0.4
		c0.6,0.2,1.1,0.4,1.5,0.6c0.4,0.2,0.7,0.4,0.9,0.6c0.2,0.2,0.4,0.5,0.5,0.7s0.1,0.5,0.1,0.8c0,0.5-0.1,0.9-0.3,1.2
		s-0.4,0.6-0.7,0.8s-0.7,0.4-1.1,0.5c-0.4,0.1-0.9,0.1-1.3,0.1c-0.5,0-0.9-0.1-1.3-0.2c-0.4-0.1-0.8-0.3-1.1-0.5s-0.6-0.5-0.8-0.9
		s-0.3-0.8-0.3-1.3h1.2L791.7,211.1L791.7,211.1z"/>
	<path class="st2" d="M805.2,208.6c-0.1,0.1-0.2,0.2-0.4,0.3s-0.4,0.2-0.6,0.2c-0.2,0.1-0.4,0.1-0.7,0.2c-0.2,0-0.4,0.1-0.6,0.1
		c-0.2,0-0.4,0.1-0.7,0.1c-0.2,0-0.5,0.1-0.7,0.1c-0.2,0.1-0.4,0.1-0.7,0.2c-0.2,0.1-0.4,0.2-0.5,0.3s-0.3,0.3-0.4,0.5
		c-0.1,0.2-0.1,0.4-0.1,0.7c0,0.4,0.1,0.6,0.2,0.9s0.3,0.4,0.5,0.6c0.2,0.1,0.5,0.2,0.7,0.3s0.5,0.1,0.8,0.1c0.1,0,0.2,0,0.4,0
		s0.3,0,0.4,0v0.8c-0.2,0-0.4,0.1-0.6,0.1c-0.2,0-0.4,0-0.6,0c-0.4,0-0.8,0-1.2-0.1s-0.7-0.2-1-0.4s-0.5-0.5-0.7-0.8
		s-0.2-0.7-0.2-1.2c0-0.3,0-0.6,0.1-0.9c0.1-0.3,0.2-0.5,0.4-0.7s0.3-0.4,0.5-0.5s0.4-0.3,0.7-0.3c0.2-0.1,0.5-0.2,0.7-0.2
		s0.5-0.1,0.8-0.1c0.6-0.1,1.1-0.2,1.5-0.2c0.4-0.1,0.8-0.2,1.1-0.3s0.5-0.3,0.6-0.5s0.2-0.4,0.2-0.8c0-0.3,0-0.5-0.1-0.7
		s-0.2-0.4-0.3-0.5s-0.2-0.3-0.4-0.3c-0.2-0.1-0.3-0.2-0.5-0.2s-0.4-0.1-0.6-0.1c-0.2,0-0.4,0-0.6,0c-0.4,0-0.7,0-1,0.1
		s-0.6,0.2-0.8,0.3s-0.4,0.3-0.6,0.6s-0.2,0.6-0.3,1H799c0-0.5,0.2-1,0.4-1.3s0.5-0.7,0.9-0.9s0.8-0.4,1.2-0.5
		c0.5-0.1,0.9-0.1,1.5-0.1c0.3,0,0.6,0,0.8,0c0.3,0,0.5,0.1,0.8,0.2s0.5,0.2,0.7,0.3s0.4,0.3,0.6,0.5s0.3,0.4,0.4,0.7
		c0.1,0.3,0.1,0.6,0.1,0.9v7h-1.2V208.6z"/>
	<path class="st2" d="M810.3,212.4c0.1,0.2,0.2,0.4,0.4,0.5s0.4,0.2,0.6,0.2c0.2,0,0.3,0,0.4-0.1c0.1-0.1,0.2-0.1,0.3-0.2
		c0.1-0.1,0.1-0.2,0.2-0.3c0-0.1,0.1-0.2,0.1-0.4v-7h-1.4v-0.8h2.5v7.5c0,0.4-0.1,0.7-0.2,1c-0.1,0.3-0.3,0.5-0.4,0.7
		c-0.2,0.2-0.4,0.3-0.7,0.4c-0.3,0.1-0.5,0.1-0.9,0.1c-0.3,0-0.6,0-0.8-0.1s-0.4-0.2-0.6-0.3c-0.2-0.1-0.3-0.3-0.4-0.5
		c-0.1-0.2-0.2-0.4-0.3-0.7l-1.4-4h1.2L810.3,212.4z"/>
	<path class="st2" d="M815.4,213.7v-9.5h1.2v5.4c0,0.5,0.1,0.9,0.2,1.3s0.3,0.8,0.6,1c0.3,0.3,0.6,0.5,1,0.7s0.9,0.3,1.4,0.3
		c0.8,0,1.3-0.2,1.7-0.6c0.4-0.4,0.6-1,0.6-1.8v-6.2h1.2v6.2c0,0.5-0.1,1-0.2,1.4c-0.1,0.4-0.3,0.8-0.6,1.1s-0.6,0.5-1,0.7
		s-0.9,0.2-1.5,0.2c-0.3,0-0.7,0-1-0.1c-0.3,0-0.6-0.1-0.9-0.3c-0.3-0.1-0.6-0.3-0.8-0.5c-0.3-0.2-0.5-0.5-0.7-0.9v1.5h-1.2V213.7z"
		/>
	<path class="st2" d="M815.9,201.7h3.8v-1.5h1v1.5h1.4v-1.5h1v2.3h-7.7L815.9,201.7z"/>
	<path class="st2" d="M824.9,206.9c0.1-0.4,0.3-0.8,0.5-1.2s0.5-0.7,0.8-0.9s0.7-0.5,1.1-0.6c0.4-0.1,0.9-0.2,1.5-0.2
		c0.8,0,1.4,0.1,1.9,0.4c0.5,0.2,0.9,0.6,1.3,1s0.6,1,0.7,1.6c0.1,0.6,0.2,1.3,0.2,2c0,0.4,0,0.9-0.1,1.3c-0.1,0.4-0.2,0.8-0.3,1.2
		s-0.3,0.7-0.5,1s-0.5,0.6-0.8,0.8s-0.7,0.4-1,0.5c-0.4,0.1-0.8,0.2-1.3,0.2s-0.9-0.1-1.3-0.2c-0.4-0.1-0.7-0.3-1-0.5
		s-0.6-0.5-0.8-0.8s-0.4-0.6-0.5-1s-0.2-0.8-0.3-1.2s-0.1-0.9-0.1-1.3v-0.3h3.8v0.8H826c0,0.5,0.1,1,0.2,1.5
		c0.1,0.4,0.3,0.8,0.6,1.1s0.6,0.6,0.9,0.7c0.3,0.2,0.7,0.3,1.2,0.3c0.4,0,0.8-0.1,1.2-0.3s0.7-0.4,0.9-0.8c0.2-0.3,0.4-0.8,0.6-1.3
		c0.1-0.5,0.2-1.1,0.2-1.7c0-2.7-1-4-2.9-4c-0.3,0-0.7,0-1,0.1s-0.6,0.2-0.8,0.4s-0.4,0.4-0.6,0.6c-0.2,0.2-0.3,0.5-0.4,0.8
		L824.9,206.9L824.9,206.9z"/>
	<path class="st2" d="M835.8,204.3v1.5c0.2-0.4,0.5-0.7,0.7-0.9c0.3-0.2,0.5-0.4,0.8-0.5s0.6-0.2,0.9-0.3c0.3,0,0.6-0.1,1-0.1
		c0.6,0,1.1,0.1,1.5,0.2c0.4,0.2,0.7,0.4,1,0.7s0.4,0.7,0.6,1.1c0.1,0.4,0.2,0.9,0.2,1.4v6.2h-1.2v-6.2c0-0.8-0.2-1.4-0.6-1.8
		c-0.4-0.4-0.9-0.6-1.7-0.6c-0.5,0-1,0.1-1.4,0.3s-0.7,0.4-1,0.7s-0.5,0.6-0.6,1s-0.2,0.8-0.2,1.3v5.4h-1.2v-9.5h1.2V204.3z"/>
	<path class="st2" d="M839.5,201.1c0-0.2,0-0.4,0.1-0.6s0.2-0.3,0.3-0.5c0.1-0.1,0.3-0.2,0.5-0.3s0.4-0.1,0.6-0.1
		c0.2,0,0.4,0,0.6,0.1c0.2,0.1,0.3,0.2,0.5,0.3c0.1,0.1,0.2,0.3,0.3,0.5s0.1,0.4,0.1,0.6c0,0.2,0,0.4-0.1,0.6s-0.2,0.3-0.3,0.5
		c-0.1,0.1-0.3,0.2-0.5,0.3s-0.4,0.1-0.6,0.1c-0.2,0-0.4,0-0.6-0.1c-0.2-0.1-0.3-0.2-0.5-0.3c-0.1-0.1-0.2-0.3-0.3-0.5
		S839.5,201.3,839.5,201.1z M840.3,201.1c0,0.1,0,0.2,0.1,0.3s0.1,0.2,0.1,0.2s0.1,0.1,0.2,0.1c0.1,0,0.2,0.1,0.3,0.1s0.2,0,0.3-0.1
		c0.1,0,0.2-0.1,0.2-0.1s0.1-0.1,0.1-0.2s0.1-0.2,0.1-0.3s0-0.2-0.1-0.3c0-0.1-0.1-0.2-0.1-0.2c-0.1-0.1-0.1-0.1-0.2-0.1
		c-0.1,0-0.2-0.1-0.3-0.1s-0.2,0-0.3,0.1c-0.1,0-0.2,0.1-0.2,0.1c-0.1,0.1-0.1,0.1-0.1,0.2C840.3,200.9,840.3,201,840.3,201.1z
		 M843.8,206.7c0-0.4,0.1-0.8,0.3-1.1s0.4-0.6,0.7-0.8s0.7-0.4,1-0.5c0.4-0.1,0.8-0.2,1.2-0.2c0.5,0,0.9,0.1,1.3,0.2s0.7,0.3,1,0.6
		s0.5,0.6,0.7,1s0.2,0.8,0.2,1.4v6.6H849v-6.2c0-0.4,0-0.8-0.1-1.1s-0.2-0.6-0.4-0.8s-0.4-0.4-0.6-0.5c-0.3-0.1-0.5-0.1-0.9-0.1
		c-0.3,0-0.5,0-0.8,0.1c-0.2,0.1-0.4,0.2-0.6,0.3c-0.2,0.1-0.3,0.3-0.4,0.5c-0.1,0.2-0.2,0.5-0.2,0.7L843.8,206.7L843.8,206.7z"/>
</g>
<g>
	<path class="st2" d="M23.4,179.5V170h1.2v5.4c0,0.5,0.1,0.9,0.2,1.3s0.3,0.8,0.6,1c0.3,0.3,0.6,0.5,1,0.7s0.9,0.3,1.4,0.3
		c0.8,0,1.3-0.2,1.7-0.6c0.4-0.4,0.6-1,0.6-1.8V170h1.2v6.2c0,0.5-0.1,1-0.2,1.4s-0.3,0.8-0.6,1.1s-0.6,0.5-1,0.7s-0.9,0.2-1.5,0.2
		c-0.3,0-0.7,0-1-0.1c-0.3,0-0.6-0.1-0.9-0.3c-0.3-0.1-0.6-0.3-0.8-0.5c-0.3-0.2-0.5-0.5-0.7-0.9v1.5h-1.2
		C23.4,179.3,23.4,179.5,23.4,179.5z"/>
	<path class="st2" d="M30.1,183.8v-2.3h-0.8v-0.8h1.9v3.1H30.1z"/>
	<path class="st2" d="M30.1,165.6h1.1v2.6h-1.1V165.6z"/>
	<path class="st2" d="M35.1,178.1c0.1,0.2,0.2,0.4,0.4,0.5s0.4,0.2,0.6,0.2c0.2,0,0.3,0,0.4-0.1c0.1-0.1,0.2-0.1,0.3-0.2
		c0.1-0.1,0.1-0.2,0.2-0.3c0-0.1,0.1-0.2,0.1-0.4v-7h-1.4V170h2.5v7.5c0,0.4-0.1,0.7-0.2,1c-0.1,0.3-0.3,0.5-0.4,0.7
		c-0.2,0.2-0.4,0.3-0.7,0.4c-0.3,0.1-0.5,0.1-0.9,0.1c-0.3,0-0.6,0-0.8-0.1s-0.4-0.2-0.6-0.3c-0.2-0.1-0.3-0.3-0.4-0.5
		c-0.1-0.2-0.2-0.4-0.3-0.7l-1.4-4h1.2L35.1,178.1z"/>
	<path class="st2" d="M40.6,179.5V170h1.1v9.5H40.6z"/>
	<path class="st2" d="M50.7,179.5V178c-0.2,0.4-0.5,0.7-0.7,0.9s-0.5,0.4-0.8,0.5s-0.6,0.2-0.9,0.3c-0.3,0-0.6,0.1-1,0.1
		c-0.6,0-1.1-0.1-1.5-0.2c-0.4-0.2-0.7-0.4-1-0.7s-0.4-0.7-0.6-1.1c-0.1-0.4-0.2-0.9-0.2-1.4V170h1.2v6.2c0,0.8,0.2,1.4,0.5,1.8
		c0.4,0.4,0.9,0.6,1.7,0.6c0.5,0,1-0.1,1.4-0.3s0.7-0.4,1-0.7s0.5-0.6,0.6-1s0.2-0.8,0.2-1.3V170h1.2v9.5H50.7z"/>
	<path class="st2" d="M48.6,168.3v-1.5h-0.8V166h1.7v1.4c0.4,0,0.8,0,1.1-0.1s0.5-0.2,0.7-0.3s0.3-0.3,0.4-0.5
		c0.1-0.2,0.2-0.3,0.2-0.5H53c0,0.1-0.1,0.3-0.1,0.4c-0.1,0.2-0.2,0.3-0.3,0.5s-0.3,0.3-0.5,0.5s-0.4,0.3-0.6,0.4s-0.5,0.2-0.8,0.3
		s-0.7,0.1-1,0.1h-1.1C48.6,168.2,48.6,168.3,48.6,168.3z"/>
	<path class="st2" d="M60.5,179.5V178c-0.2,0.4-0.5,0.7-0.7,0.9s-0.5,0.4-0.8,0.5s-0.6,0.2-0.9,0.3c-0.3,0-0.6,0.1-1,0.1
		c-0.6,0-1.1-0.1-1.5-0.2c-0.4-0.2-0.7-0.4-1-0.7s-0.4-0.7-0.6-1.1c-0.1-0.4-0.2-0.9-0.2-1.4V170H55v6.2c0,0.8,0.2,1.4,0.5,1.8
		c0.4,0.4,0.9,0.6,1.7,0.6c0.5,0,1-0.1,1.4-0.3s0.7-0.4,1-0.7s0.5-0.6,0.6-1s0.2-0.8,0.2-1.3V170h1.2v9.5H60.5z"/>
	<path class="st2" d="M70.1,170.4c0.2,0.1,0.3,0.2,0.4,0.3s0.2,0.3,0.3,0.5c0.1,0.2,0.2,0.4,0.2,0.6c0,0.2,0.1,0.4,0.1,0.7v7h-1.2
		v-5.2c-0.1,0.1-0.2,0.2-0.4,0.3c-0.2,0.1-0.4,0.2-0.6,0.2c-0.2,0.1-0.4,0.1-0.7,0.2c-0.2,0-0.4,0.1-0.6,0.1s-0.4,0.1-0.7,0.1
		c-0.2,0-0.5,0.1-0.7,0.1c-0.2,0.1-0.4,0.1-0.7,0.2c-0.2,0.1-0.4,0.2-0.5,0.3s-0.3,0.3-0.4,0.5s-0.1,0.4-0.1,0.7
		c0,0.4,0.1,0.6,0.2,0.9s0.3,0.4,0.5,0.6c0.2,0.1,0.5,0.2,0.7,0.3s0.5,0.1,0.8,0.1c0.1,0,0.2,0,0.4,0s0.3,0,0.4,0v0.8
		c-0.2,0-0.4,0.1-0.6,0.1s-0.4,0-0.6,0c-0.4,0-0.8,0-1.2-0.1c-0.4-0.1-0.7-0.2-1-0.4c-0.3-0.2-0.5-0.5-0.7-0.8s-0.2-0.7-0.2-1.2
		c0-0.3,0-0.6,0.1-0.9c0.1-0.3,0.2-0.5,0.4-0.7s0.3-0.4,0.5-0.5s0.4-0.3,0.7-0.3c0.2-0.1,0.5-0.2,0.7-0.2s0.5-0.1,0.8-0.1
		c0.6-0.1,1.1-0.2,1.5-0.2c0.4-0.1,0.8-0.2,1.1-0.3c0.3-0.1,0.5-0.3,0.6-0.5s0.2-0.4,0.2-0.8c0-0.3,0-0.5-0.1-0.7s-0.2-0.4-0.3-0.5
		c-0.1-0.1-0.2-0.3-0.4-0.3c-0.2-0.1-0.3-0.2-0.5-0.2s-0.4-0.1-0.6-0.1s-0.4,0-0.6,0c-0.4,0-0.7,0-1,0.1s-0.6,0.2-0.8,0.3
		s-0.4,0.3-0.6,0.6s-0.2,0.6-0.3,1h-1.2c0-0.5,0.2-1,0.4-1.3s0.5-0.7,0.9-0.9s0.8-0.4,1.2-0.5c0.5-0.1,0.9-0.1,1.5-0.1
		c0.2,0,0.5,0,0.7,0s0.5,0.1,0.7,0.1s0.4,0,0.5-0.1c0.2-0.1,0.3-0.1,0.4-0.2c0.1-0.1,0.2-0.2,0.3-0.3c0.1-0.1,0.1-0.3,0.2-0.4h1.3
		c0,0.1-0.1,0.3-0.1,0.4c-0.1,0.1-0.2,0.3-0.3,0.4c-0.1,0.1-0.3,0.3-0.5,0.4C70.6,170.2,70.3,170.3,70.1,170.4z"/>
	<path class="st2" d="M73.8,176.8c0.1,0.6,0.3,1.1,0.7,1.4c0.4,0.3,1,0.5,1.7,0.5c0.2,0,0.5,0,0.7-0.1c0.3-0.1,0.5-0.1,0.7-0.3
		s0.4-0.3,0.5-0.6s0.2-0.5,0.2-0.9c0-0.2,0-0.4-0.1-0.6c-0.1-0.2-0.2-0.3-0.4-0.5c-0.2-0.1-0.4-0.3-0.7-0.4s-0.6-0.3-1-0.5
		c-0.3-0.1-0.6-0.2-0.8-0.3c-0.3-0.1-0.5-0.2-0.7-0.3s-0.4-0.2-0.6-0.4c-0.2-0.1-0.4-0.3-0.5-0.4c-0.1-0.2-0.2-0.4-0.3-0.6
		s-0.1-0.4-0.1-0.7s0-0.5,0.1-0.8c0.1-0.2,0.2-0.4,0.3-0.6c0.1-0.2,0.3-0.3,0.5-0.5c0.2-0.1,0.4-0.2,0.6-0.3s0.5-0.1,0.7-0.2
		c0.2,0,0.5-0.1,0.7-0.1c0.5,0,0.9,0,1.3,0.1s0.7,0.2,1,0.5c0.3,0.2,0.5,0.5,0.7,0.8s0.3,0.7,0.4,1.2h-1.2c-0.1-0.6-0.3-1-0.7-1.3
		c-0.4-0.3-0.8-0.4-1.4-0.4c-0.2,0-0.5,0-0.7,0.1s-0.4,0.1-0.6,0.3c-0.2,0.1-0.3,0.3-0.5,0.5c-0.1,0.2-0.2,0.4-0.2,0.7
		s0.1,0.5,0.2,0.6s0.3,0.3,0.5,0.5c0.2,0.1,0.5,0.3,0.8,0.4c0.3,0.1,0.6,0.3,1,0.4c0.6,0.2,1.1,0.4,1.5,0.6c0.4,0.2,0.7,0.4,0.9,0.6
		c0.2,0.2,0.4,0.5,0.5,0.7s0.1,0.5,0.1,0.8c0,0.5-0.1,0.9-0.3,1.2c-0.2,0.3-0.4,0.6-0.7,0.8s-0.7,0.4-1.1,0.5s-0.9,0.1-1.3,0.1
		c-0.5,0-0.9-0.1-1.3-0.2c-0.4-0.1-0.8-0.3-1.1-0.5s-0.6-0.5-0.8-0.9s-0.3-0.8-0.3-1.3h1.1L73.8,176.8L73.8,176.8z"/>
	<path class="st2" d="M75.9,168.3v-1.5h-0.8V166h1.7v1.4c0.4,0,0.8,0,1.1-0.1s0.5-0.2,0.7-0.3s0.3-0.3,0.4-0.5s0.2-0.3,0.2-0.5h1.1
		c0,0.1-0.1,0.3-0.1,0.4c-0.1,0.2-0.2,0.3-0.3,0.5c-0.1,0.2-0.3,0.3-0.5,0.5s-0.4,0.3-0.6,0.4s-0.5,0.2-0.8,0.3s-0.7,0.1-1,0.1h-1.1
		L75.9,168.3L75.9,168.3z"/>
	<path class="st2" d="M80.4,172.5c0-0.4,0.1-0.8,0.3-1.1c0.2-0.3,0.4-0.6,0.7-0.8c0.3-0.2,0.7-0.4,1-0.5c0.4-0.1,0.8-0.2,1.2-0.2
		c0.5,0,0.9,0.1,1.3,0.2s0.7,0.3,1,0.6s0.5,0.6,0.7,1s0.2,0.8,0.2,1.4v6.6h-1.2v-6.2c0-0.4,0-0.8-0.1-1.1s-0.2-0.6-0.4-0.8
		c-0.2-0.2-0.4-0.4-0.6-0.5c-0.3-0.1-0.5-0.1-0.9-0.1c-0.3,0-0.5,0-0.8,0.1c-0.2,0.1-0.4,0.2-0.6,0.3s-0.3,0.3-0.4,0.5
		s-0.2,0.5-0.2,0.7L80.4,172.5L80.4,172.5z"/>
	<path class="st2" d="M90.8,178.1c0.1,0.2,0.2,0.4,0.4,0.5c0.2,0.1,0.4,0.2,0.6,0.2s0.3,0,0.4-0.1s0.2-0.1,0.3-0.2
		c0.1-0.1,0.1-0.2,0.2-0.3c0-0.1,0.1-0.2,0.1-0.4v-7h-1.4V170h2.5v7.5c0,0.4-0.1,0.7-0.2,1s-0.3,0.5-0.4,0.7
		c-0.2,0.2-0.4,0.3-0.7,0.4c-0.3,0.1-0.5,0.1-0.9,0.1c-0.3,0-0.6,0-0.8-0.1s-0.4-0.2-0.6-0.3s-0.3-0.3-0.4-0.5s-0.2-0.4-0.3-0.7
		l-1.4-4h1.2L90.8,178.1z"/>
	<path class="st2" d="M99.9,178.8c0.4,0,0.7,0,0.9-0.1s0.5-0.2,0.7-0.3s0.4-0.3,0.5-0.5s0.2-0.4,0.3-0.6c0.1-0.2,0.1-0.4,0.2-0.7
		c0-0.2,0.1-0.5,0.1-0.7v-10h1.2v9.8c0,0.3,0,0.7-0.1,1c0,0.3-0.1,0.7-0.2,1s-0.3,0.6-0.5,0.8c-0.2,0.3-0.4,0.5-0.7,0.7
		c-0.3,0.2-0.6,0.3-1,0.4c-0.4,0.1-0.9,0.2-1.4,0.2s-1-0.1-1.4-0.2s-0.7-0.2-1-0.4s-0.5-0.4-0.7-0.7s-0.3-0.5-0.5-0.8
		s-0.2-0.6-0.2-1c0-0.3-0.1-0.7-0.1-1V170h1.2v5.8c0,0.2,0,0.5,0.1,0.7c0,0.2,0.1,0.5,0.2,0.7s0.2,0.4,0.3,0.6
		c0.1,0.2,0.3,0.4,0.5,0.5s0.4,0.3,0.7,0.3C99.2,178.7,99.5,178.8,99.9,178.8z"/>
	<path class="st2" d="M112.5,173.6c0-0.2,0-0.5-0.1-0.7c0-0.2-0.1-0.4-0.2-0.7c-0.1-0.2-0.2-0.4-0.3-0.6c-0.1-0.2-0.3-0.3-0.5-0.5
		c-0.2-0.1-0.5-0.2-0.8-0.3s-0.6-0.1-1-0.1c-0.5,0-0.9,0.1-1.3,0.2c-0.4,0.1-0.7,0.3-0.9,0.5c-0.2,0.2-0.4,0.4-0.6,0.6
		s-0.2,0.4-0.3,0.6c0.3,0.2,0.4,0.4,0.6,0.7c0.1,0.3,0.2,0.7,0.2,1.1v5h-2.2v-0.9h1v-4.2c0-0.2,0-0.3,0-0.5s0-0.3-0.1-0.5
		s-0.1-0.3-0.2-0.4s-0.2-0.2-0.4-0.3c0.1-0.4,0.2-0.7,0.4-1.1s0.5-0.7,0.8-0.9c0.3-0.3,0.8-0.5,1.2-0.7c0.5-0.2,1.1-0.3,1.7-0.3
		c0.5,0,1,0.1,1.4,0.2c0.4,0.1,0.8,0.2,1.1,0.4c0.3,0.2,0.6,0.4,0.8,0.6c0.2,0.2,0.4,0.5,0.5,0.8s0.2,0.6,0.3,0.9s0.1,0.7,0.1,1v8.8
		h-1.2c-0.1-0.2-0.1-0.3-0.2-0.4c-0.1-0.1-0.2-0.3-0.3-0.4c-0.1-0.1-0.2-0.2-0.4-0.2c-0.1-0.1-0.3-0.1-0.5-0.1s-0.4,0-0.5,0.1
		s-0.3,0.2-0.4,0.3s-0.2,0.2-0.2,0.4c-0.1,0.1-0.1,0.3-0.1,0.4h-1.1c0-0.1-0.1-0.3-0.2-0.4c-0.1-0.1-0.1-0.3-0.2-0.4
		c-0.1-0.1-0.2-0.2-0.3-0.3c-0.1-0.1-0.3-0.1-0.5-0.1c-0.1,0-0.3,0-0.4,0.1s-0.2,0.1-0.3,0.3c-0.1,0.1-0.2,0.2-0.2,0.4
		c-0.1,0.1-0.1,0.3-0.1,0.4h-1c0-0.3,0.1-0.6,0.2-0.8s0.3-0.4,0.4-0.6c0.2-0.2,0.4-0.3,0.6-0.4c0.2-0.1,0.5-0.1,0.7-0.1
		s0.3,0,0.5,0.1c0.2,0,0.3,0.1,0.5,0.2c0.2,0.1,0.3,0.2,0.4,0.4c0.1,0.1,0.2,0.3,0.3,0.5c0.1-0.2,0.2-0.4,0.4-0.6s0.3-0.3,0.4-0.4
		c0.2-0.1,0.3-0.1,0.5-0.2c0.2,0,0.3-0.1,0.5-0.1c0.3,0,0.6,0.1,0.8,0.2c0.2,0.1,0.5,0.3,0.7,0.6
		C112.5,181.2,112.5,173.6,112.5,173.6z"/>
	<path class="st2" d="M106,168.3l0.4-0.8h7.3v0.8H106z"/>
	<path class="st2" d="M122.1,170.4c0.2,0.1,0.3,0.2,0.4,0.3s0.2,0.3,0.3,0.5c0.1,0.2,0.2,0.4,0.2,0.6c0,0.2,0.1,0.4,0.1,0.7v7h-1.2
		v-5.2c-0.1,0.1-0.2,0.2-0.4,0.3c-0.2,0.1-0.4,0.2-0.6,0.2c-0.2,0.1-0.4,0.1-0.7,0.2c-0.2,0-0.4,0.1-0.6,0.1s-0.4,0.1-0.7,0.1
		c-0.2,0-0.5,0.1-0.7,0.1c-0.2,0.1-0.4,0.1-0.7,0.2c-0.2,0.1-0.4,0.2-0.5,0.3s-0.3,0.3-0.4,0.5s-0.1,0.4-0.1,0.7
		c0,0.4,0.1,0.6,0.2,0.9s0.3,0.4,0.5,0.6c0.2,0.1,0.5,0.2,0.7,0.3s0.5,0.1,0.8,0.1c0.1,0,0.2,0,0.4,0s0.3,0,0.4,0v0.8
		c-0.2,0-0.4,0.1-0.6,0.1s-0.4,0-0.6,0c-0.4,0-0.8,0-1.2-0.1c-0.4-0.1-0.7-0.2-1-0.4s-0.5-0.5-0.7-0.8s-0.2-0.7-0.2-1.2
		c0-0.3,0-0.6,0.1-0.9c0.1-0.3,0.2-0.5,0.4-0.7s0.3-0.4,0.5-0.5s0.4-0.3,0.7-0.3c0.2-0.1,0.5-0.2,0.7-0.2s0.5-0.1,0.8-0.1
		c0.6-0.1,1.1-0.2,1.5-0.2c0.4-0.1,0.8-0.2,1.1-0.3c0.3-0.1,0.5-0.3,0.6-0.5s0.2-0.4,0.2-0.8c0-0.3,0-0.5-0.1-0.7s-0.2-0.4-0.3-0.5
		c-0.1-0.1-0.2-0.3-0.4-0.3c-0.2-0.1-0.3-0.2-0.5-0.2s-0.4-0.1-0.6-0.1s-0.4,0-0.6,0c-0.4,0-0.7,0-1,0.1s-0.6,0.2-0.8,0.3
		s-0.4,0.3-0.6,0.6s-0.2,0.6-0.3,1h-1.2c0-0.5,0.2-1,0.4-1.3s0.5-0.7,0.9-0.9s0.8-0.4,1.2-0.5c0.5-0.1,0.9-0.1,1.5-0.1
		c0.2,0,0.5,0,0.7,0s0.5,0.1,0.7,0.1s0.4,0,0.5-0.1c0.2-0.1,0.3-0.1,0.4-0.2c0.1-0.1,0.2-0.2,0.3-0.3c0.1-0.1,0.1-0.3,0.2-0.4h1.3
		c0,0.1-0.1,0.3-0.1,0.4c-0.1,0.1-0.2,0.3-0.3,0.4c-0.1,0.1-0.3,0.3-0.5,0.4C122.6,170.2,122.4,170.3,122.1,170.4z"/>
	<path class="st2" d="M118.4,168.3v-1.7h1.1v0.8h4.8v0.8L118.4,168.3L118.4,168.3z"/>
	<path class="st2" d="M125.2,179.5V170h1.2v5.4c0,0.5,0.1,0.9,0.2,1.3s0.3,0.8,0.6,1c0.3,0.3,0.6,0.5,1,0.7s0.9,0.3,1.4,0.3
		c0.8,0,1.3-0.2,1.7-0.6c0.4-0.4,0.6-1,0.6-1.8V170h1.2v6.2c0,0.5-0.1,1-0.2,1.4c-0.1,0.4-0.3,0.8-0.6,1.1s-0.6,0.5-1,0.7
		s-0.9,0.2-1.5,0.2c-0.3,0-0.7,0-1-0.1c-0.3,0-0.6-0.1-0.9-0.3c-0.3-0.1-0.6-0.3-0.8-0.5c-0.3-0.2-0.5-0.5-0.7-0.9v1.5h-1.2
		L125.2,179.5L125.2,179.5z"/>
	<path class="st2" d="M140.6,170l1.9,8.2l1.7-8.2h1.2l-2.2,9.5h-1.4l-1.8-8.1l-1.9,8.1h-1.4l-2.1-9.5h1.2l1.6,8.2l1.9-8.2H140.6z"/>
	<path class="st2" d="M140.1,168.3v-1.7h1.1v0.8h4.8v0.8L140.1,168.3L140.1,168.3z"/>
	<path class="st2" d="M153.4,179.5V178c-0.2,0.4-0.5,0.7-0.7,0.9s-0.5,0.4-0.8,0.5s-0.6,0.2-0.9,0.3c-0.3,0-0.6,0.1-1,0.1
		c-0.6,0-1.1-0.1-1.5-0.2c-0.4-0.2-0.7-0.4-1-0.7s-0.4-0.7-0.6-1.1c-0.1-0.4-0.2-0.9-0.2-1.4V170h1.2v6.2c0,0.8,0.2,1.4,0.5,1.8
		c0.4,0.4,0.9,0.6,1.7,0.6c0.5,0,1-0.1,1.4-0.3s0.7-0.4,1-0.7s0.5-0.6,0.6-1s0.2-0.8,0.2-1.3V170h1.2v9.5H153.4z"/>
	<path class="st2" d="M157.7,175.1v1.8c0,0.4,0.1,0.7,0.2,0.9c0.1,0.2,0.3,0.4,0.6,0.6s0.5,0.3,0.8,0.3c0.3,0.1,0.6,0.1,0.9,0.1
		c0.2,0,0.4,0,0.6,0s0.4-0.1,0.6-0.1s0.4-0.1,0.5-0.2c0.2-0.1,0.3-0.2,0.4-0.4c0.1-0.1,0.2-0.3,0.3-0.5s0.1-0.4,0.1-0.7
		c0-0.2,0-0.4,0-0.5s-0.1-0.3-0.1-0.4s-0.2-0.2-0.3-0.3s-0.3-0.2-0.5-0.3s-0.5-0.2-0.8-0.3s-0.7-0.2-1.1-0.4
		c-0.5-0.1-0.9-0.3-1.3-0.4c-0.4-0.2-0.7-0.3-1-0.5s-0.5-0.4-0.7-0.7s-0.2-0.6-0.2-0.9c0-0.3,0.1-0.5,0.1-0.7
		c0.1-0.2,0.2-0.4,0.4-0.6c0.2-0.2,0.3-0.3,0.6-0.4c0.2-0.1,0.4-0.2,0.7-0.3s0.5-0.1,0.7-0.2s0.5-0.1,0.8-0.1c0.5,0,1,0,1.4,0.1
		s0.8,0.2,1.2,0.4c0.3,0.2,0.6,0.5,0.8,0.8s0.3,0.7,0.3,1.2h-1.2c0-0.3-0.1-0.6-0.2-0.8c-0.1-0.2-0.3-0.4-0.5-0.5s-0.4-0.2-0.7-0.3
		s-0.6-0.1-0.9-0.1c-0.3,0-0.6,0-0.9,0.1s-0.5,0.1-0.7,0.2c-0.2,0.1-0.4,0.2-0.5,0.4s-0.2,0.3-0.2,0.5s0,0.3,0.1,0.5
		c0.1,0.1,0.2,0.3,0.4,0.4s0.3,0.2,0.5,0.3s0.4,0.2,0.6,0.3c0.2,0.1,0.4,0.1,0.6,0.2c0.2,0.1,0.3,0.1,0.5,0.1
		c0.4,0.1,0.8,0.2,1.1,0.3s0.6,0.2,0.9,0.3c0.3,0.1,0.5,0.2,0.6,0.4c0.2,0.1,0.3,0.3,0.4,0.5c0.1,0.2,0.2,0.4,0.2,0.7
		c0.1,0.2,0.1,0.5,0.1,0.9c0,0.5-0.1,0.9-0.3,1.3s-0.5,0.6-0.8,0.9s-0.7,0.4-1.2,0.5c-0.4,0.1-0.9,0.2-1.4,0.2s-1-0.1-1.4-0.2
		s-0.8-0.3-1.1-0.5s-0.6-0.5-0.8-0.9s-0.3-0.8-0.3-1.3V175L157.7,175.1L157.7,175.1z"/>
	<path class="st2" d="M164.3,166.8c-0.5,0-1,0.2-1.3,0.4s-0.5,0.6-0.6,1h-1.1c0-0.4,0.1-0.7,0.3-0.9c0.2-0.3,0.4-0.5,0.6-0.7
		c0.3-0.2,0.5-0.3,0.9-0.4c0.3-0.1,0.7-0.2,1.2-0.2L164.3,166.8L164.3,166.8z"/>
</g>
<g>
	<path class="st0" d="M72.4,350.2v-9.5h1.1v9.5H72.4z"/>
	<path class="st0" d="M78.2,350.2l-1.9-8.7h-1.2v-0.8h2.2l1.8,8.6l0,0l1.8-8.6h1.2l-2.2,9.5H78.2z"/>
	<path class="st0" d="M78.6,339v-1.5h-0.8v-0.8h1.7v1.4c0.4,0,0.8,0,1.1-0.1s0.5-0.2,0.7-0.3s0.3-0.3,0.4-0.5s0.2-0.3,0.2-0.5H83
		c0,0.1-0.1,0.3-0.1,0.4c-0.1,0.2-0.2,0.3-0.3,0.5c-0.1,0.2-0.3,0.3-0.5,0.5s-0.4,0.3-0.6,0.4s-0.5,0.2-0.8,0.3
		c-0.3,0.1-0.7,0.1-1,0.1h-1.1V339z"/>
	<path class="st0" d="M83.2,343.1c0-0.4,0.1-0.8,0.3-1.1c0.2-0.3,0.4-0.6,0.7-0.8c0.3-0.2,0.7-0.4,1-0.5c0.4-0.1,0.8-0.2,1.2-0.2
		c0.5,0,0.9,0.1,1.3,0.2s0.7,0.3,1,0.6c0.3,0.3,0.5,0.6,0.7,1s0.2,0.8,0.2,1.4v6.6h-1.2v-6.2c0-0.4,0-0.8-0.1-1.1
		c-0.1-0.3-0.2-0.6-0.4-0.8c-0.2-0.2-0.4-0.4-0.6-0.5c-0.3-0.1-0.5-0.1-0.9-0.1c-0.3,0-0.5,0-0.8,0.1c-0.2,0.1-0.4,0.2-0.6,0.3
		c-0.2,0.1-0.3,0.3-0.4,0.5s-0.2,0.5-0.2,0.7h-1.2V343.1z"/>
	<path class="st0" d="M93.5,349.4h1v0.8h-2.2v-8.8c0-0.2,0-0.5,0.1-0.7c0-0.2,0.1-0.4,0.2-0.6s0.2-0.3,0.3-0.5s0.2-0.3,0.4-0.5
		c0.1-0.1,0.2-0.2,0.3-0.3c0.1-0.1,0.2-0.2,0.2-0.3c0.1-0.1,0.1-0.2,0.2-0.3c0-0.1,0.1-0.2,0.1-0.3c0-0.1,0-0.2,0-0.3
		s-0.1-0.2-0.2-0.3c-0.1-0.1-0.2-0.2-0.4-0.2s-0.4-0.1-0.6-0.1s-0.4,0-0.6,0.1s-0.3,0.2-0.4,0.3c-0.1,0.1-0.2,0.3-0.3,0.5
		s-0.1,0.4-0.1,0.6h-1.1c0-0.4,0.1-0.7,0.2-1s0.3-0.5,0.5-0.7s0.5-0.3,0.8-0.4s0.6-0.1,0.9-0.1s0.6,0,0.9,0.1s0.5,0.2,0.7,0.3
		c0.2,0.1,0.3,0.3,0.5,0.5c0.1,0.2,0.2,0.5,0.2,0.8c0,0.1,0,0.2,0,0.3c0,0.1-0.1,0.2-0.1,0.3c-0.1,0.1-0.1,0.2-0.2,0.3
		s-0.2,0.2-0.3,0.4c-0.2,0.2-0.3,0.4-0.4,0.6s-0.2,0.3-0.2,0.5s-0.1,0.3-0.1,0.5s0,0.4,0,0.6v7.9L93.5,349.4L93.5,349.4z"/>
	<path class="st0" d="M97.3,345.6h-1.2v-0.8h2.1l1.5,4.5c0.1-0.3,0.3-0.6,0.4-1c0.1-0.3,0.3-0.7,0.4-1s0.2-0.7,0.4-1
		c0.1-0.3,0.2-0.6,0.3-0.9c0.1-0.3,0.2-0.6,0.2-0.9c0.1-0.3,0.1-0.5,0.1-0.7c0-0.3,0-0.6-0.1-0.9s-0.2-0.5-0.4-0.7s-0.4-0.4-0.7-0.5
		c-0.3-0.1-0.7-0.2-1.1-0.2c-0.7,0-1.3,0.1-1.7,0.4c-0.4,0.3-0.6,0.7-0.7,1.3h-1.3c0-0.4,0.2-0.8,0.3-1.1c0.2-0.3,0.4-0.6,0.7-0.8
		s0.7-0.4,1.1-0.5s1-0.2,1.6-0.2s1.2,0.1,1.6,0.3s0.8,0.4,1,0.7c0.3,0.3,0.4,0.6,0.6,1c0.1,0.4,0.2,0.8,0.1,1.2c0,0.2,0,0.5-0.1,0.8
		s-0.1,0.6-0.3,1c-0.1,0.4-0.2,0.7-0.4,1.1c-0.1,0.4-0.3,0.8-0.4,1.2c-0.2,0.4-0.3,0.8-0.5,1.2c-0.2,0.4-0.3,0.8-0.5,1.2H99
		L97.3,345.6z"/>
	<path class="st0" d="M106.4,348.8c0.1,0.2,0.2,0.4,0.4,0.5c0.2,0.1,0.4,0.2,0.6,0.2s0.3,0,0.4-0.1s0.2-0.1,0.3-0.2
		c0.1-0.1,0.1-0.2,0.2-0.3c0-0.1,0.1-0.2,0.1-0.4v-7H107v-0.8h2.5v7.5c0,0.4-0.1,0.7-0.2,1s-0.3,0.5-0.4,0.7
		c-0.2,0.2-0.4,0.3-0.7,0.4c-0.3,0.1-0.5,0.1-0.9,0.1c-0.3,0-0.6,0-0.8-0.1s-0.4-0.2-0.6-0.3c-0.2-0.1-0.3-0.3-0.4-0.5
		s-0.2-0.4-0.3-0.7l-1.4-4h1.2L106.4,348.8z"/>
	<path class="st0" d="M108.3,336.3h1.1v2.6h-1.1V336.3z"/>
	<path class="st0" d="M110.8,343.1c0-0.4,0.1-0.8,0.3-1.1c0.2-0.3,0.4-0.6,0.7-0.8c0.3-0.2,0.7-0.4,1-0.5c0.4-0.1,0.8-0.2,1.2-0.2
		c0.5,0,0.9,0.1,1.3,0.2s0.7,0.3,1,0.6c0.3,0.3,0.5,0.6,0.7,1s0.2,0.8,0.2,1.4v6.6H116v-6.2c0-0.4,0-0.8-0.1-1.1
		c-0.1-0.3-0.2-0.6-0.4-0.8c-0.2-0.2-0.4-0.4-0.6-0.5c-0.3-0.1-0.5-0.1-0.9-0.1c-0.3,0-0.5,0-0.8,0.1c-0.2,0.1-0.4,0.2-0.6,0.3
		c-0.2,0.1-0.3,0.3-0.4,0.5s-0.2,0.5-0.2,0.7h-1.2V343.1z"/>
	<path class="st0" d="M119.1,342.8c0-0.3,0-0.5,0.1-0.7s0.2-0.4,0.3-0.6c0.1-0.2,0.3-0.3,0.4-0.4c0.2-0.1,0.3-0.2,0.5-0.2
		c0.2-0.1,0.4-0.1,0.6-0.1s0.4,0,0.5,0h1.1v0.9H122c-0.1,0-0.2,0-0.3,0c-0.1,0-0.2,0-0.4,0c-0.1,0-0.2,0.1-0.4,0.1s-0.2,0.1-0.3,0.2
		c-0.1,0.1-0.2,0.2-0.2,0.4c-0.1,0.1-0.1,0.3-0.1,0.5c0,0.3,0,0.5,0.1,0.7s0.2,0.4,0.4,0.5c0.2,0.1,0.3,0.2,0.6,0.3
		c0.2,0.1,0.4,0.1,0.7,0.1h0.6v0.9H122c-0.3,0-0.5,0.1-0.7,0.1c-0.2,0.1-0.4,0.2-0.5,0.4s-0.3,0.3-0.4,0.6c-0.1,0.2-0.1,0.5-0.1,0.8
		c0,0.4,0.1,0.7,0.2,1s0.3,0.5,0.6,0.7c0.2,0.2,0.5,0.3,0.8,0.4s0.6,0.1,1,0.1s0.8-0.1,1.1-0.2c0.3-0.1,0.6-0.3,0.8-0.5
		c0.2-0.2,0.4-0.5,0.5-0.9s0.2-0.8,0.2-1.3v-5.9h1.1v6.2c0,0.6-0.1,1.1-0.3,1.5c-0.2,0.4-0.5,0.8-0.8,1.1c-0.3,0.3-0.7,0.5-1.2,0.7
		c-0.5,0.1-1,0.2-1.5,0.2c-0.3,0-0.6,0-1-0.1s-0.6-0.1-0.9-0.2s-0.6-0.3-0.8-0.4c-0.2-0.2-0.5-0.4-0.6-0.6c-0.2-0.2-0.3-0.5-0.4-0.8
		s-0.1-0.6-0.1-1c0-0.3,0-0.5,0.1-0.7c0-0.2,0.1-0.5,0.2-0.7s0.3-0.4,0.5-0.5s0.5-0.3,0.8-0.4c-0.4-0.1-0.7-0.3-0.9-0.4
		c-0.2-0.2-0.4-0.4-0.5-0.6s-0.2-0.4-0.2-0.6S119.1,343,119.1,342.8z"/>
	<path class="st0" d="M130,348.8l2.7-3.2h-1.1v-0.8h2.3v0.8l-3.8,4.6h-1.3v-5.6c0-0.4,0-0.7,0.1-1s0.1-0.7,0.3-1
		c0.1-0.3,0.3-0.6,0.5-0.8c0.2-0.3,0.4-0.5,0.7-0.6s0.6-0.3,1-0.4s0.9-0.1,1.4-0.1s1,0,1.4,0.1s0.7,0.2,1,0.4s0.5,0.4,0.7,0.6
		s0.4,0.5,0.5,0.8s0.2,0.6,0.3,1s0.1,0.7,0.1,1v5.6h-1.2v-5.8c0-0.2,0-0.5-0.1-0.7c0-0.2-0.1-0.5-0.2-0.7c-0.1-0.2-0.2-0.4-0.3-0.6
		s-0.3-0.3-0.5-0.5c-0.2-0.1-0.5-0.2-0.7-0.3s-0.6-0.1-1-0.1s-0.7,0-1,0.1s-0.5,0.2-0.7,0.3c-0.2,0.1-0.4,0.3-0.5,0.5
		s-0.3,0.4-0.3,0.6c-0.1,0.2-0.1,0.5-0.2,0.7c0,0.2-0.1,0.5-0.1,0.7L130,348.8L130,348.8z"/>
	<path class="st0" d="M133.6,339v-1.5h-0.8v-0.8h1.7v1.4c0.4,0,0.8,0,1.1-0.1s0.5-0.2,0.7-0.3s0.3-0.3,0.4-0.5
		c0.1-0.2,0.2-0.3,0.2-0.5h1.1c0,0.1-0.1,0.3-0.1,0.4c-0.1,0.2-0.2,0.3-0.3,0.5s-0.3,0.3-0.5,0.5s-0.4,0.3-0.6,0.4s-0.5,0.2-0.8,0.3
		c-0.3,0.1-0.7,0.1-1,0.1h-1.1L133.6,339L133.6,339z"/>
	<path class="st0" d="M144.3,345.4c0-0.7-0.1-1.3-0.2-1.8s-0.3-0.9-0.5-1.2c-0.2-0.3-0.5-0.6-0.8-0.7c-0.3-0.2-0.7-0.2-1.1-0.2
		c-0.3,0-0.5,0-0.8,0.1s-0.5,0.2-0.7,0.4c-0.2,0.2-0.4,0.4-0.5,0.7c-0.1,0.3-0.2,0.6-0.3,1h-1.2c0-0.5,0.2-0.9,0.3-1.3
		c0.2-0.4,0.4-0.7,0.7-1s0.7-0.5,1.1-0.6s0.9-0.2,1.3-0.2c0.6,0,1.2,0.1,1.7,0.3c0.5,0.2,0.9,0.6,1.2,1s0.5,0.9,0.7,1.5
		s0.2,1.3,0.2,2c0,0.8-0.1,1.4-0.2,2s-0.4,1.1-0.7,1.6c-0.3,0.4-0.7,0.8-1.2,1s-1,0.4-1.7,0.4c-0.5,0-0.9-0.1-1.3-0.2
		s-0.8-0.4-1.1-0.6c-0.3-0.3-0.5-0.6-0.7-1s-0.3-0.8-0.3-1.3h1.2c0.1,0.4,0.1,0.7,0.3,1s0.3,0.5,0.5,0.7s0.4,0.3,0.7,0.4
		s0.5,0.1,0.8,0.1c0.4,0,0.7-0.1,1-0.2c0.3-0.2,0.6-0.4,0.8-0.7s0.4-0.8,0.5-1.3C144.2,346.7,144.3,346.1,144.3,345.4z"/>
	<path class="st0" d="M146.8,342.8c0-0.3,0-0.5,0.1-0.7s0.2-0.4,0.3-0.6s0.3-0.3,0.4-0.4c0.2-0.1,0.3-0.2,0.5-0.2
		c0.2-0.1,0.4-0.1,0.6-0.1c0.2,0,0.4,0,0.5,0h1.1v0.9h-0.6c-0.1,0-0.2,0-0.3,0s-0.2,0-0.4,0c-0.1,0-0.2,0.1-0.4,0.1
		s-0.2,0.1-0.3,0.2s-0.2,0.2-0.2,0.4c-0.1,0.1-0.1,0.3-0.1,0.5c0,0.3,0,0.5,0.1,0.7s0.2,0.4,0.4,0.5s0.3,0.2,0.6,0.3
		c0.2,0.1,0.4,0.1,0.7,0.1h0.6v0.9h-0.6c-0.3,0-0.5,0.1-0.7,0.1c-0.2,0.1-0.4,0.2-0.5,0.4s-0.3,0.3-0.4,0.6
		c-0.1,0.2-0.1,0.5-0.1,0.8c0,0.4,0.1,0.7,0.2,1s0.3,0.5,0.6,0.7c0.2,0.2,0.5,0.3,0.8,0.4s0.6,0.1,1,0.1s0.8-0.1,1.1-0.2
		s0.6-0.3,0.8-0.5s0.4-0.5,0.5-0.9s0.2-0.8,0.2-1.3v-5.9h1.1v6.2c0,0.6-0.1,1.1-0.3,1.5s-0.5,0.8-0.8,1.1c-0.3,0.3-0.7,0.5-1.2,0.7
		c-0.5,0.1-1,0.2-1.5,0.2c-0.3,0-0.6,0-1-0.1s-0.6-0.1-0.9-0.2c-0.3-0.1-0.6-0.3-0.8-0.4c-0.2-0.2-0.5-0.4-0.6-0.6
		c-0.2-0.2-0.3-0.5-0.4-0.8c-0.1-0.3-0.1-0.6-0.1-1c0-0.3,0-0.5,0.1-0.7c0-0.2,0.1-0.5,0.2-0.7c0.1-0.2,0.3-0.4,0.5-0.5
		s0.5-0.3,0.8-0.4c-0.4-0.1-0.7-0.3-0.9-0.4c-0.2-0.2-0.4-0.4-0.5-0.6s-0.2-0.4-0.2-0.6S146.8,343,146.8,342.8z"/>
	<path class="st0" d="M63.1,358.9h1.2v11.3h-1.2C63.1,370.2,63.1,358.9,63.1,358.9z"/>
	<path class="st0" d="M74.1,370.2l-6.4-9.8v9.8h-1.2v-11.3H68l6.3,9.7v-9.7h1.2v11.3H74.1z"/>
	<path class="st0" d="M77.7,358.9h7.2v1h-6v3.9h5.3v1h-5.3v5.3h-1.2V358.9z"/>
	<path class="st0" d="M85.6,364.5c0-0.5,0-1,0.1-1.5s0.2-1,0.4-1.4c0.2-0.4,0.4-0.8,0.7-1.2s0.6-0.7,1-0.9c0.4-0.3,0.8-0.5,1.3-0.6
		s1-0.2,1.6-0.2s1.1,0.1,1.6,0.2s0.9,0.4,1.3,0.6c0.4,0.3,0.7,0.6,1,0.9s0.5,0.8,0.7,1.2c0.2,0.4,0.3,0.9,0.4,1.4s0.1,1,0.1,1.5
		s0,1-0.1,1.5s-0.2,1-0.4,1.4c-0.2,0.4-0.4,0.8-0.7,1.2s-0.6,0.7-1,0.9c-0.4,0.3-0.8,0.5-1.3,0.6s-1,0.2-1.6,0.2s-1.1-0.1-1.6-0.2
		s-0.9-0.4-1.3-0.6c-0.4-0.3-0.7-0.6-1-0.9s-0.5-0.8-0.7-1.2c-0.2-0.4-0.3-0.9-0.4-1.4S85.6,365.1,85.6,364.5z M86.8,364.5
		c0,0.4,0,0.8,0.1,1.2c0.1,0.4,0.2,0.8,0.3,1.1s0.3,0.7,0.5,1s0.5,0.6,0.8,0.8s0.7,0.4,1.1,0.5s0.8,0.2,1.3,0.2s0.9-0.1,1.3-0.2
		s0.7-0.3,1.1-0.5s0.6-0.5,0.8-0.8c0.2-0.3,0.4-0.6,0.5-1s0.2-0.7,0.3-1.1c0.1-0.4,0.1-0.8,0.1-1.2c0-0.4,0-0.8-0.1-1.2
		s-0.2-0.8-0.3-1.1s-0.3-0.7-0.5-1s-0.5-0.6-0.8-0.8c-0.3-0.2-0.7-0.4-1.1-0.5s-0.8-0.2-1.3-0.2s-0.9,0.1-1.3,0.2s-0.7,0.3-1.1,0.5
		c-0.3,0.2-0.6,0.5-0.8,0.8c-0.2,0.3-0.4,0.6-0.5,1s-0.2,0.7-0.3,1.1C86.8,363.7,86.8,364.1,86.8,364.5z"/>
	<path class="st0" d="M107.5,370.2h-0.9l-0.2-1.9c-0.2,0.4-0.4,0.7-0.7,1c-0.3,0.3-0.6,0.5-0.9,0.7s-0.7,0.3-1.1,0.4
		s-0.8,0.1-1.1,0.1c-0.6,0-1.1-0.1-1.6-0.2s-0.9-0.4-1.3-0.6c-0.4-0.3-0.7-0.6-1-0.9s-0.5-0.8-0.7-1.2s-0.3-0.9-0.4-1.4
		s-0.1-1-0.1-1.5s0-1,0.1-1.5s0.2-1,0.4-1.4s0.4-0.8,0.7-1.2s0.6-0.7,1-0.9c0.4-0.3,0.8-0.5,1.3-0.6s1-0.2,1.6-0.2s1.2,0.1,1.7,0.2
		c0.5,0.2,1,0.4,1.4,0.7c0.4,0.3,0.8,0.7,1,1.2c0.3,0.5,0.5,1,0.6,1.7h-1.2c0-0.2-0.1-0.4-0.2-0.7s-0.2-0.4-0.3-0.6
		c-0.1-0.2-0.3-0.4-0.5-0.6s-0.4-0.3-0.7-0.5c-0.3-0.1-0.5-0.2-0.8-0.3s-0.6-0.1-1-0.1c-0.5,0-0.9,0.1-1.3,0.2s-0.8,0.3-1.1,0.5
		c-0.3,0.2-0.6,0.5-0.8,0.8s-0.4,0.6-0.6,1s-0.3,0.7-0.3,1.1s-0.1,0.8-0.1,1.2s0,0.8,0.1,1.2c0.1,0.4,0.2,0.8,0.3,1.1s0.3,0.7,0.6,1
		s0.5,0.6,0.8,0.8s0.7,0.4,1.1,0.5s0.8,0.2,1.3,0.2c0.6,0,1.2-0.1,1.6-0.3c0.5-0.2,0.9-0.5,1.2-0.8c0.3-0.4,0.6-0.8,0.7-1.3
		c0.2-0.5,0.2-1,0.2-1.6h-3.8v-1h4.8v5.7L107.5,370.2L107.5,370.2z"/>
	<path class="st0" d="M109.6,358.9h5.1c0.3,0,0.6,0,0.9,0.1s0.6,0.1,0.8,0.2s0.5,0.2,0.7,0.4s0.4,0.4,0.5,0.6
		c0.2,0.2,0.3,0.5,0.4,0.8s0.1,0.6,0.1,0.9s0,0.7-0.1,1s-0.2,0.6-0.4,0.8c-0.2,0.2-0.4,0.5-0.6,0.7s-0.5,0.3-0.9,0.4
		c0.3,0.1,0.6,0.2,0.8,0.3c0.2,0.1,0.4,0.3,0.5,0.5s0.2,0.5,0.3,0.7c0.1,0.3,0.1,0.6,0.1,0.9c0,0,0,0.1,0,0.2s0,0.1,0,0.2
		c0,0.2,0,0.4,0,0.7c0,0.2,0,0.5,0.1,0.7s0.1,0.5,0.2,0.7s0.2,0.4,0.3,0.5h-1.3c-0.1-0.1-0.1-0.2-0.2-0.4c0-0.1-0.1-0.3-0.1-0.4
		s0-0.3,0-0.4s0-0.3,0-0.4c0-0.3,0-0.6-0.1-0.9c0-0.3-0.1-0.5-0.1-0.8c-0.1-0.2-0.1-0.5-0.2-0.7s-0.2-0.4-0.4-0.5
		c-0.2-0.1-0.4-0.3-0.6-0.3c-0.2-0.1-0.5-0.1-0.9-0.1h-3.9v4.9h-1.2v-11.3L109.6,358.9L109.6,358.9z M110.8,364.3h3.9
		c0.3,0,0.6,0,0.9-0.1s0.5-0.2,0.8-0.4s0.4-0.4,0.5-0.7c0.1-0.3,0.2-0.6,0.2-0.9s0-0.6-0.1-0.9s-0.2-0.5-0.4-0.7
		c-0.2-0.2-0.4-0.3-0.7-0.4c-0.3-0.1-0.6-0.2-1-0.2H111v4.3L110.8,364.3L110.8,364.3z"/>
	<path class="st0" d="M123.4,358.9h1.3l4.4,11.3h-1.3l-1.4-3.5h-5l-1.4,3.5h-1.3L123.4,358.9z M121.9,365.7h4.2l-2.1-5.5
		L121.9,365.7z"/>
	<path class="st0" d="M130.1,358.9h5c0.5,0,1,0.1,1.4,0.2s0.8,0.4,1.1,0.6s0.5,0.6,0.7,1s0.2,0.9,0.2,1.4s-0.1,1-0.2,1.4
		c-0.2,0.4-0.4,0.7-0.7,1s-0.7,0.5-1.1,0.6c-0.4,0.1-0.9,0.2-1.4,0.2h-3.8v4.7h-1.2V358.9z M131.3,364.4h3.5c0.4,0,0.7,0,1-0.1
		s0.6-0.2,0.8-0.4s0.4-0.4,0.5-0.7c0.1-0.3,0.2-0.6,0.2-1s-0.1-0.7-0.2-1c-0.1-0.3-0.3-0.5-0.5-0.7s-0.5-0.3-0.8-0.4s-0.6-0.1-1-0.1
		h-3.5V364.4z"/>
	<path class="st0" d="M140,358.9h1.2v4.9h6.5v-4.9h1.2v11.3h-1.2v-5.4h-6.5v5.4H140V358.9z"/>
	<path class="st0" d="M151.2,358.9h1.2v11.3h-1.2V358.9z"/>
	<path class="st0" d="M162.8,362.4c-0.1-0.4-0.3-0.8-0.5-1.2s-0.5-0.6-0.8-0.9c-0.3-0.2-0.6-0.4-1-0.5s-0.7-0.2-1.2-0.2
		s-0.9,0.1-1.3,0.2s-0.8,0.3-1.1,0.5s-0.6,0.5-0.8,0.8s-0.4,0.6-0.6,1s-0.3,0.7-0.3,1.1s-0.1,0.8-0.1,1.2s0,0.8,0.1,1.2
		c0.1,0.4,0.2,0.8,0.3,1.1s0.3,0.7,0.6,1s0.5,0.6,0.8,0.8s0.7,0.4,1.1,0.5s0.8,0.2,1.3,0.2s1-0.1,1.4-0.3c0.4-0.2,0.8-0.4,1.1-0.8
		c0.3-0.3,0.5-0.7,0.7-1.2s0.3-0.9,0.4-1.4h1.2c-0.1,0.7-0.2,1.3-0.5,1.9s-0.6,1.1-1,1.5s-0.9,0.7-1.4,0.9c-0.5,0.2-1.1,0.3-1.8,0.3
		c-0.6,0-1.1-0.1-1.6-0.2s-0.9-0.4-1.3-0.6c-0.4-0.3-0.7-0.6-1-0.9s-0.5-0.8-0.7-1.2s-0.3-0.9-0.4-1.4c-0.1-0.5-0.1-1-0.1-1.5
		s0-1,0.1-1.5s0.2-1,0.4-1.4s0.4-0.8,0.7-1.2s0.6-0.7,1-0.9c0.4-0.3,0.8-0.5,1.3-0.6s1-0.2,1.6-0.2c0.4,0,0.7,0,1.1,0.1
		c0.4,0.1,0.7,0.2,1,0.3c0.3,0.1,0.6,0.3,0.9,0.5c0.3,0.2,0.5,0.5,0.7,0.7c0.2,0.3,0.4,0.6,0.5,0.9s0.2,0.7,0.3,1.1h-1.1
		L162.8,362.4L162.8,362.4z"/>
</g>
<g>
	<circle class="st4" cx="213.7" cy="163.4" r="9.5"/>
	<circle class="st3" cx="319.6" cy="509" r="9.5"/>
	<circle class="st5" cx="662.7" cy="402.8" r="9.5"/>
</g>
</svg>
